<svg width="1440" height="1024" viewBox="0 0 1440 1024" fill="none" xmlns="http://www.w3.org/2000/svg">
<mask id="mask0_613_21" style="mask-type:alpha" maskUnits="userSpaceOnUse" x="0" y="0" width="1440" height="1024">
<rect width="1440" height="1024" fill="#C4C4C4"/>
</mask>
<g mask="url(#mask0_613_21)">
<path d="M1510.19 -138C1510.19 -138 1179.69 245 1170.19 520C1160.69 795 1510.19 1307.5 1510.19 1307.5" stroke="#BEF745" stroke-width="3"/>
<path d="M-88 56C-88 56 364 260 541.5 192C719 124 1288 522.5 1241.5 746.5C1195 970.5 1205 979.5 1241.5 1060C1278 1140.5 1477.5 1023.5 1475 1237.5" stroke="white" stroke-width="3"/>
<path d="M1242.13 279.302L958.999 646.963L1112.67 640.385L1167.54 735.249L1573.05 438.802" stroke="#45F7E1"/>
<path d="M1151.28 753.759C989.113 1007.2 613.247 -28.6132 882.261 203.527C1151.28 435.668 1581.83 -425.309 1376.92 203.527C1172.02 832.363 1524 753.759 1524 753.759" stroke="white"/>
<path d="M1048.76 353.77C1048.76 353.77 749.941 633.487 784.645 390.007C819.348 146.527 1255.65 682.103 1255.65 682.103" stroke="#45F7E1"/>
<path d="M1482.47 1064.26C1431.23 900.603 751.515 1038.05 1100.81 1118.97C1450.1 1199.9 1114.8 190.764 800.563 670.98C486.325 1151.2 1567.47 890.923 1477.05 631.458" stroke="#45F7E1"/>
<path d="M-68 1051.03C-68 1051.03 1261.4 884.975 1066 819.545C870.599 754.116 838.195 206.283 942 201.043C1045.81 195.804 1260.5 667.53 1316 445.03C1371.5 222.531 1501.5 868.532 1501.5 868.532" stroke="white" stroke-width="3"/>
</g>
</svg>
