<svg width="236" height="125" viewBox="0 0 236 125" fill="none" xmlns="http://www.w3.org/2000/svg">
<path d="M25.48 26L30.016 0.223999H21.88L10.612 16.208H10.252L13.06 0.223999H5.968L1.432 26H9.568L20.836 10.052H21.196L18.352 26H25.48ZM29.0882 26H35.8202L37.0082 19.376H42.3722L41.2202 26H47.9522L51.2642 7.46H44.4962L43.3442 13.976H37.9802L39.1322 7.46H32.3642L29.0882 26ZM55.8831 26H62.6511L64.9911 12.824H70.8231L71.7951 7.424H53.3271L52.3551 12.824H58.2231L55.8831 26ZM80.0799 26.468C84.7959 26.468 89.0079 24.344 90.5199 20.888L84.9039 19.772C84.1479 20.96 82.8159 21.824 81.1599 21.824C79.1439 21.824 78.0639 20.6 77.9559 18.584H91.5279C91.6719 18.224 91.8879 17.288 91.9239 16.784C93.0039 10.808 89.6199 6.956 83.4999 6.956C77.3799 6.956 72.4119 10.7 71.3679 16.568C70.2879 22.58 73.8879 26.468 80.0799 26.468ZM78.5319 14.984C79.2519 12.932 80.7639 11.6 82.6359 11.6C84.5439 11.6 85.6599 13.076 85.4799 14.912L78.5319 14.984ZM92.6858 26H99.4178L101.758 12.824H110.182L111.154 7.424H95.9618L92.6858 26ZM125.822 6.956C123.41 6.956 121.538 7.856 120.026 9.548L119.666 9.584L120.062 7.424H113.294L108.578 34.28H115.31L117.146 23.84L117.542 23.804C118.442 25.496 120.062 26.468 122.474 26.468C127.334 26.468 131.33 22.652 132.338 16.784C133.418 10.772 130.754 6.956 125.822 6.956ZM122.654 12.608C124.778 12.608 126.038 14.336 125.642 16.64C125.21 19.016 123.302 20.816 121.07 20.816C118.946 20.816 117.722 19.088 118.118 16.784C118.514 14.408 120.458 12.608 122.654 12.608ZM140.778 26.468C143.406 26.468 145.35 25.388 147.006 23.3L147.366 23.264L146.862 26H153.63L156.906 7.424H150.174L149.67 10.232L149.274 10.268C148.338 8.216 146.826 6.956 144.126 6.956C139.23 6.956 135.27 10.772 134.262 16.64C133.182 22.652 135.774 26.468 140.778 26.468ZM143.946 20.816C141.786 20.816 140.562 19.124 140.994 16.784C141.39 14.372 143.298 12.608 145.53 12.608C147.654 12.608 148.914 14.3 148.482 16.64C148.086 19.052 146.178 20.816 143.946 20.816ZM172.723 31.4H178.123L179.995 20.6H177.259L179.599 7.424H172.867L170.527 20.6H164.515L166.855 7.424H160.087L156.811 26H173.659L172.723 31.4ZM180.963 26H187.947L195.219 16.388H195.579L193.851 26H200.619L203.895 7.424H196.947L189.639 17.18H189.279L191.007 7.424H184.239L180.963 26ZM202.7 26H210.188L214.22 20.996H215.408L214.544 26H221.528L224.84 7.424H214.22C209.54 7.424 205.76 10.304 205.04 14.3C204.608 16.856 205.652 19.232 207.992 20.312L202.7 26ZM213.896 16.352C212.42 16.352 211.556 15.56 211.772 14.408C211.988 13.184 213.212 12.32 214.652 12.32H217.208L216.488 16.352H213.896Z" fill="#45F7E1"/>
<path d="M1.264 88H6.328L7.552 81.112H13.432L12.208 88H17.272L20.32 70.816H15.256L14.128 77.152H8.248L9.352 70.816H4.288L1.264 88ZM24.646 88.312C26.398 88.312 27.694 87.592 28.798 86.2L29.038 86.176L28.702 88H33.214L35.398 75.616H30.91L30.574 77.488L30.31 77.512C29.686 76.144 28.678 75.304 26.878 75.304C23.614 75.304 20.974 77.848 20.302 81.76C19.582 85.768 21.31 88.312 24.646 88.312ZM26.758 84.544C25.318 84.544 24.502 83.416 24.79 81.856C25.054 80.248 26.326 79.072 27.814 79.072C29.23 79.072 30.07 80.2 29.782 81.76C29.518 83.368 28.246 84.544 26.758 84.544ZM44.2628 73.768C46.4708 73.768 48.3188 72.256 48.7028 70.12L45.9908 70.072C45.8228 71.032 45.2948 71.632 44.5748 71.632C43.8788 71.632 43.5908 71.08 43.7588 70.12L41.0468 70.072C40.6868 72.208 42.0068 73.768 44.2628 73.768ZM35.3348 88H39.9908L44.8388 81.592H45.0788L43.9268 88H48.4388L50.6228 75.616H45.9908L41.1188 82.12H40.8788L42.0308 75.616H37.5188L35.3348 88ZM49.1543 91.6H52.7543L53.3783 88H62.6423L62.0183 91.6H65.5943L66.8663 84.4H64.8503L66.4103 75.616H55.5863L54.3143 79.96C53.6423 82.216 52.9703 84.016 51.8663 84.4H50.4263L49.1543 91.6ZM56.3303 84.4L56.3783 84.184C57.2423 83.536 57.6263 82.84 57.9623 81.784L58.7783 79.216H61.2743L60.3623 84.4H56.3303ZM67.7254 88H72.3814L77.2294 81.592H77.4694L76.3174 88H80.8294L83.0134 75.616H78.3814L73.5094 82.12H73.2694L74.4214 75.616H69.9094L67.7254 88ZM95.1329 88.312C98.6609 88.312 101.541 86.488 102.501 83.368L98.4449 82.84C97.9889 83.92 96.8849 84.712 95.7329 84.712C94.3409 84.712 93.5489 83.536 93.8369 81.856C94.1489 80.128 95.4449 78.904 96.8609 78.904C97.9169 78.904 98.7569 79.648 98.8049 80.752L103.029 80.272C103.197 77.176 100.941 75.304 97.3649 75.304C93.2369 75.304 90.0689 77.8 89.3489 81.76C88.6769 85.72 91.0529 88.312 95.1329 88.312ZM109.9 88.312C114.148 88.312 117.292 85.888 118.012 81.856C118.732 77.8 116.404 75.304 112.132 75.304C107.884 75.304 104.74 77.728 104.02 81.76C103.324 85.84 105.628 88.312 109.9 88.312ZM110.5 84.544C109.036 84.544 108.244 83.44 108.508 81.856C108.796 80.224 110.044 79.072 111.532 79.072C112.996 79.072 113.788 80.176 113.524 81.76C113.236 83.392 111.988 84.544 110.5 84.544ZM130.395 88.48C134.355 88.48 137.427 85.816 138.123 81.88C138.819 77.896 136.659 75.136 132.675 75.136C129.339 75.136 126.747 77.152 125.619 80.224L124.371 80.248L125.187 75.616H120.675L118.491 88H122.979L123.771 83.488H125.067C125.115 86.512 127.083 88.48 130.395 88.48ZM130.995 84.544C129.627 84.544 128.955 83.488 129.243 81.88C129.507 80.2 130.635 79.072 132.051 79.072C133.419 79.072 134.091 80.152 133.803 81.784C133.515 83.464 132.411 84.544 130.995 84.544ZM144.456 88.312C147.864 88.312 150.528 86.896 150.936 84.664C151.176 83.248 150.456 82.096 149.16 81.736L149.256 81.496C150.48 81.16 151.344 80.296 151.56 79.048C151.968 76.768 149.856 75.304 146.616 75.304C143.04 75.304 140.376 77.032 139.872 79.888L143.88 79.936C144.048 79 144.84 78.4 145.944 78.4C146.88 78.4 147.456 78.808 147.336 79.408C147.24 80.032 146.52 80.464 145.656 80.464H144.6L144.168 82.888H145.248C146.16 82.888 146.76 83.272 146.616 83.944C146.496 84.688 145.704 85.216 144.696 85.216C143.52 85.216 142.896 84.52 143.088 83.368L138.912 83.32C138.36 86.44 140.544 88.312 144.456 88.312ZM151.749 88H156.237L157.029 83.584H160.605L159.837 88H164.325L166.533 75.64H162.021L161.253 79.984H157.677L158.445 75.64H153.933L151.749 88ZM166.444 88H171.1L175.948 81.592H176.188L175.036 88H179.548L181.732 75.616H177.1L172.228 82.12H171.988L173.14 75.616H168.628L166.444 88ZM181.632 88H186.144L187.032 83.032H187.272L189.624 88H194.928L191.4 81.568L197.064 75.616H191.76L187.776 80.152H187.536L188.328 75.616H183.84L181.632 88ZM199.935 88.312C201.687 88.312 202.983 87.592 204.087 86.2L204.327 86.176L203.991 88H208.503L210.687 75.616H206.199L205.863 77.488L205.599 77.512C204.975 76.144 203.967 75.304 202.167 75.304C198.903 75.304 196.263 77.848 195.591 81.76C194.871 85.768 196.599 88.312 199.935 88.312ZM202.047 84.544C200.607 84.544 199.791 83.416 200.079 81.856C200.343 80.248 201.615 79.072 203.103 79.072C204.519 79.072 205.359 80.2 205.071 81.76C204.807 83.368 203.535 84.544 202.047 84.544ZM0.952 119H5.608L10.456 112.592H10.696L9.544 119H14.056L16.24 106.616H11.608L6.736 113.12H6.496L7.648 106.616H3.136L0.952 119ZM25.1434 119H29.6554L31.2154 110.216H35.1034L35.7514 106.616H23.4394L22.7914 110.216H26.7034L25.1434 119ZM39.7866 119.312C41.5386 119.312 42.8346 118.592 43.9386 117.2L44.1786 117.176L43.8426 119H48.3546L50.5386 106.616H46.0506L45.7146 108.488L45.4506 108.512C44.8266 107.144 43.8186 106.304 42.0186 106.304C38.7546 106.304 36.1146 108.848 35.4426 112.76C34.7226 116.768 36.4506 119.312 39.7866 119.312ZM41.8986 115.544C40.4586 115.544 39.6426 114.416 39.9306 112.856C40.1946 111.248 41.4666 110.072 42.9546 110.072C44.3706 110.072 45.2106 111.2 44.9226 112.76C44.6586 114.368 43.3866 115.544 41.8986 115.544ZM50.4754 119H54.9634L55.7554 114.584H59.3314L58.5634 119H63.0514L65.2594 106.64H60.7474L59.9794 110.984H56.4034L57.1714 106.64H52.6594L50.4754 119ZM75.7788 122.6H79.3788L80.6268 115.4H78.8028L80.3628 106.616H75.8748L74.3148 115.4H70.3068L71.8668 106.616H67.3548L65.1707 119H76.4028L75.7788 122.6ZM83.2566 124.64C85.8486 124.64 87.6486 123.056 89.5206 119.6L96.5046 106.616H91.8726L88.5126 113.456H88.2726L86.6886 106.616H81.8406L85.7046 119.168C85.1526 120.128 84.2886 121.064 82.8966 121.064C82.2966 121.064 81.5046 120.92 81.0006 120.704L80.4246 124.184C81.0726 124.448 82.3446 124.64 83.2566 124.64ZM104.38 104.768C106.588 104.768 108.436 103.256 108.82 101.12L106.108 101.072C105.94 102.032 105.412 102.632 104.692 102.632C103.996 102.632 103.708 102.08 103.876 101.12L101.164 101.072C100.804 103.208 102.124 104.768 104.38 104.768ZM95.452 119H100.108L104.956 112.592H105.196L104.044 119H108.556L110.74 106.616H106.108L101.236 113.12H100.996L102.148 106.616H97.636L95.452 119ZM113.808 119H118.32L119.88 110.216H123.768L124.416 106.616H112.104L111.456 110.216H115.368L113.808 119ZM129.939 119.312C133.083 119.312 135.891 117.896 136.899 115.592L133.155 114.848C132.651 115.64 131.763 116.216 130.659 116.216C129.315 116.216 128.595 115.4 128.523 114.056H137.571C137.667 113.816 137.811 113.192 137.835 112.856C138.555 108.872 136.299 106.304 132.219 106.304C128.139 106.304 124.827 108.8 124.131 112.712C123.411 116.72 125.811 119.312 129.939 119.312ZM128.907 111.656C129.387 110.288 130.395 109.4 131.643 109.4C132.915 109.4 133.659 110.384 133.539 111.608L128.907 111.656ZM144.179 119H151.643C154.451 119 156.563 117.656 156.947 115.544C157.187 114.08 156.491 113.144 155.099 112.76L155.171 112.52C156.251 112.184 157.187 111.152 157.403 109.928C157.739 108.032 156.251 106.616 153.467 106.616H146.363L144.179 119ZM149.675 111.44L150.059 109.352H152.075C152.843 109.352 153.251 109.784 153.155 110.384C153.035 110.984 152.435 111.44 151.667 111.44H149.675ZM148.835 116.264L149.219 114.008H151.235C152.075 114.008 152.531 114.44 152.411 115.088C152.291 115.76 151.643 116.264 150.803 116.264H148.835ZM157.843 119H162.331L163.579 112.088H163.819L165.187 119H168.259L172.099 112.064H172.315L171.091 119H175.603L177.787 106.616H172.099L167.563 114.776H167.323L165.715 106.616H160.027L157.843 119ZM184.126 119.312C187.27 119.312 190.078 117.896 191.086 115.592L187.342 114.848C186.838 115.64 185.95 116.216 184.846 116.216C183.502 116.216 182.782 115.4 182.71 114.056H191.758C191.854 113.816 191.998 113.192 192.022 112.856C192.742 108.872 190.486 106.304 186.406 106.304C182.326 106.304 179.014 108.8 178.318 112.712C177.598 116.72 179.998 119.312 184.126 119.312ZM183.094 111.656C183.574 110.288 184.582 109.4 185.83 109.4C187.102 109.4 187.846 110.384 187.726 111.608L183.094 111.656ZM199.078 119.312C202.606 119.312 205.486 117.488 206.446 114.368L202.39 113.84C201.934 114.92 200.83 115.712 199.678 115.712C198.286 115.712 197.494 114.536 197.782 112.856C198.094 111.128 199.39 109.904 200.806 109.904C201.862 109.904 202.702 110.648 202.75 111.752L206.974 111.272C207.142 108.176 204.886 106.304 201.31 106.304C197.182 106.304 194.014 108.8 193.294 112.76C192.622 116.72 194.998 119.312 199.078 119.312ZM210.323 119H214.835L216.395 110.216H220.283L220.931 106.616H208.619L207.971 110.216H211.883L210.323 119ZM226.454 119.312C229.598 119.312 232.406 117.896 233.414 115.592L229.67 114.848C229.166 115.64 228.278 116.216 227.174 116.216C225.83 116.216 225.11 115.4 225.038 114.056H234.086C234.182 113.816 234.326 113.192 234.35 112.856C235.07 108.872 232.814 106.304 228.734 106.304C224.654 106.304 221.342 108.8 220.646 112.712C219.926 116.72 222.326 119.312 226.454 119.312ZM225.422 111.656C225.902 110.288 226.91 109.4 228.158 109.4C229.43 109.4 230.174 110.384 230.054 111.608L225.422 111.656Z" fill="white"/>
</svg>
