<svg width="352" height="157" viewBox="0 0 352 157" fill="none" xmlns="http://www.w3.org/2000/svg">
<path d="M14.672 27.648C22.844 27.648 29.72 22.176 31.16 14.22C32.564 6.228 27.524 0.719999 19.28 0.719999C12.188 0.719999 5.96 4.896 4.34 10.98L11.144 11.772C12.188 9 15.068 6.912 18.056 6.912C21.368 6.912 23.492 8.856 23.636 11.988H13.916L13.16 16.2L22.916 16.164C21.692 19.332 18.776 21.42 15.392 21.42C12.44 21.42 10.316 19.44 10.244 16.704L3.116 17.388C2.504 23.436 7.328 27.648 14.672 27.648ZM31.5296 27H38.2976L39.6296 19.548H39.9896L43.5176 27H51.4736L46.1816 17.352L54.6776 8.424H46.7216L40.7456 15.228H40.3856L41.5736 8.424H34.8416L31.5296 27ZM61.2526 27.468C67.6246 27.468 72.3406 23.832 73.4206 17.784C74.5006 11.7 71.0086 7.956 64.6006 7.956C58.2286 7.956 53.5126 11.592 52.4326 17.64C51.3886 23.76 54.8446 27.468 61.2526 27.468ZM62.1526 21.816C59.9566 21.816 58.7686 20.16 59.1646 17.784C59.5966 15.336 61.4686 13.608 63.7006 13.608C65.8966 13.608 67.0846 15.264 66.6886 17.64C66.2566 20.088 64.3846 21.816 62.1526 21.816ZM74.1389 27H80.8709L82.0589 20.376H87.4229L86.2709 27H93.0029L96.3149 8.46H89.5469L88.3949 14.976H83.0309L84.1829 8.46H77.4149L74.1389 27ZM105.866 27.468C112.238 27.468 116.954 23.832 118.034 17.784C119.114 11.7 115.622 7.956 109.214 7.956C102.842 7.956 98.1259 11.592 97.0459 17.64C96.0019 23.76 99.4579 27.468 105.866 27.468ZM106.766 21.816C104.57 21.816 103.382 20.16 103.778 17.784C104.21 15.336 106.082 13.608 108.314 13.608C110.51 13.608 111.698 15.264 111.302 17.64C110.87 20.088 108.998 21.816 106.766 21.816ZM118.752 27H125.484L127.356 16.632H127.716L129.768 27H134.376L140.136 16.596H140.46L138.624 27H145.392L148.668 8.424H140.136L133.332 20.664H132.972L130.56 8.424H122.028L118.752 27ZM148.53 27H155.514L162.786 17.388H163.146L161.418 27H168.186L171.462 8.424H164.514L157.206 18.18H156.846L158.574 8.424H151.806L148.53 27ZM170.267 27H177.755L181.787 21.996H182.975L182.111 27H189.095L192.407 8.424H181.787C177.107 8.424 173.327 11.304 172.607 15.3C172.175 17.856 173.219 20.232 175.559 21.312L170.267 27ZM181.463 17.352C179.987 17.352 179.123 16.56 179.339 15.408C179.555 14.184 180.779 13.32 182.219 13.32H184.775L184.055 17.352H181.463ZM1.928 58H13.124C17.336 58 20.504 55.984 21.08 52.816C21.44 50.62 20.396 49.216 18.308 48.64L18.416 48.28C20.036 47.776 21.44 46.228 21.764 44.392C22.268 41.548 20.036 39.424 15.86 39.424H5.204L1.928 58ZM10.172 46.66L10.748 43.528H13.772C14.924 43.528 15.536 44.176 15.392 45.076C15.212 45.976 14.312 46.66 13.16 46.66H10.172ZM8.912 53.896L9.488 50.512H12.512C13.772 50.512 14.456 51.16 14.276 52.132C14.096 53.14 13.124 53.896 11.864 53.896H8.912ZM38.2281 38.956C35.8161 38.956 33.9441 39.856 32.4321 41.548L32.0721 41.584L32.4681 39.424H25.7001L20.9841 66.28H27.7161L29.5521 55.84L29.9481 55.804C30.8481 57.496 32.4681 58.468 34.8801 58.468C39.7401 58.468 43.7361 54.652 44.7441 48.784C45.8241 42.772 43.1601 38.956 38.2281 38.956ZM35.0601 44.608C37.1841 44.608 38.4441 46.336 38.0481 48.64C37.6161 51.016 35.7081 52.816 33.4761 52.816C31.3521 52.816 30.1281 51.088 30.5241 48.784C30.9201 46.408 32.8641 44.608 35.0601 44.608ZM55.4158 58.468C60.1318 58.468 64.3438 56.344 65.8558 52.888L60.2398 51.772C59.4838 52.96 58.1518 53.824 56.4958 53.824C54.4798 53.824 53.3998 52.6 53.2918 50.584H66.8638C67.0078 50.224 67.2238 49.288 67.2598 48.784C68.3398 42.808 64.9558 38.956 58.8358 38.956C52.7158 38.956 47.7478 42.7 46.7038 48.568C45.6238 54.58 49.2238 58.468 55.4158 58.468ZM53.8678 46.984C54.5878 44.932 56.0998 43.6 57.9718 43.6C59.8798 43.6 60.9958 45.076 60.8158 46.912L53.8678 46.984ZM68.0217 58H74.7538L76.6258 47.632H76.9858L79.0378 58H83.6458L89.4058 47.596H89.7298L87.8938 58H94.6618L97.9378 39.424H89.4058L82.6018 51.664H82.2418L79.8298 39.424H71.2978L68.0217 58ZM107.447 58.468C112.163 58.468 116.375 56.344 117.887 52.888L112.271 51.772C111.515 52.96 110.183 53.824 108.527 53.824C106.511 53.824 105.431 52.6 105.323 50.584H118.895C119.039 50.224 119.255 49.288 119.291 48.784C120.371 42.808 116.987 38.956 110.867 38.956C104.747 38.956 99.7791 42.7 98.7351 48.568C97.6551 54.58 101.255 58.468 107.447 58.468ZM105.899 46.984C106.619 44.932 108.131 43.6 110.003 43.6C111.911 43.6 113.027 45.076 112.847 46.912L105.899 46.984ZM120.053 58H126.785L127.973 51.376H133.337L132.185 58H138.917L142.229 39.46H135.461L134.309 45.976H128.945L130.097 39.46H123.329L120.053 58ZM142.096 58H149.08L156.352 48.388H156.712L154.984 58H161.752L165.028 39.424H158.08L150.772 49.18H150.412L152.14 39.424H145.372L142.096 58Z" fill="#45F7E1"/>
<path d="M2.264 120H7.328L8.552 113.112H14.432L13.208 120H18.272L21.32 102.816H16.256L15.128 109.152H9.248L10.352 102.816H5.288L2.264 120ZM27.134 120.312C30.278 120.312 33.086 118.896 34.094 116.592L30.35 115.848C29.846 116.64 28.958 117.216 27.854 117.216C26.51 117.216 25.79 116.4 25.718 115.056H34.766C34.862 114.816 35.006 114.192 35.03 113.856C35.75 109.872 33.494 107.304 29.414 107.304C25.334 107.304 22.022 109.8 21.326 113.712C20.606 117.72 23.006 120.312 27.134 120.312ZM26.102 112.656C26.582 111.288 27.59 110.4 28.838 110.4C30.11 110.4 30.854 111.384 30.734 112.608L26.102 112.656ZM44.5419 120H49.0539L50.6139 111.216H54.5019L55.1499 107.616H42.8379L42.1899 111.216H46.1019L44.5419 120ZM64.8474 107.304C63.2394 107.304 61.9914 107.904 60.9834 109.032L60.7434 109.056L61.0074 107.616H56.4954L53.3514 125.52H57.8394L59.0634 118.56L59.3274 118.536C59.9274 119.664 61.0074 120.312 62.6154 120.312C65.8554 120.312 68.5194 117.768 69.1914 113.856C69.9114 109.848 68.1354 107.304 64.8474 107.304ZM62.7354 111.072C64.1514 111.072 64.9914 112.224 64.7274 113.76C64.4394 115.344 63.1674 116.544 61.6794 116.544C60.2634 116.544 59.4474 115.392 59.7114 113.856C59.9754 112.272 61.2714 111.072 62.7354 111.072ZM74.8179 120.312C76.5699 120.312 77.8659 119.592 78.9699 118.2L79.2099 118.176L78.8739 120H83.3859L85.5699 107.616H81.0819L80.7459 109.488L80.4819 109.512C79.8579 108.144 78.8499 107.304 77.0499 107.304C73.7859 107.304 71.1459 109.848 70.4739 113.76C69.7539 117.768 71.4819 120.312 74.8179 120.312ZM76.9299 116.544C75.4899 116.544 74.6739 115.416 74.9619 113.856C75.2259 112.248 76.4979 111.072 77.9859 111.072C79.4019 111.072 80.2419 112.2 79.9539 113.76C79.6899 115.368 78.4179 116.544 76.9299 116.544ZM88.6747 120H93.1867L94.7467 111.216H98.6347L99.2827 107.616H86.9707L86.3227 111.216H90.2347L88.6747 120ZM98.4442 120H105.308C108.812 120 111.044 117.744 111.476 115.32C111.908 112.824 110.42 110.688 106.916 110.688H104.588L105.14 107.616H100.628L98.4442 120ZM103.556 116.616L103.988 114.048H105.716C106.628 114.048 107.108 114.552 106.988 115.32C106.844 116.088 106.148 116.616 105.236 116.616H103.556ZM117.921 120H125.385C128.193 120 130.305 118.656 130.689 116.544C130.929 115.08 130.233 114.144 128.841 113.76L128.913 113.52C129.993 113.184 130.929 112.152 131.145 110.928C131.481 109.032 129.993 107.616 127.209 107.616H120.105L117.921 120ZM123.417 112.44L123.801 110.352H125.817C126.585 110.352 126.993 110.784 126.897 111.384C126.777 111.984 126.177 112.44 125.409 112.44H123.417ZM122.577 117.264L122.961 115.008H124.977C125.817 115.008 126.273 115.44 126.153 116.088C126.033 116.76 125.385 117.264 124.545 117.264H122.577ZM142.121 107.304C140.513 107.304 139.265 107.904 138.257 109.032L138.017 109.056L138.281 107.616H133.769L130.625 125.52H135.113L136.337 118.56L136.601 118.536C137.201 119.664 138.281 120.312 139.889 120.312C143.129 120.312 145.793 117.768 146.465 113.856C147.185 109.848 145.409 107.304 142.121 107.304ZM140.009 111.072C141.425 111.072 142.265 112.224 142.001 113.76C141.713 115.344 140.441 116.544 138.953 116.544C137.537 116.544 136.721 115.392 136.985 113.856C137.249 112.272 138.545 111.072 140.009 111.072ZM153.579 120.312C156.723 120.312 159.531 118.896 160.539 116.592L156.795 115.848C156.291 116.64 155.403 117.216 154.299 117.216C152.955 117.216 152.235 116.4 152.163 115.056H161.211C161.307 114.816 161.451 114.192 161.475 113.856C162.195 109.872 159.939 107.304 155.859 107.304C151.779 107.304 148.467 109.8 147.771 113.712C147.051 117.72 149.451 120.312 153.579 120.312ZM152.547 112.656C153.027 111.288 154.035 110.4 155.283 110.4C156.555 110.4 157.299 111.384 157.179 112.608L152.547 112.656ZM161.983 120H166.471L167.719 113.088H167.959L169.327 120H172.399L176.239 113.064H176.455L175.231 120H179.743L181.927 107.616H176.239L171.703 115.776H171.463L169.855 107.616H164.167L161.983 120ZM181.139 120H186.131L188.819 116.664H189.611L189.035 120H193.691L195.899 107.616H188.819C185.699 107.616 183.179 109.536 182.699 112.2C182.411 113.904 183.107 115.488 184.667 116.208L181.139 120ZM188.603 113.568C187.619 113.568 187.043 113.04 187.187 112.272C187.331 111.456 188.147 110.88 189.107 110.88H190.811L190.331 113.568H188.603ZM201.639 120H206.128L206.92 115.584H210.496L209.728 120H214.216L216.424 107.64H211.912L211.144 111.984H207.568L208.336 107.64H203.824L201.639 120ZM221.279 120.312C223.031 120.312 224.327 119.592 225.431 118.2L225.671 118.176L225.335 120H229.847L232.031 107.616H227.543L227.207 109.488L226.943 109.512C226.319 108.144 225.311 107.304 223.511 107.304C220.247 107.304 217.607 109.848 216.935 113.76C216.215 117.768 217.943 120.312 221.279 120.312ZM223.391 116.544C221.951 116.544 221.135 115.416 221.423 113.856C221.687 112.248 222.959 111.072 224.447 111.072C225.863 111.072 226.703 112.2 226.415 113.76C226.151 115.368 224.879 116.544 223.391 116.544ZM236.436 123.6H240.036L240.66 120H249.924L249.3 123.6H252.876L254.148 116.4H252.132L253.692 107.616H242.868L241.596 111.96C240.924 114.216 240.252 116.016 239.148 116.4H237.708L236.436 123.6ZM243.612 116.4L243.66 116.184C244.524 115.536 244.908 114.84 245.244 113.784L246.06 111.216H248.556L247.644 116.4H243.612ZM261.275 120.312C265.523 120.312 268.667 117.888 269.387 113.856C270.107 109.8 267.779 107.304 263.507 107.304C259.259 107.304 256.115 109.728 255.395 113.76C254.699 117.84 257.003 120.312 261.275 120.312ZM261.875 116.544C260.411 116.544 259.619 115.44 259.883 113.856C260.171 112.224 261.419 111.072 262.907 111.072C264.371 111.072 265.163 112.176 264.899 113.76C264.611 115.392 263.363 116.544 261.875 116.544ZM280.402 107.304C278.794 107.304 277.546 107.904 276.538 109.032L276.298 109.056L276.562 107.616H272.05L268.906 125.52H273.394L274.618 118.56L274.882 118.536C275.482 119.664 276.562 120.312 278.17 120.312C281.41 120.312 284.074 117.768 284.746 113.856C285.466 109.848 283.69 107.304 280.402 107.304ZM278.29 111.072C279.706 111.072 280.546 112.224 280.282 113.76C279.994 115.344 278.722 116.544 277.234 116.544C275.818 116.544 275.002 115.392 275.266 113.856C275.53 112.272 276.826 111.072 278.29 111.072ZM291.885 120.312C296.133 120.312 299.277 117.888 299.997 113.856C300.717 109.8 298.389 107.304 294.117 107.304C289.869 107.304 286.725 109.728 286.005 113.76C285.309 117.84 287.613 120.312 291.885 120.312ZM292.485 116.544C291.021 116.544 290.229 115.44 290.493 113.856C290.781 112.224 292.029 111.072 293.517 111.072C294.981 111.072 295.773 112.176 295.509 113.76C295.221 115.392 293.973 116.544 292.485 116.544ZM300.475 120H304.963L306.523 111.216H312.139L312.787 107.616H302.659L300.475 120ZM314.694 125.64C317.286 125.64 319.086 124.056 320.958 120.6L327.942 107.616H323.31L319.95 114.456H319.71L318.126 107.616H313.278L317.142 120.168C316.59 121.128 315.726 122.064 314.334 122.064C313.734 122.064 312.942 121.92 312.438 121.704L311.862 125.184C312.51 125.448 313.782 125.64 314.694 125.64ZM0.584 154.6H4.184L4.808 151H14.072L13.448 154.6H17.024L18.296 147.4H16.28L17.84 138.616H7.016L5.744 142.96C5.072 145.216 4.4 147.016 3.296 147.4H1.856L0.584 154.6ZM7.76 147.4L7.808 147.184C8.672 146.536 9.056 145.84 9.392 144.784L10.208 142.216H12.704L11.792 147.4H7.76ZM25.4236 151.312C29.6716 151.312 32.8156 148.888 33.5356 144.856C34.2556 140.8 31.9276 138.304 27.6556 138.304C23.4076 138.304 20.2636 140.728 19.5436 144.76C18.8476 148.84 21.1516 151.312 25.4236 151.312ZM26.0236 147.544C24.5596 147.544 23.7676 146.44 24.0316 144.856C24.3196 143.224 25.5676 142.072 27.0556 142.072C28.5196 142.072 29.3116 143.176 29.0476 144.76C28.7596 146.392 27.5116 147.544 26.0236 147.544ZM46.2344 151.312C49.7624 151.312 52.6424 149.488 53.6024 146.368L49.5464 145.84C49.0904 146.92 47.9864 147.712 46.8344 147.712C45.4424 147.712 44.6504 146.536 44.9384 144.856C45.2504 143.128 46.5464 141.904 47.9624 141.904C49.0184 141.904 49.8584 142.648 49.9064 143.752L54.1304 143.272C54.2984 140.176 52.0424 138.304 48.4664 138.304C44.3384 138.304 41.1704 140.8 40.4504 144.76C39.7784 148.72 42.1544 151.312 46.2344 151.312ZM57.4794 151H61.9914L63.5514 142.216H67.4394L68.0874 138.616H55.7754L55.1274 142.216H59.0394L57.4794 151ZM70.0535 156.64C72.6455 156.64 74.4455 155.056 76.3175 151.6L83.3015 138.616H78.6695L75.3095 145.456H75.0695L73.4855 138.616H68.6375L72.5015 151.168C71.9495 152.128 71.0855 153.064 69.6935 153.064C69.0935 153.064 68.3015 152.92 67.7975 152.704L67.2215 156.184C67.8695 156.448 69.1415 156.64 70.0535 156.64ZM79.0762 154.6H82.6762L83.3002 151H92.5642L91.9402 154.6H95.5162L96.7882 147.4H94.7722L96.3322 138.616H85.5082L84.2362 142.96C83.5642 145.216 82.8922 147.016 81.7882 147.4H80.3482L79.0762 154.6ZM86.2522 147.4L86.3002 147.184C87.1642 146.536 87.5482 145.84 87.8842 144.784L88.7002 142.216H91.1962L90.2842 147.4H86.2522ZM97.6473 151H102.303L107.151 144.592H107.391L106.239 151H110.751L112.935 138.616H108.303L103.431 145.12H103.191L104.343 138.616H99.8313L97.6473 151ZM112.835 151H117.491L122.339 144.592H122.579L121.427 151H125.939L128.123 138.616H123.491L118.619 145.12H118.379L119.531 138.616H115.019L112.835 151ZM128.766 155.2L131.958 150.856C132.51 150.136 132.846 149.488 132.942 148.864C133.182 147.448 132.294 146.416 130.806 146.416C129.366 146.416 128.166 147.4 127.926 148.792C127.686 150.016 128.334 150.976 129.462 151.192L127.35 154.624L128.766 155.2ZM145.831 151.312C149.239 151.312 151.903 149.896 152.311 147.664C152.551 146.248 151.831 145.096 150.535 144.736L150.631 144.496C151.855 144.16 152.719 143.296 152.935 142.048C153.343 139.768 151.231 138.304 147.991 138.304C144.415 138.304 141.751 140.032 141.247 142.888L145.255 142.936C145.423 142 146.215 141.4 147.319 141.4C148.255 141.4 148.831 141.808 148.711 142.408C148.615 143.032 147.895 143.464 147.031 143.464H145.975L145.543 145.888H146.623C147.535 145.888 148.135 146.272 147.991 146.944C147.871 147.688 147.079 148.216 146.071 148.216C144.895 148.216 144.271 147.52 144.463 146.368L140.287 146.32C139.735 149.44 141.919 151.312 145.831 151.312ZM158.068 151.312C159.82 151.312 161.116 150.592 162.22 149.2L162.46 149.176L162.124 151H166.636L168.82 138.616H164.332L163.996 140.488L163.732 140.512C163.108 139.144 162.1 138.304 160.3 138.304C157.036 138.304 154.396 140.848 153.724 144.76C153.004 148.768 154.732 151.312 158.068 151.312ZM160.18 147.544C158.74 147.544 157.924 146.416 158.212 144.856C158.476 143.248 159.748 142.072 161.236 142.072C162.652 142.072 163.492 143.2 163.204 144.76C162.94 146.368 161.668 147.544 160.18 147.544ZM168.757 151H173.245L174.037 146.584H177.613L176.845 151H181.333L183.541 138.64H179.029L178.261 142.984H174.685L175.453 138.64H170.941L168.757 151ZM183.452 151H188.108L192.956 144.592H193.196L192.044 151H196.556L198.74 138.616H194.108L189.236 145.12H188.996L190.148 138.616H185.636L183.452 151ZM198.639 151H203.128L204.376 144.088H204.616L205.984 151H209.056L212.896 144.064H213.112L211.888 151H216.4L218.584 138.616H212.896L208.36 146.776H208.12L206.512 138.616H200.824L198.639 151ZM223.435 151.312C225.187 151.312 226.483 150.592 227.587 149.2L227.827 149.176L227.491 151H232.003L234.187 138.616H229.699L229.363 140.488L229.099 140.512C228.475 139.144 227.467 138.304 225.667 138.304C222.403 138.304 219.763 140.848 219.091 144.76C218.371 148.768 220.099 151.312 223.435 151.312ZM225.547 147.544C224.107 147.544 223.291 146.416 223.579 144.856C223.843 143.248 225.115 142.072 226.603 142.072C228.019 142.072 228.859 143.2 228.571 144.76C228.307 146.368 227.035 147.544 225.547 147.544ZM243.052 136.768C245.26 136.768 247.108 135.256 247.492 133.12L244.78 133.072C244.612 134.032 244.084 134.632 243.364 134.632C242.668 134.632 242.38 134.08 242.548 133.12L239.836 133.072C239.476 135.208 240.796 136.768 243.052 136.768ZM234.124 151H238.78L243.628 144.592H243.868L242.716 151H247.228L249.412 138.616H244.78L239.908 145.12H239.668L240.82 138.616H236.308L234.124 151ZM255.695 151.312C259.223 151.312 262.103 149.488 263.063 146.368L259.007 145.84C258.551 146.92 257.447 147.712 256.295 147.712C254.903 147.712 254.111 146.536 254.399 144.856C254.711 143.128 256.007 141.904 257.423 141.904C258.479 141.904 259.319 142.648 259.367 143.752L263.591 143.272C263.759 140.176 261.503 138.304 257.927 138.304C253.799 138.304 250.631 140.8 249.911 144.76C249.239 148.72 251.615 151.312 255.695 151.312ZM263.475 151H268.467L271.155 147.664H271.947L271.371 151H276.027L278.235 138.616H271.155C268.035 138.616 265.515 140.536 265.035 143.2C264.747 144.904 265.443 146.488 267.003 147.208L263.475 151ZM270.939 144.568C269.955 144.568 269.379 144.04 269.523 143.272C269.667 142.456 270.483 141.88 271.443 141.88H273.147L272.667 144.568H270.939ZM282.607 154.6H286.207L286.831 151H296.095L295.471 154.6H299.047L300.319 147.4H298.303L299.863 138.616H289.039L287.767 142.96C287.095 145.216 286.423 147.016 285.319 147.4H283.879L282.607 154.6ZM289.783 147.4L289.831 147.184C290.695 146.536 291.079 145.84 291.415 144.784L292.231 142.216H294.727L293.815 147.4H289.783ZM307.447 151.312C311.695 151.312 314.839 148.888 315.559 144.856C316.279 140.8 313.951 138.304 309.679 138.304C305.431 138.304 302.287 140.728 301.567 144.76C300.871 148.84 303.175 151.312 307.447 151.312ZM308.047 147.544C306.583 147.544 305.791 146.44 306.055 144.856C306.343 143.224 307.591 142.072 309.079 142.072C310.543 142.072 311.335 143.176 311.071 144.76C310.783 146.392 309.535 147.544 308.047 147.544ZM316.038 151H320.526L321.774 144.088H322.014L323.382 151H326.454L330.294 144.064H330.51L329.286 151H333.798L335.982 138.616H330.294L325.758 146.776H325.518L323.91 138.616H318.222L316.038 151ZM340.834 151.312C342.586 151.312 343.882 150.592 344.986 149.2L345.226 149.176L344.89 151H349.402L351.586 138.616H347.098L346.762 140.488L346.498 140.512C345.874 139.144 344.866 138.304 343.066 138.304C339.802 138.304 337.162 140.848 336.49 144.76C335.769 148.768 337.498 151.312 340.834 151.312ZM342.946 147.544C341.506 147.544 340.69 146.416 340.978 144.856C341.242 143.248 342.514 142.072 344.002 142.072C345.418 142.072 346.258 143.2 345.97 144.76C345.706 146.368 344.434 147.544 342.946 147.544Z" fill="white"/>
</svg>
