<svg width="286" height="187" viewBox="0 0 286 187" fill="none" xmlns="http://www.w3.org/2000/svg">
<path d="M1.396 26H15.364C21.376 26 25.444 23.516 26.236 19.124C26.812 16.028 25.264 13.76 22.816 13.04L22.924 12.68C25.156 11.996 27.1 10.052 27.604 7.388C28.36 3.068 25.228 0.223999 19.144 0.223999H5.968L1.396 26ZM11.728 10.556L12.592 5.696H16.768C18.712 5.696 19.864 6.668 19.648 8.072C19.36 9.512 17.812 10.556 15.868 10.556H11.728ZM9.964 20.528L10.9 15.236H15.58C17.596 15.236 18.892 16.316 18.64 17.828C18.352 19.376 16.624 20.528 14.608 20.528H9.964ZM27.4358 26H34.1678L35.3558 19.376H40.7198L39.5678 26H46.2998L49.6118 7.46H42.8438L41.6918 13.976H36.3278L37.4798 7.46H30.7118L27.4358 26ZM49.4788 26H56.4628L63.7348 16.388H64.0948L62.3668 26H69.1348L72.4108 7.424H65.4628L58.1548 17.18H57.7948L59.5228 7.424H52.7548L49.4788 26ZM72.26 26H78.992L80.864 15.632H81.224L83.276 26H87.884L93.644 15.596H93.968L92.132 26H98.9L102.176 7.424H93.644L86.84 19.664H86.48L84.068 7.424H75.536L72.26 26ZM109.453 26.468C112.081 26.468 114.025 25.388 115.681 23.3L116.041 23.264L115.537 26H122.305L125.581 7.424H118.849L118.345 10.232L117.949 10.268C117.013 8.216 115.501 6.956 112.801 6.956C107.905 6.956 103.945 10.772 102.937 16.64C101.857 22.652 104.449 26.468 109.453 26.468ZM112.621 20.816C110.461 20.816 109.237 19.124 109.669 16.784C110.065 14.372 111.973 12.608 114.205 12.608C116.329 12.608 117.589 14.3 117.157 16.64C116.761 19.052 114.853 20.816 112.621 20.816ZM125.487 26H132.219L133.407 19.376H138.771L137.619 26H144.351L147.663 7.46H140.895L139.743 13.976H134.379L135.531 7.46H128.763L125.487 26ZM147.53 26H154.514L161.786 16.388H162.146L160.418 26H167.186L170.462 7.424H163.514L156.206 17.18H155.846L157.574 7.424H150.806L147.53 26ZM179.959 26.468C184.675 26.468 188.887 24.344 190.399 20.888L184.783 19.772C184.027 20.96 182.695 21.824 181.039 21.824C179.023 21.824 177.943 20.6 177.835 18.584H191.407C191.551 18.224 191.767 17.288 191.803 16.784C192.883 10.808 189.499 6.956 183.379 6.956C177.259 6.956 172.291 10.7 171.247 16.568C170.167 22.58 173.767 26.468 179.959 26.468ZM178.411 14.984C179.131 12.932 180.643 11.6 182.515 11.6C184.423 11.6 185.539 13.076 185.359 14.912L178.411 14.984ZM0.928 57H7.696L9.028 49.548H9.388L12.916 57H20.872L15.58 47.352L24.076 38.424H16.12L10.144 45.228H9.784L10.972 38.424H4.24L0.928 57ZM29.6729 62.4H35.0729L36.0089 57H49.9049L48.9689 62.4H54.3329L56.2409 51.6H53.2169L55.5569 38.424H39.3209L37.4129 44.94C36.4049 48.324 35.3969 51.024 33.7409 51.6H31.5809L29.6729 62.4ZM40.4369 51.6L40.5089 51.276C41.8049 50.304 42.3809 49.26 42.8849 47.676L44.1089 43.824H47.8529L46.4849 51.6H40.4369ZM66.8963 57.468C71.6123 57.468 75.8243 55.344 77.3363 51.888L71.7203 50.772C70.9643 51.96 69.6323 52.824 67.9763 52.824C65.9603 52.824 64.8803 51.6 64.7723 49.584H78.3443C78.4883 49.224 78.7043 48.288 78.7403 47.784C79.8203 41.808 76.4363 37.956 70.3163 37.956C64.1963 37.956 59.2283 41.7 58.1843 47.568C57.1043 53.58 60.7043 57.468 66.8963 57.468ZM65.3483 45.984C66.0683 43.932 67.5803 42.6 69.4523 42.6C71.3603 42.6 72.4763 44.076 72.2963 45.912L65.3483 45.984ZM84.1488 57H90.9168L93.2568 43.824H99.0888L100.061 38.424H81.5928L80.6208 43.824H86.4888L84.1488 57ZM106.114 57.468C108.742 57.468 110.686 56.388 112.342 54.3L112.702 54.264L112.198 57H118.966L122.242 38.424H115.51L115.006 41.232L114.61 41.268C113.674 39.216 112.162 37.956 109.462 37.956C104.566 37.956 100.606 41.772 99.5975 47.64C98.5175 53.652 101.11 57.468 106.114 57.468ZM109.282 51.816C107.122 51.816 105.898 50.124 106.33 47.784C106.726 45.372 108.634 43.608 110.866 43.608C112.99 43.608 114.25 45.3 113.818 47.64C113.422 50.052 111.514 51.816 109.282 51.816ZM120.995 57C124.091 57 129.419 57.324 131.147 51.564L133.487 43.824H137.051L134.711 57H141.479L144.755 38.424H128.663L126.107 47.496C125.135 50.916 124.379 51.96 121.823 51.96L120.995 57ZM143.568 57H151.056L155.088 51.996H156.276L155.412 57H162.396L165.708 38.424H155.088C150.408 38.424 146.628 41.304 145.908 45.3C145.476 47.856 146.52 50.232 148.86 51.312L143.568 57ZM154.764 47.352C153.288 47.352 152.424 46.56 152.64 45.408C152.856 44.184 154.08 43.32 155.52 43.32H158.076L157.356 47.352H154.764ZM165.565 57H172.297L174.169 46.632H174.529L176.581 57H181.189L186.949 46.596H187.273L185.437 57H192.205L195.481 38.424H186.949L180.145 50.664H179.785L177.373 38.424H168.841L165.565 57Z" fill="#45F7E1"/>
<path d="M1.264 119H6.328L7.624 111.68H7.864L11.368 119H17.344L12.544 110L20.32 101.816H14.344L8.416 108.512H8.2L9.376 101.816H4.312L1.264 119ZM22.0444 119.312C23.7964 119.312 25.0924 118.592 26.1964 117.2L26.4364 117.176L26.1004 119H30.6124L32.7964 106.616H28.3084L27.9724 108.488L27.7084 108.512C27.0844 107.144 26.0764 106.304 24.2764 106.304C21.0124 106.304 18.3724 108.848 17.7004 112.76C16.9804 116.768 18.7084 119.312 22.0444 119.312ZM24.1564 115.544C22.7164 115.544 21.9004 114.416 22.1884 112.856C22.4524 111.248 23.7244 110.072 25.2124 110.072C26.6284 110.072 27.4684 111.2 27.1804 112.76C26.9164 114.368 25.6444 115.544 24.1564 115.544ZM31.7732 119H37.0293L40.9653 113.984H41.2053L40.2933 119H44.8053L45.6933 113.984H45.9333L48.0933 119H53.3013L50.0613 112.568L55.4133 106.616H50.2293L46.4373 111.176H46.1973L46.9893 106.616H42.5013L41.6853 111.176H41.4453L39.2373 106.616H34.1013L37.3413 112.568L31.7732 119ZM53.0918 122.6H56.6918L57.3158 119H66.5798L65.9558 122.6H69.5318L70.8038 115.4H68.7878L70.3478 106.616H59.5238L58.2518 110.96C57.5798 113.216 56.9078 115.016 55.8038 115.4H54.3638L53.0918 122.6ZM60.2678 115.4L60.3158 115.184C61.1798 114.536 61.5638 113.84 61.8998 112.784L62.7158 110.216H65.2118L64.2998 115.4H60.2678ZM77.9314 119.312C82.1794 119.312 85.3234 116.888 86.0434 112.856C86.7634 108.8 84.4354 106.304 80.1634 106.304C75.9154 106.304 72.7714 108.728 72.0514 112.76C71.3554 116.84 73.6594 119.312 77.9314 119.312ZM78.5314 115.544C77.0674 115.544 76.2754 114.44 76.5394 112.856C76.8274 111.224 78.0754 110.072 79.5634 110.072C81.0274 110.072 81.8194 111.176 81.5554 112.76C81.2674 114.392 80.0194 115.544 78.5314 115.544ZM93.1184 119.312C96.2624 119.312 99.0704 117.896 100.078 115.592L96.3344 114.848C95.8304 115.64 94.9424 116.216 93.8384 116.216C92.4944 116.216 91.7744 115.4 91.7024 114.056H100.75C100.846 113.816 100.99 113.192 101.014 112.856C101.734 108.872 99.4784 106.304 95.3984 106.304C91.3184 106.304 88.0064 108.8 87.3104 112.712C86.5904 116.72 88.9904 119.312 93.1184 119.312ZM92.0864 111.656C92.5664 110.288 93.5744 109.4 94.8224 109.4C96.0944 109.4 96.8384 110.384 96.7184 111.608L92.0864 111.656ZM105.99 122.6H109.59L110.214 119H119.478L118.854 122.6H122.43L123.702 115.4H121.686L123.246 106.616H112.422L111.15 110.96C110.478 113.216 109.806 115.016 108.702 115.4H107.262L105.99 122.6ZM113.166 115.4L113.214 115.184C114.078 114.536 114.462 113.84 114.798 112.784L115.614 110.216H118.11L117.198 115.4H113.166ZM124.561 119H132.025C134.833 119 136.945 117.656 137.329 115.544C137.569 114.08 136.873 113.144 135.481 112.76L135.553 112.52C136.633 112.184 137.569 111.152 137.785 109.928C138.121 108.032 136.633 106.616 133.849 106.616H126.745L124.561 119ZM130.057 111.44L130.441 109.352H132.457C133.225 109.352 133.633 109.784 133.537 110.384C133.417 110.984 132.817 111.44 132.049 111.44H130.057ZM129.217 116.264L129.601 114.008H131.617C132.457 114.008 132.913 114.44 132.793 115.088C132.673 115.76 132.025 116.264 131.185 116.264H129.217ZM138.225 119H142.881L147.729 112.592H147.969L146.817 119H151.329L153.513 106.616H148.881L144.009 113.12H143.769L144.921 106.616H140.409L138.225 119ZM152.453 119H157.709L161.645 113.984H161.885L160.973 119H165.485L166.373 113.984H166.613L168.773 119H173.981L170.741 112.568L176.093 106.616H170.909L167.117 111.176H166.877L167.669 106.616H163.181L162.365 111.176H162.125L159.917 106.616H154.781L158.021 112.568L152.453 119ZM180.259 119.312C183.403 119.312 186.211 117.896 187.219 115.592L183.475 114.848C182.971 115.64 182.083 116.216 180.979 116.216C179.635 116.216 178.915 115.4 178.843 114.056H187.891C187.987 113.816 188.131 113.192 188.155 112.856C188.875 108.872 186.619 106.304 182.539 106.304C178.459 106.304 175.147 108.8 174.451 112.712C173.731 116.72 176.131 119.312 180.259 119.312ZM179.227 111.656C179.707 110.288 180.715 109.4 181.963 109.4C183.235 109.4 183.979 110.384 183.859 111.608L179.227 111.656ZM188.663 119H193.151L193.943 114.584H197.519L196.751 119H201.239L203.447 106.64H198.935L198.167 110.984H194.591L195.359 106.64H190.847L188.663 119ZM203.358 119H208.014L212.862 112.592H213.102L211.95 119H216.462L218.646 106.616H214.014L209.142 113.12H208.902L210.054 106.616H205.542L203.358 119ZM224.978 119.312C228.122 119.312 230.93 117.896 231.938 115.592L228.194 114.848C227.69 115.64 226.802 116.216 225.698 116.216C224.354 116.216 223.634 115.4 223.562 114.056H232.61C232.706 113.816 232.85 113.192 232.874 112.856C233.594 108.872 231.338 106.304 227.258 106.304C223.178 106.304 219.866 108.8 219.17 112.712C218.45 116.72 220.85 119.312 224.978 119.312ZM223.946 111.656C224.426 110.288 225.434 109.4 226.682 109.4C227.954 109.4 228.698 110.384 228.578 111.608L223.946 111.656ZM6.808 150.312C10.216 150.312 12.88 148.896 13.288 146.664C13.528 145.248 12.808 144.096 11.512 143.736L11.608 143.496C12.832 143.16 13.696 142.296 13.912 141.048C14.32 138.768 12.208 137.304 8.968 137.304C5.392 137.304 2.728 139.032 2.224 141.888L6.232 141.936C6.4 141 7.192 140.4 8.296 140.4C9.232 140.4 9.808 140.808 9.688 141.408C9.592 142.032 8.872 142.464 8.008 142.464H6.952L6.52 144.888H7.6C8.512 144.888 9.112 145.272 8.968 145.944C8.848 146.688 8.056 147.216 7.048 147.216C5.872 147.216 5.248 146.52 5.44 145.368L1.264 145.32C0.712 148.44 2.896 150.312 6.808 150.312ZM19.0444 150.312C20.7964 150.312 22.0924 149.592 23.1964 148.2L23.4364 148.176L23.1004 150H27.6124L29.7964 137.616H25.3084L24.9724 139.488L24.7084 139.512C24.0844 138.144 23.0764 137.304 21.2764 137.304C18.0124 137.304 15.3724 139.848 14.7004 143.76C13.9804 147.768 15.7084 150.312 19.0444 150.312ZM21.1564 146.544C19.7164 146.544 18.9004 145.416 19.1884 143.856C19.4524 142.248 20.7244 141.072 22.2124 141.072C23.6284 141.072 24.4684 142.2 24.1804 143.76C23.9164 145.368 22.6444 146.544 21.1564 146.544ZM35.6133 155.52H39.7893L40.7493 150.144C45.0213 149.928 48.5493 147.288 49.1733 143.808C49.7733 140.376 47.1333 137.688 42.9333 137.472L43.8932 132.096H39.7413L38.7813 137.448C34.4853 137.64 30.9333 140.28 30.3333 143.712C29.7092 147.264 32.3493 149.976 36.5733 150.144L35.6133 155.52ZM37.1493 146.664C35.5173 146.64 34.5333 145.464 34.7973 143.832C35.0853 142.2 36.5733 140.976 38.2053 140.928L37.1493 146.664ZM41.3013 146.64L42.3333 141C43.9653 141.024 44.9493 142.2 44.6853 143.76C44.3973 145.392 42.9333 146.592 41.3013 146.64ZM49.6551 150H54.3111L59.1591 143.592H59.3991L58.2471 150H62.7591L64.9431 137.616H60.3111L55.4391 144.12H55.1991L56.3511 137.616H51.8391L49.6551 150ZM64.8426 150H69.3546L70.2426 145.032H70.4826L72.8346 150H78.1386L74.6106 143.568L80.2746 137.616H74.9706L70.9866 142.152H70.7466L71.5386 137.616H67.0506L64.8426 150ZM84.586 150.312C88.114 150.312 90.994 148.488 91.954 145.368L87.898 144.84C87.442 145.92 86.338 146.712 85.186 146.712C83.794 146.712 83.002 145.536 83.29 143.856C83.602 142.128 84.898 140.904 86.314 140.904C87.37 140.904 88.21 141.648 88.258 142.752L92.482 142.272C92.65 139.176 90.394 137.304 86.818 137.304C82.69 137.304 79.522 139.8 78.802 143.76C78.13 147.72 80.506 150.312 84.586 150.312ZM92.7332 150H97.3893L102.237 143.592H102.477L101.325 150H105.837L108.021 137.616H103.389L98.5173 144.12H98.2773L99.4293 137.616H94.9173L92.7332 150ZM118.457 137.304C116.849 137.304 115.601 137.904 114.593 139.032L114.353 139.056L114.617 137.616H110.105L106.961 155.52H111.449L112.673 148.56L112.937 148.536C113.537 149.664 114.617 150.312 116.225 150.312C119.465 150.312 122.129 147.768 122.801 143.856C123.521 139.848 121.745 137.304 118.457 137.304ZM116.345 141.072C117.761 141.072 118.601 142.224 118.337 143.76C118.049 145.344 116.777 146.544 115.289 146.544C113.873 146.544 113.057 145.392 113.321 143.856C113.585 142.272 114.881 141.072 116.345 141.072ZM129.939 150.312C134.187 150.312 137.331 147.888 138.051 143.856C138.771 139.8 136.443 137.304 132.171 137.304C127.923 137.304 124.779 139.728 124.059 143.76C123.363 147.84 125.667 150.312 129.939 150.312ZM130.539 146.544C129.075 146.544 128.283 145.44 128.547 143.856C128.835 142.224 130.083 141.072 131.571 141.072C133.035 141.072 133.827 142.176 133.563 143.76C133.275 145.392 132.027 146.544 130.539 146.544ZM138.53 150H145.994C148.802 150 150.914 148.656 151.298 146.544C151.538 145.08 150.842 144.144 149.45 143.76L149.522 143.52C150.602 143.184 151.538 142.152 151.754 140.928C152.09 139.032 150.602 137.616 147.818 137.616H140.714L138.53 150ZM144.026 142.44L144.41 140.352H146.426C147.194 140.352 147.602 140.784 147.506 141.384C147.386 141.984 146.786 142.44 146.018 142.44H144.026ZM143.186 147.264L143.57 145.008H145.586C146.426 145.008 146.882 145.44 146.762 146.088C146.642 146.76 145.994 147.264 145.154 147.264H143.186ZM157.138 150.312C158.89 150.312 160.186 149.592 161.29 148.2L161.53 148.176L161.194 150H165.706L167.89 137.616H163.402L163.066 139.488L162.802 139.512C162.178 138.144 161.17 137.304 159.37 137.304C156.106 137.304 153.466 139.848 152.794 143.76C152.074 147.768 153.802 150.312 157.138 150.312ZM159.25 146.544C157.81 146.544 156.994 145.416 157.282 143.856C157.546 142.248 158.818 141.072 160.306 141.072C161.722 141.072 162.562 142.2 162.274 143.76C162.01 145.368 160.738 146.544 159.25 146.544ZM167.827 150H172.315L173.107 145.584H176.683L175.915 150H180.403L182.611 137.64H178.099L177.331 141.984H173.755L174.523 137.64H170.011L167.827 150ZM188.978 150.312C193.226 150.312 196.37 147.888 197.09 143.856C197.81 139.8 195.482 137.304 191.21 137.304C186.962 137.304 183.818 139.728 183.098 143.76C182.402 147.84 184.706 150.312 188.978 150.312ZM189.578 146.544C188.114 146.544 187.322 145.44 187.586 143.856C187.874 142.224 189.122 141.072 190.61 141.072C192.074 141.072 192.866 142.176 192.602 143.76C192.314 145.392 191.066 146.544 189.578 146.544ZM198.173 154.2L201.365 149.856C201.917 149.136 202.253 148.488 202.349 147.864C202.589 146.448 201.701 145.416 200.213 145.416C198.773 145.416 197.573 146.4 197.333 147.792C197.093 149.016 197.741 149.976 198.869 150.192L196.757 153.624L198.173 154.2ZM217.254 150H221.574L223.758 137.616H219.27L218.358 142.68C217.926 143.184 217.134 143.568 216.414 143.568C215.406 143.568 214.902 142.848 215.094 141.696L215.814 137.616H211.326L210.486 142.32C209.982 145.152 211.422 147.168 214.038 147.168C215.502 147.168 217.158 146.52 218.07 145.488L217.254 150ZM226.823 150H231.335L232.895 141.216H236.783L237.431 137.616H225.119L224.471 141.216H228.383L226.823 150ZM242.978 150.312C247.226 150.312 250.37 147.888 251.09 143.856C251.81 139.8 249.482 137.304 245.21 137.304C240.962 137.304 237.818 139.728 237.098 143.76C236.402 147.84 238.706 150.312 242.978 150.312ZM243.578 146.544C242.114 146.544 241.322 145.44 241.586 143.856C241.874 142.224 243.122 141.072 244.61 141.072C246.074 141.072 246.866 142.176 246.602 143.76C246.314 145.392 245.066 146.544 243.578 146.544ZM257.905 150.336C261.793 150.336 264.865 147.936 265.489 144.36C266.113 140.832 264.241 138.36 260.713 138.36C259.297 138.36 258.265 138.768 257.305 139.68L257.065 139.728C257.521 137.592 258.697 136.704 261.481 136.512C264.961 136.224 266.809 134.856 267.313 132.024L263.521 131.976C263.353 132.96 262.561 133.392 260.737 133.56C256.009 133.968 253.705 136.512 252.625 142.656C251.761 147.552 253.705 150.336 257.905 150.336ZM258.481 146.568C257.233 146.568 256.537 145.632 256.777 144.288C257.041 142.872 258.121 141.96 259.369 141.96C260.593 141.96 261.265 142.848 261.001 144.216C260.761 145.584 259.729 146.568 258.481 146.568ZM266.054 150H272.534C276.038 150 278.27 147.744 278.702 145.32C279.134 142.824 277.67 140.664 274.142 140.664H272.198L272.75 137.616H268.238L266.054 150ZM278.75 150H283.238L285.422 137.64H280.934L278.75 150ZM270.998 146.616L271.43 144.048H272.942C273.854 144.048 274.334 144.552 274.214 145.32C274.07 146.088 273.374 146.616 272.462 146.616H270.998ZM4.12 181H8.632L10.192 172.216H14.08L14.728 168.616H2.416L1.768 172.216H5.68L4.12 181ZM13.8895 181H20.3695C23.8735 181 26.1055 178.744 26.5375 176.32C26.9695 173.824 25.5055 171.664 21.9775 171.664H20.0335L20.5855 168.616H16.0735L13.8895 181ZM26.5855 181H31.0735L33.2575 168.64H28.7695L26.5855 181ZM18.8335 177.616L19.2655 175.048H20.7775C21.6895 175.048 22.1695 175.552 22.0495 176.32C21.9055 177.088 21.2095 177.616 20.2975 177.616H18.8335ZM42.1591 181H46.6711L48.2311 172.216H52.1191L52.7671 168.616H40.4551L39.8071 172.216H43.7191L42.1591 181ZM58.3143 181.312C62.5623 181.312 65.7063 178.888 66.4263 174.856C67.1463 170.8 64.8183 168.304 60.5463 168.304C56.2983 168.304 53.1543 170.728 52.4343 174.76C51.7382 178.84 54.0423 181.312 58.3143 181.312ZM58.9143 177.544C57.4503 177.544 56.6583 176.44 56.9223 174.856C57.2103 173.224 58.4583 172.072 59.9463 172.072C61.4103 172.072 62.2023 173.176 61.9383 174.76C61.6503 176.392 60.4023 177.544 58.9143 177.544ZM74.7771 181H79.0971L81.2811 168.616H76.7931L75.8811 173.68C75.4491 174.184 74.6571 174.568 73.9371 174.568C72.9291 174.568 72.4251 173.848 72.6171 172.696L73.3371 168.616H68.8491L68.0091 173.32C67.5051 176.152 68.9451 178.168 71.5611 178.168C73.0251 178.168 74.6811 177.52 75.5931 176.488L74.7771 181ZM81.1786 181H85.6666L86.4586 176.584H90.0346L89.2666 181H93.7546L95.9626 168.64H91.4506L90.6826 172.984H87.1066L87.8746 168.64H83.3626L81.1786 181ZM102.33 181.312C106.578 181.312 109.722 178.888 110.442 174.856C111.162 170.8 108.834 168.304 104.562 168.304C100.314 168.304 97.1699 170.728 96.4499 174.76C95.7539 178.84 98.0579 181.312 102.33 181.312ZM102.93 177.544C101.466 177.544 100.674 176.44 100.938 174.856C101.226 173.224 102.474 172.072 103.962 172.072C105.426 172.072 106.218 173.176 105.954 174.76C105.666 176.392 104.418 177.544 102.93 177.544ZM116.757 181H124.221C127.029 181 129.141 179.656 129.525 177.544C129.765 176.08 129.069 175.144 127.677 174.76L127.749 174.52C128.829 174.184 129.765 173.152 129.981 171.928C130.317 170.032 128.829 168.616 126.045 168.616H118.941L116.757 181ZM122.253 173.44L122.637 171.352H124.653C125.421 171.352 125.829 171.784 125.733 172.384C125.613 172.984 125.013 173.44 124.245 173.44H122.253ZM121.413 178.264L121.797 176.008H123.813C124.653 176.008 125.109 176.44 124.989 177.088C124.869 177.76 124.221 178.264 123.381 178.264H121.413ZM136.805 181.312C140.333 181.312 143.213 179.488 144.173 176.368L140.117 175.84C139.661 176.92 138.557 177.712 137.405 177.712C136.013 177.712 135.221 176.536 135.509 174.856C135.821 173.128 137.117 171.904 138.533 171.904C139.589 171.904 140.429 172.648 140.477 173.752L144.701 173.272C144.869 170.176 142.613 168.304 139.037 168.304C134.909 168.304 131.741 170.8 131.021 174.76C130.349 178.72 132.725 181.312 136.805 181.312ZM151.548 181.312C154.692 181.312 157.5 179.896 158.508 177.592L154.764 176.848C154.26 177.64 153.372 178.216 152.268 178.216C150.924 178.216 150.204 177.4 150.132 176.056H159.18C159.276 175.816 159.42 175.192 159.444 174.856C160.164 170.872 157.908 168.304 153.828 168.304C149.748 168.304 146.436 170.8 145.74 174.712C145.02 178.72 147.42 181.312 151.548 181.312ZM150.516 173.656C150.996 172.288 152.004 171.4 153.252 171.4C154.524 171.4 155.268 172.384 155.148 173.608L150.516 173.656ZM165.788 181H173.252C176.06 181 178.172 179.656 178.556 177.544C178.796 176.08 178.1 175.144 176.708 174.76L176.78 174.52C177.86 174.184 178.796 173.152 179.012 171.928C179.348 170.032 177.86 168.616 175.076 168.616H167.972L165.788 181ZM171.284 173.44L171.668 171.352H173.684C174.452 171.352 174.86 171.784 174.764 172.384C174.644 172.984 174.044 173.44 173.276 173.44H171.284ZM170.444 178.264L170.828 176.008H172.844C173.684 176.008 174.14 176.44 174.02 177.088C173.9 177.76 173.252 178.264 172.412 178.264H170.444ZM179.452 181H185.932C189.436 181 191.668 178.744 192.1 176.32C192.532 173.824 191.068 171.664 187.54 171.664H185.596L186.148 168.616H181.636L179.452 181ZM192.148 181H196.636L198.82 168.64H194.332L192.148 181ZM184.396 177.616L184.828 175.048H186.34C187.252 175.048 187.732 175.552 187.612 176.32C187.468 177.088 186.772 177.616 185.86 177.616H184.396ZM201.382 186.64C203.974 186.64 205.774 185.056 207.646 181.6L214.63 168.616H209.998L206.638 175.456H206.398L204.814 168.616H199.966L203.83 181.168C203.278 182.128 202.414 183.064 201.022 183.064C200.422 183.064 199.63 182.92 199.126 182.704L198.55 186.184C199.198 186.448 200.47 186.64 201.382 186.64ZM221.449 181H225.769L227.953 168.616H223.465L222.553 173.68C222.121 174.184 221.329 174.568 220.609 174.568C219.601 174.568 219.097 173.848 219.289 172.696L220.009 168.616H215.521L214.681 173.32C214.177 176.152 215.617 178.168 218.233 178.168C219.697 178.168 221.353 177.52 222.265 176.488L221.449 181ZM227.85 181H232.506L237.354 174.592H237.594L236.442 181H240.954L243.138 168.616H238.506L233.634 175.12H233.394L234.546 168.616H230.034L227.85 181ZM242.27 181C244.334 181 247.886 181.216 249.038 177.376L250.598 172.216H252.974L251.414 181H255.926L258.11 168.616H247.382L245.678 174.664C245.03 176.944 244.526 177.64 242.822 177.64L242.27 181Z" fill="white"/>
</svg>
