<svg width="1440" height="1115" viewBox="0 0 1440 1115" fill="none" xmlns="http://www.w3.org/2000/svg">
<rect width="1440" height="1115" fill="#45F7E1"/>
<mask id="mask0_617_12" style="mask-type:alpha" maskUnits="userSpaceOnUse" x="0" y="0" width="1440" height="1115">
<rect width="1440" height="1115" fill="#C4C4C4"/>
</mask>
<g mask="url(#mask0_617_12)">
<path fill-rule="evenodd" clip-rule="evenodd" d="M219.308 131.415C219.416 131.841 219.792 132.193 220.146 132.2C227.779 132.36 235.346 132.411 242.897 132.462C260.911 132.584 278.829 132.705 297.323 134.301C333.838 137.453 370.855 144.228 408.225 152.707C464.282 165.426 521.557 178.649 578.063 200.559C596.53 207.72 606.33 212.253 622.196 224.781C631.297 231.967 637.739 239.393 640.402 246.57C643.033 253.657 642.067 260.768 635.838 267.437C626.592 277.335 615.618 285.245 604.691 293.121C600.757 295.957 596.829 298.788 592.99 301.706C592.113 302.372 591.114 303.116 590.016 303.934C581.796 310.053 568.062 320.278 559.108 332.698C554.036 339.733 550.439 347.55 550.307 355.814C550.248 359.466 550.867 363.21 552.336 367.005C537.811 373.952 525.36 384.7 515.456 400.027C506.511 413.872 499.594 430.972 509.195 452.791C509.378 453.208 509.788 453.477 510.11 453.391C510.432 453.305 510.544 452.897 510.36 452.48C501.155 431.561 507.686 414.999 516.62 401.173C526.387 386.058 538.655 375.432 552.978 368.544L552.979 368.548C554.911 372.87 557.947 377.202 562.285 381.502C575.11 394.214 591.757 401.107 608.134 404.256C624.525 407.408 640.746 406.829 652.806 404.495C656.589 403.762 665.674 401.876 671.855 398.183C674.927 396.348 677.405 393.998 678.04 390.977C678.364 389.436 678.208 387.724 677.42 385.861C676.64 384.015 675.267 382.085 673.244 380.06C663.805 370.616 652.944 365.063 642.055 361.761C631.166 358.459 620.202 357.394 610.519 356.966C589.292 356.026 570.031 358.823 553.427 366.492C552.144 363.067 551.594 359.67 551.648 356.317C551.774 348.454 555.216 340.859 560.245 333.882C569.111 321.583 582.726 311.445 590.958 305.315C592.059 304.495 593.064 303.746 593.948 303.074C597.75 300.185 601.654 297.371 605.574 294.545C616.523 286.654 627.596 278.672 636.903 268.709C643.312 261.847 644.535 254.242 641.618 246.382C638.734 238.612 631.893 230.86 622.69 223.594C606.615 210.901 596.637 206.294 578.101 199.107C521.482 177.152 464.111 163.91 408.067 151.194C370.664 142.708 333.588 135.921 297.001 132.762C278.461 131.162 260.474 131.04 242.441 130.919C234.901 130.868 227.352 130.817 219.752 130.657C219.398 130.65 219.199 130.989 219.308 131.415ZM554.055 368.035C570.551 360.371 589.718 357.571 610.887 358.508C620.539 358.935 631.386 359.994 642.12 363.249C652.853 366.503 663.425 371.938 672.563 381.081C674.452 382.971 675.613 384.655 676.242 386.142C676.863 387.611 676.991 388.951 676.728 390.202C676.19 392.762 674.01 394.949 670.973 396.763C664.937 400.37 655.997 402.235 652.203 402.969C640.25 405.284 624.164 405.856 607.934 402.735C591.69 399.611 575.402 392.808 562.959 380.474C558.785 376.336 555.934 372.239 554.139 368.225C554.111 368.162 554.083 368.098 554.055 368.035Z" fill="#231D1D"/>
<path fill-rule="evenodd" clip-rule="evenodd" d="M623.154 513.568C659.469 514.172 682.865 531.291 710.185 552.243C710.627 552.582 710.711 553.213 710.373 553.654C710.035 554.094 709.403 554.177 708.962 553.839C681.628 532.876 658.708 516.172 623.124 515.58C583.963 514.929 546.564 531.11 522.502 562.007C509.035 579.3 501.734 597.678 501.289 616.118C500.845 634.55 507.248 653.142 521.362 670.883C527.983 679.206 535.725 687.29 544.322 694.976C597.786 685.897 654.652 696.382 696.692 731.318C700.668 734.621 704.321 738.209 707.129 741.726C709.92 745.223 711.951 748.741 712.552 751.901C712.856 753.498 712.804 755.046 712.257 756.456C711.707 757.876 710.688 759.076 709.2 760.015C706.274 761.862 701.494 762.732 694.547 762.457C663.614 761.235 629.462 750.631 598.3 734.368C578.366 723.965 559.625 711.231 543.708 697.121C515.287 702.074 487.855 712.612 464.212 728.003C463.78 728.284 463.329 728.577 462.86 728.881C456.989 732.688 448.472 738.21 441.64 744.827C434.218 752.016 429.098 760.193 431.03 768.64C434.301 782.944 443.752 796.845 455.233 809.39C466.701 821.92 480.11 833.01 491.174 841.703C560.147 895.898 651.657 914.622 736.077 931.833C736.622 931.944 736.974 932.475 736.864 933.02C736.754 933.564 736.223 933.915 735.678 933.804C651.359 916.614 559.347 897.826 489.932 843.284C478.846 834.574 465.331 823.402 453.749 810.746C442.179 798.104 432.453 783.891 429.067 769.085C426.881 759.524 432.739 750.644 440.238 743.381C447.219 736.621 455.893 730.997 461.748 727.202C462.222 726.895 462.677 726.599 463.112 726.317C486.532 711.07 513.656 700.531 541.808 695.418C533.598 687.977 526.18 680.17 519.787 672.134C505.42 654.074 498.819 635.031 499.277 616.066C499.734 597.11 507.24 578.328 520.913 560.77C545.399 529.328 583.423 512.908 623.154 513.568ZM546.262 696.691C561.773 710.249 579.926 722.511 599.229 732.585C630.2 748.748 664.06 759.24 694.622 760.447C701.462 760.717 705.728 759.825 708.123 758.313C709.295 757.574 710.005 756.695 710.38 755.727C710.759 754.749 710.827 753.598 710.575 752.274C710.065 749.594 708.276 746.386 705.557 742.98C702.854 739.595 699.306 736.104 695.407 732.864C654.309 698.711 598.749 688.179 546.262 696.691Z" fill="white" stroke="white" stroke-width="5" stroke-linecap="round"/>
<path fill-rule="evenodd" clip-rule="evenodd" d="M1005.11 291.476C1005.08 293.661 1006.81 295.513 1008.98 295.612C1011.76 295.74 1014.54 295.867 1017.32 295.994C1135.56 301.402 1252.97 306.772 1361.09 363.751C1406.97 387.93 1446.47 422.02 1479.05 462.614C1487.91 473.66 1497.9 486.566 1506.08 500.329C1514.28 514.118 1520.49 528.491 1522.03 542.462C1524.63 565.993 1510.28 584.604 1489.54 599.307C1468.88 613.951 1442.85 623.984 1424.36 630.462C1421 631.638 1417.64 632.782 1414.27 633.898C1405.25 627.288 1395.9 621.246 1386.87 615.416C1384.21 613.692 1381.57 611.986 1378.97 610.29C1371.55 605.434 1364.07 600.672 1356.6 595.918C1326.2 576.565 1296.01 557.339 1270.35 532.388C1261.8 524.065 1248.08 510.212 1237.27 495.082C1231.87 487.518 1227.29 479.764 1224.42 472.331C1221.54 464.879 1220.51 458.046 1221.79 452.137C1223.1 446.083 1227.89 440.77 1234.47 436.023C1240.08 431.97 1246.46 428.7 1251.96 425.877C1252.85 425.421 1253.71 424.977 1254.55 424.544C1296.41 402.819 1341.61 400.598 1386.11 419.316C1388.13 420.167 1390.41 419.224 1391.18 417.21C1391.96 415.195 1390.95 412.872 1388.93 412.021C1342.19 392.363 1294.59 394.741 1250.78 417.476C1249.99 417.883 1249.16 418.309 1248.3 418.753C1242.82 421.558 1235.88 425.115 1229.77 429.531C1222.73 434.605 1216.04 441.324 1214.12 450.203C1212.39 458.175 1213.92 466.697 1217.12 474.991C1220.32 483.305 1225.33 491.689 1230.96 499.572C1242.22 515.337 1256.38 529.615 1265 538.002C1291.32 563.604 1322.42 583.397 1352.89 602.785C1360.27 607.486 1367.62 612.163 1374.86 616.894C1377.48 618.606 1380.11 620.314 1382.76 622.025C1390.24 626.867 1397.78 631.743 1405.07 636.869C1346.44 655.322 1285.81 665.477 1224.68 675.717C1221.35 676.275 1218.01 676.833 1214.68 677.392C1213.62 677.57 1212.57 677.748 1211.51 677.925C1180.91 683.053 1149.32 688.35 1120.14 700.463C1116.65 701.909 1111.01 704.275 1105.84 707.436C1100.86 710.482 1095.43 714.786 1093.47 720.491C1092.44 723.512 1092.96 726.575 1093.97 729.186C1094.98 731.793 1096.6 734.287 1098.31 736.485C1101.55 740.662 1105.62 744.406 1107.94 746.542C1108.05 746.65 1108.17 746.755 1108.28 746.855C1130.36 767.226 1159.93 775.661 1189.81 778.743C1217.43 781.591 1245.84 779.907 1269.64 778.498C1271.59 778.382 1273.52 778.267 1275.42 778.158C1335.87 774.656 1387.56 767.035 1432.97 724.699L1433.04 724.641C1440.7 717.496 1449.25 709.528 1453.73 700.478C1456.03 695.833 1457.35 690.753 1456.91 685.229C1456.46 679.698 1454.27 674.058 1450.08 668.274C1442.22 657.397 1432.46 648.092 1421.95 639.748C1423.68 639.157 1425.42 638.559 1427.15 637.953C1445.71 631.45 1472.61 621.135 1494.19 605.836C1515.69 590.596 1532.91 569.669 1529.83 541.84C1528.11 526.229 1521.26 510.686 1512.78 496.422C1504.29 482.13 1493.98 468.844 1485.08 457.755C1451.88 416.375 1411.52 381.515 1364.54 356.757C1254.81 298.928 1135.82 293.492 1018.08 288.113C1015.08 287.976 1012.08 287.839 1009.08 287.701C1006.91 287.601 1005.14 289.292 1005.11 291.476ZM1413.08 642.696C1424.73 651.507 1435.42 661.218 1443.8 672.804C1447.27 677.605 1448.78 681.836 1449.08 685.614C1449.39 689.398 1448.51 693.063 1446.69 696.753C1442.92 704.346 1435.5 711.38 1427.54 718.802C1384.19 759.223 1334.86 766.767 1274.71 770.251C1272.84 770.36 1270.93 770.472 1269 770.586C1245.12 771.999 1217.31 773.644 1190.36 770.864C1161.21 767.859 1133.68 759.73 1113.47 741.091L1113.21 740.85C1110.85 738.677 1107.23 735.343 1104.43 731.728C1102.97 729.855 1101.87 728.082 1101.27 726.52C1100.67 724.962 1100.68 723.953 1100.9 723.292C1101.93 720.307 1105.27 717.181 1110.07 714.244C1114.68 711.423 1119.83 709.253 1123.32 707.802C1151.69 696.027 1182.52 690.857 1213.35 685.686C1214.31 685.526 1215.26 685.366 1216.22 685.206C1219.61 684.636 1223.01 684.067 1226.4 683.498C1289.25 672.973 1352.21 662.429 1413.08 642.696Z" fill="white"/>
<path fill-rule="evenodd" clip-rule="evenodd" d="M891.708 121.577C891.453 122.071 891.646 122.678 892.139 122.933C902.772 128.433 913.416 133.779 924.037 139.114C949.374 151.842 974.577 164.502 999.178 179.012C1047.75 207.662 1093.56 240.214 1138.23 274.685C1205.24 326.394 1273.49 379.449 1332.31 440.484C1351.54 460.432 1361.04 471.737 1371.44 495.127C1377.41 508.544 1379.39 520.334 1376.26 529.236C1373.18 538.027 1365 544.324 1349.8 546.503C1327.24 549.738 1304.14 549.814 1281.14 549.889C1272.86 549.916 1264.6 549.943 1256.37 550.117C1254.5 550.157 1252.37 550.187 1250.03 550.22C1232.55 550.467 1203.33 550.881 1178.77 556.793C1164.85 560.142 1152.27 565.289 1144.15 573.3C1140.57 576.84 1137.85 580.945 1136.28 585.695C1109.1 582.34 1081.19 584.165 1052.49 592.263C1026.57 599.578 1000.39 611.505 993.028 639.621C992.887 640.159 993.208 640.709 993.745 640.85C994.282 640.991 994.832 640.669 994.973 640.131C1002.03 613.176 1027.15 601.505 1053.04 594.201C1081.34 586.215 1108.87 584.383 1135.71 587.653C1135.71 587.655 1135.71 587.657 1135.71 587.658C1134.3 593.248 1134.43 599.622 1136.44 606.874C1142.36 628.316 1159.27 646.727 1179.39 661.278C1199.53 675.842 1223.01 686.628 1242.29 692.779C1248.34 694.709 1262.98 699.218 1275.26 699.924C1281.36 700.274 1287.12 699.704 1290.91 697.186C1292.85 695.902 1294.27 694.114 1294.95 691.735C1295.61 689.379 1295.53 686.525 1294.61 683.124C1290.33 667.257 1280.31 654.209 1268.09 643.349C1255.87 632.49 1241.4 623.772 1228.13 616.574C1199.04 600.795 1169.14 590.057 1138.32 585.956C1139.79 581.699 1142.27 577.983 1145.57 574.733C1153.29 567.11 1165.44 562.071 1179.24 558.75C1203.56 552.896 1232.53 552.483 1250.04 552.234C1252.38 552.2 1254.52 552.17 1256.42 552.13C1264.56 551.957 1272.78 551.93 1281.03 551.903C1304.07 551.828 1327.37 551.752 1350.08 548.496C1365.72 546.254 1374.74 539.652 1378.16 529.903C1381.54 520.265 1379.31 507.876 1373.28 494.309C1362.74 470.61 1353.06 459.109 1333.76 439.087C1274.82 377.928 1206.45 324.788 1139.46 273.091C1094.75 238.589 1048.87 205.984 1000.2 177.278C975.537 162.732 950.237 150.023 924.873 137.282C914.267 131.954 903.65 126.621 893.063 121.145C892.569 120.89 891.963 121.083 891.708 121.577ZM1137.73 587.908C1168.39 591.939 1198.16 602.608 1227.17 618.344C1240.4 625.518 1254.71 634.15 1266.76 644.854C1278.8 655.557 1288.53 668.287 1292.67 683.648C1293.52 686.824 1293.55 689.288 1293.01 691.186C1292.48 693.062 1291.37 694.466 1289.8 695.508C1286.59 697.642 1281.41 698.261 1275.38 697.914C1263.39 697.225 1248.97 692.797 1242.9 690.862C1223.79 684.764 1200.51 674.066 1180.57 659.646C1160.61 645.213 1144.13 627.142 1138.37 606.337C1136.45 599.359 1136.35 593.346 1137.66 588.153C1137.68 588.071 1137.7 587.99 1137.73 587.908Z" fill="#231D1D"/>
<path fill-rule="evenodd" clip-rule="evenodd" d="M-335.639 464.349C-335.475 464.707 -335.045 464.837 -334.679 464.639C-326.792 460.372 -318.986 456.036 -311.197 451.71C-292.614 441.388 -274.131 431.12 -254.875 421.979C-216.854 403.93 -177.877 389.174 -138.329 375.898C-79.0043 355.984 -18.3639 335.863 42.5384 324.782C62.4423 321.161 73.0937 319.965 90.9688 323.16C101.222 324.993 108.763 328.605 112.379 334.16C115.95 339.647 115.818 347.241 110.206 357.449C101.878 372.6 91.5268 386.786 81.2192 400.913C77.5084 405.998 73.8032 411.076 70.2002 416.188C69.3776 417.356 68.4378 418.671 67.4056 420.116C59.6753 430.935 46.7602 449.01 39.0387 466.487C34.6648 476.387 31.9054 486.205 32.772 494.457C33.155 498.103 34.247 501.449 36.222 504.352C22.0934 519.644 10.5644 537.494 2.21619 558.397C-5.32429 577.278 -10.3781 598.205 2.16599 614.223C2.40589 614.529 2.86079 614.558 3.18203 614.286C3.50328 614.015 3.56924 613.546 3.32934 613.24C-8.69712 597.882 -3.97633 577.712 3.55449 558.856C11.7871 538.242 23.1433 520.619 37.0701 505.502C37.0709 505.503 37.0716 505.504 37.0724 505.505C39.5882 508.66 43.2434 511.186 48.2366 512.925C62.9981 518.066 80.9939 515.234 98.2561 508.856C115.534 502.473 132.184 492.497 144.331 483.196C148.141 480.279 157.277 473.146 163.2 465.91C166.144 462.313 168.412 458.553 168.7 455.195C168.847 453.484 168.479 451.881 167.44 450.494C166.412 449.12 164.763 448.007 162.431 447.177C151.556 443.306 139.688 444.108 128.062 447.154C116.438 450.2 105.008 455.503 94.9749 460.692C72.9812 472.068 53.4678 486 37.2848 503.211C35.5456 500.567 34.5674 497.525 34.2158 494.177C33.3911 486.325 36.0171 476.817 40.3541 467C48.0002 449.694 60.8031 431.772 68.5439 420.936C69.5795 419.486 70.5245 418.163 71.3544 416.986C74.922 411.924 78.6048 406.877 82.3026 401.809C92.6298 387.656 103.075 373.341 111.459 358.09C117.232 347.587 117.569 339.354 113.609 333.27C109.694 327.255 101.702 323.553 91.3339 321.699C73.2237 318.462 62.3802 319.688 42.4015 323.323C-18.6233 334.427 -79.3643 354.584 -138.675 374.493C-178.259 387.78 -217.297 402.559 -255.393 420.644C-274.697 429.808 -293.252 440.114 -311.854 450.447C-319.632 454.768 -327.419 459.093 -335.272 463.342C-335.638 463.54 -335.802 463.991 -335.639 464.349ZM38.119 504.374C54.192 487.23 73.6087 473.348 95.542 462.004C105.542 456.831 116.852 451.591 128.31 448.589C139.768 445.586 151.325 444.834 161.853 448.581C164.03 449.356 165.431 450.348 166.26 451.455C167.078 452.549 167.373 453.8 167.254 455.19C167.01 458.034 165.029 461.461 162.118 465.017C156.334 472.084 147.346 479.111 143.524 482.037C131.484 491.255 114.973 501.146 97.8659 507.467C80.7429 513.794 63.1289 516.505 48.806 511.517C44.0013 509.844 40.5656 507.444 38.2286 504.513C38.1918 504.466 38.1552 504.42 38.119 504.374Z" fill="#231D1D"/>
<path fill-rule="evenodd" clip-rule="evenodd" d="M551.105 512.261C550.832 512.635 550.812 513.27 551.06 513.681C563.193 533.763 573.132 554.454 576.597 581.687C580.488 612.274 578.614 644.287 567.704 670.996C563.232 681.943 557.75 691.695 552.096 701.336C551.202 702.861 550.303 704.383 549.403 705.908C544.625 714 539.821 722.137 535.538 730.907C527.098 748.187 523.694 765.504 525.448 786.881C526.736 802.58 530.816 819.728 537.392 833.682C543.969 847.638 553.081 858.469 564.438 861.35C570.098 862.785 575.403 862.417 579.735 859.391C584.096 856.344 587.39 850.66 589.065 841.737C590.862 832.171 591.471 822.302 592.074 812.546C592.174 810.925 592.274 809.306 592.379 807.693C593.119 796.329 594.119 785.171 597.211 774.584C599.514 766.696 602.793 762.631 606.753 760.697C610.763 758.738 615.531 758.933 620.839 759.799C636.138 762.295 650.801 776.202 658.44 796.481C662.081 806.144 663.295 817.248 663.587 828.734C663.733 834.474 663.649 840.288 663.526 846.05C663.502 847.198 663.476 848.345 663.45 849.489C663.347 854.073 663.245 858.607 663.245 862.995C663.245 863.55 663.544 864 663.913 864C664.282 864 664.581 863.55 664.581 862.995C664.581 858.644 664.682 854.154 664.785 849.574C664.811 848.426 664.837 847.272 664.861 846.114C664.984 840.345 665.07 834.472 664.922 828.657C664.627 817.034 663.395 805.558 659.602 795.49C651.741 774.622 636.689 760.363 620.983 757.801C615.655 756.932 610.641 756.685 606.341 758.785C601.992 760.909 598.433 765.402 595.988 773.775C592.805 784.678 591.791 796.115 591.05 807.497C590.943 809.13 590.842 810.76 590.742 812.388C590.138 822.153 589.541 831.816 587.78 841.191C586.198 849.616 583.141 854.795 579.173 857.568C575.175 860.36 570.173 860.766 564.66 859.368C553.751 856.601 544.919 846.179 538.481 832.519C532.043 818.858 528.037 802.029 526.773 786.634C525.065 765.808 528.359 748.999 536.614 732.097C540.858 723.409 545.614 715.352 550.392 707.259C551.294 705.73 552.197 704.201 553.098 702.665C558.757 693.016 564.305 683.154 568.842 672.048C579.972 644.801 581.844 612.244 577.909 581.309C574.374 553.528 564.236 532.501 552.048 512.329C551.8 511.918 551.378 511.888 551.105 512.261Z" fill="#231D1D"/>
<path fill-rule="evenodd" clip-rule="evenodd" d="M-20.6116 504.11C-20.8479 504.565 -20.6999 505.183 -20.2811 505.492C0.202105 520.57 18.1355 537.003 29.8326 561.996C42.9703 590.069 49.3585 621.53 43.1173 651.05C40.5593 663.149 36.4254 674.452 32.0485 685.708C31.3562 687.488 30.6575 689.268 29.9581 691.05C26.2446 700.509 22.511 710.02 19.5937 719.958C13.8452 739.541 14.3422 757.396 22.3284 777.352C28.1935 792.009 37.9091 807.083 49.846 818.209C61.7848 829.337 76.0115 836.571 90.8553 835.368C98.2527 834.769 104.72 832.558 109.26 828.13C113.829 823.672 116.361 817.05 116.008 807.877C115.631 798.042 113.7 788.333 111.792 778.734C111.475 777.139 111.158 775.546 110.849 773.957C108.675 762.763 106.878 751.675 107.825 740.405C108.531 732.009 111.484 726.95 115.861 723.703C120.293 720.415 126.248 718.933 133.055 717.909C152.673 714.957 174.609 723.208 189.583 740.049C196.718 748.074 201.243 758.334 204.729 769.285C206.471 774.757 207.947 780.382 209.363 785.968C209.646 787.082 209.926 788.195 210.205 789.305C211.324 793.752 212.431 798.151 213.625 802.374C213.776 802.908 214.268 803.236 214.725 803.107C215.181 802.978 215.429 802.44 215.278 801.906C214.095 797.719 212.998 793.363 211.88 788.92C211.6 787.806 211.318 786.686 211.033 785.563C209.616 779.969 208.125 774.287 206.36 768.744C202.832 757.662 198.186 747.05 190.752 738.688C175.343 721.359 152.83 712.906 132.69 715.936C125.856 716.964 119.582 718.482 114.831 722.008C110.025 725.573 106.841 731.142 106.092 740.055C105.116 751.661 106.972 763.021 109.151 774.234C109.463 775.842 109.782 777.446 110.1 779.048C112.009 788.656 113.898 798.164 114.269 807.801C114.601 816.462 112.226 822.516 108.067 826.573C103.879 830.659 97.7955 832.8 90.5911 833.384C76.3329 834.539 62.5641 827.601 50.8786 816.709C39.1913 805.816 29.6539 791.024 23.9024 776.652C16.1219 757.209 15.6272 739.881 21.2498 720.727C24.1399 710.881 27.8364 701.464 31.55 692.004C32.2511 690.217 32.9529 688.429 33.65 686.637C38.0308 675.371 42.2172 663.939 44.8123 651.664C51.1792 621.55 44.641 589.565 31.3538 561.174C19.4216 535.678 1.14986 518.991 -19.4253 503.845C-19.8442 503.537 -20.3753 503.655 -20.6116 504.11Z" fill="#231D1D" stroke="white" stroke-width="5" stroke-linecap="round"/>
</g>
</svg>
