<svg width="299" height="156" viewBox="0 0 299 156" fill="none" xmlns="http://www.w3.org/2000/svg">
<path d="M1.396 26H15.364C21.376 26 25.444 23.516 26.236 19.124C26.812 16.028 25.264 13.76 22.816 13.04L22.924 12.68C25.156 11.996 27.1 10.052 27.604 7.388C28.36 3.068 25.228 0.223999 19.144 0.223999H5.968L1.396 26ZM11.728 10.556L12.592 5.696H16.768C18.712 5.696 19.864 6.668 19.648 8.072C19.36 9.512 17.812 10.556 15.868 10.556H11.728ZM9.964 20.528L10.9 15.236H15.58C17.596 15.236 18.892 16.316 18.64 17.828C18.352 19.376 16.624 20.528 14.608 20.528H9.964ZM27.4358 26H34.4198L41.6918 16.388H42.0518L40.3238 26H47.0918L50.3678 7.424H43.4198L36.1118 17.18H35.7518L37.4798 7.424H30.7118L27.4358 26ZM48.1651 31.4H53.5651L54.5011 26H68.3971L67.4611 31.4H72.8251L74.7331 20.6H71.7091L74.0491 7.424H57.8131L55.9051 13.94C54.8971 17.324 53.8891 20.024 52.2331 20.6H50.0731L48.1651 31.4ZM58.9291 20.6L59.0011 20.276C60.2971 19.304 60.8731 18.26 61.3771 16.676L62.6011 12.824H66.3451L64.9771 20.6H58.9291ZM85.3885 26.468C90.1045 26.468 94.3165 24.344 95.8285 20.888L90.2125 19.772C89.4565 20.96 88.1245 21.824 86.4685 21.824C84.4525 21.824 83.3725 20.6 83.2645 18.584H96.8365C96.9805 18.224 97.1965 17.288 97.2325 16.784C98.3125 10.808 94.9285 6.956 88.8085 6.956C82.6885 6.956 77.7205 10.7 76.6765 16.568C75.5965 22.58 79.1965 26.468 85.3885 26.468ZM83.8405 14.984C84.5605 12.932 86.0725 11.6 87.9445 11.6C89.8525 11.6 90.9685 13.076 90.7885 14.912L83.8405 14.984ZM107.925 26.468C114.297 26.468 119.013 22.832 120.093 16.784C121.173 10.7 117.681 6.956 111.273 6.956C104.901 6.956 100.185 10.592 99.1045 16.64C98.0605 22.76 101.517 26.468 107.925 26.468ZM108.825 20.816C106.629 20.816 105.441 19.16 105.837 16.784C106.269 14.336 108.141 12.608 110.373 12.608C112.569 12.608 113.757 14.264 113.361 16.64C112.929 19.088 111.057 20.816 108.825 20.816ZM1.264 88H10.576C14.584 88 17.296 86.344 17.824 83.416C18.208 81.352 17.176 79.84 15.544 79.36L15.616 79.12C17.104 78.664 18.4 77.368 18.736 75.592C19.24 72.712 17.152 70.816 13.096 70.816H4.312L1.264 88ZM8.152 77.704L8.728 74.464H11.512C12.808 74.464 13.576 75.112 13.432 76.048C13.24 77.008 12.208 77.704 10.912 77.704H8.152ZM6.976 84.352L7.6 80.824H10.72C12.064 80.824 12.928 81.544 12.76 82.552C12.568 83.584 11.416 84.352 10.072 84.352H6.976ZM18.6239 88H23.2799L28.1279 81.592H28.3679L27.2159 88H31.7279L33.9119 75.616H29.2799L24.4079 82.12H24.1679L25.3199 75.616H20.8079L18.6239 88ZM32.4434 91.6H36.0434L36.6674 88H45.9314L45.3074 91.6H48.8834L50.1554 84.4H48.1394L49.6994 75.616H38.8754L37.6034 79.96C36.9314 82.216 36.2594 84.016 35.1554 84.4H33.7154L32.4434 91.6ZM39.6194 84.4L39.6674 84.184C40.5314 83.536 40.9154 82.84 41.2514 81.784L42.0674 79.216H44.5634L43.6514 84.4H39.6194ZM57.259 88.312C60.403 88.312 63.211 86.896 64.219 84.592L60.475 83.848C59.971 84.64 59.083 85.216 57.979 85.216C56.635 85.216 55.915 84.4 55.843 83.056H64.891C64.987 82.816 65.131 82.192 65.155 81.856C65.875 77.872 63.619 75.304 59.539 75.304C55.459 75.304 52.147 77.8 51.451 81.712C50.731 85.72 53.131 88.312 57.259 88.312ZM56.227 80.656C56.707 79.288 57.715 78.4 58.963 78.4C60.235 78.4 60.979 79.384 60.859 80.608L56.227 80.656ZM72.283 88.312C76.531 88.312 79.675 85.888 80.395 81.856C81.115 77.8 78.787 75.304 74.515 75.304C70.267 75.304 67.123 77.728 66.403 81.76C65.707 85.84 68.011 88.312 72.283 88.312ZM72.883 84.544C71.419 84.544 70.627 83.44 70.891 81.856C71.179 80.224 72.427 79.072 73.915 79.072C75.379 79.072 76.171 80.176 75.907 81.76C75.619 83.392 74.371 84.544 72.883 84.544ZM86.7098 88H91.1978L92.7578 79.216H96.4058L94.8458 88H99.3578L101.542 75.616H88.8938L86.7098 88ZM107.908 88.312C112.156 88.312 115.3 85.888 116.02 81.856C116.74 77.8 114.412 75.304 110.14 75.304C105.892 75.304 102.748 77.728 102.028 81.76C101.332 85.84 103.636 88.312 107.908 88.312ZM108.508 84.544C107.044 84.544 106.252 83.44 106.516 81.856C106.804 80.224 108.052 79.072 109.54 79.072C111.004 79.072 111.796 80.176 111.532 81.76C111.244 83.392 109.996 84.544 108.508 84.544ZM115.661 88C117.725 88 121.277 88.216 122.429 84.376L123.989 79.216H126.365L124.805 88H129.317L131.501 75.616H120.773L119.069 81.664C118.421 83.944 117.917 84.64 116.213 84.64L115.661 88ZM131.405 88H135.893L136.685 83.584H140.261L139.493 88H143.981L146.189 75.64H141.677L140.909 79.984H137.333L138.101 75.64H133.589L131.405 88ZM152.556 88.312C156.804 88.312 159.948 85.888 160.668 81.856C161.388 77.8 159.06 75.304 154.788 75.304C150.54 75.304 147.396 77.728 146.676 81.76C145.98 85.84 148.284 88.312 152.556 88.312ZM153.156 84.544C151.692 84.544 150.9 83.44 151.164 81.856C151.452 80.224 152.7 79.072 154.188 79.072C155.652 79.072 156.444 80.176 156.18 81.76C155.892 83.392 154.644 84.544 153.156 84.544ZM161.147 88H165.635L167.195 79.216H172.811L173.459 75.616H163.331L161.147 88ZM179.017 88.312C183.265 88.312 186.409 85.888 187.129 81.856C187.849 77.8 185.521 75.304 181.249 75.304C177.001 75.304 173.857 77.728 173.137 81.76C172.441 85.84 174.745 88.312 179.017 88.312ZM179.617 84.544C178.153 84.544 177.361 83.44 177.625 81.856C177.913 80.224 179.161 79.072 180.649 79.072C182.113 79.072 182.905 80.176 182.641 81.76C182.353 83.392 181.105 84.544 179.617 84.544ZM196.612 88H201.124L202.684 79.216H206.572L207.22 75.616H194.908L194.26 79.216H198.172L196.612 88ZM211.255 88.312C213.007 88.312 214.303 87.592 215.407 86.2L215.647 86.176L215.311 88H219.823L222.007 75.616H217.519L217.183 77.488L216.919 77.512C216.295 76.144 215.287 75.304 213.487 75.304C210.223 75.304 207.583 77.848 206.911 81.76C206.191 85.768 207.919 88.312 211.255 88.312ZM213.367 84.544C211.927 84.544 211.111 83.416 211.399 81.856C211.663 80.248 212.935 79.072 214.423 79.072C215.839 79.072 216.679 80.2 216.391 81.76C216.127 83.368 214.855 84.544 213.367 84.544ZM221.944 88H226.432L227.224 83.584H230.8L230.032 88H234.52L236.728 75.64H232.216L231.448 79.984H227.872L228.64 75.64H224.128L221.944 88ZM247.248 91.6H250.848L252.096 84.4H250.272L251.832 75.616H247.344L245.784 84.4H241.776L243.336 75.616H238.824L236.639 88H247.872L247.248 91.6ZM257.685 88.312C259.437 88.312 260.733 87.592 261.837 86.2L262.077 86.176L261.741 88H266.253L268.437 75.616H263.949L263.613 77.488L263.349 77.512C262.725 76.144 261.717 75.304 259.917 75.304C256.653 75.304 254.013 77.848 253.341 81.76C252.621 85.768 254.349 88.312 257.685 88.312ZM259.797 84.544C258.357 84.544 257.541 83.416 257.829 81.856C258.093 80.248 259.365 79.072 260.853 79.072C262.269 79.072 263.109 80.2 262.821 81.76C262.557 83.368 261.285 84.544 259.797 84.544ZM269.118 92.2L272.31 87.856C272.862 87.136 273.198 86.488 273.294 85.864C273.534 84.448 272.646 83.416 271.158 83.416C269.718 83.416 268.518 84.4 268.278 85.792C268.038 87.016 268.686 87.976 269.814 88.192L267.702 91.624L269.118 92.2ZM8.824 119H13.144L15.328 106.616H10.84L9.928 111.68C9.496 112.184 8.704 112.568 7.984 112.568C6.976 112.568 6.472 111.848 6.664 110.696L7.384 106.616H2.896L2.056 111.32C1.552 114.152 2.992 116.168 5.608 116.168C7.072 116.168 8.728 115.52 9.64 114.488L8.824 119ZM18.3934 119H22.9054L24.4654 110.216H28.3534L29.0014 106.616H16.6894L16.0414 110.216H19.9534L18.3934 119ZM34.5486 119.312C38.7966 119.312 41.9406 116.888 42.6606 112.856C43.3806 108.8 41.0526 106.304 36.7806 106.304C32.5326 106.304 29.3886 108.728 28.6686 112.76C27.9726 116.84 30.2766 119.312 34.5486 119.312ZM35.1486 115.544C33.6846 115.544 32.8926 114.44 33.1566 112.856C33.4446 111.224 34.6926 110.072 36.1806 110.072C37.6446 110.072 38.4366 111.176 38.1726 112.76C37.8846 114.392 36.6366 115.544 35.1486 115.544ZM49.4755 119.336C53.3635 119.336 56.4355 116.936 57.0595 113.36C57.6835 109.832 55.8115 107.36 52.2835 107.36C50.8675 107.36 49.8355 107.768 48.8755 108.68L48.6355 108.728C49.0915 106.592 50.2675 105.704 53.0515 105.512C56.5315 105.224 58.3795 103.856 58.8835 101.024L55.0915 100.976C54.9235 101.96 54.1315 102.392 52.3075 102.56C47.5795 102.968 45.2755 105.512 44.1955 111.656C43.3315 116.552 45.2755 119.336 49.4755 119.336ZM50.0515 115.568C48.8035 115.568 48.1075 114.632 48.3475 113.288C48.6115 111.872 49.6915 110.96 50.9395 110.96C52.1635 110.96 52.8355 111.848 52.5715 113.216C52.3315 114.584 51.2995 115.568 50.0515 115.568ZM57.6239 119H64.1039C67.6079 119 69.8399 116.744 70.2719 114.32C70.7039 111.824 69.2399 109.664 65.7119 109.664H63.7679L64.3199 106.616H59.8079L57.6239 119ZM70.3199 119H74.8079L76.9919 106.64H72.5039L70.3199 119ZM62.5679 115.616L62.9999 113.048H64.5119C65.4239 113.048 65.9039 113.552 65.7839 114.32C65.6399 115.088 64.9439 115.616 64.0319 115.616H62.5679ZM85.8934 119H90.4054L91.9654 110.216H95.8534L96.5014 106.616H84.1894L83.5414 110.216H87.4534L85.8934 119ZM95.6629 119H102.143C105.647 119 107.879 116.744 108.311 114.32C108.743 111.824 107.279 109.664 103.751 109.664H101.807L102.359 106.616H97.8469L95.6629 119ZM108.359 119H112.847L115.031 106.64H110.543L108.359 119ZM100.607 115.616L101.039 113.048H102.551C103.463 113.048 103.943 113.552 103.823 114.32C103.679 115.088 102.983 115.616 102.071 115.616H100.607ZM120.764 119H125.253L126.812 110.216H130.461L128.901 119H133.413L135.597 106.616H122.949L120.764 119ZM141.963 119.312C146.211 119.312 149.355 116.888 150.075 112.856C150.795 108.8 148.467 106.304 144.195 106.304C139.947 106.304 136.803 108.728 136.083 112.76C135.387 116.84 137.691 119.312 141.963 119.312ZM142.563 115.544C141.099 115.544 140.307 114.44 140.571 112.856C140.859 111.224 142.107 110.072 143.595 110.072C145.059 110.072 145.851 111.176 145.587 112.76C145.299 114.392 144.051 115.544 142.563 115.544ZM150.554 119H155.042L155.834 114.584H159.41L158.642 119H163.13L165.338 106.64H160.826L160.058 110.984H156.482L157.25 106.64H152.738L150.554 119ZM164.553 119H169.545L172.233 115.664H173.025L172.449 119H177.105L179.313 106.616H172.233C169.113 106.616 166.593 108.536 166.113 111.2C165.825 112.904 166.521 114.488 168.081 115.208L164.553 119ZM172.017 112.568C171.033 112.568 170.457 112.04 170.601 111.272C170.745 110.456 171.561 109.88 172.521 109.88H174.225L173.745 112.568H172.017ZM178.45 119C180.514 119 184.066 119.216 185.218 115.376L186.778 110.216H189.154L187.594 119H192.106L194.29 106.616H183.562L181.858 112.664C181.21 114.944 180.706 115.64 179.002 115.64L178.45 119ZM194.938 123.2L198.13 118.856C198.682 118.136 199.018 117.488 199.114 116.864C199.354 115.448 198.466 114.416 196.978 114.416C195.538 114.416 194.338 115.4 194.098 116.792C193.858 118.016 194.506 118.976 195.634 119.192L193.522 122.624L194.938 123.2ZM206.147 119H213.611C216.419 119 218.531 117.656 218.915 115.544C219.155 114.08 218.459 113.144 217.067 112.76L217.139 112.52C218.219 112.184 219.155 111.152 219.371 109.928C219.707 108.032 218.219 106.616 215.435 106.616H208.331L206.147 119ZM211.643 111.44L212.027 109.352H214.043C214.811 109.352 215.219 109.784 215.123 110.384C215.003 110.984 214.403 111.44 213.635 111.44H211.643ZM210.803 116.264L211.187 114.008H213.203C214.043 114.008 214.499 114.44 214.379 115.088C214.259 115.76 213.611 116.264 212.771 116.264H210.803ZM228.815 119H233.327L234.887 110.216H238.775L239.423 106.616H227.111L226.463 110.216H230.375L228.815 119ZM238.585 119H246.049C248.857 119 250.969 117.656 251.353 115.544C251.593 114.08 250.897 113.144 249.505 112.76L249.577 112.52C250.657 112.184 251.593 111.152 251.809 109.928C252.145 108.032 250.657 106.616 247.873 106.616H240.769L238.585 119ZM244.081 111.44L244.465 109.352H246.481C247.249 109.352 247.657 109.784 247.561 110.384C247.441 110.984 246.841 111.44 246.073 111.44H244.081ZM243.241 116.264L243.625 114.008H245.641C246.481 114.008 246.937 114.44 246.817 115.088C246.697 115.76 246.049 116.264 245.209 116.264H243.241ZM258.705 119.312C262.953 119.312 266.097 116.888 266.817 112.856C267.537 108.8 265.209 106.304 260.937 106.304C256.689 106.304 253.545 108.728 252.825 112.76C252.129 116.84 254.433 119.312 258.705 119.312ZM259.305 115.544C257.841 115.544 257.049 114.44 257.313 112.856C257.601 111.224 258.849 110.072 260.337 110.072C261.801 110.072 262.593 111.176 262.329 112.76C262.041 114.392 260.793 115.544 259.305 115.544ZM267.296 119H271.952L276.8 112.592H277.04L275.888 119H280.4L282.584 106.616H277.952L273.08 113.12H272.84L273.992 106.616H269.48L267.296 119ZM281.619 119H286.851L289.731 115.16H289.971L291.507 119H296.715L293.643 112.568L298.731 106.616H293.619L290.859 110.096H290.619L289.083 106.616H283.995L286.971 112.568L281.619 119ZM0.184 150C2.248 150 5.8 150.216 6.952 146.376L8.512 141.216H10.888L9.328 150H13.84L16.024 137.616H5.296L3.592 143.664C2.944 145.944 2.44 146.64 0.736 146.64L0.184 150ZM15.9286 150H20.5846L25.4326 143.592H25.6726L24.5206 150H29.0326L31.2166 137.616H26.5846L21.7126 144.12H21.4726L22.6246 137.616H18.1126L15.9286 150ZM43.336 150.312C46.864 150.312 49.744 148.488 50.704 145.368L46.648 144.84C46.192 145.92 45.088 146.712 43.936 146.712C42.544 146.712 41.752 145.536 42.04 143.856C42.352 142.128 43.648 140.904 45.064 140.904C46.12 140.904 46.96 141.648 47.008 142.752L51.232 142.272C51.4 139.176 49.144 137.304 45.568 137.304C41.44 137.304 38.272 139.8 37.552 143.76C36.88 147.72 39.256 150.312 43.336 150.312ZM51.4832 150H56.1393L60.9873 143.592H61.2273L60.0753 150H64.5873L66.7713 137.616H62.1393L57.2673 144.12H57.0273L58.1793 137.616H53.6673L51.4832 150ZM65.9027 150C67.9668 150 71.5188 150.216 72.6708 146.376L74.2308 141.216H76.6068L75.0468 150H79.5588L81.7428 137.616H71.0148L69.3108 143.664C68.6628 145.944 68.1588 146.64 66.4547 146.64L65.9027 150ZM86.5913 150.312C88.3433 150.312 89.6393 149.592 90.7433 148.2L90.9833 148.176L90.6473 150H95.1593L97.3433 137.616H92.8553L92.5193 139.488L92.2553 139.512C91.6313 138.144 90.6233 137.304 88.8233 137.304C85.5593 137.304 82.9193 139.848 82.2473 143.76C81.5273 147.768 83.2553 150.312 86.5913 150.312ZM88.7033 146.544C87.2633 146.544 86.4473 145.416 86.7353 143.856C86.9993 142.248 88.2713 141.072 89.7593 141.072C91.1753 141.072 92.0153 142.2 91.7273 143.76C91.4633 145.368 90.1913 146.544 88.7033 146.544ZM96.4161 150H101.648L104.528 146.16H104.768L106.304 150H111.512L108.44 143.568L113.528 137.616H108.416L105.656 141.096H105.416L103.88 137.616H98.7921L101.768 143.568L96.4161 150ZM125.017 150.312C128.161 150.312 130.969 148.896 131.977 146.592L128.233 145.848C127.729 146.64 126.841 147.216 125.737 147.216C124.393 147.216 123.673 146.4 123.601 145.056H132.649C132.745 144.816 132.889 144.192 132.913 143.856C133.633 139.872 131.377 137.304 127.297 137.304C123.217 137.304 119.905 139.8 119.209 143.712C118.489 147.72 120.889 150.312 125.017 150.312ZM123.985 142.656C124.465 141.288 125.473 140.4 126.721 140.4C127.993 140.4 128.737 141.384 128.617 142.608L123.985 142.656ZM133.421 150H137.909L139.469 141.216H145.085L145.733 137.616H135.605L133.421 150ZM151.291 150.312C155.539 150.312 158.683 147.888 159.403 143.856C160.123 139.8 157.795 137.304 153.523 137.304C149.275 137.304 146.131 139.728 145.411 143.76C144.715 147.84 147.019 150.312 151.291 150.312ZM151.891 146.544C150.427 146.544 149.635 145.44 149.899 143.856C150.187 142.224 151.435 141.072 152.923 141.072C154.387 141.072 155.179 142.176 154.915 143.76C154.627 145.392 153.379 146.544 151.891 146.544ZM165.718 150H173.182C175.99 150 178.102 148.656 178.486 146.544C178.726 145.08 178.03 144.144 176.638 143.76L176.71 143.52C177.79 143.184 178.726 142.152 178.942 140.928C179.278 139.032 177.79 137.616 175.006 137.616H167.902L165.718 150ZM171.214 142.44L171.598 140.352H173.614C174.382 140.352 174.79 140.784 174.694 141.384C174.574 141.984 173.974 142.44 173.206 142.44H171.214ZM170.374 147.264L170.758 145.008H172.774C173.614 145.008 174.07 145.44 173.95 146.088C173.83 146.76 173.182 147.264 172.342 147.264H170.374ZM179.382 150H185.862C189.366 150 191.598 147.744 192.03 145.32C192.462 142.824 190.998 140.664 187.47 140.664H185.526L186.078 137.616H181.566L179.382 150ZM192.078 150H196.566L198.75 137.64H194.262L192.078 150ZM184.326 146.616L184.758 144.048H186.27C187.182 144.048 187.662 144.552 187.542 145.32C187.398 146.088 186.702 146.616 185.79 146.616H184.326ZM201.311 155.64C203.903 155.64 205.703 154.056 207.575 150.6L214.559 137.616H209.927L206.567 144.456H206.327L204.743 137.616H199.895L203.759 150.168C203.207 151.128 202.343 152.064 200.951 152.064C200.351 152.064 199.559 151.92 199.055 151.704L198.479 155.184C199.127 155.448 200.399 155.64 201.311 155.64ZM221.379 150H225.699L227.883 137.616H223.395L222.483 142.68C222.051 143.184 221.259 143.568 220.539 143.568C219.531 143.568 219.027 142.848 219.219 141.696L219.939 137.616H215.451L214.611 142.32C214.107 145.152 215.547 147.168 218.163 147.168C219.627 147.168 221.283 146.52 222.195 145.488L221.379 150ZM227.78 150H232.436L237.284 143.592H237.524L236.372 150H240.884L243.068 137.616H238.436L233.564 144.12H233.324L234.476 137.616H229.964L227.78 150ZM246.136 150H250.648L252.208 141.216H256.096L256.744 137.616H244.432L243.784 141.216H247.696L246.136 150ZM255.905 150H262.769C266.273 150 268.505 147.744 268.937 145.32C269.369 142.824 267.881 140.688 264.377 140.688H262.049L262.601 137.616H258.089L255.905 150ZM261.017 146.616L261.449 144.048H263.177C264.089 144.048 264.569 144.552 264.449 145.32C264.305 146.088 263.609 146.616 262.697 146.616H261.017Z" fill="#231D1D"/>
</svg>
