<svg width="350" height="155" viewBox="0 0 350 155" fill="none" xmlns="http://www.w3.org/2000/svg">
<path d="M11.62 27.54C17.812 27.54 23.284 24.264 24.076 19.656C24.616 16.704 23.032 14.22 20.404 13.824L20.512 13.464C22.888 12.78 24.76 11.088 25.264 8.388C26.056 3.744 21.988 0.719999 16.156 0.719999C9.532 0.719999 4.492 4.608 3.52 10.08L10.828 10.152C11.152 8.172 12.772 6.912 15.076 6.912C17.092 6.912 18.244 7.884 17.992 9.288C17.74 10.728 16.192 11.736 14.356 11.736H12.304L11.548 15.948H13.6C15.616 15.948 16.876 16.992 16.624 18.504C16.3 20.16 14.428 21.312 12.34 21.312C9.964 21.312 8.812 19.8 9.172 17.676L1.792 17.604C0.784 23.328 4.564 27.54 11.62 27.54ZM32.4612 27.468C35.0892 27.468 37.0332 26.388 38.6892 24.3L39.0492 24.264L38.5452 27H45.3132L48.5892 8.424H41.8572L41.3532 11.232L40.9572 11.268C40.0212 9.216 38.5092 7.956 35.8092 7.956C30.9132 7.956 26.9532 11.772 25.9452 17.64C24.8652 23.652 27.4572 27.468 32.4612 27.468ZM35.6292 21.816C33.4692 21.816 32.2452 20.124 32.6772 17.784C33.0732 15.372 34.9812 13.608 37.2132 13.608C39.3372 13.608 40.5972 15.3 40.1652 17.64C39.7692 20.052 37.8612 21.816 35.6292 21.816ZM48.4944 27H55.2624L56.5944 19.548H56.9544L60.4824 27H68.4384L63.1464 17.352L71.6424 8.424H63.6864L57.7104 15.228H57.3504L58.5384 8.424H51.8064L48.4944 27ZM86.3414 7.956C83.9294 7.956 82.0574 8.856 80.5454 10.548L80.1854 10.584L80.5814 8.424H73.8134L69.0974 35.28H75.8294L77.6654 24.84L78.0614 24.804C78.9614 26.496 80.5814 27.468 82.9934 27.468C87.8534 27.468 91.8494 23.652 92.8574 17.784C93.9374 11.772 91.2734 7.956 86.3414 7.956ZM83.1734 13.608C85.2974 13.608 86.5574 15.336 86.1614 17.64C85.7294 20.016 83.8214 21.816 81.5894 21.816C79.4654 21.816 78.2414 20.088 78.6374 17.784C79.0334 15.408 80.9774 13.608 83.1734 13.608ZM93.635 27H103.355C108.611 27 111.959 23.616 112.607 19.98C113.255 16.236 111.059 12.996 105.767 12.996H102.851L103.679 8.424H96.911L93.635 27ZM112.679 27H119.411L122.687 8.46H115.955L112.679 27ZM101.051 21.924L101.699 18.072H103.967C105.335 18.072 106.055 18.828 105.875 19.98C105.659 21.132 104.615 21.924 103.247 21.924H101.051ZM127.285 27H134.053L136.393 13.824H142.225L143.197 8.424H124.729L123.757 13.824H129.625L127.285 27ZM141.94 27H151.66C156.916 27 160.264 23.616 160.912 19.98C161.56 16.236 159.364 12.996 154.072 12.996H151.156L151.984 8.424H145.216L141.94 27ZM160.984 27H167.716L170.992 8.46H164.26L160.984 27ZM149.356 21.924L150.004 18.072H152.272C153.64 18.072 154.36 18.828 154.18 19.98C153.964 21.132 152.92 21.924 151.552 21.924H149.356ZM180.486 27.468C185.202 27.468 189.414 25.344 190.926 21.888L185.31 20.772C184.554 21.96 183.222 22.824 181.566 22.824C179.55 22.824 178.47 21.6 178.362 19.584H191.934C192.078 19.224 192.294 18.288 192.33 17.784C193.41 11.808 190.026 7.956 183.906 7.956C177.786 7.956 172.818 11.7 171.774 17.568C170.694 23.58 174.294 27.468 180.486 27.468ZM178.938 15.984C179.658 13.932 181.17 12.6 183.042 12.6C184.95 12.6 186.066 14.076 185.886 15.912L178.938 15.984ZM201.846 27H208.578L210.918 13.824H219.342L220.314 8.424H205.122L201.846 27ZM234.982 7.956C232.57 7.956 230.698 8.856 229.186 10.548L228.826 10.584L229.222 8.424H222.454L217.738 35.28H224.47L226.306 24.84L226.702 24.804C227.602 26.496 229.222 27.468 231.634 27.468C236.494 27.468 240.49 23.652 241.498 17.784C242.578 11.772 239.914 7.956 234.982 7.956ZM231.814 13.608C233.938 13.608 235.198 15.336 234.802 17.64C234.37 20.016 232.462 21.816 230.23 21.816C228.106 21.816 226.882 20.088 227.278 17.784C227.674 15.408 229.618 13.608 231.814 13.608ZM244.795 35.46C248.683 35.46 251.383 33.084 254.191 27.9L264.667 8.424H257.719L252.679 18.684H252.319L249.943 8.424H242.671L248.467 27.252C247.639 28.692 246.343 30.096 244.255 30.096C243.355 30.096 242.167 29.88 241.411 29.556L240.547 34.776C241.519 35.172 243.427 35.46 244.795 35.46ZM263.088 27H269.82L272.16 13.824H277.632L275.292 27H282.06L285.336 8.424H266.364L263.088 27ZM285.201 27H291.933L294.273 13.824H299.745L297.405 27H304.173L307.449 8.424H288.477L285.201 27ZM307.315 27H317.035C322.291 27 325.639 23.616 326.287 19.98C326.935 16.236 324.739 12.996 319.447 12.996H316.531L317.359 8.424H310.591L307.315 27ZM326.359 27H333.091L336.367 8.46H329.635L326.359 27ZM314.731 21.924L315.379 18.072H317.647C319.015 18.072 319.735 18.828 319.555 19.98C319.339 21.132 318.295 21.924 316.927 21.924H314.731ZM5.512 89H10.576L12.88 75.968H18.256L18.976 71.816H3.184L2.464 75.968H7.816L5.512 89ZM27.2614 76.304C25.6534 76.304 24.4054 76.904 23.3974 78.032L23.1574 78.056L23.4214 76.616H18.9094L15.7654 94.52H20.2534L21.4774 87.56L21.7414 87.536C22.3414 88.664 23.4214 89.312 25.0294 89.312C28.2694 89.312 30.9334 86.768 31.6054 82.856C32.3254 78.848 30.5494 76.304 27.2614 76.304ZM25.1494 80.072C26.5654 80.072 27.4054 81.224 27.1414 82.76C26.8534 84.344 25.5814 85.544 24.0934 85.544C22.6774 85.544 21.8614 84.392 22.1254 82.856C22.3894 81.272 23.6854 80.072 25.1494 80.072ZM38.7199 89.312C41.8639 89.312 44.6719 87.896 45.6799 85.592L41.9359 84.848C41.4319 85.64 40.5439 86.216 39.4399 86.216C38.0959 86.216 37.3759 85.4 37.3039 84.056H46.3519C46.4479 83.816 46.5919 83.192 46.6159 82.856C47.3359 78.872 45.0799 76.304 40.9999 76.304C36.9199 76.304 33.6079 78.8 32.9119 82.712C32.1919 86.72 34.5919 89.312 38.7199 89.312ZM37.6879 81.656C38.1679 80.288 39.1759 79.4 40.4239 79.4C41.6959 79.4 42.4399 80.384 42.3199 81.608L37.6879 81.656ZM47.1239 89H51.6119L52.4039 84.584H55.9799L55.2119 89H59.6999L61.9079 76.64H57.3959L56.6279 80.984H53.0519L53.8199 76.64H49.3079L47.1239 89ZM61.8192 89H66.4752L71.3232 82.592H71.5632L70.4112 89H74.9232L77.1072 76.616H72.4752L67.6032 83.12H67.3632L68.5152 76.616H64.0032L61.8192 89ZM87.5427 76.304C85.9347 76.304 84.6867 76.904 83.6787 78.032L83.4387 78.056L83.7027 76.616H79.1907L76.0467 94.52H80.5347L81.7587 87.56L82.0227 87.536C82.6227 88.664 83.7027 89.312 85.3107 89.312C88.5507 89.312 91.2147 86.768 91.8867 82.856C92.6067 78.848 90.8307 76.304 87.5427 76.304ZM85.4307 80.072C86.8467 80.072 87.6867 81.224 87.4227 82.76C87.1347 84.344 85.8627 85.544 84.3747 85.544C82.9587 85.544 82.1427 84.392 82.4067 82.856C82.6707 81.272 83.9667 80.072 85.4307 80.072ZM94.0848 94.64C96.6768 94.64 98.4768 93.056 100.349 89.6L107.333 76.616H102.701L99.3408 83.456H99.1008L97.5168 76.616H92.6688L96.5328 89.168C95.9808 90.128 95.1168 91.064 93.7248 91.064C93.1248 91.064 92.3328 90.92 91.8288 90.704L91.2527 94.184C91.9008 94.448 93.1728 94.64 94.0848 94.64ZM115.208 74.768C117.416 74.768 119.264 73.256 119.648 71.12L116.936 71.072C116.768 72.032 116.24 72.632 115.52 72.632C114.824 72.632 114.536 72.08 114.704 71.12L111.992 71.072C111.632 73.208 112.952 74.768 115.208 74.768ZM106.28 89H110.936L115.784 82.592H116.024L114.872 89H119.384L121.568 76.616H116.936L112.064 83.12H111.824L112.976 76.616H108.464L106.28 89ZM127.852 89.312C131.38 89.312 134.26 87.488 135.22 84.368L131.164 83.84C130.708 84.92 129.604 85.712 128.452 85.712C127.06 85.712 126.268 84.536 126.556 82.856C126.868 81.128 128.164 79.904 129.58 79.904C130.636 79.904 131.476 80.648 131.524 81.752L135.748 81.272C135.916 78.176 133.66 76.304 130.084 76.304C125.956 76.304 122.788 78.8 122.068 82.76C121.396 86.72 123.772 89.312 127.852 89.312ZM135.631 89H140.623L143.311 85.664H144.103L143.527 89H148.183L150.391 76.616H143.311C140.191 76.616 137.671 78.536 137.191 81.2C136.903 82.904 137.599 84.488 139.159 85.208L135.631 89ZM143.095 82.568C142.111 82.568 141.535 82.04 141.679 81.272C141.823 80.456 142.639 79.88 143.599 79.88H145.303L144.823 82.568H143.095ZM162.516 89.312C166.044 89.312 168.924 87.488 169.884 84.368L165.828 83.84C165.372 84.92 164.268 85.712 163.116 85.712C161.724 85.712 160.932 84.536 161.22 82.856C161.532 81.128 162.828 79.904 164.244 79.904C165.3 79.904 166.14 80.648 166.188 81.752L170.412 81.272C170.58 78.176 168.324 76.304 164.748 76.304C160.62 76.304 157.452 78.8 156.732 82.76C156.06 86.72 158.436 89.312 162.516 89.312ZM175.635 89H180.867L183.747 85.16H183.987L185.523 89H190.731L187.659 82.568L192.747 76.616H187.635L184.875 80.096H184.635L183.099 76.616H178.011L180.987 82.568L175.635 89ZM197.275 89.312C201.523 89.312 204.667 86.888 205.387 82.856C206.107 78.8 203.779 76.304 199.507 76.304C195.259 76.304 192.115 78.728 191.395 82.76C190.699 86.84 193.003 89.312 197.275 89.312ZM197.875 85.544C196.411 85.544 195.619 84.44 195.883 82.856C196.171 81.224 197.419 80.072 198.907 80.072C200.371 80.072 201.163 81.176 200.899 82.76C200.611 84.392 199.363 85.544 197.875 85.544ZM216.402 76.304C214.794 76.304 213.546 76.904 212.538 78.032L212.298 78.056L212.562 76.616H208.05L204.906 94.52H209.394L210.618 87.56L210.882 87.536C211.482 88.664 212.562 89.312 214.17 89.312C217.41 89.312 220.074 86.768 220.746 82.856C221.466 78.848 219.69 76.304 216.402 76.304ZM214.29 80.072C215.706 80.072 216.546 81.224 216.282 82.76C215.994 84.344 214.722 85.544 213.234 85.544C211.818 85.544 211.002 84.392 211.266 82.856C211.53 81.272 212.826 80.072 214.29 80.072ZM227.861 89.312C231.005 89.312 233.813 87.896 234.821 85.592L231.077 84.848C230.573 85.64 229.685 86.216 228.581 86.216C227.237 86.216 226.517 85.4 226.445 84.056H235.493C235.589 83.816 235.733 83.192 235.757 82.856C236.477 78.872 234.221 76.304 230.141 76.304C226.061 76.304 222.749 78.8 222.053 82.712C221.333 86.72 223.733 89.312 227.861 89.312ZM226.829 81.656C227.309 80.288 228.317 79.4 229.565 79.4C230.837 79.4 231.581 80.384 231.461 81.608L226.829 81.656ZM242.885 89.312C247.133 89.312 250.277 86.888 250.997 82.856C251.717 78.8 249.389 76.304 245.117 76.304C240.869 76.304 237.725 78.728 237.005 82.76C236.309 86.84 238.613 89.312 242.885 89.312ZM243.485 85.544C242.021 85.544 241.229 84.44 241.493 82.856C241.781 81.224 243.029 80.072 244.517 80.072C245.981 80.072 246.773 81.176 246.509 82.76C246.221 84.392 244.973 85.544 243.485 85.544ZM251.475 89H255.963L257.523 80.216H263.139L263.787 76.616H253.659L251.475 89ZM273.566 76.304C271.958 76.304 270.71 76.904 269.702 78.032L269.462 78.056L269.726 76.616H265.214L262.07 94.52H266.558L267.782 87.56L268.046 87.536C268.646 88.664 269.726 89.312 271.334 89.312C274.574 89.312 277.238 86.768 277.91 82.856C278.63 78.848 276.854 76.304 273.566 76.304ZM271.454 80.072C272.87 80.072 273.71 81.224 273.446 82.76C273.158 84.344 271.886 85.544 270.398 85.544C268.982 85.544 268.166 84.392 268.43 82.856C268.694 81.272 269.99 80.072 271.454 80.072ZM283.537 89.312C285.289 89.312 286.585 88.592 287.689 87.2L287.929 87.176L287.593 89H292.105L294.289 76.616H289.801L289.465 78.488L289.201 78.512C288.577 77.144 287.569 76.304 285.769 76.304C282.505 76.304 279.865 78.848 279.193 82.76C278.473 86.768 280.201 89.312 283.537 89.312ZM285.649 85.544C284.209 85.544 283.393 84.416 283.681 82.856C283.945 81.248 285.217 80.072 286.705 80.072C288.121 80.072 288.961 81.2 288.673 82.76C288.409 84.368 287.137 85.544 285.649 85.544ZM300.105 94.52H304.281L305.241 89.144C309.513 88.928 313.041 86.288 313.665 82.808C314.265 79.376 311.625 76.688 307.425 76.472L308.385 71.096H304.233L303.273 76.448C298.977 76.64 295.425 79.28 294.825 82.712C294.201 86.264 296.841 88.976 301.065 89.144L300.105 94.52ZM301.641 85.664C300.009 85.64 299.025 84.464 299.289 82.832C299.577 81.2 301.065 79.976 302.697 79.928L301.641 85.664ZM305.793 85.64L306.825 80C308.457 80.024 309.441 81.2 309.177 82.76C308.889 84.392 307.425 85.592 305.793 85.64ZM320.767 89.312C325.015 89.312 328.159 86.888 328.879 82.856C329.599 78.8 327.271 76.304 322.999 76.304C318.751 76.304 315.607 78.728 314.887 82.76C314.191 86.84 316.495 89.312 320.767 89.312ZM321.367 85.544C319.903 85.544 319.111 84.44 319.375 82.856C319.663 81.224 320.911 80.072 322.399 80.072C323.863 80.072 324.655 81.176 324.391 82.76C324.103 84.392 322.855 85.544 321.367 85.544ZM329.358 89H333.846L335.094 82.088H335.334L336.702 89H339.774L343.614 82.064H343.83L342.606 89H347.118L349.302 76.616H343.614L339.078 84.776H338.838L337.23 76.616H331.542L329.358 89ZM0.952 120H5.608L10.456 113.592H10.696L9.544 120H14.056L16.24 107.616H11.608L6.736 114.12H6.496L7.648 107.616H3.136L0.952 120ZM20.6074 123.6H24.2074L24.8314 120H34.0954L33.4714 123.6H37.0474L38.3194 116.4H36.3034L37.8634 107.616H27.0394L25.7674 111.96C25.0954 114.216 24.4234 116.016 23.3194 116.4H21.8794L20.6074 123.6ZM27.7834 116.4L27.8314 116.184C28.6954 115.536 29.0794 114.84 29.4154 113.784L30.2314 111.216H32.7274L31.8154 116.4H27.7834ZM49.7146 107.304C48.1066 107.304 46.8586 107.904 45.8506 109.032L45.6106 109.056L45.8746 107.616H41.3626L38.2186 125.52H42.7066L43.9306 118.56L44.1946 118.536C44.7946 119.664 45.8746 120.312 47.4826 120.312C50.7226 120.312 53.3866 117.768 54.0586 113.856C54.7786 109.848 53.0026 107.304 49.7146 107.304ZM47.6026 111.072C49.0186 111.072 49.8586 112.224 49.5946 113.76C49.3066 115.344 48.0346 116.544 46.5466 116.544C45.1306 116.544 44.3146 115.392 44.5786 113.856C44.8426 112.272 46.1386 111.072 47.6026 111.072ZM56.2566 125.64C58.8486 125.64 60.6486 124.056 62.5206 120.6L69.5046 107.616H64.8726L61.5126 114.456H61.2726L59.6886 107.616H54.8406L58.7046 120.168C58.1526 121.128 57.2886 122.064 55.8966 122.064C55.2966 122.064 54.5046 121.92 54.0006 121.704L53.4246 125.184C54.0726 125.448 55.3446 125.64 56.2566 125.64ZM68.452 120H72.94L74.5 111.216H80.116L80.764 107.616H70.636L68.452 120ZM80.0067 120H84.6627L89.5107 113.592H89.7507L88.5987 120H93.1107L95.2947 107.616H90.6627L85.7907 114.12H85.5507L86.7027 107.616H82.1907L80.0067 120ZM95.1942 120H99.6822L100.93 113.088H101.17L102.538 120H105.61L109.45 113.064H109.666L108.442 120H112.954L115.138 107.616H109.45L104.914 115.776H104.674L103.066 107.616H97.3782L95.1942 120ZM115.046 120H119.702L124.55 113.592H124.79L123.638 120H128.15L130.334 107.616H125.702L120.83 114.12H120.59L121.742 107.616H117.23L115.046 120ZM138.733 125.64C141.325 125.64 143.125 124.056 144.997 120.6L151.981 107.616H147.349L143.989 114.456H143.749L142.165 107.616H137.317L141.181 120.168C140.629 121.128 139.765 122.064 138.373 122.064C137.773 122.064 136.981 121.92 136.477 121.704L135.901 125.184C136.549 125.448 137.821 125.64 138.733 125.64ZM158.801 120H163.121L165.305 107.616H160.817L159.905 112.68C159.473 113.184 158.681 113.568 157.961 113.568C156.953 113.568 156.449 112.848 156.641 111.696L157.361 107.616H152.873L152.033 112.32C151.529 115.152 152.969 117.168 155.585 117.168C157.049 117.168 158.705 116.52 159.617 115.488L158.801 120ZM170.146 120.312C171.898 120.312 173.194 119.592 174.298 118.2L174.538 118.176L174.202 120H178.714L180.898 107.616H176.41L176.074 109.488L175.81 109.512C175.186 108.144 174.178 107.304 172.378 107.304C169.114 107.304 166.474 109.848 165.802 113.76C165.082 117.768 166.81 120.312 170.146 120.312ZM172.258 116.544C170.818 116.544 170.002 115.416 170.29 113.856C170.554 112.248 171.826 111.072 173.314 111.072C174.73 111.072 175.57 112.2 175.282 113.76C175.018 115.368 173.746 116.544 172.258 116.544ZM187.219 120.312C190.747 120.312 193.627 118.488 194.587 115.368L190.531 114.84C190.075 115.92 188.971 116.712 187.819 116.712C186.427 116.712 185.635 115.536 185.923 113.856C186.235 112.128 187.531 110.904 188.947 110.904C190.003 110.904 190.843 111.648 190.891 112.752L195.115 112.272C195.283 109.176 193.027 107.304 189.451 107.304C185.323 107.304 182.155 109.8 181.435 113.76C180.763 117.72 183.139 120.312 187.219 120.312ZM198.464 120H202.976L204.536 111.216H208.424L209.072 107.616H196.76L196.112 111.216H200.024L198.464 120ZM208.233 120H212.721L213.513 115.584H217.089L216.321 120H220.809L223.017 107.64H218.505L217.737 111.984H214.161L214.929 107.64H210.417L208.233 120ZM222.929 120H227.585L232.433 113.592H232.673L231.521 120H236.033L238.217 107.616H233.585L228.713 114.12H228.473L229.625 107.616H225.113L222.929 120ZM238.116 120H242.628L243.516 115.032H243.756L246.108 120H251.412L247.884 113.568L253.548 107.616H248.244L244.26 112.152H244.02L244.812 107.616H240.324L238.116 120ZM256.419 120.312C258.171 120.312 259.467 119.592 260.571 118.2L260.811 118.176L260.475 120H264.987L267.171 107.616H262.683L262.347 109.488L262.083 109.512C261.459 108.144 260.451 107.304 258.651 107.304C255.387 107.304 252.747 109.848 252.075 113.76C251.355 117.768 253.083 120.312 256.419 120.312ZM258.531 116.544C257.091 116.544 256.275 115.416 256.563 113.856C256.827 112.248 258.099 111.072 259.587 111.072C261.003 111.072 261.843 112.2 261.555 113.76C261.291 115.368 260.019 116.544 258.531 116.544ZM267.108 120H271.596L272.844 113.088H273.084L274.452 120H277.524L281.364 113.064H281.58L280.356 120H284.868L287.052 107.616H281.364L276.828 115.776H276.588L274.98 107.616H269.292L267.108 120ZM286.96 120H291.616L296.464 113.592H296.704L295.552 120H300.064L302.248 107.616H297.616L292.744 114.12H292.504L293.656 107.616H289.144L286.96 120ZM0.952 151H8.416C11.224 151 13.336 149.656 13.72 147.544C13.96 146.08 13.264 145.144 11.872 144.76L11.944 144.52C13.024 144.184 13.96 143.152 14.176 141.928C14.512 140.032 13.024 138.616 10.24 138.616H3.136L0.952 151ZM6.448 143.44L6.832 141.352H8.848C9.616 141.352 10.024 141.784 9.928 142.384C9.808 142.984 9.208 143.44 8.44 143.44H6.448ZM5.608 148.264L5.992 146.008H8.008C8.848 146.008 9.304 146.44 9.184 147.088C9.064 147.76 8.416 148.264 7.576 148.264H5.608ZM26.908 151.312C31.156 151.312 34.3 148.888 35.02 144.856C35.74 140.8 33.412 138.304 29.14 138.304C24.892 138.304 21.748 140.728 21.028 144.76C20.332 148.84 22.636 151.312 26.908 151.312ZM27.508 147.544C26.044 147.544 25.252 146.44 25.516 144.856C25.804 143.224 27.052 142.072 28.54 142.072C30.004 142.072 30.796 143.176 30.532 144.76C30.244 146.392 28.996 147.544 27.508 147.544ZM38.5966 151H43.1086L44.6686 142.216H48.5566L49.2046 138.616H36.8926L36.2446 142.216H40.1566L38.5966 151ZM45.1934 154.6H48.7934L49.4174 151H58.6814L58.0574 154.6H61.6334L62.9054 147.4H60.8894L62.4494 138.616H51.6254L50.3534 142.96C49.6814 145.216 49.0094 147.016 47.9054 147.4H46.4654L45.1934 154.6ZM52.3694 147.4L52.4174 147.184C53.2814 146.536 53.6654 145.84 54.0014 144.784L54.8174 142.216H57.3134L56.4014 147.4H52.3694ZM70.009 151.312C73.153 151.312 75.961 149.896 76.969 147.592L73.225 146.848C72.721 147.64 71.833 148.216 70.729 148.216C69.385 148.216 68.665 147.4 68.593 146.056H77.641C77.737 145.816 77.881 145.192 77.905 144.856C78.625 140.872 76.369 138.304 72.289 138.304C68.209 138.304 64.897 140.8 64.201 144.712C63.481 148.72 65.881 151.312 70.009 151.312ZM68.977 143.656C69.457 142.288 70.465 141.4 71.713 141.4C72.985 141.4 73.729 142.384 73.609 143.608L68.977 143.656ZM77.5746 151C79.6386 151 83.1906 151.216 84.3426 147.376L85.9026 142.216H88.2786L86.7186 151H91.2306L93.4146 138.616H82.6866L80.9826 144.664C80.3346 146.944 79.8306 147.64 78.1266 147.64L77.5746 151ZM93.3192 151H100.183C103.687 151 105.919 148.744 106.351 146.32C106.783 143.824 105.295 141.688 101.791 141.688H99.4632L100.015 138.616H95.5032L93.3192 151ZM98.4312 147.616L98.8632 145.048H100.591C101.503 145.048 101.983 145.552 101.863 146.32C101.719 147.088 101.023 147.616 100.111 147.616H98.4312ZM106.96 151H111.448L112.24 146.584H115.816L115.048 151H119.536L121.744 138.64H117.232L116.464 142.984H112.888L113.656 138.64H109.144L106.96 151ZM121.655 151H128.135C131.639 151 133.871 148.744 134.303 146.32C134.735 143.824 133.271 141.664 129.743 141.664H127.799L128.351 138.616H123.839L121.655 151ZM134.351 151H138.839L141.023 138.64H136.535L134.351 151ZM126.599 147.616L127.031 145.048H128.543C129.455 145.048 129.935 145.552 129.815 146.32C129.671 147.088 128.975 147.616 128.063 147.616H126.599ZM147.353 151.312C150.497 151.312 153.305 149.896 154.313 147.592L150.569 146.848C150.065 147.64 149.177 148.216 148.073 148.216C146.729 148.216 146.009 147.4 145.937 146.056H154.985C155.081 145.816 155.225 145.192 155.249 144.856C155.969 140.872 153.713 138.304 149.633 138.304C145.553 138.304 142.241 140.8 141.545 144.712C140.825 148.72 143.225 151.312 147.353 151.312ZM146.321 143.656C146.801 142.288 147.809 141.4 149.057 141.4C150.329 141.4 151.073 142.384 150.953 143.608L146.321 143.656ZM169.465 151H173.785L175.969 138.616H171.481L170.569 143.68C170.137 144.184 169.345 144.568 168.625 144.568C167.617 144.568 167.113 143.848 167.305 142.696L168.025 138.616H163.537L162.697 143.32C162.193 146.152 163.633 148.168 166.249 148.168C167.713 148.168 169.369 147.52 170.281 146.488L169.465 151ZM180.81 151.312C182.562 151.312 183.858 150.592 184.962 149.2L185.202 149.176L184.866 151H189.378L191.562 138.616H187.074L186.738 140.488L186.474 140.512C185.85 139.144 184.842 138.304 183.042 138.304C179.778 138.304 177.138 140.848 176.466 144.76C175.746 148.768 177.474 151.312 180.81 151.312ZM182.922 147.544C181.482 147.544 180.666 146.416 180.954 144.856C181.218 143.248 182.49 142.072 183.978 142.072C185.394 142.072 186.234 143.2 185.946 144.76C185.682 146.368 184.41 147.544 182.922 147.544ZM197.883 151.312C201.411 151.312 204.291 149.488 205.251 146.368L201.195 145.84C200.739 146.92 199.635 147.712 198.483 147.712C197.091 147.712 196.299 146.536 196.587 144.856C196.899 143.128 198.195 141.904 199.611 141.904C200.667 141.904 201.507 142.648 201.555 143.752L205.779 143.272C205.947 140.176 203.691 138.304 200.115 138.304C195.987 138.304 192.819 140.8 192.099 144.76C191.427 148.72 193.803 151.312 197.883 151.312ZM206.03 151H212.51C216.014 151 218.246 148.744 218.678 146.32C219.11 143.824 217.646 141.664 214.118 141.664H212.174L212.726 138.616H208.214L206.03 151ZM218.726 151H223.214L225.398 138.64H220.91L218.726 151ZM210.974 147.616L211.406 145.048H212.918C213.83 145.048 214.31 145.552 214.19 146.32C214.046 147.088 213.35 147.616 212.438 147.616H210.974Z" fill="#231D1D"/>
</svg>
