<svg width="361" height="156" viewBox="0 0 361 156" fill="none" xmlns="http://www.w3.org/2000/svg">
<path d="M1.396 26H8.992L10.936 15.02H11.296L16.552 26H25.516L18.316 12.5L29.98 0.223999H21.016L12.124 10.268H11.8L13.564 0.223999H5.968L1.396 26ZM32.5667 26.468C35.1947 26.468 37.1387 25.388 38.7947 23.3L39.1547 23.264L38.6507 26H45.4187L48.6947 7.424H41.9627L41.4587 10.232L41.0627 10.268C40.1267 8.216 38.6147 6.956 35.9147 6.956C31.0187 6.956 27.0587 10.772 26.0507 16.64C24.9707 22.652 27.5627 26.468 32.5667 26.468ZM35.7347 20.816C33.5747 20.816 32.3507 19.124 32.7827 16.784C33.1787 14.372 35.0867 12.608 37.3187 12.608C39.4427 12.608 40.7027 14.3 40.2707 16.64C39.8747 19.052 37.9667 20.816 35.7347 20.816ZM53.3519 26H60.1199L62.4599 12.824H68.2919L69.2639 7.424H50.7959L49.8239 12.824H55.6919L53.3519 26ZM77.5487 26.468C82.2647 26.468 86.4767 24.344 87.9887 20.888L82.3727 19.772C81.6167 20.96 80.2847 21.824 78.6287 21.824C76.6127 21.824 75.5327 20.6 75.4247 18.584H88.9967C89.1407 18.224 89.3567 17.288 89.3927 16.784C90.4727 10.808 87.0887 6.956 80.9687 6.956C74.8487 6.956 69.8807 10.7 68.8367 16.568C67.7567 22.58 71.3567 26.468 77.5487 26.468ZM76.0007 14.984C76.7207 12.932 78.2327 11.6 80.1047 11.6C82.0127 11.6 83.1287 13.076 82.9487 14.912L76.0007 14.984ZM90.1546 26H96.8866L99.2266 12.824H107.651L108.623 7.424H93.4306L90.1546 26ZM116.96 26.468C123.332 26.468 128.048 22.832 129.128 16.784C130.208 10.7 126.716 6.956 120.308 6.956C113.936 6.956 109.22 10.592 108.14 16.64C107.096 22.76 110.552 26.468 116.96 26.468ZM117.86 20.816C115.664 20.816 114.476 19.16 114.872 16.784C115.304 14.336 117.176 12.608 119.408 12.608C121.604 12.608 122.792 14.264 122.396 16.64C121.964 19.088 120.092 20.816 117.86 20.816ZM145.65 6.956C143.238 6.956 141.366 7.856 139.854 9.548L139.494 9.584L139.89 7.424H133.122L128.406 34.28H135.138L136.974 23.84L137.37 23.804C138.27 25.496 139.89 26.468 142.302 26.468C147.162 26.468 151.158 22.652 152.166 16.784C153.246 10.772 150.582 6.956 145.65 6.956ZM142.482 12.608C144.606 12.608 145.866 14.336 145.47 16.64C145.038 19.016 143.13 20.816 140.898 20.816C138.774 20.816 137.55 19.088 137.946 16.784C138.342 14.408 140.286 12.608 142.482 12.608ZM152.944 26H159.928L167.2 16.388H167.56L165.832 26H172.6L175.876 7.424H168.928L161.62 17.18H161.26L162.988 7.424H156.22L152.944 26ZM175.725 26H182.709L189.981 16.388H190.341L188.613 26H195.381L198.657 7.424H191.709L184.401 17.18H184.041L185.769 7.424H179.001L175.725 26ZM1.264 88H10.576C14.584 88 17.296 86.344 17.824 83.416C18.208 81.352 17.176 79.84 15.544 79.36L15.616 79.12C17.104 78.664 18.4 77.368 18.736 75.592C19.24 72.712 17.152 70.816 13.096 70.816H4.312L1.264 88ZM8.152 77.704L8.728 74.464H11.512C12.808 74.464 13.576 75.112 13.432 76.048C13.24 77.008 12.208 77.704 10.912 77.704H8.152ZM6.976 84.352L7.6 80.824H10.72C12.064 80.824 12.928 81.544 12.76 82.552C12.568 83.584 11.416 84.352 10.072 84.352H6.976ZM18.6239 88H25.1039C28.6079 88 30.8399 85.744 31.2719 83.32C31.7039 80.824 30.2399 78.664 26.7119 78.664H24.7679L25.3199 75.616H20.8079L18.6239 88ZM31.3199 88H35.8079L37.9919 75.64H33.5039L31.3199 88ZM23.5679 84.616L23.9999 82.048H25.5119C26.4239 82.048 26.9039 82.552 26.7839 83.32C26.6399 84.088 25.9439 84.616 25.0319 84.616H23.5679ZM44.2255 88.336C48.1135 88.336 51.1855 85.936 51.8095 82.36C52.4335 78.832 50.5615 76.36 47.0335 76.36C45.6175 76.36 44.5855 76.768 43.6255 77.68L43.3855 77.728C43.8415 75.592 45.0175 74.704 47.8015 74.512C51.2815 74.224 53.1295 72.856 53.6335 70.024L49.8415 69.976C49.6735 70.96 48.8815 71.392 47.0575 71.56C42.3295 71.968 40.0255 74.512 38.9455 80.656C38.0815 85.552 40.0255 88.336 44.2255 88.336ZM44.8015 84.568C43.5535 84.568 42.8575 83.632 43.0975 82.288C43.3615 80.872 44.4415 79.96 45.6895 79.96C46.9135 79.96 47.5855 80.848 47.3215 82.216C47.0815 83.584 46.0495 84.568 44.8015 84.568ZM52.3739 88H57.0299L61.8779 81.592H62.1179L60.9659 88H65.4779L67.6619 75.616H63.0299L58.1579 82.12H57.9179L59.0699 75.616H54.5579L52.3739 88ZM78.0974 75.304C76.4894 75.304 75.2414 75.904 74.2334 77.032L73.9934 77.056L74.2574 75.616H69.7454L66.6014 93.52H71.0894L72.3134 86.56L72.5774 86.536C73.1774 87.664 74.2574 88.312 75.8654 88.312C79.1054 88.312 81.7694 85.768 82.4414 81.856C83.1614 77.848 81.3854 75.304 78.0974 75.304ZM75.9854 79.072C77.4014 79.072 78.2414 80.224 77.9774 81.76C77.6894 83.344 76.4174 84.544 74.9294 84.544C73.5134 84.544 72.6974 83.392 72.9614 81.856C73.2254 80.272 74.5214 79.072 75.9854 79.072ZM88.0679 88.312C89.8199 88.312 91.1159 87.592 92.2199 86.2L92.4599 86.176L92.1239 88H96.6359L98.8199 75.616H94.3319L93.9959 77.488L93.7319 77.512C93.1079 76.144 92.0999 75.304 90.2999 75.304C87.0359 75.304 84.3959 77.848 83.7239 81.76C83.0039 85.768 84.7319 88.312 88.0679 88.312ZM90.1799 84.544C88.7399 84.544 87.9239 83.416 88.2119 81.856C88.4759 80.248 89.7479 79.072 91.2359 79.072C92.6519 79.072 93.4919 80.2 93.2039 81.76C92.9399 83.368 91.6679 84.544 90.1799 84.544ZM107.685 73.768C109.893 73.768 111.741 72.256 112.125 70.12L109.413 70.072C109.245 71.032 108.717 71.632 107.997 71.632C107.301 71.632 107.013 71.08 107.181 70.12L104.469 70.072C104.109 72.208 105.429 73.768 107.685 73.768ZM98.7567 88H103.413L108.261 81.592H108.501L107.349 88H111.861L114.045 75.616H109.413L104.541 82.12H104.301L105.453 75.616H100.941L98.7567 88ZM119.78 88H124.268L125.06 83.584H128.636L127.868 88H132.356L134.564 75.64H130.052L129.284 79.984H125.708L126.476 75.64H121.964L119.78 88ZM137.139 93.64C139.731 93.64 141.531 92.056 143.403 88.6L150.387 75.616H145.755L142.395 82.456H142.155L140.571 75.616H135.723L139.587 88.168C139.035 89.128 138.171 90.064 136.779 90.064C136.179 90.064 135.387 89.92 134.883 89.704L134.307 93.184C134.955 93.448 136.227 93.64 137.139 93.64ZM148.375 88H153.631L157.567 82.984H157.807L156.895 88H161.407L162.295 82.984H162.535L164.695 88H169.903L166.663 81.568L172.015 75.616H166.831L163.039 80.176H162.799L163.591 75.616H159.103L158.287 80.176H158.047L155.839 75.616H150.703L153.943 81.568L148.375 88ZM171.061 88H175.549L176.341 83.584H179.917L179.149 88H183.637L185.845 75.64H181.333L180.565 79.984H176.989L177.757 75.64H173.245L171.061 88ZM188.421 93.64C191.013 93.64 192.813 92.056 194.685 88.6L201.669 75.616H197.037L193.677 82.456H193.437L191.853 75.616H187.005L190.869 88.168C190.317 89.128 189.453 90.064 188.061 90.064C187.461 90.064 186.669 89.92 186.165 89.704L185.589 93.184C186.237 93.448 187.509 93.64 188.421 93.64ZM212.52 88.48C216.48 88.48 219.552 85.816 220.248 81.88C220.944 77.896 218.784 75.136 214.8 75.136C211.464 75.136 208.872 77.152 207.744 80.224L206.496 80.248L207.312 75.616H202.8L200.616 88H205.104L205.896 83.488H207.192C207.24 86.512 209.208 88.48 212.52 88.48ZM213.12 84.544C211.752 84.544 211.08 83.488 211.368 81.88C211.632 80.2 212.76 79.072 214.176 79.072C215.544 79.072 216.216 80.152 215.928 81.784C215.64 83.464 214.536 84.544 213.12 84.544ZM226.561 88H231.073L231.961 83.032H232.201L234.553 88H239.857L236.329 81.568L241.993 75.616H236.689L232.705 80.152H232.465L233.257 75.616H228.769L226.561 88ZM244.865 88.312C246.617 88.312 247.913 87.592 249.017 86.2L249.257 86.176L248.921 88H253.433L255.617 75.616H251.129L250.793 77.488L250.529 77.512C249.905 76.144 248.897 75.304 247.097 75.304C243.833 75.304 241.193 77.848 240.521 81.76C239.801 85.768 241.529 88.312 244.865 88.312ZM246.977 84.544C245.537 84.544 244.721 83.416 245.009 81.856C245.273 80.248 246.545 79.072 248.033 79.072C249.449 79.072 250.289 80.2 250.001 81.76C249.737 83.368 248.465 84.544 246.977 84.544ZM258.722 88H263.234L264.794 79.216H268.682L269.33 75.616H257.018L256.37 79.216H260.282L258.722 88ZM274.853 88.312C277.997 88.312 280.805 86.896 281.813 84.592L278.069 83.848C277.565 84.64 276.677 85.216 275.573 85.216C274.229 85.216 273.509 84.4 273.437 83.056H282.485C282.581 82.816 282.725 82.192 282.749 81.856C283.469 77.872 281.213 75.304 277.133 75.304C273.053 75.304 269.741 77.8 269.045 81.712C268.325 85.72 270.725 88.312 274.853 88.312ZM273.821 80.656C274.301 79.288 275.309 78.4 276.557 78.4C277.829 78.4 278.573 79.384 278.453 80.608L273.821 80.656ZM283.257 88H287.745L289.305 79.216H294.921L295.569 75.616H285.441L283.257 88ZM301.127 88.312C305.375 88.312 308.519 85.888 309.239 81.856C309.959 77.8 307.631 75.304 303.359 75.304C299.111 75.304 295.967 77.728 295.247 81.76C294.551 85.84 296.855 88.312 301.127 88.312ZM301.727 84.544C300.263 84.544 299.471 83.44 299.735 81.856C300.023 80.224 301.271 79.072 302.759 79.072C304.223 79.072 305.015 80.176 304.751 81.76C304.463 83.392 303.215 84.544 301.727 84.544ZM320.254 75.304C318.646 75.304 317.398 75.904 316.39 77.032L316.15 77.056L316.414 75.616H311.902L308.758 93.52H313.246L314.47 86.56L314.734 86.536C315.334 87.664 316.414 88.312 318.022 88.312C321.262 88.312 323.926 85.768 324.598 81.856C325.318 77.848 323.542 75.304 320.254 75.304ZM318.142 79.072C319.558 79.072 320.398 80.224 320.134 81.76C319.846 83.344 318.574 84.544 317.086 84.544C315.67 84.544 314.854 83.392 315.118 81.856C315.382 80.272 316.678 79.072 318.142 79.072ZM325.116 88H329.772L334.62 81.592H334.86L333.708 88H338.22L340.404 75.616H335.772L330.9 82.12H330.66L331.812 75.616H327.3L325.116 88ZM352.208 88.48C356.168 88.48 359.24 85.816 359.936 81.88C360.632 77.896 358.472 75.136 354.488 75.136C351.152 75.136 348.56 77.152 347.432 80.224L346.184 80.248L347 75.616H342.488L340.304 88H344.792L345.584 83.488H346.88C346.928 86.512 348.896 88.48 352.208 88.48ZM352.808 84.544C351.44 84.544 350.768 83.488 351.056 81.88C351.32 80.2 352.448 79.072 353.864 79.072C355.232 79.072 355.904 80.152 355.616 81.784C355.328 83.464 354.224 84.544 352.808 84.544ZM0.952 119H5.608L10.456 112.592H10.696L9.544 119H14.056L16.24 106.616H11.608L6.736 113.12H6.496L7.648 106.616H3.136L0.952 119ZM24.6394 124.64C27.2314 124.64 29.0314 123.056 30.9034 119.6L37.8874 106.616H33.2554L29.8954 113.456H29.6554L28.0714 106.616H23.2234L27.0874 119.168C26.5354 120.128 25.6714 121.064 24.2794 121.064C23.6794 121.064 22.8874 120.92 22.3834 120.704L21.8074 124.184C22.4554 124.448 23.7274 124.64 24.6394 124.64ZM44.7068 119H49.0268L51.2108 106.616H46.7228L45.8108 111.68C45.3788 112.184 44.5868 112.568 43.8668 112.568C42.8588 112.568 42.3548 111.848 42.5468 110.696L43.2668 106.616H38.7788L37.9388 111.32C37.4348 114.152 38.8748 116.168 41.4908 116.168C42.9548 116.168 44.6108 115.52 45.5228 114.488L44.7068 119ZM51.1082 119H55.7643L60.6123 112.592H60.8523L59.7003 119H64.2123L66.3963 106.616H61.7643L56.8923 113.12H56.6523L57.8043 106.616H53.2923L51.1082 119ZM72.6797 119.312C76.2078 119.312 79.0878 117.488 80.0478 114.368L75.9918 113.84C75.5358 114.92 74.4318 115.712 73.2798 115.712C71.8878 115.712 71.0958 114.536 71.3838 112.856C71.6958 111.128 72.9918 109.904 74.4078 109.904C75.4638 109.904 76.3038 110.648 76.3518 111.752L80.5758 111.272C80.7438 108.176 78.4878 106.304 74.9118 106.304C70.7838 106.304 67.6158 108.8 66.8958 112.76C66.2237 116.72 68.5998 119.312 72.6797 119.312ZM80.827 119H87.691C91.195 119 93.427 116.744 93.859 114.32C94.291 111.824 92.803 109.688 89.299 109.688H86.971L87.523 106.616H83.011L80.827 119ZM85.939 115.616L86.371 113.048H88.099C89.011 113.048 89.491 113.552 89.371 114.32C89.227 115.088 88.531 115.616 87.619 115.616H85.939ZM99.5356 119C101.6 119 105.152 119.216 106.304 115.376L107.864 110.216H110.24L108.68 119H113.192L115.376 106.616H104.648L102.944 112.664C102.296 114.944 101.792 115.64 100.088 115.64L99.5356 119ZM127.184 119.48C131.144 119.48 134.216 116.816 134.912 112.88C135.608 108.896 133.448 106.136 129.464 106.136C126.128 106.136 123.536 108.152 122.408 111.224L121.16 111.248L121.976 106.616H117.464L115.28 119H119.768L120.56 114.488H121.856C121.904 117.512 123.872 119.48 127.184 119.48ZM127.784 115.544C126.416 115.544 125.744 114.488 126.032 112.88C126.296 111.2 127.424 110.072 128.84 110.072C130.208 110.072 130.88 111.152 130.592 112.784C130.304 114.464 129.2 115.544 127.784 115.544ZM141.726 119.336C145.614 119.336 148.686 116.936 149.31 113.36C149.934 109.832 148.062 107.36 144.534 107.36C143.118 107.36 142.086 107.768 141.126 108.68L140.886 108.728C141.342 106.592 142.518 105.704 145.302 105.512C148.782 105.224 150.63 103.856 151.134 101.024L147.342 100.976C147.174 101.96 146.382 102.392 144.558 102.56C139.83 102.968 137.526 105.512 136.446 111.656C135.582 116.552 137.526 119.336 141.726 119.336ZM142.302 115.568C141.054 115.568 140.358 114.632 140.598 113.288C140.862 111.872 141.942 110.96 143.19 110.96C144.414 110.96 145.086 111.848 144.822 113.216C144.582 114.584 143.55 115.568 142.302 115.568ZM156.494 119.312C160.742 119.312 163.886 116.888 164.606 112.856C165.326 108.8 162.998 106.304 158.726 106.304C154.478 106.304 151.334 108.728 150.614 112.76C149.918 116.84 152.222 119.312 156.494 119.312ZM157.094 115.544C155.63 115.544 154.838 114.44 155.102 112.856C155.39 111.224 156.638 110.072 158.126 110.072C159.59 110.072 160.382 111.176 160.118 112.76C159.83 114.392 158.582 115.544 157.094 115.544ZM165.085 119H169.573L170.821 112.088H171.061L172.429 119H175.501L179.341 112.064H179.557L178.333 119H182.845L185.029 106.616H179.341L174.805 114.776H174.565L172.957 106.616H167.269L165.085 119ZM187.6 124.64C190.192 124.64 191.992 123.056 193.864 119.6L200.848 106.616H196.216L192.856 113.456H192.616L191.032 106.616H186.184L190.048 119.168C189.496 120.128 188.632 121.064 187.24 121.064C186.64 121.064 185.848 120.92 185.344 120.704L184.768 124.184C185.416 124.448 186.688 124.64 187.6 124.64ZM205.632 119H213.096C215.904 119 218.016 117.656 218.4 115.544C218.64 114.08 217.944 113.144 216.552 112.76L216.624 112.52C217.704 112.184 218.64 111.152 218.856 109.928C219.192 108.032 217.704 106.616 214.92 106.616H207.816L205.632 119ZM211.128 111.44L211.512 109.352H213.528C214.296 109.352 214.704 109.784 214.608 110.384C214.488 110.984 213.888 111.44 213.12 111.44H211.128ZM210.288 116.264L210.672 114.008H212.688C213.528 114.008 213.984 114.44 213.864 115.088C213.744 115.76 213.096 116.264 212.256 116.264H210.288ZM219.296 119H223.952L228.8 112.592H229.04L227.888 119H232.4L234.584 106.616H229.952L225.08 113.12H224.84L225.992 106.616H221.48L219.296 119ZM233.115 122.6H236.715L237.339 119H246.603L245.979 122.6H249.555L250.827 115.4H248.811L250.371 106.616H239.547L238.275 110.96C237.603 113.216 236.931 115.016 235.827 115.4H234.387L233.115 122.6ZM240.291 115.4L240.339 115.184C241.203 114.536 241.587 113.84 241.923 112.784L242.739 110.216H245.235L244.323 115.4H240.291ZM253.343 124.64C255.935 124.64 257.735 123.056 259.607 119.6L266.591 106.616H261.959L258.599 113.456H258.359L256.775 106.616H251.927L255.791 119.168C255.239 120.128 254.375 121.064 252.983 121.064C252.383 121.064 251.591 120.92 251.087 120.704L250.511 124.184C251.159 124.448 252.431 124.64 253.343 124.64ZM274.542 119H279.054L280.614 110.216H284.502L285.15 106.616H272.838L272.19 110.216H276.102L274.542 119ZM289.185 119.312C290.937 119.312 292.233 118.592 293.337 117.2L293.577 117.176L293.241 119H297.753L299.937 106.616H295.449L295.113 108.488L294.849 108.512C294.225 107.144 293.217 106.304 291.417 106.304C288.153 106.304 285.513 108.848 284.841 112.76C284.121 116.768 285.849 119.312 289.185 119.312ZM291.297 115.544C289.857 115.544 289.041 114.416 289.329 112.856C289.593 111.248 290.865 110.072 292.353 110.072C293.769 110.072 294.609 111.2 294.321 112.76C294.057 114.368 292.785 115.544 291.297 115.544ZM299.874 119H304.362L305.154 114.584H308.73L307.962 119H312.45L314.658 106.64H310.146L309.378 110.984H305.802L306.57 106.64H302.058L299.874 119ZM325.177 122.6H328.777L330.025 115.4H328.201L329.761 106.616H325.273L323.713 115.4H319.705L321.265 106.616H316.753L314.569 119H325.801L325.177 122.6ZM335.615 119.312C337.367 119.312 338.663 118.592 339.767 117.2L340.007 117.176L339.671 119H344.183L346.367 106.616H341.879L341.543 108.488L341.279 108.512C340.655 107.144 339.647 106.304 337.847 106.304C334.583 106.304 331.943 108.848 331.271 112.76C330.551 116.768 332.279 119.312 335.615 119.312ZM337.727 115.544C336.287 115.544 335.471 114.416 335.759 112.856C336.023 111.248 337.295 110.072 338.783 110.072C340.199 110.072 341.039 111.2 340.751 112.76C340.487 114.368 339.215 115.544 337.727 115.544ZM7.408 150.312C11.656 150.312 14.8 147.888 15.52 143.856C16.24 139.8 13.912 137.304 9.64 137.304C5.392 137.304 2.248 139.728 1.528 143.76C0.832 147.84 3.136 150.312 7.408 150.312ZM8.008 146.544C6.544 146.544 5.752 145.44 6.016 143.856C6.304 142.224 7.552 141.072 9.04 141.072C10.504 141.072 11.296 142.176 11.032 143.76C10.744 145.392 9.496 146.544 8.008 146.544ZM19.0966 150H23.6086L25.1686 141.216H29.0566L29.7046 137.616H17.3926L16.7446 141.216H20.6566L19.0966 150ZM34.702 150H39.19L39.982 145.584H43.558L42.79 150H47.278L49.486 137.64H44.974L44.206 141.984H40.63L41.398 137.64H36.886L34.702 150ZM54.3413 150.312C56.0933 150.312 57.3893 149.592 58.4933 148.2L58.7333 148.176L58.3973 150H62.9093L65.0933 137.616H60.6053L60.2693 139.488L60.0053 139.512C59.3813 138.144 58.3733 137.304 56.5733 137.304C53.3093 137.304 50.6693 139.848 49.9973 143.76C49.2773 147.768 51.0053 150.312 54.3413 150.312ZM56.4533 146.544C55.0133 146.544 54.1973 145.416 54.4853 143.856C54.7493 142.248 56.0213 141.072 57.5093 141.072C58.9253 141.072 59.7653 142.2 59.4773 143.76C59.2133 145.368 57.9413 146.544 56.4533 146.544ZM75.5661 137.304C73.9581 137.304 72.7101 137.904 71.7021 139.032L71.4621 139.056L71.7261 137.616H67.2141L64.0701 155.52H68.5581L69.7821 148.56L70.0461 148.536C70.6461 149.664 71.7261 150.312 73.3341 150.312C76.5741 150.312 79.2381 147.768 79.9101 143.856C80.6301 139.848 78.8541 137.304 75.5661 137.304ZM73.4541 141.072C74.8701 141.072 75.7101 142.224 75.4461 143.76C75.1581 145.344 73.8861 146.544 72.3981 146.544C70.9821 146.544 70.1661 145.392 70.4301 143.856C70.6941 142.272 71.9901 141.072 73.4541 141.072ZM87.0486 150.312C91.2966 150.312 94.4406 147.888 95.1606 143.856C95.8806 139.8 93.5526 137.304 89.2806 137.304C85.0326 137.304 81.8886 139.728 81.1686 143.76C80.4726 147.84 82.7766 150.312 87.0486 150.312ZM87.6486 146.544C86.1846 146.544 85.3926 145.44 85.6566 143.856C85.9446 142.224 87.1926 141.072 88.6806 141.072C90.1446 141.072 90.9366 142.176 90.6726 143.76C90.3846 145.392 89.1366 146.544 87.6486 146.544ZM94.1309 153.6H97.7309L98.3549 150H107.619L106.995 153.6H110.571L111.843 146.4H109.827L111.387 137.616H100.563L99.2909 141.96C98.6189 144.216 97.9469 146.016 96.8429 146.4H95.4029L94.1309 153.6ZM101.307 146.4L101.355 146.184C102.219 145.536 102.603 144.84 102.939 143.784L103.755 141.216H106.251L105.339 146.4H101.307ZM112.702 150H117.19L117.982 145.584H121.558L120.79 150H125.278L127.486 137.64H122.974L122.206 141.984H118.63L119.398 137.64H114.886L112.702 150ZM133.853 150.312C138.101 150.312 141.245 147.888 141.965 143.856C142.685 139.8 140.357 137.304 136.085 137.304C131.837 137.304 128.693 139.728 127.973 143.76C127.277 147.84 129.581 150.312 133.853 150.312ZM134.453 146.544C132.989 146.544 132.197 145.44 132.461 143.856C132.749 142.224 133.997 141.072 135.485 141.072C136.949 141.072 137.741 142.176 137.477 143.76C137.189 145.392 135.941 146.544 134.453 146.544ZM142.444 150H146.932L148.492 141.216H154.108L154.756 137.616H144.628L142.444 150ZM160.314 150.312C164.562 150.312 167.706 147.888 168.426 143.856C169.146 139.8 166.818 137.304 162.546 137.304C158.298 137.304 155.154 139.728 154.434 143.76C153.738 147.84 156.042 150.312 160.314 150.312ZM160.914 146.544C159.45 146.544 158.658 145.44 158.922 143.856C159.21 142.224 160.458 141.072 161.946 141.072C163.41 141.072 164.202 142.176 163.938 143.76C163.65 145.392 162.402 146.544 160.914 146.544ZM173.373 153.6H176.973L177.597 150H186.861L186.237 153.6H189.813L191.085 146.4H189.069L190.629 137.616H179.805L178.533 141.96C177.861 144.216 177.189 146.016 176.085 146.4H174.645L173.373 153.6ZM180.549 146.4L180.597 146.184C181.461 145.536 181.845 144.84 182.181 143.784L182.997 141.216H185.493L184.581 146.4H180.549ZM198.213 150.312C202.461 150.312 205.605 147.888 206.325 143.856C207.045 139.8 204.717 137.304 200.445 137.304C196.197 137.304 193.053 139.728 192.333 143.76C191.637 147.84 193.941 150.312 198.213 150.312ZM198.813 146.544C197.349 146.544 196.557 145.44 196.821 143.856C197.109 142.224 198.357 141.072 199.845 141.072C201.309 141.072 202.101 142.176 201.837 143.76C201.549 145.392 200.301 146.544 198.813 146.544ZM215.304 155.64C217.896 155.64 219.696 154.056 221.568 150.6L228.552 137.616H223.92L220.56 144.456H220.32L218.736 137.616H213.888L217.752 150.168C217.2 151.128 216.336 152.064 214.944 152.064C214.344 152.064 213.552 151.92 213.048 151.704L212.471 155.184C213.12 155.448 214.392 155.64 215.304 155.64ZM225.09 150C227.154 150 230.706 150.216 231.858 146.376L233.418 141.216H235.794L234.234 150H238.746L240.93 137.616H230.202L228.498 143.664C227.85 145.944 227.346 146.64 225.642 146.64L225.09 150ZM240.835 150H245.491L250.339 143.592H250.579L249.427 150H253.939L256.123 137.616H251.491L246.619 144.12H246.379L247.531 137.616H243.019L240.835 150ZM263.894 150H268.214L270.398 137.616H265.91L264.998 142.68C264.566 143.184 263.774 143.568 263.054 143.568C262.046 143.568 261.542 142.848 261.734 141.696L262.454 137.616H257.966L257.126 142.32C256.622 145.152 258.062 147.168 260.678 147.168C262.142 147.168 263.798 146.52 264.71 145.488L263.894 150ZM270.296 150H274.784L275.576 145.584H279.152L278.384 150H282.872L285.08 137.64H280.568L279.8 141.984H276.224L276.992 137.64H272.48L270.296 150ZM291.447 150.312C295.695 150.312 298.839 147.888 299.559 143.856C300.279 139.8 297.951 137.304 293.679 137.304C289.431 137.304 286.287 139.728 285.567 143.76C284.871 147.84 287.175 150.312 291.447 150.312ZM292.047 146.544C290.583 146.544 289.791 145.44 290.055 143.856C290.343 142.224 291.591 141.072 293.079 141.072C294.543 141.072 295.335 142.176 295.071 143.76C294.783 145.392 293.535 146.544 292.047 146.544ZM300.038 150H304.526L306.086 141.216H311.702L312.35 137.616H302.222L300.038 150ZM317.908 150.312C322.156 150.312 325.3 147.888 326.02 143.856C326.74 139.8 324.412 137.304 320.14 137.304C315.892 137.304 312.748 139.728 312.028 143.76C311.332 147.84 313.636 150.312 317.908 150.312ZM318.508 146.544C317.044 146.544 316.252 145.44 316.516 143.856C316.804 142.224 318.052 141.072 319.54 141.072C321.004 141.072 321.796 142.176 321.532 143.76C321.244 145.392 319.996 146.544 318.508 146.544Z" fill="#231D1D"/>
</svg>
