<svg width="341" height="157" viewBox="0 0 341 157" fill="none" xmlns="http://www.w3.org/2000/svg">
<path d="M1.396 27H8.992L12.448 7.452H23.644L24.724 1.224H5.932L1.396 27ZM22.7952 27H29.7792L37.0512 17.388H37.4112L35.6832 27H42.4512L45.7272 8.424H38.7792L31.4712 18.18H31.1112L32.8392 8.424H26.0712L22.7952 27ZM54.3964 35.28H60.6604L62.1004 27.216C68.5084 26.892 73.8004 22.932 74.7364 17.712C75.6364 12.564 71.6764 8.532 65.3764 8.208L66.8164 0.143998H60.5884L59.1484 8.172C52.7044 8.46 47.3764 12.42 46.4764 17.568C45.5404 22.896 49.5004 26.964 55.8364 27.216L54.3964 35.28ZM56.7004 21.996C54.2524 21.96 52.7764 20.196 53.1724 17.748C53.6044 15.3 55.8364 13.464 58.2844 13.392L56.7004 21.996ZM62.9284 21.96L64.4764 13.5C66.9244 13.536 68.4004 15.3 68.0044 17.64C67.5724 20.088 65.3764 21.888 62.9284 21.96ZM75.4592 27H82.2273L83.5593 19.548H83.9193L87.4473 27H95.4033L90.1113 17.352L98.6073 8.424H90.6513L84.6753 15.228H84.3153L85.5033 8.424H78.7713L75.4592 27ZM97.5022 27H104.486L111.758 17.388H112.118L110.39 27H117.158L120.434 8.424H113.486L106.178 18.18H105.818L107.546 8.424H100.778L97.5022 27ZM1.288 89H6.328L7.216 84.008H10.12C14.656 84.008 17.872 81.632 18.544 77.96C19.192 74.24 16.792 71.816 12.28 71.816H4.312L1.288 89ZM7.864 80.36L8.728 75.464H11.104C12.808 75.464 13.72 76.424 13.48 77.864C13.216 79.376 11.92 80.36 10.192 80.36H7.864ZM22.6773 89.312C24.4293 89.312 25.7253 88.592 26.8293 87.2L27.0693 87.176L26.7333 89H31.2453L33.4293 76.616H28.9413L28.6053 78.488L28.3413 78.512C27.7173 77.144 26.7093 76.304 24.9093 76.304C21.6453 76.304 19.0053 78.848 18.3333 82.76C17.6132 86.768 19.3413 89.312 22.6773 89.312ZM24.7893 85.544C23.3493 85.544 22.5333 84.416 22.8213 82.856C23.0853 81.248 24.3573 80.072 25.8453 80.072C27.2613 80.072 28.1013 81.2 27.8133 82.76C27.5493 84.368 26.2773 85.544 24.7893 85.544ZM39.2221 89.312C42.6301 89.312 45.2941 87.896 45.7021 85.664C45.9421 84.248 45.2221 83.096 43.9261 82.736L44.0221 82.496C45.2461 82.16 46.1101 81.296 46.3261 80.048C46.7341 77.768 44.6221 76.304 41.3821 76.304C37.8061 76.304 35.1421 78.032 34.6381 80.888L38.6461 80.936C38.8141 80 39.6061 79.4 40.7101 79.4C41.6461 79.4 42.2221 79.808 42.1021 80.408C42.0061 81.032 41.2861 81.464 40.4221 81.464H39.3661L38.9341 83.888H40.0141C40.9261 83.888 41.5261 84.272 41.3821 84.944C41.2621 85.688 40.4701 86.216 39.4621 86.216C38.2861 86.216 37.6621 85.52 37.8541 84.368L33.6781 84.32C33.1261 87.44 35.3101 89.312 39.2221 89.312ZM52.8505 89.336C56.7385 89.336 59.8105 86.936 60.4345 83.36C61.0585 79.832 59.1865 77.36 55.6585 77.36C54.2425 77.36 53.2105 77.768 52.2505 78.68L52.0105 78.728C52.4665 76.592 53.6425 75.704 56.4265 75.512C59.9065 75.224 61.7545 73.856 62.2585 71.024L58.4665 70.976C58.2985 71.96 57.5065 72.392 55.6825 72.56C50.9545 72.968 48.6505 75.512 47.5705 81.656C46.7065 86.552 48.6505 89.336 52.8505 89.336ZM53.4265 85.568C52.1785 85.568 51.4825 84.632 51.7225 83.288C51.9865 81.872 53.0665 80.96 54.3145 80.96C55.5385 80.96 56.2105 81.848 55.9465 83.216C55.7065 84.584 54.6745 85.568 53.4265 85.568ZM60.9989 89H65.6549L70.5029 82.592H70.7429L69.5909 89H74.1029L76.2869 76.616H71.6549L66.7829 83.12H66.5429L67.6949 76.616H63.1829L60.9989 89ZM79.3544 89H83.8664L85.4264 80.216H89.3144L89.9624 76.616H77.6504L77.0024 80.216H80.9144L79.3544 89ZM89.1239 89H95.6039C99.1079 89 101.34 86.744 101.772 84.32C102.204 81.824 100.74 79.664 97.2119 79.664H95.2679L95.8199 76.616H91.3079L89.1239 89ZM101.82 89H106.308L108.492 76.64H104.004L101.82 89ZM94.0679 85.616L94.4999 83.048H96.0119C96.9239 83.048 97.4039 83.552 97.2839 84.32C97.1399 85.088 96.4439 85.616 95.5319 85.616H94.0679ZM114.822 89.312C117.966 89.312 120.773 87.896 121.782 85.592L118.038 84.848C117.534 85.64 116.646 86.216 115.542 86.216C114.198 86.216 113.478 85.4 113.406 84.056H122.454C122.549 83.816 122.694 83.192 122.718 82.856C123.438 78.872 121.182 76.304 117.102 76.304C113.022 76.304 109.71 78.8 109.014 82.712C108.293 86.72 110.694 89.312 114.822 89.312ZM113.79 81.656C114.27 80.288 115.278 79.4 116.526 79.4C117.798 79.4 118.542 80.384 118.422 81.608L113.79 81.656ZM127.693 92.6H131.293L131.917 89H141.181L140.557 92.6H144.133L145.405 85.4H143.389L144.949 76.616H134.125L132.853 80.96C132.181 83.216 131.509 85.016 130.405 85.4H128.965L127.693 92.6ZM134.869 85.4L134.917 85.184C135.781 84.536 136.165 83.84 136.501 82.784L137.317 80.216H139.813L138.901 85.4H134.869ZM146.264 89H153.729C156.537 89 158.648 87.656 159.033 85.544C159.273 84.08 158.577 83.144 157.185 82.76L157.257 82.52C158.337 82.184 159.273 81.152 159.489 79.928C159.825 78.032 158.337 76.616 155.553 76.616H148.449L146.264 89ZM151.761 81.44L152.145 79.352H154.161C154.929 79.352 155.337 79.784 155.241 80.384C155.121 80.984 154.521 81.44 153.753 81.44H151.761ZM150.921 86.264L151.305 84.008H153.321C154.161 84.008 154.617 84.44 154.497 85.088C154.377 85.76 153.729 86.264 152.889 86.264H150.921ZM159.929 89H164.585L169.433 82.592H169.673L168.521 89H173.033L175.217 76.616H170.585L165.713 83.12H165.473L166.625 76.616H162.113L159.929 89ZM174.156 89H179.412L183.348 83.984H183.588L182.676 89H187.188L188.076 83.984H188.316L190.476 89H195.684L192.444 82.568L197.796 76.616H192.612L188.82 81.176H188.58L189.372 76.616H184.884L184.068 81.176H183.828L181.62 76.616H176.484L179.724 82.568L174.156 89ZM201.962 89.312C205.106 89.312 207.914 87.896 208.922 85.592L205.178 84.848C204.674 85.64 203.786 86.216 202.682 86.216C201.338 86.216 200.618 85.4 200.546 84.056H209.594C209.69 83.816 209.834 83.192 209.858 82.856C210.578 78.872 208.322 76.304 204.242 76.304C200.162 76.304 196.85 78.8 196.154 82.712C195.434 86.72 197.834 89.312 201.962 89.312ZM200.93 81.656C201.41 80.288 202.418 79.4 203.666 79.4C204.938 79.4 205.682 80.384 205.562 81.608L200.93 81.656ZM210.366 89H214.854L215.646 84.584H219.222L218.454 89H222.942L225.15 76.64H220.638L219.87 80.984H216.294L217.062 76.64H212.55L210.366 89ZM225.061 89H229.717L234.565 82.592H234.805L233.653 89H238.165L240.349 76.616H235.717L230.845 83.12H230.605L231.757 76.616H227.245L225.061 89ZM239.553 89H244.545L247.233 85.664H248.025L247.449 89H252.105L254.313 76.616H247.233C244.113 76.616 241.593 78.536 241.113 81.2C240.825 82.904 241.521 84.488 243.081 85.208L239.553 89ZM247.017 82.568C246.033 82.568 245.457 82.04 245.601 81.272C245.745 80.456 246.561 79.88 247.521 79.88H249.225L248.745 82.568H247.017ZM0.952 120H5.44L6.232 115.584H9.808L9.04 120H13.528L15.736 107.64H11.224L10.456 111.984H6.88L7.648 107.64H3.136L0.952 120ZM20.5913 120.312C22.3433 120.312 23.6393 119.592 24.7433 118.2L24.9833 118.176L24.6473 120H29.1593L31.3433 107.616H26.8553L26.5193 109.488L26.2553 109.512C25.6313 108.144 24.6233 107.304 22.8233 107.304C19.5593 107.304 16.9193 109.848 16.2473 113.76C15.5273 117.768 17.2553 120.312 20.5913 120.312ZM22.7033 116.544C21.2633 116.544 20.4473 115.416 20.7353 113.856C20.9993 112.248 22.2713 111.072 23.7593 111.072C25.1753 111.072 26.0153 112.2 25.7273 113.76C25.4633 115.368 24.1913 116.544 22.7033 116.544ZM37.1161 120H41.6041L43.1641 111.216H48.7801L49.4281 107.616H39.3001L37.1161 120ZM48.6707 120H53.3268L58.1748 113.592H58.4148L57.2628 120H61.7748L63.9588 107.616H59.3268L54.4548 114.12H54.2148L55.3668 107.616H50.8548L48.6707 120ZM69.7383 125.52H73.9143L74.8743 120.144C79.1463 119.928 82.6743 117.288 83.2983 113.808C83.8983 110.376 81.2583 107.688 77.0583 107.472L78.0182 102.096H73.8663L72.9063 107.448C68.6103 107.64 65.0583 110.28 64.4583 113.712C63.8342 117.264 66.4743 119.976 70.6983 120.144L69.7383 125.52ZM71.2743 116.664C69.6423 116.64 68.6583 115.464 68.9223 113.832C69.2103 112.2 70.6983 110.976 72.3303 110.928L71.2743 116.664ZM75.4263 116.64L76.4583 111C78.0903 111.024 79.0743 112.2 78.8103 113.76C78.5223 115.392 77.0583 116.592 75.4263 116.64ZM83.7801 120H88.2921L89.1801 115.032H89.4201L91.7721 120H97.0761L93.5481 113.568L99.2121 107.616H93.9081L89.9241 112.152H89.6841L90.4761 107.616H85.9881L83.7801 120ZM98.4754 120H103.131L107.979 113.592H108.219L107.067 120H111.579L113.763 107.616H109.131L104.259 114.12H104.019L105.171 107.616H100.659L98.4754 120ZM114.407 124.2L117.599 119.856C118.151 119.136 118.487 118.488 118.583 117.864C118.823 116.448 117.935 115.416 116.447 115.416C115.007 115.416 113.807 116.4 113.567 117.792C113.327 119.016 113.975 119.976 115.103 120.192L112.991 123.624L114.407 124.2ZM133.488 120H137.808L139.992 107.616H135.504L134.592 112.68C134.16 113.184 133.368 113.568 132.648 113.568C131.64 113.568 131.136 112.848 131.328 111.696L132.048 107.616H127.56L126.72 112.32C126.216 115.152 127.656 117.168 130.272 117.168C131.736 117.168 133.392 116.52 134.304 115.488L133.488 120ZM143.058 120H147.57L149.13 111.216H153.018L153.666 107.616H141.354L140.706 111.216H144.618L143.058 120ZM159.213 120.312C163.461 120.312 166.605 117.888 167.325 113.856C168.045 109.8 165.717 107.304 161.445 107.304C157.197 107.304 154.053 109.728 153.333 113.76C152.637 117.84 154.941 120.312 159.213 120.312ZM159.813 116.544C158.349 116.544 157.557 115.44 157.821 113.856C158.109 112.224 159.357 111.072 160.845 111.072C162.309 111.072 163.101 112.176 162.837 113.76C162.549 115.392 161.301 116.544 159.813 116.544ZM174.14 120.336C178.028 120.336 181.1 117.936 181.724 114.36C182.348 110.832 180.476 108.36 176.948 108.36C175.532 108.36 174.5 108.768 173.54 109.68L173.3 109.728C173.756 107.592 174.932 106.704 177.716 106.512C181.196 106.224 183.044 104.856 183.548 102.024L179.756 101.976C179.588 102.96 178.796 103.392 176.972 103.56C172.244 103.968 169.94 106.512 168.86 112.656C167.996 117.552 169.94 120.336 174.14 120.336ZM174.716 116.568C173.468 116.568 172.772 115.632 173.012 114.288C173.276 112.872 174.356 111.96 175.604 111.96C176.828 111.96 177.5 112.848 177.236 114.216C176.996 115.584 175.964 116.568 174.716 116.568ZM182.288 120H188.768C192.272 120 194.504 117.744 194.936 115.32C195.368 112.824 193.904 110.664 190.376 110.664H188.432L188.984 107.616H184.472L182.288 120ZM194.984 120H199.472L201.656 107.64H197.168L194.984 120ZM187.232 116.616L187.664 114.048H189.176C190.088 114.048 190.568 114.552 190.448 115.32C190.304 116.088 189.608 116.616 188.696 116.616H187.232ZM210.558 120H215.07L216.63 111.216H220.518L221.166 107.616H208.854L208.206 111.216H212.118L210.558 120ZM220.327 120H226.807C230.311 120 232.543 117.744 232.975 115.32C233.407 112.824 231.943 110.664 228.415 110.664H226.471L227.023 107.616H222.511L220.327 120ZM233.023 120H237.511L239.695 107.64H235.207L233.023 120ZM225.271 116.616L225.703 114.048H227.215C228.127 114.048 228.607 114.552 228.487 115.32C228.343 116.088 227.647 116.616 226.735 116.616H225.271ZM248.597 120H253.109L254.669 111.216H258.557L259.205 107.616H246.893L246.245 111.216H250.157L248.597 120ZM264.752 120.312C269 120.312 272.144 117.888 272.864 113.856C273.584 109.8 271.256 107.304 266.984 107.304C262.736 107.304 259.592 109.728 258.872 113.76C258.176 117.84 260.48 120.312 264.752 120.312ZM265.352 116.544C263.888 116.544 263.096 115.44 263.36 113.856C263.648 112.224 264.896 111.072 266.384 111.072C267.848 111.072 268.64 112.176 268.376 113.76C268.088 115.392 266.84 116.544 265.352 116.544ZM281.215 120H285.535L287.719 107.616H283.231L282.319 112.68C281.887 113.184 281.095 113.568 280.375 113.568C279.367 113.568 278.863 112.848 279.055 111.696L279.775 107.616H275.287L274.447 112.32C273.943 115.152 275.383 117.168 277.999 117.168C279.463 117.168 281.119 116.52 282.031 115.488L281.215 120ZM287.616 120H292.104L292.896 115.584H296.472L295.704 120H300.192L302.4 107.64H297.888L297.12 111.984H293.544L294.312 107.64H289.8L287.616 120ZM308.767 120.312C313.015 120.312 316.159 117.888 316.879 113.856C317.599 109.8 315.271 107.304 310.999 107.304C306.751 107.304 303.607 109.728 302.887 113.76C302.191 117.84 304.495 120.312 308.767 120.312ZM309.367 116.544C307.903 116.544 307.111 115.44 307.375 113.856C307.663 112.224 308.911 111.072 310.399 111.072C311.863 111.072 312.655 112.176 312.391 113.76C312.103 115.392 310.855 116.544 309.367 116.544ZM7.408 151.312C11.656 151.312 14.8 148.888 15.52 144.856C16.24 140.8 13.912 138.304 9.64 138.304C5.392 138.304 2.248 140.728 1.528 144.76C0.832 148.84 3.136 151.312 7.408 151.312ZM8.008 147.544C6.544 147.544 5.752 146.44 6.016 144.856C6.304 143.224 7.552 142.072 9.04 142.072C10.504 142.072 11.296 143.176 11.032 144.76C10.744 146.392 9.496 147.544 8.008 147.544ZM19.0966 151H23.6086L25.1686 142.216H29.0566L29.7046 138.616H17.3926L16.7446 142.216H20.6566L19.0966 151ZM39.4021 138.304C37.7941 138.304 36.5461 138.904 35.5381 140.032L35.2981 140.056L35.5621 138.616H31.0501L27.9061 156.52H32.3941L33.6181 149.56L33.8821 149.536C34.4821 150.664 35.5621 151.312 37.1701 151.312C40.4101 151.312 43.0741 148.768 43.7461 144.856C44.4661 140.848 42.6901 138.304 39.4021 138.304ZM37.2901 142.072C38.7061 142.072 39.5461 143.224 39.2821 144.76C38.9941 146.344 37.7221 147.544 36.2341 147.544C34.8181 147.544 34.0021 146.392 34.2661 144.856C34.5301 143.272 35.8261 142.072 37.2901 142.072ZM49.3726 151.312C51.1246 151.312 52.4206 150.592 53.5246 149.2L53.7646 149.176L53.4286 151H57.9406L60.1246 138.616H55.6366L55.3006 140.488L55.0366 140.512C54.4126 139.144 53.4046 138.304 51.6046 138.304C48.3406 138.304 45.7006 140.848 45.0286 144.76C44.3086 148.768 46.0366 151.312 49.3726 151.312ZM51.4846 147.544C50.0446 147.544 49.2286 146.416 49.5166 144.856C49.7806 143.248 51.0526 142.072 52.5406 142.072C53.9566 142.072 54.7966 143.2 54.5086 144.76C54.2446 146.368 52.9726 147.544 51.4846 147.544ZM66.3974 151.336C70.2854 151.336 73.3574 148.936 73.9814 145.36C74.6054 141.832 72.7334 139.36 69.2054 139.36C67.7894 139.36 66.7574 139.768 65.7974 140.68L65.5574 140.728C66.0134 138.592 67.1894 137.704 69.9734 137.512C73.4534 137.224 75.3014 135.856 75.8054 133.024L72.0134 132.976C71.8454 133.96 71.0534 134.392 69.2294 134.56C64.5014 134.968 62.1974 137.512 61.1174 143.656C60.2534 148.552 62.1974 151.336 66.3974 151.336ZM66.9734 147.568C65.7254 147.568 65.0294 146.632 65.2694 145.288C65.5334 143.872 66.6134 142.96 67.8614 142.96C69.0854 142.96 69.7574 143.848 69.4934 145.216C69.2534 146.584 68.2214 147.568 66.9734 147.568ZM81.1658 151.312C85.4138 151.312 88.5578 148.888 89.2778 144.856C89.9978 140.8 87.6698 138.304 83.3978 138.304C79.1498 138.304 76.0058 140.728 75.2858 144.76C74.5898 148.84 76.8938 151.312 81.1658 151.312ZM81.7658 147.544C80.3018 147.544 79.5098 146.44 79.7738 144.856C80.0618 143.224 81.3098 142.072 82.7978 142.072C84.2618 142.072 85.0538 143.176 84.7898 144.76C84.5018 146.392 83.2538 147.544 81.7658 147.544ZM92.8544 151H97.3664L98.9264 142.216H102.814L103.462 138.616H91.1504L90.5024 142.216H94.4144L92.8544 151ZM107.498 151.312C109.25 151.312 110.546 150.592 111.65 149.2L111.89 149.176L111.554 151H116.066L118.25 138.616H113.762L113.426 140.488L113.162 140.512C112.538 139.144 111.53 138.304 109.73 138.304C106.466 138.304 103.826 140.848 103.154 144.76C102.434 148.768 104.162 151.312 107.498 151.312ZM109.61 147.544C108.17 147.544 107.354 146.416 107.642 144.856C107.906 143.248 109.178 142.072 110.666 142.072C112.082 142.072 112.922 143.2 112.634 144.76C112.37 146.368 111.098 147.544 109.61 147.544ZM117.418 151C119.482 151 123.034 151.216 124.186 147.376L125.746 142.216H128.122L126.562 151H131.074L133.258 138.616H122.53L120.826 144.664C120.178 146.944 119.674 147.64 117.97 147.64L117.418 151ZM138.999 151H146.463C149.271 151 151.383 149.656 151.767 147.544C152.007 146.08 151.311 145.144 149.919 144.76L149.991 144.52C151.071 144.184 152.007 143.152 152.223 141.928C152.559 140.032 151.071 138.616 148.287 138.616H141.183L138.999 151ZM144.495 143.44L144.879 141.352H146.895C147.663 141.352 148.071 141.784 147.975 142.384C147.855 142.984 147.255 143.44 146.487 143.44H144.495ZM143.655 148.264L144.039 146.008H146.055C146.895 146.008 147.351 146.44 147.231 147.088C147.111 147.76 146.463 148.264 145.623 148.264H143.655ZM159.047 151.312C162.575 151.312 165.455 149.488 166.415 146.368L162.359 145.84C161.903 146.92 160.799 147.712 159.647 147.712C158.255 147.712 157.463 146.536 157.751 144.856C158.063 143.128 159.359 141.904 160.775 141.904C161.831 141.904 162.671 142.648 162.719 143.752L166.943 143.272C167.111 140.176 164.855 138.304 161.279 138.304C157.151 138.304 153.983 140.8 153.263 144.76C152.591 148.72 154.967 151.312 159.047 151.312ZM173.79 151.312C176.934 151.312 179.742 149.896 180.75 147.592L177.006 146.848C176.502 147.64 175.614 148.216 174.51 148.216C173.166 148.216 172.446 147.4 172.374 146.056H181.422C181.518 145.816 181.662 145.192 181.686 144.856C182.406 140.872 180.15 138.304 176.07 138.304C171.99 138.304 168.678 140.8 167.982 144.712C167.262 148.72 169.662 151.312 173.79 151.312ZM172.758 143.656C173.238 142.288 174.246 141.4 175.494 141.4C176.766 141.4 177.51 142.384 177.39 143.608L172.758 143.656ZM188.03 151H192.542L193.43 146.032H193.67L196.022 151H201.326L197.798 144.568L203.462 138.616H198.158L194.174 143.152H193.934L194.726 138.616H190.238L188.03 151ZM206.334 151.312C208.086 151.312 209.382 150.592 210.486 149.2L210.726 149.176L210.39 151H214.902L217.086 138.616H212.598L212.262 140.488L211.998 140.512C211.374 139.144 210.366 138.304 208.566 138.304C205.302 138.304 202.662 140.848 201.99 144.76C201.269 148.768 202.998 151.312 206.334 151.312ZM208.446 147.544C207.006 147.544 206.19 146.416 206.478 144.856C206.742 143.248 208.014 142.072 209.502 142.072C210.918 142.072 211.758 143.2 211.47 144.76C211.206 146.368 209.934 147.544 208.446 147.544ZM217.022 151H221.534L222.422 146.032H222.662L225.014 151H230.318L226.79 144.568L232.454 138.616H227.15L223.166 143.152H222.926L223.718 138.616H219.23L217.022 151ZM243.938 151.312C247.466 151.312 250.346 149.488 251.306 146.368L247.25 145.84C246.794 146.92 245.69 147.712 244.538 147.712C243.146 147.712 242.354 146.536 242.642 144.856C242.954 143.128 244.25 141.904 245.666 141.904C246.722 141.904 247.562 142.648 247.61 143.752L251.834 143.272C252.002 140.176 249.746 138.304 246.17 138.304C242.042 138.304 238.874 140.8 238.154 144.76C237.482 148.72 239.858 151.312 243.938 151.312ZM251.246 151C253.311 151 256.863 151.216 258.015 147.376L259.575 142.216H261.951L260.391 151H264.903L267.087 138.616H256.359L254.655 144.664C254.007 146.944 253.503 147.64 251.798 147.64L251.246 151ZM273.423 151.312C276.567 151.312 279.375 149.896 280.383 147.592L276.639 146.848C276.135 147.64 275.247 148.216 274.143 148.216C272.799 148.216 272.079 147.4 272.007 146.056H281.055C281.151 145.816 281.295 145.192 281.319 144.856C282.039 140.872 279.783 138.304 275.703 138.304C271.623 138.304 268.311 140.8 267.615 144.712C266.895 148.72 269.295 151.312 273.423 151.312ZM272.391 143.656C272.871 142.288 273.879 141.4 275.127 141.4C276.399 141.4 277.143 142.384 277.023 143.608L272.391 143.656ZM280.318 154.6H283.918L284.542 151H293.806L293.182 154.6H296.758L298.03 147.4H296.014L297.574 138.616H286.75L285.478 142.96C284.806 145.216 284.134 147.016 283.03 147.4H281.59L280.318 154.6ZM287.494 147.4L287.542 147.184C288.406 146.536 288.79 145.84 289.126 144.784L289.942 142.216H292.438L291.526 147.4H287.494ZM300.546 156.64C303.138 156.64 304.938 155.056 306.81 151.6L313.794 138.616H309.162L305.802 145.456H305.562L303.978 138.616H299.13L302.994 151.168C302.442 152.128 301.578 153.064 300.186 153.064C299.586 153.064 298.794 152.92 298.29 152.704L297.714 156.184C298.362 156.448 299.634 156.64 300.546 156.64ZM318.587 151.312C321.731 151.312 324.539 149.896 325.547 147.592L321.803 146.848C321.299 147.64 320.411 148.216 319.307 148.216C317.963 148.216 317.243 147.4 317.171 146.056H326.219C326.315 145.816 326.459 145.192 326.483 144.856C327.203 140.872 324.947 138.304 320.867 138.304C316.787 138.304 313.475 140.8 312.779 144.712C312.059 148.72 314.459 151.312 318.587 151.312ZM317.555 143.656C318.035 142.288 319.043 141.4 320.291 141.4C321.563 141.4 322.307 142.384 322.187 143.608L317.555 143.656ZM330.089 151H334.601L336.161 142.216H340.049L340.697 138.616H328.385L327.737 142.216H331.649L330.089 151Z" fill="#231D1D"/>
</svg>
