<svg width="212" height="155" viewBox="0 0 212 155" fill="none" xmlns="http://www.w3.org/2000/svg">
<path d="M1.396 27H8.992L12.52 7.128H21.052L17.524 27H25.12L29.692 1.224H5.932L1.396 27ZM27.6197 27C30.7158 27 36.0438 27.324 37.7718 21.564L40.1118 13.824H43.6758L41.3358 27H48.1038L51.3798 8.424H35.2878L32.7318 17.496C31.7598 20.916 31.0038 21.96 28.4477 21.96L27.6197 27ZM60.8846 27.468C65.6006 27.468 69.8126 25.344 71.3246 21.888L65.7086 20.772C64.9526 21.96 63.6206 22.824 61.9646 22.824C59.9486 22.824 58.8686 21.6 58.7606 19.584H72.3326C72.4766 19.224 72.6926 18.288 72.7286 17.784C73.8086 11.808 70.4246 7.956 64.3046 7.956C58.1846 7.956 53.2166 11.7 52.1726 17.568C51.0926 23.58 54.6926 27.468 60.8846 27.468ZM59.3366 15.984C60.0566 13.932 61.5686 12.6 63.4406 12.6C65.3486 12.6 66.4646 14.076 66.2846 15.912L59.3366 15.984ZM86.8825 5.652C90.1945 5.652 92.9665 3.384 93.5425 0.179998L89.4745 0.107999C89.2225 1.548 88.4305 2.448 87.3505 2.448C86.3065 2.448 85.8745 1.62 86.1265 0.179998L82.0585 0.107999C81.5185 3.312 83.4985 5.652 86.8825 5.652ZM73.4905 27H80.4745L87.7465 17.388H88.1065L86.3785 27H93.1465L96.4225 8.424H89.4745L82.1665 18.18H81.8065L83.5345 8.424H76.7665L73.4905 27ZM95.1197 27C98.2158 27 103.544 27.324 105.272 21.564L107.612 13.824H111.176L108.836 27H115.604L118.88 8.424H102.788L100.232 17.496C99.2598 20.916 98.5038 21.96 95.9477 21.96L95.1197 27ZM118.737 27H125.721L132.993 17.388H133.353L131.625 27H138.393L141.669 8.424H134.721L127.413 18.18H127.053L128.781 8.424H122.013L118.737 27ZM151.094 27.468C156.386 27.468 160.706 24.732 162.146 20.052L156.062 19.26C155.378 20.88 153.722 22.068 151.994 22.068C149.906 22.068 148.718 20.304 149.15 17.784C149.618 15.192 151.562 13.356 153.686 13.356C155.27 13.356 156.53 14.472 156.602 16.128L162.938 15.408C163.19 10.764 159.806 7.956 154.442 7.956C148.25 7.956 143.498 11.7 142.418 17.64C141.41 23.58 144.974 27.468 151.094 27.468ZM167.961 27H174.729L177.069 13.824H182.901L183.873 8.424H165.405L164.433 13.824H170.301L167.961 27ZM182.615 27H192.336C197.592 27 200.94 23.616 201.588 19.98C202.236 16.236 200.04 12.996 194.748 12.996H191.832L192.66 8.424H185.892L182.615 27ZM201.66 27H208.392L211.668 8.46H204.936L201.66 27ZM190.032 21.924L190.68 18.072H192.948C194.316 18.072 195.036 18.828 194.856 19.98C194.64 21.132 193.596 21.924 192.228 21.924H190.032ZM17.32 89L20.344 71.816H14.92L7.408 82.472H7.168L9.04 71.816H4.312L1.288 89H6.712L14.224 78.368H14.464L12.568 89H17.32ZM25.5814 89.312C28.9894 89.312 31.6534 87.896 32.0614 85.664C32.3014 84.248 31.5814 83.096 30.2854 82.736L30.3814 82.496C31.6054 82.16 32.4694 81.296 32.6854 80.048C33.0934 77.768 30.9814 76.304 27.7414 76.304C24.1654 76.304 21.5014 78.032 20.9974 80.888L25.0054 80.936C25.1734 80 25.9654 79.4 27.0694 79.4C28.0054 79.4 28.5814 79.808 28.4614 80.408C28.3654 81.032 27.6454 81.464 26.7814 81.464H25.7254L25.2934 83.888H26.3734C27.2854 83.888 27.8854 84.272 27.7414 84.944C27.6214 85.688 26.8294 86.216 25.8214 86.216C24.6454 86.216 24.0214 85.52 24.2134 84.368L20.0374 84.32C19.4854 87.44 21.6694 89.312 25.5814 89.312ZM35.0223 94.64C37.6143 94.64 39.4143 93.056 41.2863 89.6L48.2703 76.616H43.6383L40.2783 83.456H40.0383L38.4543 76.616H33.6063L37.4703 89.168C36.9183 90.128 36.0543 91.064 34.6623 91.064C34.0623 91.064 33.2703 90.92 32.7663 90.704L32.1902 94.184C32.8383 94.448 34.1103 94.64 35.0223 94.64ZM55.0896 89H59.4096L61.5936 76.616H57.1056L56.1936 81.68C55.7616 82.184 54.9696 82.568 54.2496 82.568C53.2416 82.568 52.7376 81.848 52.9296 80.696L53.6496 76.616H49.1616L48.3216 81.32C47.8176 84.152 49.2576 86.168 51.8736 86.168C53.3376 86.168 54.9936 85.52 55.9056 84.488L55.0896 89ZM66.4351 89.312C68.1871 89.312 69.4831 88.592 70.5871 87.2L70.8271 87.176L70.4911 89H75.0031L77.1871 76.616H72.6991L72.3631 78.488L72.0991 78.512C71.4751 77.144 70.4671 76.304 68.6671 76.304C65.4031 76.304 62.7631 78.848 62.0911 82.76C61.3711 86.768 63.0991 89.312 66.4351 89.312ZM68.5471 85.544C67.1071 85.544 66.2911 84.416 66.5791 82.856C66.8431 81.248 68.1151 80.072 69.6031 80.072C71.0191 80.072 71.8591 81.2 71.5711 82.76C71.3071 84.368 70.0351 85.544 68.5471 85.544ZM86.0519 74.768C88.2599 74.768 90.1079 73.256 90.4919 71.12L87.7799 71.072C87.6119 72.032 87.0839 72.632 86.3639 72.632C85.6679 72.632 85.3799 72.08 85.5479 71.12L82.8359 71.072C82.4759 73.208 83.7959 74.768 86.0519 74.768ZM77.1239 89H81.7799L86.6279 82.592H86.8679L85.7159 89H90.2279L92.4119 76.616H87.7799L82.9079 83.12H82.6679L83.8199 76.616H79.3079L77.1239 89ZM98.1473 89H102.635L103.427 84.584H107.003L106.235 89H110.723L112.931 76.64H108.419L107.651 80.984H104.075L104.843 76.64H100.331L98.1473 89ZM117.787 89.312C119.539 89.312 120.835 88.592 121.939 87.2L122.179 87.176L121.843 89H126.355L128.539 76.616H124.051L123.715 78.488L123.451 78.512C122.827 77.144 121.819 76.304 120.019 76.304C116.755 76.304 114.115 78.848 113.443 82.76C112.723 86.768 114.451 89.312 117.787 89.312ZM119.899 85.544C118.459 85.544 117.643 84.416 117.931 82.856C118.195 81.248 119.467 80.072 120.955 80.072C122.371 80.072 123.211 81.2 122.923 82.76C122.659 84.368 121.387 85.544 119.899 85.544ZM128.475 89H147.099L149.283 76.616H144.795L143.235 85.4H140.667L142.227 76.616H137.715L136.179 85.4H133.611L135.171 76.616H130.659L128.475 89ZM149.194 89H153.85L158.698 82.592H158.938L157.786 89H162.298L164.482 76.616H159.85L154.978 83.12H154.738L155.89 76.616H151.378L149.194 89ZM0.952 120H5.44L7 111.216H10.648L9.088 120H13.6L15.784 107.616H3.136L0.952 120ZM22.1502 120.312C26.3982 120.312 29.5422 117.888 30.2622 113.856C30.9822 109.8 28.6542 107.304 24.3822 107.304C20.1342 107.304 16.9902 109.728 16.2702 113.76C15.5742 117.84 17.8782 120.312 22.1502 120.312ZM22.7502 116.544C21.2862 116.544 20.4942 115.44 20.7582 113.856C21.0462 112.224 22.2942 111.072 23.7822 111.072C25.2462 111.072 26.0382 112.176 25.7742 113.76C25.4862 115.392 24.2382 116.544 22.7502 116.544ZM29.2324 123.6H32.8324L33.4564 120H42.7204L42.0964 123.6H45.6724L46.9444 116.4H44.9284L46.4884 107.616H35.6644L34.3924 111.96C33.7204 114.216 33.0484 116.016 31.9444 116.4H30.5044L29.2324 123.6ZM36.4084 116.4L36.4564 116.184C37.3204 115.536 37.7044 114.84 38.0404 113.784L38.8564 111.216H41.3524L40.4404 116.4H36.4084ZM53.8114 120.336C57.6994 120.336 60.7714 117.936 61.3954 114.36C62.0194 110.832 60.1474 108.36 56.6194 108.36C55.2034 108.36 54.1714 108.768 53.2114 109.68L52.9714 109.728C53.4274 107.592 54.6034 106.704 57.3874 106.512C60.8674 106.224 62.7154 104.856 63.2194 102.024L59.4274 101.976C59.2594 102.96 58.4674 103.392 56.6434 103.56C51.9154 103.968 49.6114 106.512 48.5314 112.656C47.6674 117.552 49.6114 120.336 53.8114 120.336ZM54.3874 116.568C53.1394 116.568 52.4434 115.632 52.6834 114.288C52.9474 112.872 54.0274 111.96 55.2754 111.96C56.4994 111.96 57.1714 112.848 56.9074 114.216C56.6674 115.584 55.6354 116.568 54.3874 116.568ZM68.5799 120.312C72.8279 120.312 75.9719 117.888 76.6919 113.856C77.4119 109.8 75.0839 107.304 70.8119 107.304C66.5639 107.304 63.4199 109.728 62.6999 113.76C62.0039 117.84 64.3079 120.312 68.5799 120.312ZM69.1799 116.544C67.7159 116.544 66.9239 115.44 67.1879 113.856C67.4759 112.224 68.7239 111.072 70.2119 111.072C71.6759 111.072 72.4679 112.176 72.2039 113.76C71.9159 115.392 70.6679 116.544 69.1799 116.544ZM87.7068 107.304C86.0988 107.304 84.8508 107.904 83.8428 109.032L83.6028 109.056L83.8668 107.616H79.3548L76.2107 125.52H80.6988L81.9228 118.56L82.1868 118.536C82.7868 119.664 83.8668 120.312 85.4748 120.312C88.7148 120.312 91.3788 117.768 92.0508 113.856C92.7708 109.848 90.9948 107.304 87.7068 107.304ZM85.5948 111.072C87.0108 111.072 87.8508 112.224 87.5868 113.76C87.2988 115.344 86.0268 116.544 84.5388 116.544C83.1228 116.544 82.3068 115.392 82.5708 113.856C82.8348 112.272 84.1308 111.072 85.5948 111.072ZM92.5692 120H97.0812L97.9692 115.032H98.2092L100.561 120H105.865L102.337 113.568L108.001 107.616H102.697L98.7132 112.152H98.4732L99.2652 107.616H94.7772L92.5692 120ZM107.264 120H111.921L116.769 113.592H117.009L115.857 120H120.369L122.553 107.616H117.921L113.049 114.12H112.809L113.961 107.616H109.449L107.264 120ZM128.288 120H135.752C138.56 120 140.672 118.656 141.056 116.544C141.296 115.08 140.6 114.144 139.208 113.76L139.28 113.52C140.36 113.184 141.296 112.152 141.512 110.928C141.848 109.032 140.36 107.616 137.576 107.616H130.472L128.288 120ZM133.784 112.44L134.168 110.352H136.184C136.952 110.352 137.36 110.784 137.264 111.384C137.144 111.984 136.544 112.44 135.776 112.44H133.784ZM132.944 117.264L133.328 115.008H135.344C136.184 115.008 136.64 115.44 136.52 116.088C136.4 116.76 135.752 117.264 134.912 117.264H132.944ZM141.952 120H146.608L151.456 113.592H151.696L150.544 120H155.056L157.24 107.616H152.608L147.736 114.12H147.496L148.648 107.616H144.136L141.952 120ZM155.771 123.6H159.372L159.996 120H169.26L168.636 123.6H172.212L173.484 116.4H171.468L173.028 107.616H162.204L160.932 111.96C160.26 114.216 159.588 116.016 158.484 116.4H157.043L155.771 123.6ZM162.948 116.4L162.996 116.184C163.86 115.536 164.243 114.84 164.58 113.784L165.396 111.216H167.892L166.98 116.4H162.948ZM180.587 120.312C183.731 120.312 186.539 118.896 187.547 116.592L183.803 115.848C183.299 116.64 182.411 117.216 181.307 117.216C179.963 117.216 179.243 116.4 179.171 115.056H188.219C188.315 114.816 188.459 114.192 188.483 113.856C189.203 109.872 186.947 107.304 182.867 107.304C178.787 107.304 175.475 109.8 174.779 113.712C174.059 117.72 176.459 120.312 180.587 120.312ZM179.555 112.656C180.035 111.288 181.043 110.4 182.291 110.4C183.563 110.4 184.307 111.384 184.187 112.608L179.555 112.656ZM195.611 120.312C199.859 120.312 203.003 117.888 203.723 113.856C204.443 109.8 202.115 107.304 197.843 107.304C193.595 107.304 190.451 109.728 189.731 113.76C189.035 117.84 191.339 120.312 195.611 120.312ZM196.211 116.544C194.747 116.544 193.955 115.44 194.219 113.856C194.507 112.224 195.755 111.072 197.243 111.072C198.707 111.072 199.499 112.176 199.235 113.76C198.947 115.392 197.699 116.544 196.211 116.544ZM4.12 151H8.632L10.192 142.216H14.08L14.728 138.616H2.416L1.768 142.216H5.68L4.12 151ZM18.7632 151.312C20.5152 151.312 21.8112 150.592 22.9152 149.2L23.1552 149.176L22.8192 151H27.3312L29.5152 138.616H25.0272L24.6912 140.488L24.4272 140.512C23.8032 139.144 22.7952 138.304 20.9952 138.304C17.7312 138.304 15.0912 140.848 14.4192 144.76C13.6992 148.768 15.4272 151.312 18.7632 151.312ZM20.8752 147.544C19.4352 147.544 18.6192 146.416 18.9072 144.856C19.1712 143.248 20.4432 142.072 21.9312 142.072C23.3472 142.072 24.1872 143.2 23.8992 144.76C23.6352 146.368 22.3632 147.544 20.8752 147.544ZM29.452 151H33.94L34.732 146.584H38.308L37.54 151H42.028L44.236 138.64H39.724L38.956 142.984H35.38L36.148 138.64H31.636L29.452 151ZM54.7553 154.6H58.3553L59.6033 147.4H57.7793L59.3393 138.616H54.8513L53.2913 147.4H49.2833L50.8433 138.616H46.3313L44.1473 151H55.3793L54.7553 154.6ZM66.6809 151.312C69.8249 151.312 72.6329 149.896 73.6409 147.592L69.8969 146.848C69.3929 147.64 68.5049 148.216 67.4009 148.216C66.0569 148.216 65.3369 147.4 65.2649 146.056H74.3129C74.4089 145.816 74.5529 145.192 74.5769 144.856C75.2969 140.872 73.0409 138.304 68.9609 138.304C64.8809 138.304 61.5689 140.8 60.8729 144.712C60.1529 148.72 62.5529 151.312 66.6809 151.312ZM65.6489 143.656C66.1289 142.288 67.1369 141.4 68.3849 141.4C69.6569 141.4 70.4009 142.384 70.2809 143.608L65.6489 143.656ZM75.0848 151H82.5488C85.3568 151 87.4688 149.656 87.8528 147.544C88.0928 146.08 87.3968 145.144 86.0048 144.76L86.0768 144.52C87.1568 144.184 88.0928 143.152 88.3088 141.928C88.6448 140.032 87.1568 138.616 84.3728 138.616H77.2688L75.0848 151ZM80.5808 143.44L80.9648 141.352H82.9808C83.7488 141.352 84.1568 141.784 84.0608 142.384C83.9408 142.984 83.3408 143.44 82.5728 143.44H80.5808ZM79.7408 148.264L80.1248 146.008H82.1408C82.9808 146.008 83.4368 146.44 83.3168 147.088C83.1968 147.76 82.5488 148.264 81.7088 148.264H79.7408Z" fill="#231D1D"/>
</svg>
