<svg width="1440" height="1024" viewBox="0 0 1440 1024" fill="none" xmlns="http://www.w3.org/2000/svg">
<mask id="mask0_617_15" style="mask-type:alpha" maskUnits="userSpaceOnUse" x="0" y="0" width="1440" height="1024">
<rect width="1440" height="1024" fill="#C4C4C4"/>
</mask>
<g mask="url(#mask0_617_15)">
<path fill-rule="evenodd" clip-rule="evenodd" d="M1369.24 795.128C1368.58 793.013 1367.48 791.308 1366 790L1364.33 794.342C1365.33 795.232 1365.92 796.231 1366.24 797.265C1366.56 798.306 1366.68 799.592 1366.53 801.212C1366.23 804.559 1364.81 808.892 1362.34 814.083C1357.42 824.389 1348.9 836.895 1339.41 849.767C1334.69 856.181 1329.75 862.648 1324.94 868.94L1324.31 869.764C1319.72 875.76 1315.26 881.59 1311.25 887.027C1307.05 892.709 1303.31 898.001 1300.4 902.642C1297.53 907.212 1295.31 911.39 1294.33 914.824C1293.57 917.521 1294.21 920.039 1295.35 921.997C1296.44 923.877 1298.15 925.6 1300.21 927.233C1304.36 930.527 1310.55 933.939 1317.92 937.6C1322.59 939.918 1327.76 942.348 1333.25 944.928C1345.21 950.554 1358.69 956.895 1371.86 964.354C1391.07 975.241 1409.29 988.342 1420.79 1004.67C1426.52 1012.8 1430.49 1021.62 1432.15 1031.23C1433.8 1040.79 1433.2 1051.39 1429.49 1063.28C1418.38 1098.85 1408.42 1128.29 1400.24 1152.48C1397.07 1161.85 1394.17 1170.42 1391.58 1178.26C1386.93 1192.28 1383.24 1203.98 1380.76 1213.56C1378.29 1223.08 1376.92 1230.84 1377.1 1236.87C1377.15 1238.55 1377.57 1240.07 1378.41 1241.18C1379.21 1242.24 1380.23 1242.72 1381.25 1242.9C1383.26 1243.27 1385.92 1242.6 1388.9 1241.34C1394.95 1238.81 1403.16 1233.51 1412.15 1226.92C1430.18 1213.71 1451.69 1195.03 1466 1181.85L1464.28 1177.56C1450.01 1190.69 1428.6 1209.28 1410.71 1222.39C1401.75 1228.96 1393.76 1234.09 1388.02 1236.5C1385.11 1237.72 1382.98 1238.15 1381.65 1237.91C1380.99 1237.79 1380.7 1237.54 1380.59 1237.39C1380.52 1237.31 1380.43 1237.15 1380.41 1236.64C1380.26 1231.74 1381.4 1224.83 1383.84 1215.4C1386.27 1206.05 1389.9 1194.53 1394.54 1180.52C1397.12 1172.73 1400.01 1164.19 1403.17 1154.84C1411.35 1130.64 1421.35 1101.08 1432.48 1065.43C1436.48 1052.62 1437.23 1040.81 1435.36 1029.95C1433.5 1019.15 1429.08 1009.55 1423.06 1001C1411.05 983.944 1392.29 970.562 1373.02 959.646C1359.76 952.137 1346.11 945.715 1334.1 940.068C1328.65 937.503 1323.54 935.097 1318.96 932.823C1311.57 929.156 1305.62 925.857 1301.75 922.78C1299.79 921.227 1298.52 919.849 1297.84 918.679C1297.2 917.586 1297.3 917.103 1297.38 916.816C1298.1 914.282 1299.94 910.668 1302.8 906.106C1305.62 901.614 1309.28 896.431 1313.46 890.776C1317.45 885.368 1321.89 879.564 1326.48 873.557L1327.1 872.746C1331.91 866.457 1336.87 859.962 1341.63 853.512C1351.1 840.655 1359.88 827.825 1365.03 817.028C1367.58 811.667 1369.4 806.507 1369.82 801.899C1370.03 799.541 1369.89 797.235 1369.24 795.128Z" fill="white"/>
<path fill-rule="evenodd" clip-rule="evenodd" d="M1430.09 718.016C1435 724.344 1438.43 731.131 1439.84 737.616L1443 736.055C1441.33 728.367 1437.42 720.856 1432.26 714.204C1427.08 707.525 1420.54 701.564 1413.42 697.025C1399.26 687.99 1382.45 684.361 1369.38 692.633C1343.76 708.854 1332.97 744.374 1331.6 765.943C1331.05 774.43 1330.94 802.797 1331.02 834.583C1331.1 866.46 1331.37 902.001 1331.59 925L1334.92 924.927C1334.69 901.94 1334.43 866.418 1334.35 834.565C1334.27 802.622 1334.39 774.592 1334.91 766.424C1336.19 746.353 1346.37 712.642 1370.67 697.258C1382.57 689.727 1398.37 692.87 1412.13 701.645C1418.97 706.011 1425.21 711.714 1430.09 718.016Z" fill="#45F7E1"/>
<path fill-rule="evenodd" clip-rule="evenodd" d="M1305.54 1020.14C1299.73 1053.05 1303.43 1098.43 1321.47 1146L1322.33 1145.25C1304.4 1097.94 1300.78 1052.97 1306.5 1020.52C1312.22 988.083 1327.25 968.241 1346.67 970.719C1356.44 971.965 1363.65 976.896 1368.94 983.74C1374.24 990.59 1377.64 999.393 1379.78 1008.44C1381.91 1017.49 1382.76 1026.76 1382.96 1034.51C1383.15 1042.27 1382.68 1048.45 1382.2 1051.32C1380.62 1060.68 1376.36 1073.72 1374.42 1079.08L1375.29 1079.8C1377.24 1074.42 1381.55 1061.25 1383.17 1051.69C1383.68 1048.64 1384.15 1042.3 1383.95 1034.45C1383.76 1026.59 1382.89 1017.16 1380.72 1007.93C1378.54 998.704 1375.05 989.655 1369.59 982.593C1364.12 975.525 1356.72 970.484 1346.76 969.214C1326.71 966.658 1311.34 987.208 1305.54 1020.14Z" fill="white"/>
<path fill-rule="evenodd" clip-rule="evenodd" d="M1304.17 451.115C1303.29 451.529 1302.8 452.937 1303.08 454.261C1305.16 464.337 1307.09 473.516 1310.91 483.137C1316.59 497.417 1324.1 509.674 1331.86 521.036C1346.01 541.747 1362.67 558.967 1380.23 572.251C1389.3 579.112 1398.86 584.524 1408.33 589.882C1413.3 592.694 1418.24 595.492 1423.08 598.477C1430.81 603.254 1438.75 609.519 1443.6 619.392C1446.22 624.737 1446.17 631.216 1444.54 637.717C1442.89 644.242 1439.73 650.404 1436.63 654.504C1430.9 662.061 1422.97 665.778 1414.42 667.622C1407.25 669.17 1399.84 669.369 1393.16 669.547C1391.89 669.582 1390.64 669.615 1389.43 669.657C1380.33 669.971 1371.19 671.483 1362.24 673.768C1362.17 673.788 1362.08 673.81 1361.98 673.834C1361.13 674.045 1359.69 674.403 1358.4 675.131C1357.1 675.868 1355.12 677.464 1354.93 680.859C1354.69 685.458 1356.2 689.54 1357.36 692.654C1357.48 692.965 1357.59 693.266 1357.69 693.558C1360.67 701.73 1364.69 708.913 1368.59 715.694C1379.13 734.017 1392.58 750.782 1407.2 761.399C1414.84 766.952 1424.38 773.549 1433.45 773.999C1434.36 774.044 1435.13 772.957 1435.16 771.571C1435.19 770.185 1434.47 769.025 1433.55 768.979C1425.29 768.569 1416.38 762.493 1408.64 756.872C1394.5 746.605 1381.4 730.309 1371.09 712.397C1367.18 705.602 1363.39 698.781 1360.6 691.132C1360.51 690.886 1360.42 690.643 1360.33 690.405C1359.08 686.992 1358.08 684.259 1358.24 681.265C1358.25 681.102 1358.38 680.507 1359.57 679.834C1360.53 679.291 1361.64 679.011 1362.52 678.789C1362.62 678.766 1362.71 678.743 1362.8 678.72C1371.62 676.467 1380.6 674.986 1389.5 674.678C1390.68 674.637 1391.91 674.604 1393.17 674.571C1399.84 674.394 1407.49 674.19 1414.89 672.594C1423.68 670.697 1432.37 666.787 1438.81 658.288C1442.25 653.751 1445.77 646.934 1447.64 639.504C1449.51 632.05 1449.8 623.597 1446.26 616.397C1440.84 605.342 1432.14 598.653 1424.33 593.828C1419.3 590.72 1414.26 587.87 1409.25 585.036C1399.9 579.747 1390.64 574.513 1381.72 567.759C1364.42 554.677 1348.05 537.743 1334.17 517.427C1326.48 506.165 1319.21 494.267 1313.76 480.548C1310.16 471.505 1308.33 462.864 1306.24 452.763C1305.97 451.439 1305.04 450.701 1304.17 451.115Z" fill="white"/>
<path fill-rule="evenodd" clip-rule="evenodd" d="M1441.75 303.033C1445.06 319.394 1443.91 332.458 1440.46 339.842C1436.89 347.517 1429.51 357.326 1420.4 368.38C1415.92 373.823 1411.02 379.552 1405.98 385.46L1405.78 385.696C1400.66 391.685 1395.39 397.855 1390.25 404.086C1379.96 416.543 1370.12 429.27 1362.91 441.327C1359.3 447.357 1356.34 453.239 1354.3 458.856C1352.26 464.469 1351.13 469.865 1351.24 474.905C1351.34 479.898 1352.3 483.848 1353.98 486.83C1355.67 489.806 1358.06 491.75 1360.95 492.84C1366.73 495.012 1374.65 493.838 1383.56 490.494C1401.42 483.796 1423.54 468.28 1441.12 452.467C1449.82 444.645 1457.9 442.28 1465.12 443.528C1472.35 444.777 1478.78 449.652 1484.17 456.41C1494.97 469.952 1501.52 490.945 1502.01 505L1503 504.921C1502.49 490.4 1495.79 469.031 1484.8 455.252C1479.3 448.348 1472.7 443.322 1465.24 442.034C1457.77 440.744 1449.48 443.204 1440.62 451.174C1423.08 466.944 1401.05 482.384 1383.32 489.034C1374.45 492.363 1366.72 493.461 1361.19 491.38C1358.44 490.344 1356.26 488.529 1354.74 485.851C1353.22 483.178 1352.33 479.577 1352.23 474.857C1352.13 470.184 1353.18 465.061 1355.17 459.58C1357.16 454.103 1360.07 448.318 1363.64 442.337C1370.8 430.374 1380.58 417.709 1390.87 405.26C1396.01 399.038 1401.27 392.875 1406.38 386.885L1406.59 386.647C1411.63 380.742 1416.53 375.006 1421.02 369.553C1430.11 358.523 1437.61 348.587 1441.28 340.709C1444.96 332.803 1446.06 319.203 1442.71 302.594C1439.34 285.958 1431.5 266.212 1417.17 245.886C1388.51 205.235 1333.9 162.205 1237.17 137L1237 138.482C1333.62 163.66 1388.02 206.607 1416.49 246.983C1430.72 267.169 1438.45 286.699 1441.75 303.033Z" fill="#45F7E1"/>
<path fill-rule="evenodd" clip-rule="evenodd" d="M1336.58 -22.804C1336.37 -22.524 1336.36 -22.0474 1336.54 -21.7394C1345.64 -6.67811 1353.1 8.84015 1355.7 29.2651C1358.62 52.2056 1357.21 76.2154 1349.03 96.247C1345.67 104.457 1341.56 111.771 1337.32 119.002C1336.65 120.146 1335.98 121.288 1335.3 122.431C1331.72 128.5 1328.12 134.603 1324.9 141.18C1318.57 154.14 1316.02 167.128 1317.34 183.16C1318.3 194.935 1321.36 207.796 1326.29 218.261C1331.23 228.728 1338.06 236.852 1346.58 239.012C1350.82 240.089 1354.8 239.813 1358.05 237.543C1361.32 235.258 1363.79 230.995 1365.05 224.303C1366.4 217.128 1366.85 209.727 1367.31 202.41C1367.38 201.194 1367.46 199.98 1367.53 198.77C1368.09 190.247 1368.84 181.878 1371.16 173.938C1372.89 168.022 1375.34 164.974 1378.32 163.523C1381.32 162.054 1384.9 162.2 1388.88 162.849C1400.35 164.721 1411.35 175.151 1417.08 190.36C1419.81 197.608 1420.72 205.936 1420.94 214.551C1421.05 218.856 1420.99 223.216 1420.89 227.537C1420.88 228.399 1420.86 229.259 1420.84 230.117C1420.76 233.554 1420.68 236.955 1420.68 240.246C1420.68 240.663 1420.91 241 1421.18 241C1421.46 241 1421.69 240.663 1421.69 240.246C1421.69 236.983 1421.76 233.615 1421.84 230.181C1421.86 229.319 1421.88 228.454 1421.9 227.585C1421.99 223.259 1422.05 218.854 1421.94 214.493C1421.72 205.776 1420.8 197.169 1417.95 189.617C1412.06 173.967 1400.77 163.273 1388.99 161.351C1384.99 160.699 1381.23 160.514 1378.01 162.089C1374.74 163.682 1372.08 167.051 1370.24 173.331C1367.85 181.508 1367.09 190.086 1366.54 198.623C1366.46 199.847 1366.38 201.07 1366.31 202.291C1365.85 209.615 1365.41 216.862 1364.09 223.893C1362.9 230.212 1360.61 234.097 1357.63 236.176C1354.63 238.27 1350.88 238.574 1346.75 237.526C1338.56 235.451 1331.94 227.634 1327.11 217.39C1322.28 207.143 1319.28 194.522 1318.33 182.976C1317.05 167.356 1319.52 154.749 1325.71 142.073C1328.89 135.557 1332.46 129.514 1336.04 123.444C1336.72 122.298 1337.4 121.151 1338.07 119.999C1342.32 112.762 1346.48 105.365 1349.88 97.0362C1358.23 76.601 1359.63 52.1832 1356.68 28.9818C1354.03 8.14628 1346.43 -7.62435 1337.29 -22.7533C1337.1 -23.0613 1336.78 -23.084 1336.58 -22.804Z" fill="white"/>
<path fill-rule="evenodd" clip-rule="evenodd" d="M1345.66 8.35962C1374.46 -7.51408 1411.15 -16.5749 1442.36 -7.13365L1443 -12.0681C1411.01 -21.7433 1373.7 -12.4423 1344.54 3.6287C1329.95 11.6693 1317.31 21.4544 1308.35 31.5281C1303.87 36.5625 1300.25 41.7296 1297.77 46.8603C1295.3 51.9728 1293.86 57.2558 1294.01 62.4452C1294.14 67.0019 1296.07 71.1619 1298.86 74.8852C1301.69 78.6612 1305.66 82.3444 1310.44 85.9165C1319.99 93.0698 1333.07 100.011 1347.47 106.412C1376.3 119.224 1410.74 129.996 1433.65 136L1434.21 131.042C1411.37 125.057 1377.06 114.323 1348.39 101.583C1334.05 95.2081 1321.19 88.3624 1311.89 81.4011C1307.24 77.9158 1303.55 74.4599 1301.04 71.1003C1298.48 67.688 1297.38 64.716 1297.31 62.2298C1297.21 58.6156 1298.2 54.4503 1300.43 49.8435C1302.65 45.2548 1305.99 40.4313 1310.3 35.5774C1318.94 25.8743 1331.27 16.2913 1345.66 8.35962Z" fill="#45F7E1"/>
<path fill-rule="evenodd" clip-rule="evenodd" d="M1405.06 174.079C1406.05 174.117 1407.02 174.155 1407.97 174.155C1408.25 174.155 1408.47 174.494 1408.47 174.912C1408.47 175.33 1408.25 175.669 1407.97 175.669C1406.97 175.669 1405.96 175.629 1404.96 175.59C1402.98 175.513 1401.01 175.436 1399.08 175.666C1396.51 175.972 1394.32 178.769 1392.49 182.471C1390.68 186.152 1389.3 190.573 1388.33 193.84C1384.97 205.16 1383.48 216.062 1384.07 228.478C1384.48 237.296 1386.98 245.713 1390.02 253.975C1391.07 256.844 1392.19 259.705 1393.31 262.555C1395.39 267.853 1397.45 273.113 1399.03 278.319C1400.51 283.223 1402.18 288.804 1403.09 294.538C1404 300.28 1404.17 306.246 1402.6 311.903C1401.48 315.954 1399.7 319.586 1397.53 322.814C1407.17 321.175 1416.54 321.922 1424.36 331.882C1427.65 336.075 1429.57 340.599 1430.66 345.643C1431.75 350.665 1432 356.168 1432 362.293V394.605C1432 395.023 1431.78 395.362 1431.5 395.362C1431.23 395.362 1431 395.023 1431 394.605V362.293C1431 356.21 1430.75 350.903 1429.72 346.115C1428.69 341.348 1426.87 337.06 1423.72 333.042C1416.09 323.331 1406.9 322.669 1397.16 324.401C1396.87 324.454 1396.57 324.514 1396.28 324.579C1395.22 326.002 1394.09 327.34 1392.91 328.592C1388.73 333.066 1383.97 336.506 1379.89 338.959C1379.08 339.445 1378.26 339.896 1377.44 340.313C1375.96 342.6 1374.57 345.053 1373.23 347.619C1371.19 351.536 1369.22 355.576 1367.23 359.629C1363.88 366.486 1360.51 373.376 1356.79 379.758C1356.46 380.325 1356.13 380.904 1355.79 381.49C1351.97 388.083 1347.58 395.649 1342.41 399.825C1338.82 402.722 1334.17 403.473 1329.64 402.735C1325.11 401.997 1320.62 399.759 1317.34 396.567C1304.5 384.072 1303.07 354.778 1316.14 341.84C1320.01 338.014 1324.35 337.477 1328.69 338.084C1330.86 338.388 1333.05 338.98 1335.19 339.601C1335.58 339.717 1335.98 339.833 1336.37 339.949C1338.1 340.459 1339.79 340.956 1341.43 341.312C1353.17 343.86 1365.6 344.628 1376.9 338.991C1382.07 331.03 1388.2 324.985 1395.84 323.151C1398.38 319.678 1400.46 315.735 1401.68 311.317C1403.14 306.063 1403.01 300.455 1402.12 294.893C1401.24 289.324 1399.61 283.872 1398.12 278.952C1396.57 273.812 1394.55 268.682 1392.49 263.436C1391.37 260.57 1390.23 257.669 1389.15 254.712C1386.1 246.406 1383.51 237.749 1383.07 228.586C1382.47 215.892 1384.01 204.741 1387.42 193.219C1388.39 189.945 1389.81 185.389 1391.7 181.562C1393.58 177.756 1396 174.515 1399 174.157C1400.98 173.921 1403.05 174.001 1405.06 174.079ZM1394.29 325.134C1388.42 327.099 1383.47 331.696 1379.16 337.766C1379.28 337.695 1379.4 337.623 1379.52 337.551C1383.57 335.124 1388.24 331.735 1392.34 327.354C1393.01 326.639 1393.66 325.899 1394.29 325.134ZM1375.49 341.232C1364.45 346.092 1352.5 345.242 1341.29 342.81C1339.62 342.449 1337.9 341.943 1336.17 341.433C1335.78 341.317 1335.39 341.202 1335 341.088C1332.86 340.468 1330.72 339.888 1328.6 339.592C1324.36 338.999 1320.28 339.548 1316.68 343.109C1304.31 355.36 1305.56 383.302 1317.88 395.292C1321.01 398.336 1325.34 400.513 1329.75 401.23C1334.16 401.948 1338.59 401.195 1341.94 398.488C1346.94 394.45 1351.21 387.095 1355.06 380.457C1355.39 379.883 1355.72 379.315 1356.05 378.754C1359.74 372.41 1363.06 365.626 1366.39 358.814C1368.38 354.75 1370.37 350.676 1372.45 346.68C1373.43 344.803 1374.44 342.98 1375.49 341.232Z" fill="#45F7E1"/>
<path fill-rule="evenodd" clip-rule="evenodd" d="M1359.43 824.515C1344.42 818.008 1326.14 810.086 1303.94 800L1303 804.841C1325.39 815.014 1343.73 822.962 1358.74 829.467C1379.39 838.415 1393.73 844.632 1403.65 850.151C1412.23 854.92 1417.19 859.013 1420.04 863.572C1422.77 867.945 1423.69 872.984 1423.69 880.448C1423.69 885.357 1421.58 889.529 1417.34 893.056C1413.11 896.572 1407.14 899.102 1400.33 900.829C1386.75 904.274 1370.39 904.393 1359.46 903.431L1359.27 908.473C1370.33 909.447 1386.96 909.339 1400.87 905.811C1407.81 904.05 1414.21 901.407 1418.92 897.491C1423.62 893.584 1427 888.064 1427 880.448C1427 872.256 1425.96 865.743 1422.43 860.086C1419.01 854.615 1413.41 850.201 1404.79 845.406C1394.76 839.832 1380.23 833.532 1359.43 824.515Z" fill="white"/>
</g>
</svg>
