<svg width="1440" height="1356" viewBox="0 0 1440 1356" fill="none" xmlns="http://www.w3.org/2000/svg">
<mask id="mask0_617_20" style="mask-type:alpha" maskUnits="userSpaceOnUse" x="0" y="0" width="1440" height="1356">
<rect width="1440" height="1356" fill="#C4C4C4"/>
</mask>
<g mask="url(#mask0_617_20)">
<path fill-rule="evenodd" clip-rule="evenodd" d="M638.408 738.813C639.544 740.623 638.997 743.011 637.186 744.147C508.536 824.829 381.284 907.356 254.637 991.17C249.771 994.39 244.9 997.635 240.017 1000.89C206.635 1023.13 172.696 1045.74 136.217 1063.2C127.99 1067.14 117.505 1071.96 107.466 1073.73C104.448 1074.27 101.462 1073.9 99.2523 1071.81C97.2067 1069.87 96.6648 1067.21 96.5295 1065.18C96.3882 1063.07 96.6409 1060.81 96.9133 1058.92C97.0384 1058.05 97.16 1057.29 97.2699 1056.6C97.427 1055.63 97.5601 1054.8 97.6451 1054C97.979 1050.87 98.3424 1047.78 98.7023 1044.73C99.6855 1036.38 100.643 1028.25 100.905 1019.92C100.918 1019.52 100.987 1018.92 101.042 1018.43L101.048 1018.38C101.059 1018.29 101.07 1018.19 101.082 1018.09C101.142 1017.56 101.211 1016.97 101.28 1016.3C101.445 1014.71 101.597 1012.84 101.601 1011.12C101.604 1010.08 101.55 1009.25 101.465 1008.61C96.1686 1010.16 90.999 1013.21 85.6667 1016.35C84.2764 1017.17 82.8752 1017.99 81.4577 1018.8C48.3852 1037.64 16.6413 1058.71 -15.1994 1079.84C-16.4627 1080.68 -17.7261 1081.52 -18.9898 1082.35C-20.7705 1083.54 -23.1722 1083.05 -24.354 1081.27C-25.5359 1079.49 -25.0505 1077.09 -23.2698 1075.91C-21.9812 1075.05 -20.6925 1074.2 -19.4036 1073.34C12.3779 1052.25 44.3193 1031.05 77.6265 1012.08C78.7932 1011.41 80.0195 1010.69 81.2962 1009.93C87.2129 1006.43 94.2115 1002.29 101.38 1000.63C102.957 1000.27 104.648 1000.48 106.092 1001.51C107.383 1002.43 108.07 1003.72 108.452 1004.73C109.201 1006.7 109.345 1009.14 109.341 1011.13C109.336 1013.25 109.153 1015.41 108.978 1017.1C108.904 1017.81 108.83 1018.46 108.77 1018.98C108.758 1019.08 108.747 1019.17 108.737 1019.26C108.704 1019.55 108.679 1019.78 108.661 1019.96C108.64 1020.16 108.64 1020.2 108.641 1020.16C108.367 1028.85 107.352 1037.47 106.357 1045.92C106.005 1048.91 105.655 1051.88 105.341 1054.82C105.239 1055.78 105.046 1056.99 104.86 1058.16C104.757 1058.81 104.656 1059.45 104.574 1060.02C104.315 1061.82 104.168 1063.4 104.252 1064.66C104.317 1065.65 104.499 1066.05 104.563 1066.16C104.733 1066.21 105.179 1066.28 106.117 1066.11C114.971 1064.55 124.558 1060.2 132.875 1056.22C168.822 1039.01 202.267 1016.74 235.69 994.472C240.579 991.215 245.468 987.958 250.365 984.718C377.051 900.878 504.358 818.315 633.073 737.592C634.884 736.457 637.272 737.003 638.408 738.813ZM104.478 1066.13C104.479 1066.12 104.496 1066.13 104.525 1066.15C104.491 1066.14 104.477 1066.13 104.478 1066.13ZM101.169 1007.37C101.17 1007.37 101.173 1007.37 101.18 1007.39C101.172 1007.37 101.168 1007.37 101.169 1007.37Z" fill="#45F7E1"/>
<path fill-rule="evenodd" clip-rule="evenodd" d="M1467.58 693.107C1468.35 693.415 1468.72 694.287 1468.41 695.057C1462.87 708.935 1457.32 722.808 1451.77 736.679C1421.98 811.165 1392.21 885.591 1363.61 960.562C1362.04 964.682 1360.5 968.933 1358.94 973.249C1352.78 990.29 1346.25 1008.32 1335.89 1023.15C1329.84 1031.82 1323.26 1036.78 1315.57 1039.46C1307.95 1042.13 1299.36 1042.52 1289.4 1042.29C1267.8 1041.81 1246.17 1039.05 1225.01 1035.01C1138.02 1018.43 1053.5 986.618 970.936 955.541C968.284 954.542 965.633 953.544 962.984 952.548C889.889 925.049 816.911 896.206 747.026 861.041C738.977 856.99 731.038 852.657 723.122 848.336C721.511 847.457 719.901 846.578 718.291 845.702C708.758 840.516 699.219 835.427 689.45 830.907C688.928 830.666 688.076 830.321 687.222 830.03C690.117 834.504 693.789 838.648 697.707 842.697C699.325 844.369 700.999 846.039 702.674 847.709C705.632 850.659 708.592 853.611 711.247 856.582C724.128 870.996 737.138 885.264 750.154 899.539C759.445 909.728 768.739 919.92 777.991 930.171C779.439 931.776 780.892 933.375 782.345 934.975C795.049 948.963 807.75 962.947 816.988 979.846C817.385 980.573 817.118 981.484 816.391 981.882C815.664 982.279 814.753 982.012 814.355 981.285C805.3 964.72 792.847 951.005 780.112 936.98C778.665 935.386 777.214 933.788 775.764 932.182C766.536 921.957 757.249 911.772 747.958 901.583C734.928 887.293 721.893 872.997 709.01 858.581C706.403 855.663 703.563 852.832 700.654 849.933C698.965 848.249 697.253 846.543 695.551 844.783C690.972 840.05 686.561 835.027 683.32 829.398C683.153 829.109 682.807 828.404 683.138 827.616C683.496 826.765 684.307 826.571 684.623 826.523C685.005 826.465 685.396 826.497 685.709 826.541C686.044 826.588 686.4 826.665 686.751 826.755C688.131 827.111 689.814 827.77 690.71 828.185C700.574 832.749 710.185 837.877 719.725 843.067C721.343 843.947 722.958 844.829 724.572 845.71C732.488 850.031 740.374 854.335 748.375 858.361C818.11 893.451 890.964 922.249 964.041 949.74C966.659 950.725 969.28 951.711 971.902 952.698C1054.54 983.802 1138.84 1015.53 1225.57 1032.07C1246.61 1036.08 1268.08 1038.82 1289.46 1039.29C1299.38 1039.52 1307.51 1039.1 1314.58 1036.63C1321.59 1034.18 1327.69 1029.66 1333.43 1021.43C1343.54 1006.96 1349.89 989.422 1356.05 972.418C1357.63 968.054 1359.19 963.725 1360.81 959.493C1389.42 884.5 1419.2 810.051 1448.99 735.568C1454.54 721.696 1460.08 707.822 1465.63 693.944C1465.93 693.175 1466.81 692.8 1467.58 693.107Z" fill="#45F7E1"/>
<path fill-rule="evenodd" clip-rule="evenodd" d="M915.638 865.86C916.269 868.549 914.6 871.239 911.911 871.869C864.348 883.017 817.679 895.552 771.116 910.238C724.965 924.793 678.516 937.374 628.631 932.615C620.015 931.792 611.174 930.651 603.713 927.119C595.916 923.427 589.819 917.233 586.53 906.999C584.916 901.977 584.446 896.801 584.344 891.92C584.311 890.36 584.318 888.705 584.342 887.042C575.818 898.512 567.677 910.167 559.964 922.187C529.539 969.608 496.032 1014.86 459.83 1057.99C458.055 1060.11 454.901 1060.38 452.786 1058.61C450.671 1056.83 450.395 1053.68 452.17 1051.56C488.111 1008.74 521.363 963.832 551.548 916.787C560.648 902.604 570.314 888.953 580.458 875.556C580.651 875.301 580.851 875.035 581.053 874.766C581.622 874.008 582.209 873.225 582.721 872.592C583.083 872.146 583.496 871.661 583.938 871.219C584.331 870.826 585.001 870.205 585.895 869.743C586.808 869.271 588.712 868.604 590.836 869.574C592.77 870.459 593.552 872.123 593.843 872.896C594.422 874.429 594.497 876.323 594.497 877.922C594.497 880.082 594.45 882.052 594.404 883.973C594.343 886.53 594.284 888.999 594.341 891.711C594.435 896.162 594.861 900.24 596.05 903.939C598.474 911.48 602.635 915.544 607.992 918.08C613.684 920.776 620.895 921.831 629.581 922.66C677.281 927.211 722.033 915.232 768.108 900.701C814.944 885.929 861.858 873.329 909.629 862.133C912.318 861.503 915.008 863.172 915.638 865.86ZM591.052 878.249C591.052 878.25 591.042 878.259 591.023 878.276C591.043 878.257 591.052 878.249 591.052 878.249Z" fill="white"/>
<path fill-rule="evenodd" clip-rule="evenodd" d="M1362.27 470.381C1400.36 458.006 1440.68 447.764 1481.34 449.121C1484.34 449.221 1489.95 449.769 1495.59 450.902C1498.42 451.469 1501.28 452.189 1503.85 453.084C1506.41 453.972 1508.76 455.065 1510.5 456.417C1514.33 459.397 1515.36 463.616 1514.8 468.075C1514.25 472.467 1512.15 477.242 1509.54 481.76C1504.8 489.985 1498.1 497.811 1494.82 501.631C1494.49 502.016 1494.2 502.361 1493.94 502.662C1445.92 559.255 1383.89 603.954 1323.54 645.787C1275.55 679.056 1226.61 711.037 1177.1 742.117C1184.67 745.756 1192.22 749.408 1199.77 753.061C1280.32 792.071 1358.87 834.976 1432.54 886.122C1467.05 910.079 1500.59 935.849 1528.7 967.434C1538.13 978.027 1544.86 988.835 1551.86 1000.07C1553.9 1003.34 1555.96 1006.65 1558.11 1009.99C1558.56 1010.69 1558.36 1011.62 1557.66 1012.07C1556.97 1012.52 1556.04 1012.31 1555.59 1011.62C1553.38 1008.19 1551.29 1004.83 1549.23 1001.53C1542.26 990.341 1535.7 979.812 1526.46 969.428C1498.59 938.11 1465.28 912.501 1430.83 888.587C1357.33 837.56 1278.93 794.731 1198.46 755.761C1190.35 751.833 1182.23 747.909 1174.1 744.002C1133.19 769.646 1091.9 794.681 1050.46 819.325C1017.5 838.931 984.117 857.725 950.546 876.237C948.091 877.591 945.406 878.967 942.64 880.379L942.105 880.652C939.501 881.982 936.83 883.345 934.185 884.766C929.046 887.528 924.075 890.474 919.994 893.731C920.948 893.942 922.222 894.12 923.626 894.263C926.848 894.592 930.322 894.701 931.203 894.729C931.314 894.732 931.384 894.735 931.406 894.736C968.944 896.694 1005.42 903.346 1041.59 913.528C1114.63 934.087 1185.47 961.926 1255.41 990.927C1336.11 1024.39 1412.83 1064.98 1489.84 1105.72C1495.87 1108.91 1501.91 1112.1 1507.95 1115.3C1508.68 1115.68 1508.97 1116.59 1508.58 1117.32C1508.19 1118.05 1507.28 1118.34 1506.55 1117.95C1500.52 1114.76 1494.49 1111.57 1488.46 1108.38C1411.43 1067.63 1334.83 1027.11 1254.26 993.699C1184.34 964.706 1113.64 936.924 1040.78 916.416C1004.79 906.285 968.532 899.677 931.25 897.732C931.255 897.732 931.208 897.731 931.057 897.726C930.926 897.722 930.74 897.716 930.51 897.708C930.05 897.692 929.41 897.667 928.659 897.631C927.159 897.559 925.199 897.439 923.322 897.248C921.479 897.06 919.596 896.791 918.314 896.391C917.984 896.288 917.655 896.165 917.358 896.012C917.08 895.869 916.725 895.649 916.445 895.305C916.129 894.916 915.897 894.34 916.046 893.674C916.175 893.095 916.541 892.699 916.821 892.46C921.363 888.583 927.054 885.193 932.765 882.124C935.439 880.686 938.137 879.309 940.736 877.983L941.276 877.707C944.047 876.293 946.691 874.937 949.097 873.61C982.654 855.106 1016 836.329 1048.93 816.746C1089.82 792.433 1130.54 767.743 1170.9 742.466C1124.11 720.018 1076.92 698.224 1028.47 679.82C1004.22 670.611 978.796 661.696 952.945 659.582C949.329 659.287 947.221 659.153 946.214 659.092C945.966 659.077 945.772 659.066 945.65 659.059C945.588 659.055 945.532 659.051 945.489 659.048C945.47 659.046 945.438 659.044 945.405 659.04C945.391 659.039 945.356 659.035 945.313 659.028C945.293 659.024 945.249 659.017 945.194 659.003L945.193 659.003C945.175 658.999 944.985 658.955 944.782 658.833C944.634 658.732 944.279 658.338 944.13 658.017C944.054 657.512 944.319 656.694 944.557 656.426C944.7 656.313 944.944 656.176 945.035 656.139C945.091 656.119 945.187 656.092 945.225 656.083C945.34 656.057 945.438 656.05 945.446 656.05L945.447 656.05C945.496 656.046 945.54 656.045 945.555 656.045C945.596 656.044 945.648 656.043 945.697 656.043C945.74 656.043 945.785 656.043 945.836 656.043C945.92 656.043 946.019 656.042 946.143 656.042C947.69 656.034 951.884 655.961 955.562 655.153C992.33 647.069 1026.65 628.776 1060.05 610.977C1064.38 608.668 1068.7 606.367 1073 604.098C1079.75 600.541 1086.5 596.973 1093.26 593.403C1180.32 547.393 1268.24 500.931 1362.27 470.381ZM1173.91 740.581C1223.92 709.205 1273.37 676.919 1321.83 643.322C1382.19 601.478 1443.92 556.978 1491.66 500.72C1491.92 500.413 1492.22 500.064 1492.55 499.677C1495.83 495.839 1502.35 488.225 1506.95 480.261C1509.48 475.868 1511.35 471.503 1511.83 467.701C1512.3 463.966 1511.42 460.936 1508.66 458.785C1507.29 457.723 1505.29 456.76 1502.87 455.917C1500.47 455.081 1497.74 454.393 1495 453.843C1489.51 452.742 1484.08 452.214 1481.24 452.119C1441.11 450.78 1401.2 460.887 1363.2 473.234C1269.42 503.7 1181.73 550.045 1094.61 596.079C1087.87 599.641 1081.14 603.201 1074.4 606.751C1070.11 609.013 1065.8 611.311 1061.47 613.622C1029.18 630.834 995.617 648.726 959.754 657.27C983.793 660.255 1007.31 668.575 1029.53 677.015C1078.69 695.688 1126.54 717.834 1173.91 740.581ZM945.623 659.044C945.624 659.044 945.625 659.044 945.626 659.044C945.62 659.044 945.619 659.044 945.623 659.044ZM918.668 893.309C918.668 893.309 918.67 893.31 918.673 893.313C918.67 893.31 918.668 893.309 918.668 893.309ZM918.769 894.742C918.764 894.747 918.761 894.749 918.761 894.749L918.769 894.742ZM918.761 894.749C918.761 894.749 918.763 894.747 918.769 894.742L918.761 894.749Z" fill="white"/>
<path fill-rule="evenodd" clip-rule="evenodd" d="M1162.66 475.258C1163.35 474.794 1164.28 474.974 1164.74 475.66C1175.69 491.848 1186.1 508.357 1196.5 524.854C1200.59 531.337 1204.68 537.818 1208.79 544.278C1236.49 587.718 1267.03 629.109 1297.83 670.457C1306.05 681.491 1314.39 692.494 1322.76 703.521C1361.42 754.494 1400.46 805.97 1429.14 863.33C1430.24 865.534 1431.25 867.965 1432.24 870.365C1432.52 871.034 1432.8 871.702 1433.08 872.361C1434.24 875.123 1435.43 877.774 1436.81 880.086C1438.05 879.393 1439.3 878.675 1440.55 877.952C1442.89 876.609 1445.25 875.248 1447.68 873.996C1491.9 851.208 1536.38 828.863 1580.84 806.525C1605.39 794.193 1629.93 781.863 1654.42 769.462C1655.16 769.087 1656.07 769.383 1656.44 770.122C1656.81 770.861 1656.52 771.764 1655.78 772.138C1631.27 784.549 1606.71 796.884 1582.16 809.218C1537.71 831.55 1493.26 853.881 1449.06 876.663C1446.67 877.892 1444.43 879.181 1442.16 880.492C1440.74 881.306 1439.31 882.128 1437.83 882.95L1437.8 882.964C1437.66 883.043 1437.25 883.271 1436.79 883.35C1436.51 883.398 1436.13 883.41 1435.71 883.253C1435.28 883.09 1434.96 882.792 1434.73 882.442C1433.01 879.732 1431.61 876.602 1430.31 873.526C1430.02 872.83 1429.73 872.139 1429.45 871.455C1428.46 869.071 1427.5 866.772 1426.45 864.672C1397.91 807.585 1359.07 756.377 1320.42 705.412C1312.05 694.365 1303.68 683.33 1295.42 672.249C1264.63 630.906 1234.02 589.434 1206.26 545.891C1202.13 539.403 1198.03 532.906 1193.94 526.414C1183.54 509.932 1173.17 493.486 1162.26 477.34C1161.79 476.654 1161.97 475.722 1162.66 475.258Z" fill="#45F7E1"/>
<path fill-rule="evenodd" clip-rule="evenodd" d="M1719.19 47.6442C1721.05 49.6912 1720.89 52.8531 1718.84 54.7065L1718.67 54.8631C1665 103.454 1612.17 151.287 1561.78 203.141C1543.1 222.356 1524.64 241.929 1506.14 261.54C1468.94 300.976 1431.59 340.566 1392.1 377.708C1383.84 385.475 1368.61 399.031 1357.74 406.403C1357.58 406.509 1357.39 406.642 1357.17 406.795C1356.12 407.532 1354.42 408.724 1352.77 409.501C1350.96 410.355 1346.89 411.822 1343.31 408.92C1342 407.86 1341.41 406.491 1341.12 405.677C1340.81 404.771 1340.64 403.837 1340.54 403.025C1340.34 401.394 1340.33 399.559 1340.37 397.928C1340.42 396.261 1340.54 394.608 1340.64 393.302C1340.65 393.076 1340.67 392.865 1340.68 392.666C1340.71 392.271 1340.74 391.927 1340.76 391.618C1340.78 391.392 1340.79 391.21 1340.8 391.067C1340.8 390.914 1340.8 390.854 1340.8 390.855C1340.8 390.265 1340.87 388.914 1340.94 387.213C1340.98 386.358 1341.03 385.414 1341.07 384.434C1341.2 381.347 1341.33 377.553 1341.35 373.87C1341.36 370.562 1341.28 367.498 1341.05 365.162C1340.72 365.352 1340.37 365.573 1339.99 365.828C1338.62 366.74 1337.49 367.66 1336.34 368.587C1335.74 369.072 1335.14 369.559 1334.5 370.048C1323.06 378.816 1311.95 388.105 1301.46 397.927C1276.49 421.316 1252.47 445.759 1229.92 471.418C1229.01 472.455 1227.98 473.464 1226.83 474.173C1225.78 474.824 1223.56 475.85 1221.04 474.808C1218.64 473.816 1217.79 471.677 1217.49 470.741C1217.15 469.646 1217.05 468.514 1217.02 467.637C1216.95 465.842 1217.12 463.748 1217.27 462.094C1217.3 461.796 1217.33 461.513 1217.35 461.246C1217.48 459.826 1217.58 458.829 1217.58 458.174V295.989C1217.58 293.228 1219.81 290.989 1222.58 290.989C1225.34 290.989 1227.58 293.228 1227.58 295.989V458.174C1227.58 458.433 1227.57 458.713 1227.56 459.006C1248.84 435.187 1271.34 412.437 1294.63 390.629C1305.39 380.551 1316.75 371.05 1328.42 362.11C1328.71 361.887 1329.11 361.568 1329.58 361.189C1330.86 360.156 1332.69 358.681 1334.42 357.517C1336.75 355.961 1340.31 353.939 1344.18 354.073C1346.15 354.141 1347.56 355.162 1348.38 356.075C1349.15 356.924 1349.59 357.862 1349.85 358.543C1350.39 359.922 1350.68 361.549 1350.87 363.045C1351.26 366.133 1351.36 370.088 1351.35 373.911C1351.33 377.784 1351.19 381.724 1351.06 384.857C1351 386.174 1350.95 387.301 1350.91 388.217C1350.85 389.59 1350.8 390.491 1350.8 390.855C1350.8 391.48 1350.72 392.531 1350.65 393.511C1350.63 393.694 1350.62 393.874 1350.61 394.048C1350.51 395.331 1350.41 396.792 1350.37 398.218C1350.36 398.613 1350.35 398.992 1350.35 399.351C1350.6 399.186 1350.84 399.014 1351.1 398.835L1351.28 398.714C1351.55 398.522 1351.85 398.316 1352.13 398.127C1362.29 391.236 1377.02 378.159 1385.25 370.424C1424.53 333.479 1461.51 294.277 1498.58 254.975C1517.13 235.309 1535.71 215.618 1554.61 196.171C1605.23 144.088 1658.25 96.0752 1711.85 47.5537L1712.13 47.2935C1714.18 45.4401 1717.34 45.5971 1719.19 47.6442Z" fill="#45F7E1"/>
<path fill-rule="evenodd" clip-rule="evenodd" d="M1273.86 934.313C1273.3 934.975 1272.88 935.471 1272.64 935.737C1232.55 979.976 1194.01 1025.57 1155.41 1071.23C1146.42 1081.86 1137.43 1092.5 1128.41 1103.13C1080.71 1159.34 1032.38 1215.18 980.569 1267.99C978.635 1269.96 975.47 1270 973.499 1268.06C971.527 1266.13 971.497 1262.96 973.431 1260.99C1024.97 1208.45 1073.11 1152.85 1120.79 1096.66C1129.78 1086.06 1138.75 1075.45 1147.73 1064.83C1186.34 1019.15 1225.01 973.401 1265.23 929.022L1265.24 929.012L1265.26 928.983C1265.28 928.958 1265.31 928.925 1265.35 928.883C1265.42 928.799 1265.51 928.691 1265.63 928.558C1265.75 928.415 1265.88 928.261 1266.03 928.088C1266.17 927.923 1266.32 927.74 1266.5 927.533C1267.2 926.71 1268.12 925.635 1269.17 924.431C1271.27 922.041 1273.97 919.075 1276.63 916.526C1277.95 915.253 1279.33 914.024 1280.66 913.004C1281.92 912.044 1283.46 911.011 1285.09 910.449C1286.6 909.928 1290.03 909.286 1292.5 912.194C1293.51 913.379 1293.91 914.721 1294.07 915.762C1294.24 916.822 1294.22 917.907 1294.12 918.931C1292.81 932.34 1287.84 945.662 1283.44 957.438C1283.21 958.065 1282.98 958.688 1282.75 959.307C1269.87 993.916 1254.25 1027.38 1238.74 1060.58C1232.13 1074.74 1225.45 1088.86 1218.77 1102.97C1194.81 1153.61 1170.93 1204.09 1150.35 1256.06C1149.25 1258.86 1147.74 1262.22 1146.13 1265.79C1145.69 1266.79 1145.23 1267.8 1144.78 1268.82C1142.65 1273.59 1140.42 1278.74 1138.52 1283.94C1136.62 1289.15 1135.1 1294.29 1134.34 1299.03C1133.84 1302.15 1133.69 1304.97 1133.92 1307.44C1135.75 1306.76 1138.15 1305.67 1141.06 1304.21C1148.5 1300.47 1158.33 1294.75 1168.21 1288.71C1187.57 1276.87 1206.7 1264.11 1207.47 1263.6L1207.49 1263.58C1276.95 1217.56 1344.81 1169.19 1412.74 1120.76L1415.99 1118.45C1487.13 1067.74 1559.19 1018.85 1631.41 969.887C1633.7 968.338 1636.81 968.935 1638.35 971.22C1639.9 973.506 1639.31 976.615 1637.02 978.165C1564.78 1027.13 1492.82 1075.96 1421.8 1126.59L1418.49 1128.95C1350.6 1177.34 1282.62 1225.8 1213.01 1271.92C1213.02 1271.92 1211.75 1272.76 1209.6 1274.18C1207.44 1275.61 1204.36 1277.63 1200.66 1280.03C1193.26 1284.83 1183.38 1291.15 1173.43 1297.24C1163.5 1303.31 1153.38 1309.21 1145.55 1313.15C1141.68 1315.09 1138.13 1316.68 1135.35 1317.52C1134.03 1317.91 1132.42 1318.29 1130.87 1318.22C1130.07 1318.19 1128.92 1318.03 1127.77 1317.38C1126.49 1316.65 1125.48 1315.45 1125.02 1313.93C1123.46 1308.74 1123.57 1303.02 1124.46 1297.45C1125.36 1291.84 1127.11 1286.04 1129.12 1280.51C1131.15 1274.97 1133.5 1269.56 1135.64 1264.74C1136.14 1263.64 1136.62 1262.57 1137.08 1261.55C1138.66 1258.02 1140.04 1254.95 1141.06 1252.38C1161.76 1200.07 1185.83 1149.21 1209.81 1098.52C1216.47 1084.46 1223.12 1070.41 1229.68 1056.34C1245.21 1023.09 1260.66 989.988 1273.38 955.819C1273.56 955.326 1273.74 954.833 1273.93 954.339C1277.69 944.235 1281.48 934.065 1283.32 923.963C1279.59 927.572 1275.85 931.975 1273.86 934.313Z" fill="white"/>
<path fill-rule="evenodd" clip-rule="evenodd" d="M334.019 863.308C333.639 864.12 333.248 864.956 332.939 865.472C325.696 877.544 318.524 889.672 311.35 901.806C301.349 918.719 291.343 935.642 281.129 952.434C263.593 981.264 246.863 1010.57 230.121 1039.9C228.812 1042.19 227.503 1044.48 226.194 1046.77C208.14 1078.39 190.001 1109.98 170.774 1140.93C170.337 1141.63 169.412 1141.85 168.709 1141.41C168.005 1140.98 167.789 1140.05 168.226 1139.35C187.42 1108.45 205.534 1076.9 223.589 1045.29C224.9 1042.99 226.21 1040.7 227.52 1038.4C244.258 1009.08 261.008 979.742 278.566 950.875C288.778 934.086 298.76 917.204 308.747 900.313C315.922 888.179 323.099 876.041 330.367 863.928C330.589 863.557 330.906 862.881 331.31 862.019C331.358 861.915 331.408 861.808 331.46 861.699C331.905 860.75 332.428 859.652 332.933 858.824C333.178 858.422 333.478 857.983 333.823 857.652C334.054 857.43 334.931 856.661 336.032 857.172C336.513 857.395 336.787 857.775 336.936 858.053C337.089 858.338 337.182 858.647 337.244 858.931C337.369 859.5 337.428 860.237 337.439 861.129C337.79 888.101 337.752 915.159 337.317 942.126C336.822 972.797 335.827 1003.49 334.833 1034.16C334.424 1046.77 334.016 1059.37 333.642 1071.97C333.506 1076.54 333.202 1081.37 332.89 1086.3L332.857 1086.83C332.534 1091.95 332.21 1097.18 332.06 1102.39C331.76 1112.84 332.166 1123.11 334.631 1132.15C334.835 1132.9 335.042 1133.35 335.208 1133.61C335.251 1133.67 335.287 1133.72 335.316 1133.75C335.411 1133.71 335.595 1133.6 335.885 1133.33C336.452 1132.8 337.074 1131.98 337.697 1131.04C338.103 1130.42 338.462 1129.84 338.794 1129.3C338.978 1129 339.154 1128.71 339.325 1128.44C348.12 1114.51 356.014 1100.79 362.103 1085.57C362.41 1084.8 363.283 1084.43 364.053 1084.74C364.822 1085.04 365.196 1085.92 364.888 1086.69C358.7 1102.16 350.693 1116.06 341.862 1130.04C341.73 1130.25 341.574 1130.5 341.402 1130.78C341.05 1131.36 340.628 1132.05 340.198 1132.69C339.549 1133.67 338.768 1134.75 337.929 1135.53C337.188 1136.22 335.883 1137.16 334.373 1136.64C333.637 1136.39 333.091 1135.86 332.691 1135.24C332.295 1134.63 331.986 1133.85 331.737 1132.94C329.153 1123.47 328.759 1112.84 329.061 1102.31C329.213 1097.04 329.54 1091.76 329.863 1086.64L329.895 1086.13C330.207 1081.18 330.509 1076.4 330.643 1071.88C331.017 1059.26 331.426 1046.65 331.835 1034.04C332.829 1003.38 333.823 972.723 334.317 942.078C334.745 915.545 334.788 888.923 334.455 862.382C334.362 862.577 334.269 862.774 334.176 862.973C334.124 863.084 334.072 863.195 334.019 863.308ZM335.932 859.788C335.932 859.789 335.922 859.799 335.903 859.813C335.923 859.794 335.933 859.787 335.932 859.788Z" fill="white"/>
<path fill-rule="evenodd" clip-rule="evenodd" d="M123.683 751.381C95.6906 757.886 67.6847 764.394 39.5995 770.546C37.1607 771.081 34.7047 769.327 34.1139 766.63C33.5232 763.934 35.0213 761.314 37.4601 760.78C65.3258 754.676 93.2221 748.193 121.164 741.7C177.21 728.677 233.438 715.611 289.97 705.467C290.324 705.404 290.896 705.332 291.569 705.421C292.216 705.507 293.445 705.81 294.524 706.983C295.712 708.273 296.008 709.826 295.994 710.896C295.981 711.851 295.735 712.585 295.591 712.959C295.296 713.725 294.88 714.346 294.63 714.7C294.335 715.116 294.007 715.522 293.695 715.888C292.686 717.072 291.318 718.44 290.507 719.252C290.359 719.399 290.229 719.529 290.124 719.635C250.287 759.873 216.962 808.982 185.877 857.953C125.298 953.385 71.478 1054.37 20.3553 1156.6C-9.32129 1215.94 -39.195 1274.78 -71.633 1332.42C-72.9247 1334.72 -75.7159 1335.35 -77.8672 1333.84C-80.0186 1332.32 -80.7154 1329.24 -79.4237 1326.94C-47.1095 1269.52 -17.3255 1210.86 12.3431 1151.54C63.5318 1049.18 117.518 947.863 178.345 852.039C208.084 805.19 240.223 757.632 278.393 717.756C226.596 727.465 175.162 739.417 123.683 751.381ZM287.409 708.323C287.409 708.323 287.404 708.332 287.39 708.352C287.402 708.333 287.408 708.323 287.409 708.323Z" fill="white"/>
<path fill-rule="evenodd" clip-rule="evenodd" d="M224.892 909.094C225.192 908.322 226.061 907.939 226.833 908.238C237.9 912.529 248.664 917.49 259.349 922.541C261.377 923.5 263.402 924.461 265.425 925.422C274.075 929.532 282.701 933.629 291.463 937.43C313.808 947.124 335.488 958.303 357.042 969.648C360.175 971.296 363.305 972.949 366.434 974.6C384.847 984.32 403.224 994.021 421.954 1002.91C453.856 1018.05 486.989 1030.9 519.975 1043.69L520.796 1044.01C521.466 1044.27 522.148 1044.54 522.84 1044.82C524.888 1045.62 527.02 1046.47 529.158 1047.18C532.021 1048.14 534.74 1048.81 537.065 1048.86C539.369 1048.9 541.088 1048.33 542.254 1047.02C543.457 1045.66 544.337 1043.23 544.261 1038.96C543.996 1024.18 539.835 1009.11 535.767 994.381C534.576 990.067 533.393 985.782 532.318 981.542C524.41 950.347 516.068 919.324 507.174 888.402C500.499 865.195 494.218 841.867 487.941 818.555C485.07 807.895 482.201 797.237 479.295 786.596C478.107 782.246 477.008 777.866 475.911 773.49C473.519 763.949 471.133 754.433 467.837 745.307C467.6 744.652 467.388 744.252 467.227 744.022C467.103 744.144 466.947 744.328 466.765 744.587C466.251 745.319 465.728 746.362 465.221 747.478C465.031 747.895 464.836 748.34 464.647 748.772C464.367 749.412 464.1 750.023 463.881 750.47C458.578 761.318 454.191 772.501 449.78 783.748C447.507 789.543 445.227 795.355 442.812 801.147C442.62 801.605 442.428 802.069 442.233 802.537C438.218 812.191 433.435 823.692 425.667 831.417C424.168 832.909 422.546 833.826 420.824 834.179C419.105 834.531 417.409 834.297 415.798 833.687C412.638 832.491 409.648 829.788 407.003 826.762C404.328 823.702 401.861 820.14 399.786 817.019C399.251 816.213 398.746 815.444 398.272 814.722C396.87 812.588 395.742 810.87 394.898 809.84C394.373 809.199 394.467 808.254 395.107 807.729C395.748 807.204 396.693 807.298 397.218 807.938C398.172 809.102 399.435 811.026 400.871 813.214C401.326 813.907 401.799 814.627 402.285 815.358C404.348 818.461 406.724 821.885 409.261 824.787C411.827 827.722 414.415 829.956 416.861 830.882C418.053 831.333 419.166 831.456 420.221 831.24C421.274 831.024 422.391 830.445 423.552 829.29C430.881 822.002 435.457 811.009 439.542 801.194C439.71 800.791 439.877 800.391 440.043 799.992C442.405 794.327 444.66 788.578 446.923 782.812C451.364 771.491 455.832 760.103 461.186 749.152C461.387 748.741 461.602 748.248 461.851 747.677C462.041 747.242 462.251 746.761 462.49 746.236C463.004 745.105 463.623 743.841 464.309 742.863C464.652 742.376 465.062 741.885 465.546 741.515C466.031 741.145 466.724 740.8 467.56 740.892C468.405 740.986 469.047 741.486 469.507 742.063C469.96 742.632 470.333 743.388 470.658 744.288C474.007 753.559 476.456 763.324 478.868 772.941C479.956 777.279 481.037 781.587 482.189 785.806C485.101 796.469 487.974 807.138 490.845 817.805C497.119 841.104 503.389 864.39 510.057 887.572C518.961 918.528 527.311 949.582 535.226 980.805C536.265 984.901 537.422 989.089 538.597 993.343C542.684 1008.13 546.988 1023.71 547.26 1038.9C547.343 1043.52 546.418 1046.85 544.497 1049.01C542.539 1051.21 539.816 1051.91 537.007 1051.86C534.219 1051.8 531.153 1051.01 528.206 1050.03C525.985 1049.28 523.743 1048.4 521.678 1047.58C521.001 1047.31 520.343 1047.05 519.711 1046.81L518.842 1046.47C485.889 1033.69 452.669 1020.81 420.668 1005.62C401.875 996.702 383.434 986.967 365.024 977.249C361.898 975.598 358.772 973.948 355.645 972.302C334.096 960.96 312.502 949.828 290.269 940.182C281.455 936.359 272.773 932.234 264.119 928.123C262.1 927.165 260.084 926.207 258.067 925.253C247.391 920.207 236.708 915.285 225.748 911.035C224.976 910.736 224.593 909.867 224.892 909.094Z" fill="#45F7E1"/>
<path fill-rule="evenodd" clip-rule="evenodd" d="M1336.5 449C1337.33 449 1338 449.672 1338 450.5V748.301C1338 749.13 1337.33 749.801 1336.5 749.801C1335.67 749.801 1335 749.13 1335 748.301V450.5C1335 449.672 1335.67 449 1336.5 449Z" fill="#45F7E1"/>
<path fill-rule="evenodd" clip-rule="evenodd" d="M1074.67 1037.87C1074.04 1038.4 1073.09 1038.33 1072.55 1037.7C1064.85 1028.66 1057.74 1019.19 1050.73 1009.67C1049.41 1007.86 1048.08 1006.05 1046.76 1004.24C1041.1 996.519 1035.45 988.816 1029.55 981.309C1014.49 962.163 1000.72 942.027 987.144 921.806C985.171 918.867 983.201 915.926 981.233 912.986C969.647 895.687 958.084 878.42 945.825 861.699C924.946 833.22 901.893 806.175 878.943 779.25L878.372 778.58C877.905 778.033 877.433 777.471 876.954 776.902C875.536 775.217 874.061 773.463 872.519 771.818C870.455 769.616 868.382 767.732 866.357 766.589C864.35 765.455 862.566 765.141 860.916 765.741C859.216 766.361 857.285 768.084 855.321 771.883C848.537 785.008 845.039 800.246 841.621 815.142C840.62 819.504 839.625 823.836 838.557 828.078C830.698 859.285 823.301 890.547 816.439 921.983C811.289 945.575 805.735 969.086 800.185 992.582C797.646 1003.33 795.109 1014.07 792.611 1024.81C791.59 1029.2 790.476 1033.58 789.363 1037.95C786.936 1047.48 784.515 1056.99 783.081 1066.59C782.978 1067.28 782.974 1067.73 783.006 1068.01C783.174 1067.96 783.398 1067.87 783.682 1067.73C784.482 1067.33 785.437 1066.66 786.414 1065.92C786.779 1065.64 787.162 1065.34 787.534 1065.05C788.084 1064.62 788.609 1064.21 789.014 1063.92C798.834 1056.9 808.006 1049.14 817.231 1041.34C821.984 1037.32 826.75 1033.29 831.627 1029.34C832.014 1029.03 832.403 1028.71 832.797 1028.39C840.916 1021.8 850.588 1013.95 861.093 1010.85C863.121 1010.25 864.984 1010.21 866.667 1010.72C868.347 1011.22 869.728 1012.23 870.856 1013.54C873.068 1016.09 874.416 1019.89 875.306 1023.81C876.206 1027.77 876.685 1032.08 877.028 1035.81C877.116 1036.77 877.196 1037.69 877.27 1038.55C877.489 1041.09 877.666 1043.14 877.919 1044.45C878.077 1045.26 877.546 1046.05 876.732 1046.21C875.919 1046.37 875.132 1045.83 874.974 1045.02C874.688 1043.54 874.49 1041.25 874.266 1038.64C874.195 1037.82 874.121 1036.96 874.04 1036.08C873.699 1032.37 873.234 1028.23 872.381 1024.47C871.517 1020.67 870.301 1017.48 868.588 1015.5C867.754 1014.54 866.832 1013.9 865.801 1013.59C864.772 1013.28 863.515 1013.26 861.944 1013.72C852.033 1016.65 842.784 1024.15 834.526 1030.85C834.188 1031.13 833.851 1031.4 833.516 1031.67C828.746 1035.53 824.03 1039.52 819.3 1043.52C810.014 1051.37 800.672 1059.27 790.759 1066.36C790.388 1066.63 789.964 1066.96 789.473 1067.35C789.099 1067.64 788.686 1067.96 788.227 1068.31C787.237 1069.06 786.092 1069.88 785.024 1070.41C784.491 1070.68 783.897 1070.92 783.295 1071.01C782.692 1071.11 781.918 1071.08 781.227 1070.6C780.527 1070.12 780.2 1069.38 780.07 1068.65C779.941 1067.93 779.972 1067.09 780.114 1066.15C781.571 1056.4 784.054 1046.64 786.5 1037.03C787.603 1032.7 788.699 1028.39 789.689 1024.13C792.192 1013.37 794.732 1002.61 797.272 991.863C802.819 968.38 808.364 944.911 813.508 921.343C820.378 889.873 827.782 858.58 835.648 827.345C836.68 823.248 837.651 819.012 838.637 814.711C842.067 799.753 845.679 784.003 852.656 770.506C854.777 766.402 857.172 763.912 859.89 762.923C862.659 761.914 865.386 762.595 867.832 763.976C870.26 765.348 872.583 767.499 874.708 769.766C876.31 771.475 877.861 773.32 879.291 775.019C879.759 775.576 880.215 776.118 880.655 776.634L881.259 777.343C904.187 804.241 927.3 831.357 948.245 859.925C960.545 876.702 972.148 894.028 983.731 911.325C985.699 914.263 987.665 917.2 989.635 920.133C1003.21 940.351 1016.92 960.405 1031.91 979.454C1037.85 987.005 1043.53 994.759 1049.19 1002.49C1050.51 1004.29 1051.83 1006.09 1053.15 1007.89C1060.15 1017.4 1067.21 1026.81 1074.84 1035.75C1075.37 1036.38 1075.3 1037.33 1074.67 1037.87Z" fill="#45F7E1"/>
</g>
</svg>
