<svg width="270" height="60" viewBox="0 0 270 60" fill="none" xmlns="http://www.w3.org/2000/svg">
<path d="M38.576 23.992V22.144H34.856V23.992C34.856 26.056 33.2 27.712 31.136 27.712C29.096 27.712 27.416 26.056 27.416 23.992V22.144H23.72V23.992C23.72 26.224 24.68 28.216 26.216 29.584C24.68 30.928 23.72 32.944 23.72 35.152V37H27.416V35.152C27.416 33.112 29.096 31.432 31.136 31.432C33.2 31.432 34.856 33.112 34.856 35.152V37H38.576V35.152C38.576 32.944 37.592 30.928 36.056 29.584C37.592 28.216 38.576 26.224 38.576 23.992ZM47.4485 22.144C43.3445 22.144 40.0325 25.48 40.0325 29.584C40.0325 33.688 43.3445 37 47.4485 37C51.5525 37 54.8885 33.688 54.8885 29.584C54.8885 25.48 51.5525 22.144 47.4485 22.144ZM47.4485 33.304C45.4085 33.304 43.7285 31.624 43.7285 29.584C43.7285 27.52 45.4085 25.864 47.4485 25.864C49.5125 25.864 51.1685 27.52 51.1685 29.584C51.1685 31.624 49.5125 33.304 47.4485 33.304ZM67.481 22.144V25.864C67.481 27.904 65.825 29.584 63.761 29.584C61.721 29.584 60.041 27.904 60.041 25.864V22.144H56.345V25.864C56.345 29.968 59.657 33.304 63.761 33.304C65.129 33.304 66.401 32.92 67.481 32.296V37H71.201V22.144H67.481ZM84.7657 22.144V29.584C84.7657 31.624 83.1097 33.304 81.0457 33.304C79.0057 33.304 77.3257 31.624 77.3257 29.584V22.144H73.6297V29.584C73.6297 33.688 76.9417 37 81.0457 37C82.4137 37 83.6857 36.64 84.7657 36.016V38.872H75.4777V42.592H88.4857V22.144H84.7657ZM111.786 22.144V16.576H108.066V22.144H98.7781V37H108.066V42.592H111.786V37H121.074V22.144H111.786ZM108.066 33.304H102.474V25.864H108.066V33.304ZM117.354 33.304H111.786V25.864H117.354V33.304ZM125.065 22.144V30.496C125.065 32.056 123.817 33.304 122.281 33.304V37C125.857 37 128.785 34.096 128.785 30.496V25.864H134.353V37H138.073V22.144H125.065ZM151.633 29.584C151.633 31.624 149.977 33.304 147.913 33.304C146.545 33.304 145.345 32.536 144.697 31.432H147.913V27.712H144.193V25.864H153.505V22.144H140.497V29.584C140.497 33.688 143.809 37 147.913 37C152.017 37 155.353 33.688 155.353 29.584H151.633ZM165.839 27.712C167.015 26.152 167.711 24.232 167.711 22.144H163.991C163.991 24.568 162.455 26.632 160.271 27.4V22.144H156.575V37H160.271V31.432H167.711V37H171.431V27.712H165.839ZM180.784 33.304C178.744 33.304 177.064 31.624 177.064 29.584C177.064 27.52 178.744 25.864 180.784 25.864C182.512 25.864 183.976 27.04 184.384 28.648H188.176C187.72 24.976 184.576 22.144 180.784 22.144C176.68 22.144 173.368 25.48 173.368 29.584C173.368 33.688 176.68 37 180.784 37C184.576 37 187.72 34.168 188.176 30.496H184.384C183.976 32.104 182.512 33.304 180.784 33.304ZM201.297 22.144V29.584C201.297 31.624 199.641 33.304 197.577 33.304C195.537 33.304 193.857 31.624 193.857 29.584V22.144H190.161V29.584C190.161 33.688 193.473 37 197.577 37C198.945 37 200.217 36.64 201.297 36.016V37H205.017V22.144H201.297ZM207.434 22.144V37H211.13V25.864H216.722V37H220.442V25.864H226.01V37H229.73V22.144H207.434ZM238.642 25.864C237.634 25.864 236.698 26.08 235.834 26.488V22.144H232.138V37H245.146V32.368C245.146 28.768 242.218 25.864 238.642 25.864ZM241.426 33.304H235.834V32.368C235.834 30.832 237.082 29.584 238.642 29.584C240.178 29.584 241.426 30.832 241.426 32.368V33.304Z" fill="#45F7E1"/>
<rect x="0.5" y="0.5" width="269" height="59" rx="8.5" stroke="#45F7E1"/>
</svg>
