<svg width="715" height="215" viewBox="0 0 715 215" fill="none" xmlns="http://www.w3.org/2000/svg">
<path d="M1.848 19H3.84V13.36H4.08L9.384 19H12.048L5.928 12.688L11.904 6.88H9.264L4.08 12.064H3.84V6.88H1.848V19ZM19.1415 19.48C22.9335 19.48 25.6455 16.768 25.6455 12.928C25.6455 9.112 22.9335 6.4 19.1415 6.4C15.3255 6.4 12.6375 9.112 12.6375 12.928C12.6375 16.768 15.3255 19.48 19.1415 19.48ZM19.1415 17.68C16.5015 17.68 14.6295 15.688 14.6295 12.928C14.6295 10.192 16.5015 8.2 19.1415 8.2C21.7575 8.2 23.6535 10.192 23.6535 12.928C23.6535 15.688 21.7575 17.68 19.1415 17.68ZM28.6839 19H30.6759V13.768H37.7559V19H39.7479V6.88H37.7559V11.968H30.6759V6.88H28.6839V19ZM46.4981 19H48.4901V8.68H52.8581V6.88H42.1061V8.68H46.4981V19ZM58.5992 19.384C60.5432 19.384 61.9592 18.616 62.8232 17.224H63.0392V19H65.0312V10.96C65.0312 8.2 63.0392 6.424 59.8952 6.424C56.8472 6.424 54.8552 8.056 54.8552 10.624H56.8712C56.8472 9.112 58.0472 8.224 59.8712 8.224C61.8632 8.224 63.0392 9.28 63.0392 10.912V11.392L59.6792 11.8C56.0792 12.208 54.2552 13.792 54.2552 15.928C54.2552 18.016 55.9832 19.384 58.5992 19.384ZM58.8872 17.728C57.2552 17.728 56.2472 17.032 56.2472 15.88C56.2472 14.752 57.2072 13.792 59.6792 13.48L63.0392 13.096V14.176C63.0392 16.216 61.3592 17.728 58.8872 17.728ZM68.4808 19H70.4728V13.36H70.7128L76.0168 19H78.6808L72.5608 12.688L78.5368 6.88H75.8968L70.7128 12.064H70.4728V6.88H68.4808V19ZM83.6231 19H85.6151V8.68H89.9831V6.88H79.2311V8.68H83.6231V19ZM92.3402 19H96.9242C99.8522 19 101.772 17.344 101.772 14.776C101.772 12.28 99.8522 10.6 96.9242 10.6H94.3322V6.88H92.3402V19ZM103.524 19H105.516V6.88H103.524V19ZM94.3322 17.2V12.4H96.9242C98.6522 12.4 99.8042 13.336 99.8042 14.8C99.8042 16.264 98.6762 17.2 96.9242 17.2H94.3322Z" fill="white"/>
<path d="M463.848 19H465.84V9.664H466.056L470.376 19H472.152L476.472 9.664H476.712V19H478.704V6.88H475.8L471.36 16.504H471.12L466.728 6.88H463.848V19ZM482.387 19H486.971C489.899 19 491.819 17.344 491.819 14.776C491.819 12.28 489.899 10.6 486.971 10.6H484.379V6.88H482.387V19ZM493.571 19H495.563V6.88H493.571V19ZM484.379 17.2V12.4H486.971C488.699 12.4 489.851 13.336 489.851 14.8C489.851 16.264 488.723 17.2 486.971 17.2H484.379ZM505.262 19H511.43C513.782 19 515.438 17.56 515.438 15.496C515.438 13.96 514.502 13.024 513.23 12.76V12.52C514.262 12.16 515.078 11.2 515.078 9.904C515.078 8.176 513.518 6.88 511.334 6.88H505.262V19ZM507.254 11.8V8.584H511.118C512.27 8.584 513.11 9.328 513.11 10.216C513.11 11.104 512.27 11.8 511.118 11.8H507.254ZM507.254 17.296V13.528H511.094C512.486 13.528 513.446 14.296 513.446 15.352C513.446 16.408 512.486 17.296 511.094 17.296H507.254ZM529.958 19.48C532.838 19.48 535.358 17.632 535.91 15.04L533.966 14.8C533.462 16.504 531.854 17.68 529.958 17.68C527.486 17.68 525.638 15.736 525.638 12.928C525.614 10.144 527.51 8.2 529.982 8.2C531.83 8.2 533.486 9.376 533.942 11.128L535.862 10.864C535.43 8.272 532.934 6.4 529.958 6.4C526.31 6.4 523.646 9.136 523.646 12.928C523.622 16.72 526.286 19.48 529.958 19.48ZM544.821 19.48C548.613 19.48 551.325 16.768 551.325 12.928C551.325 9.112 548.613 6.4 544.821 6.4C541.005 6.4 538.317 9.112 538.317 12.928C538.317 16.768 541.005 19.48 544.821 19.48ZM544.821 17.68C542.181 17.68 540.309 15.688 540.309 12.928C540.309 10.192 542.181 8.2 544.821 8.2C547.437 8.2 549.333 10.192 549.333 12.928C549.333 15.688 547.437 17.68 544.821 17.68ZM565.452 22.6H567.252V17.2H565.188V6.88H563.196V17.2H556.356V6.88H554.364V19H565.452V22.6ZM570.528 19.312C571.296 19.312 571.848 18.76 571.848 17.992C571.848 17.224 571.296 16.672 570.528 16.672C569.736 16.672 569.208 17.224 569.208 17.992C569.208 18.76 569.736 19.312 570.528 19.312ZM580.067 19.48C582.947 19.48 585.467 17.632 586.019 15.04L584.075 14.8C583.571 16.504 581.963 17.68 580.067 17.68C577.595 17.68 575.747 15.736 575.747 12.928C575.723 10.144 577.619 8.2 580.091 8.2C581.939 8.2 583.595 9.376 584.051 11.128L585.971 10.864C585.539 8.272 583.043 6.4 580.067 6.4C576.419 6.4 573.755 9.136 573.755 12.928C573.731 16.72 576.395 19.48 580.067 19.48ZM595.003 19.48C597.691 19.48 599.875 18.232 600.835 16.168L599.179 15.328C598.435 16.768 596.851 17.68 595.027 17.68C592.579 17.68 590.803 16.048 590.515 13.6H601.243C601.267 13.336 601.267 13.048 601.267 12.808C601.267 9.088 598.579 6.4 594.883 6.4C591.139 6.4 588.451 9.088 588.451 12.784C588.451 16.672 591.211 19.48 595.003 19.48ZM590.539 11.848C590.875 9.664 592.555 8.2 594.811 8.2C597.091 8.2 598.819 9.664 599.155 11.848H590.539ZM607.147 19H609.139V8.68H613.507V6.88H602.755V8.68H607.147V19ZM615.216 19H617.664L621.288 14.536H623.4V19H625.392V6.88H620.016C617.136 6.88 615.24 8.44 615.24 10.696C615.24 12.616 616.536 14.272 619.08 14.512L615.216 19ZM620.016 12.736C618.312 12.736 617.232 11.92 617.232 10.696C617.232 9.472 618.336 8.68 620.016 8.68H623.4V12.736H620.016ZM627.547 19H629.755L633.235 14.056H633.475L636.955 19H639.163L634.603 12.688L638.923 6.88H636.787L633.475 11.392H633.235L629.923 6.88H627.787L632.107 12.688L627.547 19Z" fill="white"/>
<path d="M5.832 64.664H7.896V60.176H12.504V58.376H7.896V54.104H5.832V58.376H1.224V60.176H5.832V64.664ZM16.6864 68H19.0624L25.6624 52.376V51.08H14.2144V53H23.0464L16.6864 68ZM39.7403 50.456C36.0443 50.456 33.3563 52.856 33.3563 56.192C33.3563 59.384 35.8523 61.736 39.2843 61.736C39.7883 61.736 40.4363 61.664 41.1083 61.352L36.1163 67.976H38.7563L44.3003 60.656C45.5723 58.952 46.1483 57.368 46.1483 55.976C46.1483 52.928 43.4603 50.456 39.7403 50.456ZM39.6683 52.376C42.1643 52.352 43.9643 53.984 43.9643 56.192C43.9643 58.328 42.1643 59.912 39.6683 59.888C37.2923 59.888 35.5403 58.328 35.5403 56.192C35.5403 54.008 37.2683 52.4 39.6683 52.376ZM55.2878 68.576C59.0318 68.576 61.7198 66.488 61.7198 63.56C61.7198 61.376 60.2558 59.576 58.1918 59.096V58.856C59.7278 58.328 60.9998 56.792 60.9998 55.016C60.9998 52.328 58.5998 50.456 55.2878 50.456C51.9518 50.456 49.5518 52.328 49.5518 55.016C49.5518 56.792 50.8238 58.328 52.3358 58.856V59.096C50.2958 59.576 48.8318 61.376 48.8318 63.56C48.8318 66.464 51.5438 68.576 55.2878 68.576ZM55.2878 58.112C53.2238 58.112 51.7598 56.888 51.7598 55.232C51.7598 53.576 53.2238 52.376 55.2878 52.376C57.3038 52.376 58.7918 53.576 58.7918 55.232C58.7918 56.888 57.3038 58.112 55.2878 58.112ZM55.2878 66.656C52.9358 66.656 51.2318 65.264 51.2318 63.344C51.2318 61.424 52.9358 60.032 55.2878 60.032C57.5918 60.032 59.3438 61.424 59.3438 63.344C59.3438 65.264 57.6158 66.656 55.2878 66.656ZM66.1395 68H68.5155L75.1155 52.376V51.08H63.6675V53H72.4995L66.1395 68ZM89.2414 68.6C92.9374 68.6 95.6014 66.176 95.6014 62.84C95.6014 59.648 93.1294 57.296 89.6974 57.296C89.1694 57.296 88.5214 57.392 87.8494 57.68L92.8414 51.056L90.2254 51.08L84.6814 58.376C83.3854 60.08 82.8334 61.664 82.8334 63.08C82.8334 66.128 85.5214 68.6 89.2414 68.6ZM89.2894 66.656C86.7934 66.68 85.0174 65.072 85.0174 62.864C85.0174 60.704 86.7934 59.12 89.3134 59.144C91.6894 59.144 93.4174 60.704 93.4174 62.84C93.4174 65.048 91.6894 66.632 89.2894 66.656ZM104.476 68.6C107.98 68.6 110.572 66.248 110.572 62.984C110.572 59.672 108.1 57.272 104.212 57.272H101.764L102.22 53H109.204V51.08H100.444L99.5563 59.192H103.996C106.78 59.192 108.436 60.824 108.436 63.032C108.436 65.144 106.756 66.68 104.452 66.68C102.124 66.68 100.348 64.832 100.324 62.336H98.1403C98.2843 65.96 100.948 68.6 104.476 68.6ZM113.379 68H124.971V66.08H117.099V65.84L121.683 61.544C124.011 59.336 125.259 57.752 125.259 55.76C125.259 52.688 122.811 50.48 119.475 50.48C115.971 50.48 113.403 53.096 113.403 56.696H115.515C115.635 54.224 117.291 52.4 119.499 52.4C121.515 52.4 123.075 53.888 123.075 55.904C123.075 57.584 121.851 58.664 120.459 60.032L113.379 66.824V68ZM133.793 68H145.385V66.08H137.513V65.84L142.097 61.544C144.425 59.336 145.673 57.752 145.673 55.76C145.673 52.688 143.225 50.48 139.889 50.48C136.385 50.48 133.817 53.096 133.817 56.696H135.929C136.049 54.224 137.705 52.4 139.913 52.4C141.929 52.4 143.489 53.888 143.489 55.904C143.489 57.584 142.265 58.664 140.873 60.032L133.793 66.824V68ZM155.839 68H158.023V64.256H160.135V62.336H158.023V51.08H154.687L147.487 62.864V64.256H155.839V68ZM150.127 62.336L155.599 53.288H155.815V62.336H150.127ZM176.487 68H178.671V64.256H180.783V62.336H178.671V51.08H175.335L168.135 62.864V64.256H176.487V68ZM170.775 62.336L176.247 53.288H176.463V62.336H170.775ZM191.136 68H193.32V64.256H195.432V62.336H193.32V51.08H189.984L182.784 62.864V64.256H191.136V68ZM185.424 62.336L190.896 53.288H191.112V62.336H185.424Z" fill="#45F7E1"/>
<path d="M9.752 117.48C12.44 117.48 14.624 116.232 15.608 114.168L13.952 113.328C13.184 114.768 11.6 115.68 9.8 115.68C7.328 115.68 5.552 114.048 5.264 111.6H15.992C16.016 111.336 16.016 111.048 16.016 110.808C16.016 107.088 13.352 104.4 9.656 104.4C5.912 104.4 3.224 107.088 3.224 110.784C3.224 114.672 5.96 117.48 9.752 117.48ZM5.288 109.848C5.624 107.664 7.328 106.2 9.56 106.2C11.864 106.2 13.568 107.664 13.928 109.848H5.288ZM22.4664 117.384C24.4104 117.384 25.8264 116.616 26.6904 115.224H26.9064V117H28.8984V108.96C28.8984 106.2 26.9064 104.424 23.7624 104.424C20.7144 104.424 18.7224 106.056 18.7224 108.624H20.7384C20.7144 107.112 21.9144 106.224 23.7384 106.224C25.7304 106.224 26.9064 107.28 26.9064 108.912V109.392L23.5464 109.8C19.9464 110.208 18.1224 111.792 18.1224 113.928C18.1224 116.016 19.8504 117.384 22.4664 117.384ZM22.7544 115.728C21.1224 115.728 20.1144 115.032 20.1144 113.88C20.1144 112.752 21.0744 111.792 23.5464 111.48L26.9064 111.096V112.176C26.9064 114.216 25.2264 115.728 22.7544 115.728ZM37.316 117.48C40.412 117.48 42.26 116.112 42.26 113.736C42.26 110.832 39.644 110.256 37.364 109.968C35.564 109.752 33.932 109.632 33.932 108.12C33.932 106.872 35.132 106.08 36.884 106.08C38.756 106.08 40.028 107.016 40.052 108.504H41.996C41.996 106.008 39.932 104.4 36.908 104.4C34.004 104.4 32.036 105.84 32.036 108.192C32.036 110.952 34.652 111.552 36.908 111.816C38.732 112.056 40.388 112.176 40.388 113.76C40.388 115.032 39.212 115.8 37.388 115.8C35.108 115.8 33.764 114.624 33.74 112.896H31.82C31.82 115.776 33.836 117.48 37.316 117.48ZM46.6021 122.376C49.2181 122.376 50.1781 119.88 51.2581 117.192L56.0581 104.88H53.9221L50.3701 114.36H50.1301L45.9781 104.88H43.8901L49.2901 116.976C48.5701 118.68 48.0901 120.6 46.2901 120.6C45.8341 120.6 45.2341 120.456 44.6821 120.24V121.992C45.2341 122.232 46.0021 122.376 46.6021 122.376ZM57.419 117.312C58.187 117.312 58.739 116.76 58.739 115.992C58.739 115.224 58.187 114.672 57.419 114.672C56.627 114.672 56.099 115.224 56.099 115.992C56.099 116.76 56.627 117.312 57.419 117.312ZM61.8811 117H63.8731V106.464H66.9451V104.88H63.8731V102.624C63.8731 101.448 64.5931 100.68 65.6491 100.68C66.1291 100.68 66.5611 100.776 66.9691 100.896V99.168C66.4171 99 65.8171 98.88 65.1211 98.88C63.2011 98.88 61.8811 100.272 61.8811 102.432V104.88H59.9371V106.464H61.8811V117ZM69.7543 117H71.7463V99.36H69.7543V117ZM81.3301 117.48C84.0181 117.48 86.2021 116.232 87.1861 114.168L85.5301 113.328C84.7621 114.768 83.1781 115.68 81.3781 115.68C78.9061 115.68 77.1301 114.048 76.8421 111.6H87.5701C87.5941 111.336 87.5941 111.048 87.5941 110.808C87.5941 107.088 84.9301 104.4 81.2341 104.4C77.4901 104.4 74.8021 107.088 74.8021 110.784C74.8021 114.672 77.5381 117.48 81.3301 117.48ZM76.8661 109.848C77.2021 107.664 78.9061 106.2 81.1381 106.2C83.4421 106.2 85.1461 107.664 85.5061 109.848H76.8661ZM88.8907 117H91.0987L94.5787 112.056H94.8187L98.2987 117H100.507L95.9467 110.688L100.267 104.88H98.1307L94.8187 109.392H94.5787L91.2667 104.88H89.1307L93.4507 110.688L88.8907 117ZM112.308 121.368C113.388 121.368 114.804 121.128 115.812 120.624V118.848C115.068 119.28 113.604 119.64 112.308 119.64C107.508 119.64 104.028 115.92 104.028 110.76C104.028 105.696 107.796 102.024 112.956 102.024C118.14 102.024 121.884 105.696 121.884 110.76C121.884 113.976 121.188 115.56 119.676 115.56C118.716 115.56 118.164 114.912 118.164 113.784V108.84C118.164 106.032 116.076 104.328 112.884 104.328C109.836 104.328 107.988 105.96 107.988 108.504H110.004C109.98 106.848 110.988 106.128 112.932 106.128C114.996 106.128 116.172 106.896 116.172 108.792V109.344L112.86 109.728C109.308 110.112 107.388 111.552 107.388 113.784C107.388 115.92 109.188 117.384 111.756 117.384C113.868 117.384 115.524 116.448 116.316 114.816H116.556C116.844 116.304 117.876 117.168 119.628 117.168C122.412 117.168 123.852 114.912 123.852 110.76C123.852 104.712 119.292 100.32 112.956 100.32C106.644 100.32 102.084 104.712 102.084 110.76C102.084 116.904 106.38 121.368 112.308 121.368ZM112.116 115.728C110.58 115.728 109.38 115.032 109.38 113.76C109.38 112.536 110.412 111.576 112.86 111.288L116.172 110.928V112.056C116.172 114.096 114.516 115.728 112.116 115.728ZM132.798 123C136.71 123 139.254 120.576 139.254 116.784V104.88H137.286V106.608H137.046C136.014 105.264 134.55 104.424 132.606 104.424C128.958 104.424 126.318 107.184 126.318 110.928C126.318 114.648 128.958 117.312 132.606 117.312C134.502 117.312 135.966 116.496 137.022 115.152H137.262V116.784C137.262 119.496 135.534 121.2 132.894 121.2C130.734 121.2 129.198 120.096 128.55 118.224L126.558 118.968C127.374 121.488 129.678 123 132.798 123ZM132.822 115.56C130.206 115.56 128.31 113.592 128.31 110.928C128.31 108.192 130.206 106.2 132.822 106.2C135.414 106.2 137.334 108.192 137.334 110.928C137.334 113.592 135.438 115.56 132.822 115.56ZM142.926 117H144.918V109.752C144.918 107.616 146.214 106.2 148.182 106.2C150.054 106.2 151.302 107.616 151.302 109.752V117H153.294V109.752C153.294 107.688 154.662 106.2 156.606 106.2C158.43 106.2 159.75 107.688 159.75 109.752V117H161.742V109.776C161.742 106.632 159.702 104.424 156.846 104.424C155.022 104.424 153.63 105.336 152.79 106.752H152.574C151.878 105.336 150.318 104.4 148.614 104.4C147.03 104.4 145.758 105.24 145.086 106.488H144.846V104.88H142.926V117ZM168.576 117.384C170.52 117.384 171.936 116.616 172.8 115.224H173.016V117H175.008V108.96C175.008 106.2 173.016 104.424 169.872 104.424C166.824 104.424 164.832 106.056 164.832 108.624H166.848C166.824 107.112 168.024 106.224 169.848 106.224C171.84 106.224 173.016 107.28 173.016 108.912V109.392L169.656 109.8C166.056 110.208 164.232 111.792 164.232 113.928C164.232 116.016 165.96 117.384 168.576 117.384ZM168.864 115.728C167.232 115.728 166.224 115.032 166.224 113.88C166.224 112.752 167.184 111.792 169.656 111.48L173.016 111.096V112.176C173.016 114.216 171.336 115.728 168.864 115.728ZM179.657 102.576C180.497 102.576 181.073 101.976 181.073 101.136C181.073 100.32 180.497 99.744 179.657 99.744C178.817 99.744 178.217 100.32 178.217 101.136C178.217 101.976 178.817 102.576 179.657 102.576ZM178.649 117H180.641V104.88H178.649V117ZM184.528 117H186.52V99.36H184.528V117ZM190.896 117.312C191.664 117.312 192.216 116.76 192.216 115.992C192.216 115.224 191.664 114.672 190.896 114.672C190.104 114.672 189.576 115.224 189.576 115.992C189.576 116.76 190.104 117.312 190.896 117.312ZM200.434 117.48C203.338 117.48 205.834 115.632 206.386 113.064L204.418 112.8C203.938 114.504 202.33 115.68 200.434 115.68C197.962 115.68 196.114 113.736 196.114 110.928C196.09 108.144 197.986 106.2 200.458 106.2C202.306 106.2 203.962 107.376 204.394 109.128L206.338 108.864C205.882 106.272 203.41 104.4 200.434 104.4C196.762 104.4 194.122 107.136 194.122 110.928C194.098 114.72 196.762 117.48 200.434 117.48ZM215.298 117.48C219.09 117.48 221.802 114.768 221.802 110.928C221.802 107.112 219.09 104.4 215.298 104.4C211.482 104.4 208.794 107.112 208.794 110.928C208.794 114.768 211.482 117.48 215.298 117.48ZM215.298 115.68C212.658 115.68 210.786 113.688 210.786 110.928C210.786 108.192 212.658 106.2 215.298 106.2C217.914 106.2 219.81 108.192 219.81 110.928C219.81 113.688 217.914 115.68 215.298 115.68ZM224.84 117H226.832V109.752C226.832 107.616 228.128 106.2 230.096 106.2C231.968 106.2 233.216 107.616 233.216 109.752V117H235.208V109.752C235.208 107.688 236.576 106.2 238.52 106.2C240.344 106.2 241.664 107.688 241.664 109.752V117H243.656V109.776C243.656 106.632 241.616 104.424 238.76 104.424C236.936 104.424 235.544 105.336 234.704 106.752H234.488C233.792 105.336 232.232 104.4 230.528 104.4C228.944 104.4 227.672 105.24 227 106.488H226.76V104.88H224.84V117Z" fill="#45F7E1"/>
<path d="M464.28 66H466.464V49.08H464.28V66ZM470.598 66H472.59V58.92C472.59 56.808 474.342 55.224 476.382 55.224C478.47 55.224 479.694 56.712 479.694 58.752V66H481.686V58.752C481.686 55.68 479.718 53.424 476.646 53.424C475.038 53.424 473.694 54.192 472.83 55.536H472.59V53.88H470.598V66ZM490.097 66.48C493.193 66.48 495.041 65.112 495.041 62.736C495.041 59.832 492.425 59.256 490.145 58.968C488.345 58.752 486.713 58.632 486.713 57.12C486.713 55.872 487.913 55.08 489.665 55.08C491.537 55.08 492.809 56.016 492.833 57.504H494.777C494.777 55.008 492.713 53.4 489.689 53.4C486.785 53.4 484.817 54.84 484.817 57.192C484.817 59.952 487.433 60.552 489.689 60.816C491.513 61.056 493.169 61.176 493.169 62.76C493.169 64.032 491.993 64.8 490.169 64.8C487.889 64.8 486.545 63.624 486.521 61.896H484.601C484.601 64.776 486.617 66.48 490.097 66.48ZM502.599 66.456C503.199 66.456 503.991 66.336 504.567 66.144V64.536C504.111 64.68 503.487 64.776 503.127 64.776C501.975 64.776 501.255 63.96 501.255 62.808V55.464H504.375V53.88H501.255L501.279 49.968H499.719L499.263 53.88H497.295V55.464H499.263V62.88C499.263 65.016 500.559 66.456 502.599 66.456ZM510.966 66.384C512.91 66.384 514.326 65.616 515.19 64.224H515.406V66H517.398V57.96C517.398 55.2 515.406 53.424 512.262 53.424C509.214 53.424 507.222 55.056 507.222 57.624H509.238C509.214 56.112 510.414 55.224 512.238 55.224C514.23 55.224 515.406 56.28 515.406 57.912V58.392L512.046 58.8C508.446 59.208 506.622 60.792 506.622 62.928C506.622 65.016 508.35 66.384 510.966 66.384ZM511.254 64.728C509.622 64.728 508.614 64.032 508.614 62.88C508.614 61.752 509.574 60.792 512.046 60.48L515.406 60.096V61.176C515.406 63.216 513.726 64.728 511.254 64.728ZM526.704 72C530.616 72 533.16 69.576 533.16 65.784V53.88H531.192V55.608H530.952C529.92 54.264 528.456 53.424 526.512 53.424C522.864 53.424 520.224 56.184 520.224 59.928C520.224 63.648 522.864 66.312 526.512 66.312C528.408 66.312 529.872 65.496 530.928 64.152H531.168V65.784C531.168 68.496 529.44 70.2 526.8 70.2C524.64 70.2 523.104 69.096 522.456 67.224L520.464 67.968C521.28 70.488 523.584 72 526.704 72ZM526.728 64.56C524.112 64.56 522.216 62.592 522.216 59.928C522.216 57.192 524.112 55.2 526.728 55.2C529.32 55.2 531.24 57.192 531.24 59.928C531.24 62.592 529.344 64.56 526.728 64.56ZM536.832 66H538.824V59.472C538.824 57.072 540.096 55.44 541.92 55.44C542.376 55.44 543.096 55.536 543.72 55.8V53.952C543.36 53.76 542.784 53.64 542.232 53.64C540.888 53.64 539.544 54.408 538.992 55.512H538.776V53.88H536.832V66ZM549.404 66.384C551.348 66.384 552.764 65.616 553.628 64.224H553.844V66H555.836V57.96C555.836 55.2 553.844 53.424 550.7 53.424C547.652 53.424 545.66 55.056 545.66 57.624H547.676C547.652 56.112 548.852 55.224 550.676 55.224C552.668 55.224 553.844 56.28 553.844 57.912V58.392L550.484 58.8C546.884 59.208 545.06 60.792 545.06 62.928C545.06 65.016 546.788 66.384 549.404 66.384ZM549.692 64.728C548.06 64.728 547.052 64.032 547.052 62.88C547.052 61.752 548.012 60.792 550.484 60.48L553.844 60.096V61.176C553.844 63.216 552.164 64.728 549.692 64.728ZM559.286 66H561.278V58.752C561.278 56.616 562.574 55.2 564.542 55.2C566.414 55.2 567.662 56.616 567.662 58.752V66H569.654V58.752C569.654 56.688 571.022 55.2 572.966 55.2C574.79 55.2 576.11 56.688 576.11 58.752V66H578.102V58.776C578.102 55.632 576.062 53.424 573.206 53.424C571.382 53.424 569.99 54.336 569.15 55.752H568.934C568.238 54.336 566.678 53.4 564.974 53.4C563.39 53.4 562.118 54.24 561.446 55.488H561.206V53.88H559.286V66Z" fill="#45F7E1"/>
<path d="M464.28 108H466.488V100.2H474.096V98.28H466.488V93H475.056V91.08H464.28V108ZM480.755 108.384C482.699 108.384 484.115 107.616 484.979 106.224H485.195V108H487.187V99.96C487.187 97.2 485.195 95.424 482.051 95.424C479.003 95.424 477.011 97.056 477.011 99.624H479.027C479.003 98.112 480.203 97.224 482.027 97.224C484.019 97.224 485.195 98.28 485.195 99.912V100.392L481.835 100.8C478.235 101.208 476.411 102.792 476.411 104.928C476.411 107.016 478.139 108.384 480.755 108.384ZM481.043 106.728C479.411 106.728 478.403 106.032 478.403 104.88C478.403 103.752 479.363 102.792 481.835 102.48L485.195 102.096V103.176C485.195 105.216 483.515 106.728 481.043 106.728ZM496.325 108.48C499.229 108.48 501.725 106.632 502.277 104.064L500.309 103.8C499.829 105.504 498.221 106.68 496.325 106.68C493.853 106.68 492.005 104.736 492.005 101.928C491.981 99.144 493.877 97.2 496.349 97.2C498.197 97.2 499.853 98.376 500.285 100.128L502.229 99.864C501.773 97.272 499.301 95.4 496.325 95.4C492.653 95.4 490.013 98.136 490.013 101.928C489.989 105.72 492.653 108.48 496.325 108.48ZM511.236 108.48C513.924 108.48 516.108 107.232 517.092 105.168L515.436 104.328C514.668 105.768 513.084 106.68 511.284 106.68C508.812 106.68 507.036 105.048 506.748 102.6H517.476C517.5 102.336 517.5 102.048 517.5 101.808C517.5 98.088 514.836 95.4 511.14 95.4C507.396 95.4 504.708 98.088 504.708 101.784C504.708 105.672 507.444 108.48 511.236 108.48ZM506.772 100.848C507.108 98.664 508.812 97.2 511.044 97.2C513.348 97.2 515.052 98.664 515.412 100.848H506.772ZM527.215 108.48C530.743 108.48 533.479 105.72 533.479 101.928C533.479 98.136 530.767 95.4 527.239 95.4C525.295 95.4 523.663 96.216 522.775 97.68H522.559V90.36H520.567V108H522.559V106.128H522.775C523.663 107.616 525.223 108.48 527.215 108.48ZM526.999 106.68C524.383 106.68 522.487 104.592 522.487 101.928C522.487 99.264 524.383 97.2 526.999 97.2C529.591 97.2 531.487 99.264 531.487 101.928C531.487 104.64 529.591 106.68 526.999 106.68ZM542.407 108.48C546.199 108.48 548.911 105.768 548.911 101.928C548.911 98.112 546.199 95.4 542.407 95.4C538.591 95.4 535.903 98.112 535.903 101.928C535.903 105.768 538.591 108.48 542.407 108.48ZM542.407 106.68C539.767 106.68 537.895 104.688 537.895 101.928C537.895 99.192 539.767 97.2 542.407 97.2C545.023 97.2 546.919 99.192 546.919 101.928C546.919 104.688 545.023 106.68 542.407 106.68ZM557.806 108.48C561.598 108.48 564.31 105.768 564.31 101.928C564.31 98.112 561.598 95.4 557.806 95.4C553.99 95.4 551.302 98.112 551.302 101.928C551.302 105.768 553.99 108.48 557.806 108.48ZM557.806 106.68C555.166 106.68 553.294 104.688 553.294 101.928C553.294 99.192 555.166 97.2 557.806 97.2C560.422 97.2 562.318 99.192 562.318 101.928C562.318 104.688 560.422 106.68 557.806 106.68ZM567.348 108H569.34V102.36H569.58L574.884 108H577.548L571.428 101.688L577.404 95.88H574.764L569.58 101.064H569.34V90.36H567.348V108Z" fill="#45F7E1"/>
<path d="M468.84 150H471.048V143.808L477.12 133.08H474.768L470.064 141.72H469.824L465.024 133.08H462.72L468.84 143.808V150ZM483.017 150.48C486.809 150.48 489.521 147.768 489.521 143.928C489.521 140.112 486.809 137.4 483.017 137.4C479.201 137.4 476.513 140.112 476.513 143.928C476.513 147.768 479.201 150.48 483.017 150.48ZM483.017 148.68C480.377 148.68 478.505 146.688 478.505 143.928C478.505 141.192 480.377 139.2 483.017 139.2C485.633 139.2 487.529 141.192 487.529 143.928C487.529 146.688 485.633 148.68 483.017 148.68ZM503.383 137.88H501.391V144.936C501.391 147.072 499.639 148.632 497.599 148.632C495.511 148.632 494.311 147.168 494.311 145.104V137.88H492.319V145.104C492.319 148.2 494.263 150.432 497.359 150.432C498.943 150.432 500.311 149.664 501.151 148.344H501.391V150H503.383V137.88ZM511.122 150H513.306V135H518.922V133.08H505.53V135H511.122V150ZM530.641 137.88H528.649V144.936C528.649 147.072 526.897 148.632 524.857 148.632C522.769 148.632 521.569 147.168 521.569 145.104V137.88H519.577V145.104C519.577 148.2 521.521 150.432 524.617 150.432C526.201 150.432 527.569 149.664 528.409 148.344H528.649V150H530.641V137.88ZM540.996 150.48C544.524 150.48 547.26 147.72 547.26 143.928C547.26 140.136 544.548 137.4 541.02 137.4C539.076 137.4 537.444 138.216 536.556 139.68H536.34V132.36H534.348V150H536.34V148.128H536.556C537.444 149.616 539.004 150.48 540.996 150.48ZM540.78 148.68C538.164 148.68 536.268 146.592 536.268 143.928C536.268 141.264 538.164 139.2 540.78 139.2C543.372 139.2 545.268 141.264 545.268 143.928C545.268 146.64 543.372 148.68 540.78 148.68ZM556.236 150.48C558.924 150.48 561.108 149.232 562.092 147.168L560.436 146.328C559.668 147.768 558.084 148.68 556.284 148.68C553.812 148.68 552.036 147.048 551.748 144.6H562.476C562.5 144.336 562.5 144.048 562.5 143.808C562.5 140.088 559.836 137.4 556.14 137.4C552.396 137.4 549.708 140.088 549.708 143.784C549.708 147.672 552.444 150.48 556.236 150.48ZM551.772 142.848C552.108 140.664 553.812 139.2 556.044 139.2C558.348 139.2 560.052 140.664 560.412 142.848H551.772Z" fill="#45F7E1"/>
<path d="M467.88 192H470.064V177H475.68V175.08H462.288V177H467.88V192ZM481.588 192.48C484.276 192.48 486.46 191.232 487.444 189.168L485.788 188.328C485.02 189.768 483.436 190.68 481.636 190.68C479.164 190.68 477.388 189.048 477.1 186.6H487.828C487.852 186.336 487.852 186.048 487.852 185.808C487.852 182.088 485.188 179.4 481.492 179.4C477.748 179.4 475.06 182.088 475.06 185.784C475.06 189.672 477.796 192.48 481.588 192.48ZM477.124 184.848C477.46 182.664 479.164 181.2 481.396 181.2C483.7 181.2 485.404 182.664 485.764 184.848H477.124ZM490.918 192H492.91V174.36H490.918V192ZM502.494 192.48C505.182 192.48 507.366 191.232 508.35 189.168L506.694 188.328C505.926 189.768 504.342 190.68 502.542 190.68C500.07 190.68 498.294 189.048 498.006 186.6H508.734C508.758 186.336 508.758 186.048 508.758 185.808C508.758 182.088 506.094 179.4 502.398 179.4C498.654 179.4 495.966 182.088 495.966 185.784C495.966 189.672 498.702 192.48 502.494 192.48ZM498.03 184.848C498.366 182.664 500.07 181.2 502.302 181.2C504.606 181.2 506.31 182.664 506.67 184.848H498.03ZM517.681 198C521.593 198 524.137 195.576 524.137 191.784V179.88H522.169V181.608H521.929C520.897 180.264 519.433 179.424 517.489 179.424C513.841 179.424 511.201 182.184 511.201 185.928C511.201 189.648 513.841 192.312 517.489 192.312C519.385 192.312 520.849 191.496 521.905 190.152H522.145V191.784C522.145 194.496 520.417 196.2 517.777 196.2C515.617 196.2 514.081 195.096 513.433 193.224L511.441 193.968C512.257 196.488 514.561 198 517.681 198ZM517.705 190.56C515.089 190.56 513.193 188.592 513.193 185.928C513.193 183.192 515.089 181.2 517.705 181.2C520.297 181.2 522.217 183.192 522.217 185.928C522.217 188.592 520.321 190.56 517.705 190.56ZM527.809 192H529.801V185.472C529.801 183.072 531.073 181.44 532.897 181.44C533.353 181.44 534.073 181.536 534.697 181.8V179.952C534.337 179.76 533.761 179.64 533.209 179.64C531.865 179.64 530.521 180.408 529.969 181.512H529.753V179.88H527.809V192ZM540.38 192.384C542.324 192.384 543.74 191.616 544.604 190.224H544.82V192H546.812V183.96C546.812 181.2 544.82 179.424 541.676 179.424C538.628 179.424 536.636 181.056 536.636 183.624H538.652C538.628 182.112 539.828 181.224 541.652 181.224C543.644 181.224 544.82 182.28 544.82 183.912V184.392L541.46 184.8C537.86 185.208 536.036 186.792 536.036 188.928C536.036 191.016 537.764 192.384 540.38 192.384ZM540.668 190.728C539.036 190.728 538.028 190.032 538.028 188.88C538.028 187.752 538.988 186.792 541.46 186.48L544.82 186.096V187.176C544.82 189.216 543.14 190.728 540.668 190.728ZM550.262 192H552.254V184.752C552.254 182.616 553.55 181.2 555.518 181.2C557.39 181.2 558.638 182.616 558.638 184.752V192H560.63V184.752C560.63 182.688 561.998 181.2 563.942 181.2C565.766 181.2 567.086 182.688 567.086 184.752V192H569.078V184.776C569.078 181.632 567.038 179.424 564.182 179.424C562.358 179.424 560.966 180.336 560.126 181.752H559.91C559.214 180.336 557.654 179.4 555.95 179.4C554.366 179.4 553.094 180.24 552.422 181.488H552.182V179.88H550.262V192Z" fill="#45F7E1"/>
</svg>
