<svg width="1440" height="1024" viewBox="0 0 1440 1024" fill="none" xmlns="http://www.w3.org/2000/svg">
<mask id="mask0_617_7" style="mask-type:alpha" maskUnits="userSpaceOnUse" x="0" y="0" width="1440" height="1024">
<rect width="1440" height="1024" fill="#C4C4C4"/>
</mask>
<g mask="url(#mask0_617_7)">
<path fill-rule="evenodd" clip-rule="evenodd" d="M188.852 287.536C188.948 287.866 189.282 288.052 189.598 287.951C196.685 285.686 204.354 285.571 211.831 285.479C212.445 285.471 213.09 285.45 213.756 285.427C215.168 285.38 216.676 285.33 218.186 285.403C220.399 285.51 222.482 285.883 224.064 286.859C224.596 287.188 224.833 287.5 224.927 287.753C225.016 287.994 225.009 288.272 224.868 288.62C224.565 289.366 223.728 290.23 222.585 291.102C220.618 292.603 218.078 293.889 217.036 294.417C216.887 294.492 216.769 294.552 216.687 294.595C202.126 302.231 185.053 302.655 168.97 302.372C168.639 302.366 168.367 302.641 168.361 302.986C168.355 303.331 168.618 303.615 168.948 303.621C185.019 303.904 202.369 303.501 217.222 295.712C217.294 295.674 217.402 295.62 217.541 295.549C218.557 295.036 221.221 293.689 223.289 292.111C224.446 291.228 225.528 290.193 225.969 289.107C226.199 288.538 226.269 287.917 226.042 287.302C225.819 286.699 225.344 286.198 224.673 285.783C222.835 284.649 220.513 284.265 218.243 284.155C216.687 284.08 215.092 284.133 213.656 284.18C213.005 284.202 212.386 284.223 211.818 284.23C204.372 284.321 196.528 284.43 189.249 286.756C188.934 286.857 188.756 287.206 188.852 287.536Z" fill="white"/>
<path fill-rule="evenodd" clip-rule="evenodd" d="M188.852 531.536C188.948 531.866 189.282 532.052 189.598 531.951C196.685 529.686 204.354 529.571 211.831 529.479C212.445 529.471 213.09 529.45 213.756 529.427C215.168 529.38 216.676 529.33 218.186 529.403C220.399 529.51 222.482 529.883 224.064 530.859C224.596 531.188 224.833 531.5 224.927 531.753C225.016 531.994 225.009 532.272 224.868 532.62C224.565 533.366 223.728 534.23 222.585 535.102C220.618 536.603 218.078 537.889 217.036 538.417C216.887 538.492 216.769 538.552 216.687 538.595C202.126 546.231 185.053 546.655 168.97 546.372C168.639 546.366 168.367 546.641 168.361 546.986C168.355 547.331 168.618 547.615 168.948 547.621C185.019 547.904 202.369 547.501 217.222 539.712C217.294 539.674 217.402 539.62 217.541 539.549C218.557 539.036 221.221 537.689 223.289 536.111C224.446 535.228 225.528 534.193 225.969 533.107C226.199 532.538 226.269 531.917 226.042 531.302C225.819 530.699 225.344 530.198 224.673 529.783C222.835 528.649 220.513 528.265 218.243 528.155C216.687 528.08 215.092 528.133 213.656 528.18C213.005 528.202 212.386 528.223 211.818 528.23C204.372 528.321 196.528 528.43 189.249 530.756C188.934 530.857 188.756 531.206 188.852 531.536Z" fill="white"/>
<path fill-rule="evenodd" clip-rule="evenodd" d="M758.852 287.536C758.948 287.866 759.282 288.052 759.598 287.951C766.685 285.686 774.354 285.571 781.831 285.479C782.445 285.471 783.09 285.45 783.756 285.427C785.168 285.38 786.676 285.33 788.186 285.403C790.399 285.51 792.482 285.883 794.064 286.859C794.596 287.188 794.833 287.5 794.927 287.753C795.016 287.994 795.009 288.272 794.868 288.62C794.565 289.366 793.728 290.23 792.585 291.102C790.618 292.603 788.078 293.889 787.036 294.417C786.887 294.492 786.769 294.552 786.687 294.595C772.126 302.231 755.053 302.655 738.97 302.372C738.639 302.366 738.367 302.641 738.361 302.986C738.355 303.331 738.618 303.615 738.948 303.621C755.019 303.904 772.369 303.501 787.222 295.712C787.294 295.674 787.402 295.62 787.541 295.549C788.557 295.036 791.221 293.689 793.289 292.111C794.446 291.228 795.528 290.193 795.969 289.107C796.199 288.538 796.269 287.917 796.042 287.302C795.819 286.699 795.344 286.198 794.673 285.783C792.835 284.649 790.513 284.265 788.243 284.155C786.687 284.08 785.092 284.133 783.656 284.18C783.005 284.202 782.386 284.223 781.818 284.23C774.372 284.321 766.528 284.43 759.249 286.756C758.934 286.857 758.756 287.206 758.852 287.536Z" fill="white"/>
<path fill-rule="evenodd" clip-rule="evenodd" d="M758.852 536.536C758.948 536.866 759.282 537.052 759.598 536.951C766.685 534.686 774.354 534.571 781.831 534.479C782.445 534.471 783.09 534.45 783.756 534.427C785.168 534.38 786.676 534.33 788.186 534.403C790.399 534.51 792.482 534.883 794.064 535.859C794.596 536.188 794.833 536.5 794.927 536.753C795.016 536.994 795.009 537.272 794.868 537.62C794.565 538.366 793.728 539.23 792.585 540.102C790.618 541.603 788.078 542.889 787.036 543.417C786.887 543.492 786.769 543.552 786.687 543.595C772.126 551.231 755.053 551.655 738.97 551.372C738.639 551.366 738.367 551.641 738.361 551.986C738.355 552.331 738.618 552.615 738.948 552.621C755.019 552.904 772.369 552.501 787.222 544.712C787.294 544.674 787.402 544.62 787.541 544.549C788.557 544.036 791.221 542.689 793.289 541.111C794.446 540.228 795.528 539.193 795.969 538.107C796.199 537.538 796.269 536.917 796.042 536.302C795.819 535.699 795.344 535.198 794.673 534.783C792.835 533.649 790.513 533.265 788.243 533.155C786.687 533.08 785.092 533.133 783.656 533.18C783.005 533.202 782.386 533.223 781.818 533.23C774.372 533.321 766.528 533.43 759.249 535.756C758.934 535.857 758.756 536.206 758.852 536.536Z" fill="white"/>
<path fill-rule="evenodd" clip-rule="evenodd" d="M524.852 780.536C524.948 780.866 525.282 781.052 525.598 780.951C532.685 778.687 540.354 778.571 547.831 778.479C548.445 778.472 549.09 778.45 549.756 778.428C551.168 778.381 552.676 778.33 554.186 778.403C556.399 778.511 558.482 778.883 560.064 779.859C560.596 780.188 560.833 780.5 560.927 780.754C561.016 780.995 561.009 781.273 560.868 781.621C560.565 782.367 559.728 783.231 558.585 784.103C556.618 785.604 554.078 786.89 553.036 787.418C552.887 787.493 552.769 787.553 552.687 787.596C538.126 795.232 521.053 795.656 504.97 795.373C504.639 795.367 504.367 795.642 504.361 795.987C504.355 796.332 504.618 796.616 504.948 796.622C521.019 796.904 538.369 796.502 553.222 788.712C553.294 788.675 553.402 788.62 553.541 788.55C554.557 788.036 557.221 786.69 559.289 785.111C560.446 784.229 561.528 783.194 561.969 782.107C562.199 781.539 562.269 780.917 562.042 780.302C561.819 779.699 561.344 779.198 560.673 778.784C558.835 777.649 556.513 777.266 554.243 777.156C552.687 777.08 551.092 777.133 549.656 777.181C549.005 777.203 548.386 777.223 547.818 777.23C540.372 777.322 532.528 777.431 525.249 779.757C524.934 779.857 524.756 780.207 524.852 780.536Z" fill="white"/>
<path fill-rule="evenodd" clip-rule="evenodd" d="M206.374 239.854C206.371 240.041 206.513 240.199 206.691 240.208C206.918 240.219 207.145 240.229 207.372 240.24C217.047 240.703 226.653 241.163 235.499 246.039C239.253 248.109 242.485 251.026 245.15 254.501C245.876 255.446 246.693 256.551 247.363 257.728C248.033 258.909 248.541 260.139 248.667 261.334C248.88 263.348 247.706 264.941 246.009 266.2C244.318 267.453 242.189 268.312 240.676 268.866C240.401 268.967 240.126 269.065 239.85 269.16C239.112 268.594 238.347 268.077 237.609 267.578C237.391 267.431 237.175 267.285 236.962 267.14C236.355 266.724 235.743 266.316 235.132 265.91C232.645 264.253 230.174 262.608 228.075 260.472C227.375 259.76 226.253 258.574 225.369 257.279C224.927 256.632 224.552 255.968 224.317 255.332C224.082 254.694 223.997 254.11 224.102 253.604C224.209 253.086 224.601 252.631 225.14 252.225C225.599 251.878 226.12 251.598 226.571 251.356C226.643 251.317 226.714 251.279 226.782 251.242C230.207 249.383 233.906 249.193 237.547 250.795C237.712 250.868 237.898 250.787 237.961 250.615C238.025 250.442 237.942 250.243 237.777 250.171C233.953 248.488 230.058 248.692 226.474 250.637C226.41 250.672 226.342 250.709 226.271 250.747C225.823 250.987 225.255 251.291 224.755 251.669C224.179 252.103 223.632 252.678 223.474 253.438C223.333 254.121 223.458 254.85 223.72 255.56C223.982 256.271 224.391 256.989 224.852 257.664C225.774 259.013 226.932 260.235 227.638 260.953C229.791 263.144 232.336 264.838 234.828 266.497C235.433 266.9 236.034 267.3 236.626 267.705C236.84 267.851 237.056 267.997 237.272 268.144C237.885 268.558 238.501 268.976 239.098 269.414C234.3 270.994 229.34 271.863 224.338 272.739C224.066 272.787 223.793 272.835 223.521 272.883C223.434 272.898 223.347 272.913 223.261 272.928C220.758 273.367 218.173 273.82 215.785 274.857C215.5 274.981 215.038 275.183 214.616 275.454C214.208 275.715 213.763 276.083 213.604 276.571C213.519 276.83 213.561 277.092 213.644 277.315C213.727 277.538 213.859 277.752 213.999 277.94C214.264 278.298 214.597 278.618 214.787 278.801C214.796 278.81 214.806 278.819 214.815 278.828C216.622 280.571 219.041 281.293 221.486 281.557C223.746 281.8 226.07 281.656 228.017 281.536C228.177 281.526 228.335 281.516 228.49 281.507C233.436 281.207 237.665 280.555 241.381 276.931L241.386 276.926C242.013 276.315 242.712 275.633 243.079 274.858C243.267 274.461 243.375 274.026 243.339 273.553C243.302 273.08 243.123 272.597 242.781 272.102C242.137 271.171 241.339 270.375 240.479 269.661C240.621 269.61 240.762 269.559 240.904 269.507C242.423 268.951 244.623 268.068 246.39 266.758C248.149 265.454 249.557 263.663 249.306 261.281C249.164 259.945 248.604 258.615 247.91 257.394C247.215 256.171 246.372 255.034 245.644 254.085C242.928 250.543 239.626 247.56 235.782 245.441C226.804 240.491 217.068 240.026 207.435 239.566C207.19 239.554 206.944 239.542 206.699 239.531C206.521 239.522 206.376 239.667 206.374 239.854ZM239.753 269.913C240.706 270.667 241.581 271.498 242.266 272.49C242.55 272.901 242.674 273.263 242.699 273.586C242.724 273.91 242.652 274.224 242.503 274.54C242.195 275.189 241.588 275.791 240.936 276.427C237.389 279.886 233.354 280.532 228.432 280.83C228.279 280.839 228.123 280.849 227.965 280.859C226.011 280.98 223.736 281.12 221.53 280.882C219.146 280.625 216.893 279.929 215.239 278.334L215.218 278.314C215.025 278.128 214.729 277.842 214.5 277.533C214.38 277.373 214.291 277.221 214.241 277.087C214.192 276.954 214.193 276.867 214.211 276.811C214.295 276.555 214.569 276.288 214.961 276.037C215.339 275.795 215.76 275.609 216.046 275.485C218.367 274.477 220.889 274.035 223.412 273.592C223.49 273.579 223.568 273.565 223.646 273.551C223.924 273.502 224.202 273.454 224.479 273.405C229.621 272.504 234.772 271.602 239.753 269.913Z" fill="white" stroke="#45F7E1" stroke-linecap="round"/>
<path fill-rule="evenodd" clip-rule="evenodd" d="M206.374 483.854C206.371 484.041 206.513 484.199 206.691 484.208C206.918 484.219 207.145 484.229 207.372 484.24C217.047 484.703 226.653 485.163 235.499 490.039C239.253 492.109 242.485 495.026 245.15 498.501C245.876 499.446 246.693 500.551 247.363 501.728C248.033 502.909 248.541 504.139 248.667 505.334C248.88 507.348 247.706 508.941 246.009 510.2C244.318 511.453 242.189 512.312 240.676 512.866C240.401 512.967 240.126 513.065 239.85 513.16C239.112 512.594 238.347 512.077 237.609 511.578C237.391 511.431 237.175 511.285 236.962 511.14C236.355 510.724 235.743 510.316 235.132 509.91C232.645 508.253 230.174 506.608 228.075 504.472C227.375 503.76 226.253 502.574 225.369 501.279C224.927 500.632 224.552 499.968 224.317 499.332C224.082 498.694 223.997 498.11 224.102 497.604C224.209 497.086 224.601 496.631 225.14 496.225C225.599 495.878 226.12 495.598 226.571 495.356C226.643 495.317 226.714 495.279 226.782 495.242C230.207 493.383 233.906 493.193 237.547 494.795C237.712 494.868 237.898 494.787 237.961 494.615C238.025 494.442 237.942 494.243 237.777 494.171C233.953 492.488 230.058 492.692 226.474 494.637C226.41 494.672 226.342 494.709 226.271 494.747C225.823 494.987 225.255 495.291 224.755 495.669C224.179 496.103 223.632 496.678 223.474 497.438C223.333 498.121 223.458 498.85 223.72 499.56C223.982 500.271 224.391 500.989 224.852 501.664C225.774 503.013 226.932 504.235 227.638 504.953C229.791 507.144 232.336 508.838 234.828 510.497C235.433 510.9 236.034 511.3 236.626 511.705C236.84 511.851 237.056 511.997 237.272 512.144C237.885 512.558 238.501 512.976 239.098 513.414C234.3 514.994 229.34 515.863 224.338 516.739C224.066 516.787 223.793 516.835 223.521 516.883C223.434 516.898 223.347 516.913 223.261 516.928C220.758 517.367 218.173 517.82 215.785 518.857C215.5 518.981 215.038 519.183 214.616 519.454C214.208 519.715 213.763 520.083 213.604 520.571C213.519 520.83 213.561 521.092 213.644 521.315C213.727 521.538 213.859 521.752 213.999 521.94C214.264 522.298 214.597 522.618 214.787 522.801C214.796 522.81 214.806 522.819 214.815 522.828C216.622 524.571 219.041 525.293 221.486 525.557C223.746 525.8 226.07 525.656 228.017 525.536C228.177 525.526 228.335 525.516 228.49 525.507C233.436 525.207 237.665 524.555 241.381 520.931L241.386 520.926C242.013 520.315 242.712 519.633 243.079 518.858C243.267 518.461 243.375 518.026 243.339 517.553C243.302 517.08 243.123 516.597 242.781 516.102C242.137 515.171 241.339 514.375 240.479 513.661C240.621 513.61 240.762 513.559 240.904 513.507C242.423 512.951 244.623 512.068 246.39 510.758C248.149 509.454 249.557 507.663 249.306 505.281C249.164 503.945 248.604 502.615 247.91 501.394C247.215 500.171 246.372 499.034 245.644 498.085C242.928 494.543 239.626 491.56 235.782 489.441C226.804 484.491 217.068 484.026 207.435 483.566C207.19 483.554 206.944 483.542 206.699 483.531C206.521 483.522 206.376 483.667 206.374 483.854ZM239.753 513.913C240.706 514.667 241.581 515.498 242.266 516.49C242.55 516.901 242.674 517.263 242.699 517.586C242.724 517.91 242.652 518.224 242.503 518.54C242.195 519.189 241.588 519.791 240.936 520.427C237.389 523.886 233.354 524.532 228.432 524.83C228.279 524.839 228.123 524.849 227.965 524.859C226.011 524.98 223.736 525.12 221.53 524.882C219.146 524.625 216.893 523.929 215.239 522.334L215.218 522.314C215.025 522.128 214.729 521.842 214.5 521.533C214.38 521.373 214.291 521.221 214.241 521.087C214.192 520.954 214.193 520.867 214.211 520.811C214.295 520.555 214.569 520.288 214.961 520.037C215.339 519.795 215.76 519.609 216.046 519.485C218.367 518.477 220.889 518.035 223.412 517.592C223.49 517.579 223.568 517.565 223.646 517.551C223.924 517.502 224.202 517.454 224.479 517.405C229.621 516.504 234.772 515.602 239.753 513.913Z" fill="white" stroke="#45F7E1" stroke-linecap="round"/>
<path fill-rule="evenodd" clip-rule="evenodd" d="M776.374 239.854C776.371 240.041 776.513 240.199 776.691 240.208C776.918 240.219 777.145 240.229 777.372 240.24C787.047 240.703 796.653 241.163 805.499 246.039C809.253 248.109 812.485 251.026 815.15 254.501C815.876 255.446 816.693 256.551 817.363 257.728C818.033 258.909 818.541 260.139 818.667 261.334C818.88 263.348 817.706 264.941 816.009 266.2C814.318 267.453 812.189 268.312 810.676 268.866C810.401 268.967 810.126 269.065 809.85 269.16C809.112 268.594 808.347 268.077 807.609 267.578C807.391 267.431 807.175 267.285 806.962 267.14C806.355 266.724 805.743 266.316 805.132 265.91C802.645 264.253 800.174 262.608 798.075 260.472C797.375 259.76 796.253 258.574 795.369 257.279C794.927 256.632 794.552 255.968 794.317 255.332C794.082 254.694 793.997 254.11 794.102 253.604C794.209 253.086 794.601 252.631 795.14 252.225C795.599 251.878 796.12 251.598 796.571 251.356C796.643 251.317 796.714 251.279 796.782 251.242C800.207 249.383 803.906 249.193 807.547 250.795C807.712 250.868 807.898 250.787 807.961 250.615C808.025 250.442 807.942 250.243 807.777 250.171C803.953 248.488 800.058 248.692 796.474 250.637C796.41 250.672 796.342 250.709 796.271 250.747C795.823 250.987 795.255 251.291 794.755 251.669C794.179 252.103 793.632 252.678 793.474 253.438C793.333 254.121 793.458 254.85 793.72 255.56C793.982 256.271 794.391 256.989 794.852 257.664C795.774 259.013 796.932 260.235 797.638 260.953C799.791 263.144 802.336 264.838 804.828 266.497C805.433 266.9 806.034 267.3 806.626 267.705C806.84 267.851 807.056 267.997 807.272 268.144C807.885 268.558 808.501 268.976 809.098 269.414C804.3 270.994 799.34 271.863 794.338 272.739C794.066 272.787 793.793 272.835 793.521 272.883C793.434 272.898 793.347 272.913 793.261 272.928C790.758 273.367 788.173 273.82 785.785 274.857C785.5 274.981 785.038 275.183 784.616 275.454C784.208 275.715 783.763 276.083 783.604 276.571C783.519 276.83 783.561 277.092 783.644 277.315C783.727 277.538 783.859 277.752 783.999 277.94C784.264 278.298 784.597 278.618 784.787 278.801C784.796 278.81 784.806 278.819 784.815 278.828C786.622 280.571 789.041 281.293 791.486 281.557C793.746 281.8 796.07 281.656 798.017 281.536C798.177 281.526 798.335 281.516 798.49 281.507C803.436 281.207 807.665 280.555 811.381 276.931L811.386 276.926C812.013 276.315 812.712 275.633 813.079 274.858C813.267 274.461 813.375 274.026 813.339 273.553C813.302 273.08 813.123 272.597 812.781 272.102C812.137 271.171 811.339 270.375 810.479 269.661C810.621 269.61 810.762 269.559 810.904 269.507C812.423 268.951 814.623 268.068 816.39 266.758C818.149 265.454 819.557 263.663 819.306 261.281C819.164 259.945 818.604 258.615 817.91 257.394C817.215 256.171 816.372 255.034 815.644 254.085C812.928 250.543 809.626 247.56 805.782 245.441C796.804 240.491 787.068 240.026 777.435 239.566C777.19 239.554 776.944 239.542 776.699 239.531C776.521 239.522 776.376 239.667 776.374 239.854ZM809.753 269.913C810.706 270.667 811.581 271.498 812.266 272.49C812.55 272.901 812.674 273.263 812.699 273.586C812.724 273.91 812.652 274.224 812.503 274.54C812.195 275.189 811.588 275.791 810.936 276.427C807.389 279.886 803.354 280.532 798.432 280.83C798.279 280.839 798.123 280.849 797.965 280.859C796.011 280.98 793.736 281.12 791.53 280.882C789.146 280.625 786.893 279.929 785.239 278.334L785.218 278.314C785.025 278.128 784.729 277.842 784.5 277.533C784.38 277.373 784.291 277.221 784.241 277.087C784.192 276.954 784.193 276.867 784.211 276.811C784.295 276.555 784.569 276.288 784.961 276.037C785.339 275.795 785.76 275.609 786.046 275.485C788.367 274.477 790.889 274.035 793.412 273.592C793.49 273.579 793.568 273.565 793.646 273.551C793.924 273.502 794.202 273.454 794.479 273.405C799.621 272.504 804.772 271.602 809.753 269.913Z" fill="white" stroke="#45F7E1" stroke-linecap="round"/>
<path fill-rule="evenodd" clip-rule="evenodd" d="M776.374 488.854C776.371 489.041 776.513 489.199 776.691 489.208C776.918 489.219 777.145 489.229 777.372 489.24C787.047 489.703 796.653 490.163 805.499 495.039C809.253 497.109 812.485 500.026 815.15 503.501C815.876 504.446 816.693 505.551 817.363 506.728C818.033 507.909 818.541 509.139 818.667 510.334C818.88 512.348 817.706 513.941 816.009 515.2C814.318 516.453 812.189 517.312 810.676 517.866C810.401 517.967 810.126 518.065 809.85 518.16C809.112 517.594 808.347 517.077 807.609 516.578C807.391 516.431 807.175 516.285 806.962 516.14C806.355 515.724 805.743 515.316 805.132 514.91C802.645 513.253 800.174 511.608 798.075 509.472C797.375 508.76 796.253 507.574 795.369 506.279C794.927 505.632 794.552 504.968 794.317 504.332C794.082 503.694 793.997 503.11 794.102 502.604C794.209 502.086 794.601 501.631 795.14 501.225C795.599 500.878 796.12 500.598 796.571 500.356C796.643 500.317 796.714 500.279 796.782 500.242C800.207 498.383 803.906 498.193 807.547 499.795C807.712 499.868 807.898 499.787 807.961 499.615C808.025 499.442 807.942 499.243 807.777 499.171C803.953 497.488 800.058 497.692 796.474 499.637C796.41 499.672 796.342 499.709 796.271 499.747C795.823 499.987 795.255 500.291 794.755 500.669C794.179 501.103 793.632 501.678 793.474 502.438C793.333 503.121 793.458 503.85 793.72 504.56C793.982 505.271 794.391 505.989 794.852 506.664C795.774 508.013 796.932 509.235 797.638 509.953C799.791 512.144 802.336 513.838 804.828 515.497C805.433 515.9 806.034 516.3 806.626 516.705C806.84 516.851 807.056 516.997 807.272 517.144C807.885 517.558 808.501 517.976 809.098 518.414C804.3 519.994 799.34 520.863 794.338 521.739C794.066 521.787 793.793 521.835 793.521 521.883C793.434 521.898 793.347 521.913 793.261 521.928C790.758 522.367 788.173 522.82 785.785 523.857C785.5 523.981 785.038 524.183 784.616 524.454C784.208 524.715 783.763 525.083 783.604 525.571C783.519 525.83 783.561 526.092 783.644 526.315C783.727 526.538 783.859 526.752 783.999 526.94C784.264 527.298 784.597 527.618 784.787 527.801C784.796 527.81 784.806 527.819 784.815 527.828C786.622 529.571 789.041 530.293 791.486 530.557C793.746 530.8 796.07 530.656 798.017 530.536C798.177 530.526 798.335 530.516 798.49 530.507C803.436 530.207 807.665 529.555 811.381 525.931L811.386 525.926C812.013 525.315 812.712 524.633 813.079 523.858C813.267 523.461 813.375 523.026 813.339 522.553C813.302 522.08 813.123 521.597 812.781 521.102C812.137 520.171 811.339 519.375 810.479 518.661C810.621 518.61 810.762 518.559 810.904 518.507C812.423 517.951 814.623 517.068 816.39 515.758C818.149 514.454 819.557 512.663 819.306 510.281C819.164 508.945 818.604 507.615 817.91 506.394C817.215 505.171 816.372 504.034 815.644 503.085C812.928 499.543 809.626 496.56 805.782 494.441C796.804 489.491 787.068 489.026 777.435 488.566C777.19 488.554 776.944 488.542 776.699 488.531C776.521 488.522 776.376 488.667 776.374 488.854ZM809.753 518.913C810.706 519.667 811.581 520.498 812.266 521.49C812.55 521.901 812.674 522.263 812.699 522.586C812.724 522.91 812.652 523.224 812.503 523.54C812.195 524.189 811.588 524.791 810.936 525.427C807.389 528.886 803.354 529.532 798.432 529.83C798.279 529.839 798.123 529.849 797.965 529.859C796.011 529.98 793.736 530.12 791.53 529.882C789.146 529.625 786.893 528.929 785.239 527.334L785.218 527.314C785.025 527.128 784.729 526.842 784.5 526.533C784.38 526.373 784.291 526.221 784.241 526.087C784.192 525.954 784.193 525.867 784.211 525.811C784.295 525.555 784.569 525.288 784.961 525.037C785.339 524.795 785.76 524.609 786.046 524.485C788.367 523.477 790.889 523.035 793.412 522.592C793.49 522.579 793.568 522.565 793.646 522.551C793.924 522.502 794.202 522.454 794.479 522.405C799.621 521.504 804.772 520.602 809.753 518.913Z" fill="white" stroke="#45F7E1" stroke-linecap="round"/>
<path fill-rule="evenodd" clip-rule="evenodd" d="M542.374 732.854C542.371 733.041 542.513 733.2 542.691 733.208C542.918 733.219 543.145 733.23 543.372 733.241C553.047 733.704 562.653 734.163 571.499 739.04C575.253 741.109 578.485 744.027 581.15 747.501C581.876 748.446 582.693 749.551 583.363 750.729C584.033 751.909 584.541 753.139 584.667 754.335C584.88 756.349 583.706 757.942 582.009 759.2C580.318 760.453 578.189 761.312 576.676 761.866C576.401 761.967 576.126 762.065 575.85 762.161C575.112 761.595 574.347 761.078 573.609 760.579C573.391 760.431 573.175 760.285 572.962 760.14C572.355 759.724 571.743 759.317 571.132 758.91C568.645 757.254 566.174 755.608 564.075 753.473C563.375 752.76 562.253 751.575 561.369 750.28C560.927 749.633 560.552 748.969 560.317 748.333C560.082 747.695 559.997 747.11 560.102 746.604C560.209 746.086 560.601 745.632 561.14 745.225C561.599 744.878 562.12 744.598 562.571 744.357C562.643 744.318 562.714 744.28 562.782 744.243C566.207 742.383 569.906 742.193 573.547 743.795C573.712 743.868 573.898 743.788 573.961 743.615C574.025 743.443 573.942 743.244 573.777 743.171C569.953 741.489 566.058 741.692 562.474 743.638C562.41 743.673 562.342 743.709 562.271 743.747C561.823 743.987 561.255 744.292 560.755 744.67C560.179 745.104 559.632 745.679 559.474 746.439C559.333 747.121 559.458 747.851 559.72 748.56C559.982 749.272 560.391 749.989 560.852 750.664C561.774 752.013 562.932 753.235 563.638 753.953C565.791 756.144 568.336 757.838 570.828 759.498C571.433 759.9 572.034 760.3 572.626 760.705C572.84 760.852 573.056 760.998 573.272 761.144C573.885 761.559 574.501 761.976 575.098 762.415C570.3 763.994 565.34 764.863 560.338 765.74C560.066 765.787 559.793 765.835 559.521 765.883C559.434 765.898 559.347 765.913 559.261 765.929C556.758 766.368 554.173 766.821 551.785 767.858C551.5 767.981 551.038 768.184 550.616 768.454C550.208 768.715 549.763 769.083 549.604 769.572C549.519 769.83 549.561 770.092 549.644 770.316C549.727 770.539 549.859 770.752 549.999 770.941C550.264 771.298 550.597 771.618 550.787 771.801C550.796 771.811 550.806 771.819 550.815 771.828C552.622 773.572 555.041 774.293 557.486 774.557C559.746 774.801 562.07 774.657 564.017 774.536C564.177 774.526 564.335 774.516 564.49 774.507C569.436 774.207 573.665 773.555 577.381 769.932L577.386 769.927C578.013 769.315 578.712 768.633 579.079 767.859C579.267 767.461 579.375 767.026 579.339 766.554C579.302 766.08 579.123 765.598 578.781 765.103C578.137 764.172 577.339 763.375 576.479 762.661C576.621 762.611 576.762 762.559 576.904 762.508C578.423 761.951 580.623 761.068 582.39 759.759C584.149 758.455 585.557 756.663 585.306 754.282C585.164 752.946 584.604 751.615 583.91 750.395C583.215 749.171 582.372 748.034 581.644 747.085C578.928 743.544 575.626 740.56 571.782 738.441C562.804 733.492 553.068 733.027 543.435 732.566C543.19 732.555 542.944 732.543 542.699 732.531C542.521 732.522 542.376 732.667 542.374 732.854ZM575.753 762.913C576.706 763.668 577.581 764.499 578.266 765.49C578.55 765.901 578.674 766.263 578.699 766.587C578.724 766.911 578.652 767.224 578.503 767.54C578.195 768.19 577.588 768.792 576.936 769.427C573.389 772.887 569.354 773.532 564.432 773.83C564.279 773.84 564.123 773.849 563.965 773.859C562.011 773.98 559.736 774.121 557.53 773.883C555.146 773.626 552.893 772.93 551.239 771.335L551.218 771.314C551.025 771.128 550.729 770.843 550.5 770.533C550.38 770.373 550.291 770.221 550.241 770.088C550.192 769.954 550.193 769.868 550.211 769.811C550.295 769.556 550.569 769.288 550.961 769.037C551.339 768.796 551.76 768.61 552.046 768.486C554.367 767.478 556.889 767.035 559.412 766.593C559.49 766.579 559.568 766.565 559.646 766.552C559.924 766.503 560.202 766.454 560.479 766.406C565.621 765.505 570.772 764.602 575.753 762.913Z" fill="white" stroke="#45F7E1" stroke-linecap="round"/>
<path fill-rule="evenodd" clip-rule="evenodd" d="M175.965 233.593C175.941 233.644 175.959 233.705 176.007 233.731C177.038 234.289 178.07 234.831 179.099 235.372C181.555 236.662 183.998 237.946 186.382 239.417C191.091 242.322 195.53 245.622 199.86 249.117C206.355 254.36 212.97 259.739 218.672 265.928C220.536 267.95 221.456 269.096 222.465 271.468C223.043 272.828 223.235 274.024 222.932 274.926C222.633 275.818 221.84 276.456 220.367 276.677C218.18 277.005 215.942 277.013 213.712 277.02C212.91 277.023 212.109 277.026 211.312 277.044C211.13 277.048 210.924 277.051 210.697 277.054C209.002 277.079 206.171 277.121 203.789 277.72C202.44 278.06 201.221 278.582 200.434 279.394C200.087 279.753 199.823 280.169 199.672 280.651C197.036 280.311 194.332 280.496 191.55 281.317C189.037 282.058 186.5 283.268 185.786 286.118C185.772 286.173 185.804 286.229 185.856 286.243C185.908 286.257 185.961 286.225 185.975 286.17C186.659 283.437 189.094 282.254 191.603 281.513C194.346 280.703 197.014 280.518 199.616 280.849C199.616 280.85 199.616 280.85 199.616 280.85C199.479 281.417 199.492 282.063 199.686 282.798C200.261 284.972 201.9 286.839 203.85 288.314C205.802 289.791 208.078 290.884 209.946 291.508C210.533 291.704 211.952 292.161 213.142 292.233C213.734 292.268 214.292 292.21 214.66 291.955C214.847 291.825 214.985 291.643 215.05 291.402C215.115 291.163 215.107 290.874 215.018 290.529C214.603 288.92 213.632 287.597 212.448 286.496C211.263 285.395 209.86 284.511 208.574 283.782C205.754 282.182 202.856 281.093 199.869 280.677C200.012 280.246 200.252 279.869 200.571 279.539C201.32 278.766 202.497 278.256 203.835 277.919C206.193 277.325 209 277.283 210.698 277.258C210.925 277.255 211.132 277.252 211.316 277.248C212.105 277.23 212.901 277.227 213.701 277.225C215.934 277.217 218.193 277.209 220.394 276.879C221.91 276.652 222.785 275.982 223.116 274.994C223.444 274.017 223.228 272.761 222.643 271.385C221.621 268.982 220.683 267.816 218.813 265.786C213.099 259.585 206.473 254.197 199.979 248.956C195.646 245.457 191.199 242.152 186.481 239.241C184.091 237.766 181.639 236.478 179.18 235.186C178.152 234.646 177.123 234.105 176.097 233.55C176.049 233.524 175.99 233.543 175.965 233.593ZM199.811 280.875C202.783 281.284 205.669 282.366 208.481 283.961C209.763 284.689 211.151 285.564 212.318 286.649C213.485 287.734 214.428 289.025 214.83 290.582C214.913 290.904 214.915 291.154 214.863 291.347C214.811 291.537 214.704 291.679 214.552 291.785C214.24 292.001 213.738 292.064 213.154 292.029C211.991 291.959 210.594 291.51 210.006 291.314C208.153 290.696 205.897 289.611 203.964 288.149C202.03 286.685 200.432 284.853 199.874 282.744C199.687 282.036 199.678 281.426 199.805 280.9C199.807 280.892 199.809 280.883 199.811 280.875Z" fill="#45F7E1" stroke="#45F7E1" stroke-width="0.5" stroke-linecap="round"/>
<path fill-rule="evenodd" clip-rule="evenodd" d="M175.965 477.593C175.941 477.644 175.959 477.705 176.007 477.731C177.038 478.289 178.07 478.831 179.099 479.372C181.555 480.662 183.998 481.946 186.382 483.417C191.091 486.322 195.53 489.622 199.86 493.117C206.355 498.36 212.97 503.739 218.672 509.928C220.536 511.95 221.456 513.096 222.465 515.468C223.043 516.828 223.235 518.024 222.932 518.926C222.633 519.818 221.84 520.456 220.367 520.677C218.18 521.005 215.942 521.013 213.712 521.02C212.91 521.023 212.109 521.026 211.312 521.044C211.13 521.048 210.924 521.051 210.697 521.054C209.002 521.079 206.171 521.121 203.789 521.72C202.44 522.06 201.221 522.582 200.434 523.394C200.087 523.753 199.823 524.169 199.672 524.651C197.036 524.311 194.332 524.496 191.55 525.317C189.037 526.058 186.5 527.268 185.786 530.118C185.772 530.173 185.804 530.229 185.856 530.243C185.908 530.257 185.961 530.225 185.975 530.17C186.659 527.437 189.094 526.254 191.603 525.513C194.346 524.703 197.014 524.518 199.616 524.849C199.616 524.85 199.616 524.85 199.616 524.85C199.479 525.417 199.492 526.063 199.686 526.798C200.261 528.972 201.9 530.839 203.85 532.314C205.802 533.791 208.078 534.884 209.946 535.508C210.533 535.704 211.952 536.161 213.142 536.233C213.734 536.268 214.292 536.21 214.66 535.955C214.847 535.825 214.985 535.643 215.05 535.402C215.115 535.163 215.107 534.874 215.018 534.529C214.603 532.92 213.632 531.597 212.448 530.496C211.263 529.395 209.86 528.511 208.574 527.782C205.754 526.182 202.856 525.093 199.869 524.677C200.012 524.246 200.252 523.869 200.571 523.539C201.32 522.766 202.497 522.256 203.835 521.919C206.193 521.325 209 521.283 210.698 521.258C210.925 521.255 211.132 521.252 211.316 521.248C212.105 521.23 212.901 521.227 213.701 521.225C215.934 521.217 218.193 521.209 220.394 520.879C221.91 520.652 222.785 519.982 223.116 518.994C223.444 518.017 223.228 516.761 222.643 515.385C221.621 512.982 220.683 511.816 218.813 509.786C213.099 503.585 206.473 498.197 199.979 492.956C195.646 489.457 191.199 486.152 186.481 483.241C184.091 481.766 181.639 480.478 179.18 479.186C178.152 478.646 177.123 478.105 176.097 477.55C176.049 477.524 175.99 477.543 175.965 477.593ZM199.811 524.875C202.783 525.284 205.669 526.366 208.481 527.961C209.763 528.689 211.151 529.564 212.318 530.649C213.485 531.734 214.428 533.025 214.83 534.582C214.913 534.904 214.915 535.154 214.863 535.347C214.811 535.537 214.704 535.679 214.552 535.785C214.24 536.001 213.738 536.064 213.154 536.029C211.991 535.959 210.594 535.51 210.006 535.314C208.153 534.696 205.897 533.611 203.964 532.149C202.03 530.685 200.432 528.853 199.874 526.744C199.687 526.036 199.678 525.426 199.805 524.9C199.807 524.892 199.809 524.883 199.811 524.875Z" fill="#45F7E1" stroke="white" stroke-width="0.5" stroke-linecap="round"/>
<path fill-rule="evenodd" clip-rule="evenodd" d="M745.965 233.593C745.941 233.644 745.959 233.705 746.007 233.731C747.038 234.289 748.07 234.831 749.099 235.372C751.555 236.662 753.998 237.946 756.382 239.417C761.091 242.322 765.53 245.622 769.86 249.117C776.355 254.36 782.97 259.739 788.672 265.928C790.536 267.95 791.456 269.096 792.465 271.468C793.043 272.828 793.235 274.024 792.932 274.926C792.633 275.818 791.84 276.456 790.367 276.677C788.18 277.005 785.942 277.013 783.712 277.02C782.91 277.023 782.109 277.026 781.312 277.044C781.13 277.048 780.924 277.051 780.697 277.054C779.002 277.079 776.171 277.121 773.789 277.72C772.44 278.06 771.221 278.582 770.434 279.394C770.087 279.753 769.823 280.169 769.672 280.651C767.036 280.311 764.332 280.496 761.55 281.317C759.037 282.058 756.5 283.268 755.786 286.118C755.772 286.173 755.804 286.229 755.856 286.243C755.908 286.257 755.961 286.225 755.975 286.17C756.659 283.437 759.094 282.254 761.603 281.513C764.346 280.703 767.014 280.518 769.616 280.849C769.616 280.85 769.616 280.85 769.616 280.85C769.479 281.417 769.492 282.063 769.686 282.798C770.261 284.972 771.9 286.839 773.85 288.314C775.802 289.791 778.078 290.884 779.946 291.508C780.533 291.704 781.952 292.161 783.142 292.233C783.734 292.268 784.292 292.21 784.66 291.955C784.847 291.825 784.985 291.643 785.05 291.402C785.115 291.163 785.107 290.874 785.018 290.529C784.603 288.92 783.632 287.597 782.448 286.496C781.263 285.395 779.86 284.511 778.574 283.782C775.754 282.182 772.856 281.093 769.869 280.677C770.012 280.246 770.252 279.869 770.571 279.539C771.32 278.766 772.497 278.256 773.835 277.919C776.193 277.325 779 277.283 780.698 277.258C780.925 277.255 781.132 277.252 781.316 277.248C782.105 277.23 782.901 277.227 783.701 277.225C785.934 277.217 788.193 277.209 790.394 276.879C791.91 276.652 792.785 275.982 793.116 274.994C793.444 274.017 793.228 272.761 792.643 271.385C791.621 268.982 790.683 267.816 788.813 265.786C783.099 259.585 776.473 254.197 769.979 248.956C765.646 245.457 761.199 242.152 756.481 239.241C754.091 237.766 751.639 236.478 749.18 235.186C748.152 234.646 747.123 234.105 746.097 233.55C746.049 233.524 745.99 233.543 745.965 233.593ZM769.811 280.875C772.783 281.284 775.669 282.366 778.481 283.961C779.763 284.689 781.151 285.564 782.318 286.649C783.485 287.734 784.428 289.025 784.83 290.582C784.913 290.904 784.915 291.154 784.863 291.347C784.811 291.537 784.704 291.679 784.552 291.785C784.24 292.001 783.738 292.064 783.154 292.029C781.991 291.959 780.594 291.51 780.006 291.314C778.153 290.696 775.897 289.611 773.964 288.149C772.03 286.685 770.432 284.853 769.874 282.744C769.687 282.036 769.678 281.426 769.805 280.9C769.807 280.892 769.809 280.883 769.811 280.875Z" fill="#45F7E1" stroke="white" stroke-width="0.5" stroke-linecap="round"/>
<path fill-rule="evenodd" clip-rule="evenodd" d="M745.965 482.593C745.941 482.644 745.959 482.705 746.007 482.731C747.038 483.289 748.07 483.831 749.099 484.372C751.555 485.662 753.998 486.946 756.382 488.417C761.091 491.322 765.53 494.622 769.86 498.117C776.355 503.36 782.97 508.739 788.672 514.928C790.536 516.95 791.456 518.096 792.465 520.468C793.043 521.828 793.235 523.024 792.932 523.926C792.633 524.818 791.84 525.456 790.367 525.677C788.18 526.005 785.942 526.013 783.712 526.02C782.91 526.023 782.109 526.026 781.312 526.044C781.13 526.048 780.924 526.051 780.697 526.054C779.002 526.079 776.171 526.121 773.789 526.72C772.44 527.06 771.221 527.582 770.434 528.394C770.087 528.753 769.823 529.169 769.672 529.651C767.036 529.311 764.332 529.496 761.55 530.317C759.037 531.058 756.5 532.268 755.786 535.118C755.772 535.173 755.804 535.229 755.856 535.243C755.908 535.257 755.961 535.225 755.975 535.17C756.659 532.437 759.094 531.254 761.603 530.513C764.346 529.703 767.014 529.518 769.616 529.849C769.616 529.85 769.616 529.85 769.616 529.85C769.479 530.417 769.492 531.063 769.686 531.798C770.261 533.972 771.9 535.839 773.85 537.314C775.802 538.791 778.078 539.884 779.946 540.508C780.533 540.704 781.952 541.161 783.142 541.233C783.734 541.268 784.292 541.21 784.66 540.955C784.847 540.825 784.985 540.643 785.05 540.402C785.115 540.163 785.107 539.874 785.018 539.529C784.603 537.92 783.632 536.597 782.448 535.496C781.263 534.395 779.86 533.511 778.574 532.782C775.754 531.182 772.856 530.093 769.869 529.677C770.012 529.246 770.252 528.869 770.571 528.539C771.32 527.766 772.497 527.256 773.835 526.919C776.193 526.325 779 526.283 780.698 526.258C780.925 526.255 781.132 526.252 781.316 526.248C782.105 526.23 782.901 526.227 783.701 526.225C785.934 526.217 788.193 526.209 790.394 525.879C791.91 525.652 792.785 524.982 793.116 523.994C793.444 523.017 793.228 521.761 792.643 520.385C791.621 517.982 790.683 516.816 788.813 514.786C783.099 508.585 776.473 503.197 769.979 497.956C765.646 494.457 761.199 491.152 756.481 488.241C754.091 486.766 751.639 485.478 749.18 484.186C748.152 483.646 747.123 483.105 746.097 482.55C746.049 482.524 745.99 482.543 745.965 482.593ZM769.811 529.875C772.783 530.284 775.669 531.366 778.481 532.961C779.763 533.689 781.151 534.564 782.318 535.649C783.485 536.734 784.428 538.025 784.83 539.582C784.913 539.904 784.915 540.154 784.863 540.347C784.811 540.537 784.704 540.679 784.552 540.785C784.24 541.001 783.738 541.064 783.154 541.029C781.991 540.959 780.594 540.51 780.006 540.314C778.153 539.696 775.897 538.611 773.964 537.149C772.03 535.685 770.432 533.853 769.874 531.744C769.687 531.036 769.678 530.426 769.805 529.9C769.807 529.892 769.809 529.883 769.811 529.875Z" fill="#45F7E1" stroke="white" stroke-width="0.5" stroke-linecap="round"/>
<path fill-rule="evenodd" clip-rule="evenodd" d="M511.965 726.594C511.941 726.644 511.959 726.706 512.007 726.731C513.038 727.289 514.07 727.831 515.099 728.372C517.555 729.663 519.998 730.946 522.382 732.417C527.091 735.322 531.53 738.623 535.86 742.118C542.355 747.361 548.97 752.74 554.672 758.928C556.536 760.951 557.456 762.097 558.465 764.469C559.043 765.829 559.235 767.024 558.932 767.927C558.633 768.818 557.84 769.457 556.367 769.678C554.18 770.006 551.942 770.013 549.712 770.021C548.91 770.024 548.109 770.026 547.312 770.044C547.13 770.048 546.924 770.051 546.697 770.054C545.002 770.08 542.171 770.121 539.789 770.721C538.44 771.06 537.221 771.582 536.434 772.395C536.087 772.754 535.823 773.17 535.672 773.651C533.036 773.311 530.332 773.496 527.55 774.317C525.037 775.059 522.5 776.268 521.786 779.119C521.772 779.173 521.804 779.229 521.856 779.243C521.908 779.258 521.961 779.225 521.975 779.171C522.659 776.438 525.094 775.254 527.603 774.514C530.346 773.704 533.014 773.518 535.616 773.85C535.616 773.85 535.616 773.85 535.616 773.85C535.479 774.417 535.492 775.063 535.686 775.799C536.261 777.973 537.9 779.839 539.85 781.315C541.802 782.791 544.078 783.885 545.946 784.509C546.533 784.704 547.952 785.162 549.142 785.233C549.734 785.269 550.292 785.211 550.66 784.955C550.847 784.825 550.985 784.644 551.05 784.403C551.115 784.164 551.107 783.875 551.018 783.53C550.603 781.921 549.632 780.598 548.448 779.497C547.263 778.396 545.86 777.512 544.574 776.782C541.754 775.182 538.856 774.094 535.869 773.678C536.012 773.246 536.252 772.869 536.571 772.54C537.32 771.767 538.497 771.256 539.835 770.919C542.193 770.326 545 770.284 546.698 770.259C546.925 770.255 547.132 770.252 547.316 770.248C548.105 770.231 548.901 770.228 549.701 770.225C551.934 770.217 554.193 770.21 556.394 769.88C557.91 769.652 558.785 768.983 559.116 767.994C559.444 767.017 559.228 765.761 558.643 764.386C557.621 761.983 556.683 760.817 554.813 758.787C549.099 752.586 542.473 747.198 535.979 741.956C531.646 738.458 527.199 735.152 522.481 732.242C520.091 730.767 517.639 729.478 515.18 728.186C514.152 727.646 513.123 727.105 512.097 726.55C512.049 726.524 511.99 726.544 511.965 726.594ZM535.811 773.876C538.783 774.284 541.669 775.366 544.481 776.962C545.763 777.689 547.151 778.564 548.318 779.649C549.485 780.735 550.428 782.025 550.83 783.583C550.913 783.905 550.915 784.155 550.863 784.347C550.811 784.537 550.704 784.68 550.552 784.785C550.24 785.002 549.738 785.064 549.154 785.029C547.991 784.959 546.594 784.51 546.006 784.314C544.153 783.696 541.897 782.611 539.964 781.149C538.03 779.686 536.432 777.854 535.874 775.744C535.687 775.037 535.678 774.427 535.805 773.9C535.807 773.892 535.809 773.884 535.811 773.876Z" fill="#45F7E1" stroke="white" stroke-width="0.5" stroke-linecap="round"/>
<path fill-rule="evenodd" clip-rule="evenodd" d="M172.148 266.41C172.159 266.454 172.195 266.489 172.23 266.49C172.969 266.506 173.703 266.511 174.435 266.516C176.181 266.529 177.918 266.541 179.71 266.703C183.25 267.023 186.837 267.709 190.46 268.569C195.893 269.859 201.445 271.199 206.922 273.421C208.712 274.147 209.661 274.607 211.199 275.877C212.081 276.605 212.706 277.358 212.964 278.086C213.219 278.804 213.125 279.525 212.522 280.202C211.625 281.205 210.562 282.007 209.503 282.806C209.121 283.093 208.741 283.38 208.368 283.676C208.283 283.744 208.187 283.819 208.08 283.902C207.283 284.523 205.952 285.559 205.084 286.819C204.593 287.532 204.244 288.324 204.231 289.162C204.226 289.533 204.286 289.912 204.428 290.297C203.02 291.001 201.813 292.091 200.853 293.645C199.986 295.049 199.316 296.783 200.246 298.995C200.264 299.037 200.304 299.064 200.335 299.056C200.366 299.047 200.377 299.006 200.359 298.963C199.467 296.842 200.1 295.163 200.966 293.761C201.913 292.229 203.102 291.151 204.49 290.453L204.49 290.453C204.678 290.892 204.972 291.331 205.392 291.767C206.635 293.056 208.249 293.755 209.836 294.074C211.425 294.393 212.997 294.335 214.166 294.098C214.533 294.024 215.414 293.833 216.013 293.458C216.31 293.272 216.551 293.034 216.612 292.727C216.644 292.571 216.628 292.398 216.552 292.209C216.476 292.022 216.343 291.826 216.147 291.621C215.232 290.663 214.18 290.1 213.124 289.765C212.069 289.43 211.006 289.323 210.067 289.279C208.01 289.184 206.143 289.467 204.534 290.245C204.409 289.898 204.356 289.553 204.361 289.213C204.373 288.416 204.707 287.646 205.195 286.939C206.054 285.692 207.374 284.664 208.171 284.042C208.278 283.959 208.376 283.883 208.461 283.815C208.83 283.522 209.208 283.237 209.588 282.95C210.649 282.15 211.723 281.341 212.625 280.331C213.246 279.635 213.365 278.864 213.082 278.067C212.802 277.279 212.139 276.493 211.247 275.756C209.689 274.469 208.722 274.002 206.925 273.274C201.437 271.048 195.877 269.705 190.444 268.416C186.819 267.555 183.225 266.867 179.679 266.547C177.882 266.385 176.139 266.372 174.391 266.36C173.66 266.355 172.928 266.35 172.191 266.333C172.157 266.333 172.138 266.367 172.148 266.41ZM204.595 290.401C206.194 289.624 208.051 289.34 210.103 289.435C211.039 289.479 212.09 289.586 213.131 289.916C214.171 290.246 215.196 290.797 216.081 291.724C216.264 291.916 216.377 292.086 216.438 292.237C216.498 292.386 216.51 292.522 216.485 292.649C216.433 292.908 216.222 293.13 215.927 293.314C215.342 293.68 214.476 293.869 214.108 293.943C212.949 294.178 211.39 294.236 209.817 293.92C208.242 293.603 206.664 292.913 205.458 291.663C205.053 291.243 204.777 290.828 204.603 290.421C204.6 290.414 204.597 290.408 204.595 290.401Z" fill="#45F7E1" stroke="#45F7E1" stroke-linecap="round"/>
<path fill-rule="evenodd" clip-rule="evenodd" d="M172.148 510.41C172.159 510.454 172.195 510.489 172.23 510.49C172.969 510.506 173.703 510.511 174.435 510.516C176.181 510.529 177.918 510.541 179.71 510.703C183.25 511.023 186.837 511.709 190.46 512.569C195.893 513.859 201.445 515.199 206.922 517.421C208.712 518.147 209.661 518.607 211.199 519.877C212.081 520.605 212.706 521.358 212.964 522.086C213.219 522.804 213.125 523.525 212.522 524.202C211.625 525.205 210.562 526.007 209.503 526.806C209.121 527.093 208.741 527.38 208.368 527.676C208.283 527.744 208.187 527.819 208.08 527.902C207.283 528.523 205.952 529.559 205.084 530.819C204.593 531.532 204.244 532.324 204.231 533.162C204.226 533.533 204.286 533.912 204.428 534.297C203.02 535.001 201.813 536.091 200.853 537.645C199.986 539.049 199.316 540.783 200.246 542.995C200.264 543.037 200.304 543.064 200.335 543.056C200.366 543.047 200.377 543.006 200.359 542.963C199.467 540.842 200.1 539.163 200.966 537.761C201.913 536.229 203.102 535.151 204.49 534.453L204.49 534.453C204.678 534.892 204.972 535.331 205.392 535.767C206.635 537.056 208.249 537.755 209.836 538.074C211.425 538.393 212.997 538.335 214.166 538.098C214.533 538.024 215.414 537.833 216.013 537.458C216.31 537.272 216.551 537.034 216.612 536.727C216.644 536.571 216.628 536.398 216.552 536.209C216.476 536.022 216.343 535.826 216.147 535.621C215.232 534.663 214.18 534.1 213.124 533.765C212.069 533.43 211.006 533.323 210.067 533.279C208.01 533.184 206.143 533.467 204.534 534.245C204.409 533.898 204.356 533.553 204.361 533.213C204.373 532.416 204.707 531.646 205.195 530.939C206.054 529.692 207.374 528.664 208.171 528.042C208.278 527.959 208.376 527.883 208.461 527.815C208.83 527.522 209.208 527.237 209.588 526.95C210.649 526.15 211.723 525.341 212.625 524.331C213.246 523.635 213.365 522.864 213.082 522.067C212.802 521.279 212.139 520.493 211.247 519.756C209.689 518.469 208.722 518.002 206.925 517.274C201.437 515.048 195.877 513.705 190.444 512.416C186.819 511.555 183.225 510.867 179.679 510.547C177.882 510.385 176.139 510.372 174.391 510.36C173.66 510.355 172.928 510.35 172.191 510.333C172.157 510.333 172.138 510.367 172.148 510.41ZM204.595 534.401C206.194 533.624 208.051 533.34 210.103 533.435C211.039 533.479 212.09 533.586 213.131 533.916C214.171 534.246 215.196 534.797 216.081 535.724C216.264 535.916 216.377 536.086 216.438 536.237C216.498 536.386 216.51 536.522 216.485 536.649C216.433 536.908 216.222 537.13 215.927 537.314C215.342 537.68 214.476 537.869 214.108 537.943C212.949 538.178 211.39 538.236 209.817 537.92C208.242 537.603 206.664 536.913 205.458 535.663C205.053 535.243 204.777 534.828 204.603 534.421C204.6 534.414 204.597 534.408 204.595 534.401Z" fill="#45F7E1" stroke="#45F7E1" stroke-linecap="round"/>
<path fill-rule="evenodd" clip-rule="evenodd" d="M742.148 266.41C742.159 266.454 742.195 266.489 742.23 266.49C742.969 266.506 743.703 266.511 744.435 266.516C746.181 266.529 747.918 266.541 749.71 266.703C753.25 267.023 756.837 267.709 760.46 268.569C765.893 269.859 771.445 271.199 776.922 273.421C778.712 274.147 779.661 274.607 781.199 275.877C782.081 276.605 782.706 277.358 782.964 278.086C783.219 278.804 783.125 279.525 782.522 280.202C781.625 281.205 780.562 282.007 779.503 282.806C779.121 283.093 778.741 283.38 778.368 283.676C778.283 283.744 778.187 283.819 778.08 283.902C777.283 284.523 775.952 285.559 775.084 286.819C774.593 287.532 774.244 288.324 774.231 289.162C774.226 289.533 774.286 289.912 774.428 290.297C773.02 291.001 771.813 292.091 770.853 293.645C769.986 295.049 769.316 296.783 770.246 298.995C770.264 299.037 770.304 299.064 770.335 299.056C770.366 299.047 770.377 299.006 770.359 298.963C769.467 296.842 770.1 295.163 770.966 293.761C771.913 292.229 773.102 291.151 774.49 290.453L774.49 290.453C774.678 290.892 774.972 291.331 775.392 291.767C776.635 293.056 778.249 293.755 779.836 294.074C781.425 294.393 782.997 294.335 784.166 294.098C784.533 294.024 785.414 293.833 786.013 293.458C786.31 293.272 786.551 293.034 786.612 292.727C786.644 292.571 786.628 292.398 786.552 292.209C786.476 292.022 786.343 291.826 786.147 291.621C785.232 290.663 784.18 290.1 783.124 289.765C782.069 289.43 781.006 289.323 780.067 289.279C778.01 289.184 776.143 289.467 774.534 290.245C774.409 289.898 774.356 289.553 774.361 289.213C774.373 288.416 774.707 287.646 775.195 286.939C776.054 285.692 777.374 284.664 778.171 284.042C778.278 283.959 778.376 283.883 778.461 283.815C778.83 283.522 779.208 283.237 779.588 282.95C780.649 282.15 781.723 281.341 782.625 280.331C783.246 279.635 783.365 278.864 783.082 278.067C782.802 277.279 782.139 276.493 781.247 275.756C779.689 274.469 778.722 274.002 776.925 273.274C771.437 271.048 765.877 269.705 760.444 268.416C756.819 267.555 753.225 266.867 749.679 266.547C747.882 266.385 746.139 266.372 744.391 266.36C743.66 266.355 742.928 266.35 742.191 266.333C742.157 266.333 742.138 266.367 742.148 266.41ZM774.595 290.401C776.194 289.624 778.051 289.34 780.103 289.435C781.039 289.479 782.09 289.586 783.131 289.916C784.171 290.246 785.196 290.797 786.081 291.724C786.264 291.916 786.377 292.086 786.438 292.237C786.498 292.386 786.51 292.522 786.485 292.649C786.433 292.908 786.222 293.13 785.927 293.314C785.342 293.68 784.476 293.869 784.108 293.943C782.949 294.178 781.39 294.236 779.817 293.92C778.242 293.603 776.664 292.913 775.458 291.663C775.053 291.243 774.777 290.828 774.603 290.421C774.6 290.414 774.597 290.408 774.595 290.401Z" fill="#45F7E1" stroke="#45F7E1" stroke-linecap="round"/>
<path fill-rule="evenodd" clip-rule="evenodd" d="M742.148 515.41C742.159 515.454 742.195 515.489 742.23 515.49C742.969 515.506 743.703 515.511 744.435 515.516C746.181 515.529 747.918 515.541 749.71 515.703C753.25 516.023 756.837 516.709 760.46 517.569C765.893 518.859 771.445 520.199 776.922 522.421C778.712 523.147 779.661 523.607 781.199 524.877C782.081 525.605 782.706 526.358 782.964 527.086C783.219 527.804 783.125 528.525 782.522 529.202C781.625 530.205 780.562 531.007 779.503 531.806C779.121 532.093 778.741 532.38 778.368 532.676C778.283 532.744 778.187 532.819 778.08 532.902C777.283 533.523 775.952 534.559 775.084 535.819C774.593 536.532 774.244 537.324 774.231 538.162C774.226 538.533 774.286 538.912 774.428 539.297C773.02 540.001 771.813 541.091 770.853 542.645C769.986 544.049 769.316 545.783 770.246 547.995C770.264 548.037 770.304 548.064 770.335 548.056C770.366 548.047 770.377 548.006 770.359 547.963C769.467 545.842 770.1 544.163 770.966 542.761C771.913 541.229 773.102 540.151 774.49 539.453L774.49 539.453C774.678 539.892 774.972 540.331 775.392 540.767C776.635 542.056 778.249 542.755 779.836 543.074C781.425 543.393 782.997 543.335 784.166 543.098C784.533 543.024 785.414 542.833 786.013 542.458C786.31 542.272 786.551 542.034 786.612 541.727C786.644 541.571 786.628 541.398 786.552 541.209C786.476 541.022 786.343 540.826 786.147 540.621C785.232 539.663 784.18 539.1 783.124 538.765C782.069 538.43 781.006 538.323 780.067 538.279C778.01 538.184 776.143 538.467 774.534 539.245C774.409 538.898 774.356 538.553 774.361 538.213C774.373 537.416 774.707 536.646 775.195 535.939C776.054 534.692 777.374 533.664 778.171 533.042C778.278 532.959 778.376 532.883 778.461 532.815C778.83 532.522 779.208 532.237 779.588 531.95C780.649 531.15 781.723 530.341 782.625 529.331C783.246 528.635 783.365 527.864 783.082 527.067C782.802 526.279 782.139 525.493 781.247 524.756C779.689 523.469 778.722 523.002 776.925 522.274C771.437 520.048 765.877 518.705 760.444 517.416C756.819 516.555 753.225 515.867 749.679 515.547C747.882 515.385 746.139 515.372 744.391 515.36C743.66 515.355 742.928 515.35 742.191 515.333C742.157 515.333 742.138 515.367 742.148 515.41ZM774.595 539.401C776.194 538.624 778.051 538.34 780.103 538.435C781.039 538.479 782.09 538.586 783.131 538.916C784.171 539.246 785.196 539.797 786.081 540.724C786.264 540.916 786.377 541.086 786.438 541.237C786.498 541.386 786.51 541.522 786.485 541.649C786.433 541.908 786.222 542.13 785.927 542.314C785.342 542.68 784.476 542.869 784.108 542.943C782.949 543.178 781.39 543.236 779.817 542.92C778.242 542.603 776.664 541.913 775.458 540.663C775.053 540.243 774.777 539.828 774.603 539.421C774.6 539.414 774.597 539.408 774.595 539.401Z" fill="#45F7E1" stroke="#45F7E1" stroke-linecap="round"/>
<path fill-rule="evenodd" clip-rule="evenodd" d="M508.148 759.411C508.159 759.454 508.195 759.49 508.23 759.49C508.969 759.507 509.703 759.512 510.435 759.517C512.181 759.529 513.918 759.542 515.71 759.703C519.25 760.023 522.837 760.71 526.46 761.57C531.893 762.859 537.445 764.2 542.922 766.421C544.712 767.147 545.661 767.607 547.199 768.877C548.081 769.606 548.706 770.359 548.964 771.086C549.219 771.805 549.125 772.526 548.522 773.202C547.625 774.206 546.562 775.008 545.503 775.806C545.121 776.094 544.741 776.381 544.368 776.677C544.283 776.744 544.187 776.82 544.08 776.903C543.283 777.523 541.952 778.56 541.084 779.819C540.593 780.532 540.244 781.325 540.231 782.163C540.226 782.533 540.286 782.913 540.428 783.297C539.02 784.002 537.813 785.092 536.853 786.646C535.986 788.049 535.316 789.783 536.246 791.995C536.264 792.038 536.304 792.065 536.335 792.056C536.366 792.047 536.377 792.006 536.359 791.964C535.467 789.843 536.1 788.164 536.966 786.762C537.913 785.229 539.102 784.152 540.49 783.454L540.49 783.454C540.678 783.892 540.972 784.331 541.392 784.767C542.635 786.056 544.249 786.755 545.836 787.074C547.425 787.394 548.997 787.335 550.166 787.099C550.533 787.024 551.414 786.833 552.013 786.459C552.31 786.273 552.551 786.034 552.612 785.728C552.644 785.572 552.628 785.398 552.552 785.209C552.476 785.022 552.343 784.826 552.147 784.621C551.232 783.664 550.18 783.101 549.124 782.766C548.069 782.431 547.006 782.323 546.067 782.28C544.01 782.184 542.143 782.468 540.534 783.245C540.409 782.898 540.356 782.554 540.361 782.214C540.373 781.417 540.707 780.646 541.195 779.939C542.054 778.692 543.374 777.664 544.171 777.043C544.278 776.959 544.376 776.884 544.461 776.815C544.83 776.522 545.208 776.237 545.588 775.951C546.649 775.151 547.723 774.341 548.625 773.331C549.246 772.635 549.365 771.864 549.082 771.067C548.802 770.28 548.139 769.494 547.247 768.757C545.689 767.47 544.722 767.003 542.925 766.274C537.437 764.048 531.877 762.706 526.444 761.416C522.819 760.556 519.225 759.868 515.679 759.547C513.882 759.385 512.139 759.373 510.391 759.36C509.66 759.355 508.928 759.35 508.191 759.334C508.157 759.333 508.138 759.368 508.148 759.411ZM540.595 783.402C542.194 782.625 544.051 782.341 546.103 782.436C547.039 782.479 548.09 782.587 549.131 782.917C550.171 783.247 551.196 783.798 552.081 784.725C552.264 784.916 552.377 785.087 552.438 785.238C552.498 785.387 552.51 785.523 552.485 785.649C552.433 785.909 552.222 786.131 551.927 786.315C551.342 786.68 550.476 786.869 550.108 786.944C548.949 787.179 547.39 787.237 545.817 786.92C544.242 786.603 542.664 785.914 541.458 784.663C541.053 784.244 540.777 783.828 540.603 783.421C540.6 783.415 540.597 783.408 540.595 783.402Z" fill="#45F7E1" stroke="#45F7E1" stroke-linecap="round"/>
<path fill-rule="evenodd" clip-rule="evenodd" d="M191.574 279.753C189.149 281.258 186.531 282.286 184.486 282.798C184.23 282.862 183.977 283.13 183.922 283.396C183.866 283.661 184.028 283.825 184.284 283.761C186.427 283.224 189.17 282.149 191.739 280.556C194.302 278.966 196.76 276.814 198.219 274.111C199.276 272.152 199.397 270.384 199.097 268.884C198.86 267.692 198.352 266.643 197.804 265.764C205.337 261.152 212.18 255.3 218.991 249.117C219.227 248.903 219.326 248.592 219.212 248.422C219.099 248.252 218.815 248.288 218.579 248.502C211.703 254.744 204.877 260.57 197.378 265.121C197.378 265.12 197.377 265.12 197.377 265.119C195.374 262.26 192.61 259.935 187.994 260.708C187.122 260.854 185.75 261.485 184.294 262.337C182.82 263.199 181.188 264.332 179.767 265.548C178.363 266.751 177.091 268.097 176.43 269.386C176.093 270.044 175.912 270.694 175.965 271.287C176.018 271.876 176.299 272.369 176.812 272.759C177.989 273.657 179.931 273.331 181.563 272.937C186.218 271.815 191.178 269.605 195.872 266.91C196.193 266.726 196.512 266.54 196.83 266.351C197.402 267.237 197.928 268.284 198.162 269.46C198.437 270.839 198.305 272.353 197.431 273.972C196.173 276.304 194.004 278.246 191.574 279.753ZM196.391 265.71C196.179 265.834 195.966 265.958 195.753 266.081C191.143 268.728 186.297 270.882 181.774 271.973C180.143 272.366 178.515 272.599 177.563 271.873C177.133 271.546 176.945 271.17 176.911 270.784C176.876 270.402 176.988 269.973 177.234 269.495C177.739 268.51 178.792 267.352 180.14 266.198C181.472 265.058 183.021 263.982 184.425 263.16C185.847 262.327 187.049 261.798 187.717 261.686C191.852 260.994 194.437 262.996 196.391 265.71Z" fill="#45F7E1" stroke="white" stroke-linecap="round"/>
<path fill-rule="evenodd" clip-rule="evenodd" d="M191.574 523.753C189.149 525.258 186.531 526.286 184.486 526.798C184.23 526.862 183.977 527.13 183.922 527.396C183.866 527.661 184.028 527.825 184.284 527.761C186.427 527.224 189.17 526.149 191.739 524.556C194.302 522.966 196.76 520.814 198.219 518.111C199.276 516.152 199.397 514.384 199.097 512.884C198.86 511.692 198.352 510.643 197.804 509.764C205.337 505.152 212.18 499.3 218.991 493.117C219.227 492.903 219.326 492.592 219.212 492.422C219.099 492.252 218.815 492.288 218.579 492.502C211.703 498.744 204.877 504.57 197.378 509.121C197.378 509.12 197.377 509.12 197.377 509.119C195.374 506.26 192.61 503.935 187.994 504.708C187.122 504.854 185.75 505.485 184.294 506.337C182.82 507.199 181.188 508.332 179.767 509.548C178.363 510.751 177.091 512.097 176.43 513.386C176.093 514.044 175.912 514.694 175.965 515.287C176.018 515.876 176.299 516.369 176.812 516.759C177.989 517.657 179.931 517.331 181.563 516.937C186.218 515.815 191.178 513.605 195.872 510.91C196.193 510.726 196.512 510.54 196.83 510.351C197.402 511.237 197.928 512.284 198.162 513.46C198.437 514.839 198.305 516.353 197.431 517.972C196.173 520.304 194.004 522.246 191.574 523.753ZM196.391 509.71C196.179 509.834 195.966 509.958 195.753 510.081C191.143 512.728 186.297 514.882 181.774 515.973C180.143 516.366 178.515 516.599 177.563 515.873C177.133 515.546 176.945 515.17 176.911 514.784C176.876 514.402 176.988 513.973 177.234 513.495C177.739 512.51 178.792 511.352 180.14 510.198C181.472 509.058 183.021 507.982 184.425 507.16C185.847 506.327 187.049 505.798 187.717 505.686C191.852 504.994 194.437 506.996 196.391 509.71Z" fill="#45F7E1" stroke="white" stroke-linecap="round"/>
<path fill-rule="evenodd" clip-rule="evenodd" d="M761.574 279.753C759.149 281.258 756.531 282.286 754.486 282.798C754.23 282.862 753.977 283.13 753.922 283.396C753.866 283.661 754.028 283.825 754.284 283.761C756.427 283.224 759.17 282.149 761.739 280.556C764.302 278.966 766.76 276.814 768.219 274.111C769.276 272.152 769.397 270.384 769.097 268.884C768.86 267.692 768.352 266.643 767.804 265.764C775.337 261.152 782.18 255.3 788.991 249.117C789.227 248.903 789.326 248.592 789.212 248.422C789.099 248.252 788.815 248.288 788.579 248.502C781.703 254.744 774.877 260.57 767.378 265.121C767.378 265.12 767.377 265.12 767.377 265.119C765.374 262.26 762.61 259.935 757.994 260.708C757.122 260.854 755.75 261.485 754.294 262.337C752.82 263.199 751.188 264.332 749.767 265.548C748.363 266.751 747.091 268.097 746.43 269.386C746.093 270.044 745.912 270.694 745.965 271.287C746.018 271.876 746.299 272.369 746.812 272.759C747.989 273.657 749.931 273.331 751.563 272.937C756.218 271.815 761.178 269.605 765.872 266.91C766.193 266.726 766.512 266.54 766.83 266.351C767.402 267.237 767.928 268.284 768.162 269.46C768.437 270.839 768.305 272.353 767.431 273.972C766.173 276.304 764.004 278.246 761.574 279.753ZM766.391 265.71C766.179 265.834 765.966 265.958 765.753 266.081C761.143 268.728 756.297 270.882 751.774 271.973C750.143 272.366 748.515 272.599 747.563 271.873C747.133 271.546 746.945 271.17 746.911 270.784C746.876 270.402 746.988 269.973 747.234 269.495C747.739 268.51 748.792 267.352 750.14 266.198C751.472 265.058 753.021 263.982 754.425 263.16C755.847 262.327 757.049 261.798 757.717 261.686C761.852 260.994 764.437 262.996 766.391 265.71Z" fill="#45F7E1" stroke="white" stroke-linecap="round"/>
<path fill-rule="evenodd" clip-rule="evenodd" d="M761.574 528.753C759.149 530.258 756.531 531.286 754.486 531.798C754.23 531.862 753.977 532.13 753.922 532.396C753.866 532.661 754.028 532.825 754.284 532.761C756.427 532.224 759.17 531.149 761.739 529.556C764.302 527.966 766.76 525.814 768.219 523.111C769.276 521.152 769.397 519.384 769.097 517.884C768.86 516.692 768.352 515.643 767.804 514.764C775.337 510.152 782.18 504.3 788.991 498.117C789.227 497.903 789.326 497.592 789.212 497.422C789.099 497.252 788.815 497.288 788.579 497.502C781.703 503.744 774.877 509.57 767.378 514.121C767.378 514.12 767.377 514.12 767.377 514.119C765.374 511.26 762.61 508.935 757.994 509.708C757.122 509.854 755.75 510.485 754.294 511.337C752.82 512.199 751.188 513.332 749.767 514.548C748.363 515.751 747.091 517.097 746.43 518.386C746.093 519.044 745.912 519.694 745.965 520.287C746.018 520.876 746.299 521.369 746.812 521.759C747.989 522.657 749.931 522.331 751.563 521.937C756.218 520.815 761.178 518.605 765.872 515.91C766.193 515.726 766.512 515.54 766.83 515.351C767.402 516.237 767.928 517.284 768.162 518.46C768.437 519.839 768.305 521.353 767.431 522.972C766.173 525.304 764.004 527.246 761.574 528.753ZM766.391 514.71C766.179 514.834 765.966 514.958 765.753 515.081C761.143 517.728 756.297 519.882 751.774 520.973C750.143 521.366 748.515 521.599 747.563 520.873C747.133 520.546 746.945 520.17 746.911 519.784C746.876 519.402 746.988 518.973 747.234 518.495C747.739 517.51 748.792 516.352 750.14 515.198C751.472 514.058 753.021 512.982 754.425 512.16C755.847 511.327 757.049 510.798 757.717 510.686C761.852 509.994 764.437 511.996 766.391 514.71Z" fill="#45F7E1" stroke="white" stroke-linecap="round"/>
<path fill-rule="evenodd" clip-rule="evenodd" d="M527.574 772.754C525.149 774.259 522.531 775.286 520.486 775.799C520.23 775.863 519.977 776.13 519.922 776.396C519.866 776.662 520.028 776.825 520.284 776.761C522.427 776.224 525.17 775.15 527.739 773.556C530.302 771.966 532.76 769.814 534.219 767.111C535.276 765.153 535.397 763.385 535.097 761.884C534.86 760.693 534.352 759.644 533.804 758.764C541.337 754.152 548.18 748.301 554.991 742.118C555.227 741.904 555.326 741.592 555.212 741.422C555.099 741.253 554.815 741.289 554.579 741.503C547.703 747.745 540.877 753.57 533.378 758.121C533.378 758.12 533.377 758.12 533.377 758.12C531.374 755.261 528.61 752.936 523.994 753.708C523.122 753.854 521.75 754.485 520.294 755.337C518.82 756.2 517.188 757.333 515.767 758.549C514.363 759.751 513.091 761.098 512.43 762.386C512.093 763.045 511.912 763.695 511.965 764.287C512.018 764.876 512.299 765.369 512.812 765.76C513.989 766.657 515.931 766.332 517.563 765.938C522.218 764.815 527.178 762.606 531.872 759.911C532.193 759.727 532.512 759.54 532.83 759.351C533.402 760.237 533.928 761.284 534.162 762.461C534.437 763.839 534.305 765.353 533.431 766.973C532.173 769.304 530.004 771.246 527.574 772.754ZM532.391 758.71C532.179 758.835 531.966 758.959 531.753 759.081C527.143 761.728 522.297 763.882 517.774 764.973C516.143 765.367 514.515 765.6 513.563 764.874C513.133 764.547 512.945 764.17 512.911 763.785C512.876 763.403 512.988 762.973 513.234 762.495C513.739 761.51 514.792 760.353 516.14 759.199C517.472 758.059 519.021 756.982 520.425 756.16C521.847 755.328 523.049 754.799 523.717 754.687C527.852 753.995 530.437 755.996 532.391 758.71Z" fill="#45F7E1" stroke="white" stroke-linecap="round"/>
<path fill-rule="evenodd" clip-rule="evenodd" d="M202.116 261.666C203.799 265.891 205.981 267.822 208.592 270.03C208.634 270.066 208.679 270.046 208.693 269.985C208.707 269.925 208.683 269.847 208.641 269.811C206.029 267.602 203.896 265.708 202.247 261.567C200.432 257.011 199.802 251.864 200.74 247.583C201.265 245.187 202.141 243.461 203.33 242.536C204.52 241.612 206.029 241.482 207.832 242.296C208.678 242.677 209.558 243.202 210.452 243.845C212.275 250.537 215.536 256.703 219.731 259.974C220.127 260.283 220.528 260.541 220.886 260.703C221.242 260.865 221.564 260.936 221.799 260.857C221.917 260.817 222.017 260.738 222.084 260.607C222.153 260.475 222.185 260.299 222.18 260.08C222.168 259.65 222.009 259.049 221.677 258.248C220.197 254.683 217.956 251.184 215.479 248.303C213.894 246.461 212.211 244.868 210.565 243.671C209.604 240.108 209.054 236.395 208.994 232.897C208.993 232.833 208.991 232.767 208.99 232.698C208.974 231.83 208.951 230.571 209.076 229.457C209.212 228.247 209.517 227.26 210.158 227.087C211.245 226.793 212.585 227.242 213.927 227.993C215.268 228.744 216.603 229.789 217.674 230.674C224.35 236.188 229.72 246.022 234.669 255.096C234.701 255.155 234.752 255.171 234.782 255.132C234.813 255.093 234.812 255.015 234.78 254.956C229.837 245.893 224.441 236.003 217.721 230.454C216.648 229.567 215.304 228.513 213.949 227.755C212.596 226.998 211.223 226.532 210.099 226.836C209.373 227.032 209.055 228.139 208.918 229.361C208.79 230.499 208.814 231.781 208.83 232.647C208.831 232.717 208.832 232.784 208.833 232.848C208.893 236.313 209.429 239.99 210.367 243.529C209.507 242.92 208.659 242.42 207.843 242.052C206.008 241.224 204.46 241.352 203.236 242.303C202.013 243.254 201.12 245.022 200.587 247.455C199.632 251.812 200.275 257.043 202.116 261.666ZM210.652 243.991C212.243 245.166 213.869 246.712 215.404 248.497C217.866 251.36 220.086 254.829 221.548 258.352C221.875 259.141 222.01 259.683 222.019 260.035C222.024 260.207 221.998 260.332 221.952 260.422C221.905 260.512 221.832 260.575 221.734 260.608C221.535 260.675 221.243 260.617 220.897 260.46C220.553 260.304 220.163 260.053 219.774 259.75C215.674 256.552 212.468 250.542 210.652 243.991Z" fill="white" stroke="white" stroke-width="2" stroke-linecap="round"/>
<path fill-rule="evenodd" clip-rule="evenodd" d="M202.116 505.666C203.799 509.891 205.981 511.822 208.592 514.03C208.634 514.066 208.679 514.046 208.693 513.985C208.707 513.925 208.683 513.847 208.641 513.811C206.029 511.602 203.896 509.708 202.247 505.567C200.432 501.011 199.802 495.864 200.74 491.583C201.265 489.187 202.141 487.461 203.33 486.536C204.52 485.612 206.029 485.482 207.832 486.296C208.678 486.677 209.558 487.202 210.452 487.845C212.275 494.537 215.536 500.703 219.731 503.974C220.127 504.283 220.528 504.541 220.886 504.703C221.242 504.865 221.564 504.936 221.799 504.857C221.917 504.817 222.017 504.738 222.084 504.607C222.153 504.475 222.185 504.299 222.18 504.08C222.168 503.65 222.009 503.049 221.677 502.248C220.197 498.683 217.956 495.184 215.479 492.303C213.894 490.461 212.211 488.868 210.565 487.671C209.604 484.108 209.054 480.395 208.994 476.897C208.993 476.833 208.991 476.767 208.99 476.698C208.974 475.83 208.951 474.571 209.076 473.457C209.212 472.247 209.517 471.26 210.158 471.087C211.245 470.793 212.585 471.242 213.927 471.993C215.268 472.744 216.603 473.789 217.674 474.674C224.35 480.188 229.72 490.022 234.669 499.096C234.701 499.155 234.752 499.171 234.782 499.132C234.813 499.093 234.812 499.015 234.78 498.956C229.837 489.893 224.441 480.003 217.721 474.454C216.648 473.567 215.304 472.513 213.949 471.755C212.596 470.998 211.223 470.532 210.099 470.836C209.373 471.032 209.055 472.139 208.918 473.361C208.79 474.499 208.814 475.781 208.83 476.647C208.831 476.717 208.832 476.784 208.833 476.848C208.893 480.313 209.429 483.99 210.367 487.529C209.507 486.92 208.659 486.42 207.843 486.052C206.008 485.224 204.46 485.352 203.236 486.303C202.013 487.254 201.12 489.022 200.587 491.455C199.632 495.812 200.275 501.043 202.116 505.666ZM210.652 487.991C212.243 489.166 213.869 490.712 215.404 492.497C217.866 495.36 220.086 498.829 221.548 502.352C221.875 503.141 222.01 503.683 222.019 504.035C222.024 504.207 221.998 504.332 221.952 504.422C221.905 504.512 221.832 504.575 221.734 504.608C221.535 504.675 221.243 504.617 220.897 504.46C220.553 504.304 220.163 504.053 219.774 503.75C215.674 500.552 212.468 494.542 210.652 487.991Z" fill="white" stroke="white" stroke-width="2" stroke-linecap="round"/>
<path fill-rule="evenodd" clip-rule="evenodd" d="M772.116 261.666C773.799 265.891 775.981 267.822 778.592 270.03C778.634 270.066 778.679 270.046 778.693 269.985C778.707 269.925 778.683 269.847 778.641 269.811C776.029 267.602 773.896 265.708 772.247 261.567C770.432 257.011 769.802 251.864 770.74 247.583C771.265 245.187 772.141 243.461 773.33 242.536C774.52 241.612 776.029 241.482 777.832 242.296C778.678 242.677 779.558 243.202 780.452 243.845C782.275 250.537 785.536 256.703 789.731 259.974C790.127 260.283 790.528 260.541 790.886 260.703C791.242 260.865 791.564 260.936 791.799 260.857C791.917 260.817 792.017 260.738 792.084 260.607C792.153 260.475 792.185 260.299 792.18 260.08C792.168 259.65 792.009 259.049 791.677 258.248C790.197 254.683 787.956 251.184 785.479 248.303C783.894 246.461 782.211 244.868 780.565 243.671C779.604 240.108 779.054 236.395 778.994 232.897C778.993 232.833 778.991 232.767 778.99 232.698C778.974 231.83 778.951 230.571 779.076 229.457C779.212 228.247 779.517 227.26 780.158 227.087C781.245 226.793 782.585 227.242 783.927 227.993C785.268 228.744 786.603 229.789 787.674 230.674C794.35 236.188 799.72 246.022 804.669 255.096C804.701 255.155 804.752 255.171 804.782 255.132C804.813 255.093 804.812 255.015 804.78 254.956C799.837 245.893 794.441 236.003 787.721 230.454C786.648 229.567 785.304 228.513 783.949 227.755C782.596 226.998 781.223 226.532 780.099 226.836C779.373 227.032 779.055 228.139 778.918 229.361C778.79 230.499 778.814 231.781 778.83 232.647C778.831 232.717 778.832 232.784 778.833 232.848C778.893 236.313 779.429 239.99 780.367 243.529C779.507 242.92 778.659 242.42 777.843 242.052C776.008 241.224 774.46 241.352 773.236 242.303C772.013 243.254 771.12 245.022 770.587 247.455C769.632 251.812 770.275 257.043 772.116 261.666ZM780.652 243.991C782.243 245.166 783.869 246.712 785.404 248.497C787.866 251.36 790.086 254.829 791.548 258.352C791.875 259.141 792.01 259.683 792.019 260.035C792.024 260.207 791.998 260.332 791.952 260.422C791.905 260.512 791.832 260.575 791.734 260.608C791.535 260.675 791.243 260.617 790.897 260.46C790.553 260.304 790.163 260.053 789.774 259.75C785.674 256.552 782.468 250.542 780.652 243.991Z" fill="white" stroke="white" stroke-width="2" stroke-linecap="round"/>
<path fill-rule="evenodd" clip-rule="evenodd" d="M772.116 510.666C773.799 514.891 775.981 516.822 778.592 519.03C778.634 519.066 778.679 519.046 778.693 518.985C778.707 518.925 778.683 518.847 778.641 518.811C776.029 516.602 773.896 514.708 772.247 510.567C770.432 506.011 769.802 500.864 770.74 496.583C771.265 494.187 772.141 492.461 773.33 491.536C774.52 490.612 776.029 490.482 777.832 491.296C778.678 491.677 779.558 492.202 780.452 492.845C782.275 499.537 785.536 505.703 789.731 508.974C790.127 509.283 790.528 509.541 790.886 509.703C791.242 509.865 791.564 509.936 791.799 509.857C791.917 509.817 792.017 509.738 792.084 509.607C792.153 509.475 792.185 509.299 792.18 509.08C792.168 508.65 792.009 508.049 791.677 507.248C790.197 503.683 787.956 500.184 785.479 497.303C783.894 495.461 782.211 493.868 780.565 492.671C779.604 489.108 779.054 485.395 778.994 481.897C778.993 481.833 778.991 481.767 778.99 481.698C778.974 480.83 778.951 479.571 779.076 478.457C779.212 477.247 779.517 476.26 780.158 476.087C781.245 475.793 782.585 476.242 783.927 476.993C785.268 477.744 786.603 478.789 787.674 479.674C794.35 485.188 799.72 495.022 804.669 504.096C804.701 504.155 804.752 504.171 804.782 504.132C804.813 504.093 804.812 504.015 804.78 503.956C799.837 494.893 794.441 485.003 787.721 479.454C786.648 478.567 785.304 477.513 783.949 476.755C782.596 475.998 781.223 475.532 780.099 475.836C779.373 476.032 779.055 477.139 778.918 478.361C778.79 479.499 778.814 480.781 778.83 481.647C778.831 481.717 778.832 481.784 778.833 481.848C778.893 485.313 779.429 488.99 780.367 492.529C779.507 491.92 778.659 491.42 777.843 491.052C776.008 490.224 774.46 490.352 773.236 491.303C772.013 492.254 771.12 494.022 770.587 496.455C769.632 500.812 770.275 506.043 772.116 510.666ZM780.652 492.991C782.243 494.166 783.869 495.712 785.404 497.497C787.866 500.36 790.086 503.829 791.548 507.352C791.875 508.141 792.01 508.683 792.019 509.035C792.024 509.207 791.998 509.332 791.952 509.422C791.905 509.512 791.832 509.575 791.734 509.608C791.535 509.675 791.243 509.617 790.897 509.46C790.553 509.304 790.163 509.053 789.774 508.75C785.674 505.552 782.468 499.542 780.652 492.991Z" fill="white" stroke="white" stroke-width="2" stroke-linecap="round"/>
<path fill-rule="evenodd" clip-rule="evenodd" d="M538.116 754.666C539.799 758.892 541.981 760.822 544.592 763.031C544.634 763.066 544.679 763.046 544.693 762.986C544.707 762.925 544.683 762.848 544.641 762.812C542.029 760.602 539.896 758.708 538.247 754.568C536.432 750.011 535.802 744.864 536.74 740.583C537.265 738.187 538.141 736.462 539.33 735.537C540.52 734.612 542.029 734.483 543.832 735.296C544.678 735.678 545.558 736.202 546.452 736.845C548.275 743.538 551.536 749.703 555.731 752.974C556.127 753.283 556.528 753.541 556.886 753.704C557.242 753.865 557.564 753.937 557.799 753.858C557.917 753.818 558.017 753.738 558.084 753.607C558.153 753.476 558.185 753.3 558.18 753.081C558.168 752.651 558.009 752.05 557.677 751.249C556.197 747.683 553.956 744.184 551.479 741.304C549.894 739.461 548.211 737.869 546.565 736.672C545.604 733.108 545.054 729.396 544.994 725.898C544.993 725.834 544.991 725.767 544.99 725.698C544.974 724.83 544.951 723.571 545.076 722.457C545.212 721.248 545.517 720.261 546.158 720.087C547.245 719.794 548.585 720.243 549.927 720.994C551.268 721.744 552.603 722.79 553.674 723.674C560.35 729.189 565.72 739.022 570.669 748.097C570.701 748.155 570.752 748.171 570.782 748.133C570.813 748.094 570.812 748.015 570.78 747.957C565.837 738.893 560.441 729.004 553.721 723.454C552.648 722.568 551.304 721.513 549.949 720.756C548.596 719.999 547.223 719.532 546.099 719.836C545.373 720.033 545.055 721.139 544.918 722.362C544.79 723.499 544.814 724.782 544.83 725.647C544.831 725.717 544.832 725.785 544.833 725.849C544.893 729.314 545.429 732.99 546.367 736.53C545.507 735.92 544.659 735.421 543.843 735.052C542.008 734.224 540.46 734.352 539.236 735.304C538.013 736.255 537.12 738.023 536.587 740.456C535.632 744.812 536.275 750.043 538.116 754.666ZM546.652 736.991C548.243 738.167 549.869 739.713 551.404 741.497C553.866 744.36 556.086 747.83 557.548 751.353C557.875 752.141 558.01 752.683 558.019 753.035C558.024 753.208 557.998 753.332 557.952 753.422C557.905 753.513 557.832 753.575 557.734 753.608C557.535 753.675 557.243 753.618 556.897 753.46C556.553 753.304 556.163 753.054 555.774 752.75C551.674 749.553 548.468 743.543 546.652 736.991Z" fill="white" stroke="white" stroke-width="2" stroke-linecap="round"/>
<path fill-rule="evenodd" clip-rule="evenodd" d="M-177.29 488.577C-177.545 489.071 -177.352 489.678 -176.859 489.933C-166.226 495.433 -155.582 500.779 -144.961 506.114C-119.624 518.842 -94.4206 531.502 -69.8198 546.012C-21.2453 574.662 24.5612 607.214 69.2331 641.685C136.243 693.394 204.49 746.449 263.316 807.484C282.541 827.432 292.04 838.737 302.442 862.127C308.408 875.544 310.387 887.334 307.266 896.236C304.183 905.027 295.997 911.324 280.797 913.503C258.238 916.738 235.143 916.814 212.145 916.889C203.866 916.916 195.6 916.943 187.375 917.117C185.498 917.157 183.372 917.187 181.037 917.22C163.55 917.467 134.335 917.881 109.768 923.793C95.8521 927.142 83.2701 932.289 75.1558 940.3C71.5695 943.84 68.8515 947.945 67.2866 952.695C40.098 949.34 12.1935 951.165 -16.5049 959.263C-42.4269 966.578 -68.6056 978.505 -75.9704 1006.62C-76.1113 1007.16 -75.79 1007.71 -75.2528 1007.85C-74.7157 1007.99 -74.166 1007.67 -74.0252 1007.13C-66.9643 980.176 -41.848 968.505 -15.9594 961.201C12.3417 953.215 39.8708 951.383 66.7169 954.653C66.7164 954.655 66.716 954.657 66.7156 954.658C65.2997 960.248 65.4337 966.622 67.4385 973.874C73.3654 995.316 90.2759 1013.73 110.396 1028.28C130.534 1042.84 154.011 1053.63 173.291 1059.78C179.339 1061.71 193.987 1066.22 206.264 1066.92C212.365 1067.27 218.12 1066.7 221.916 1064.19C223.852 1062.9 225.273 1061.11 225.948 1058.74C226.616 1056.38 226.528 1053.53 225.611 1050.12C221.333 1034.26 211.315 1021.21 199.095 1010.35C186.876 999.49 172.404 990.772 159.133 983.574C130.039 967.795 100.14 957.057 69.3211 952.956C70.7926 948.699 73.2756 944.983 76.5679 941.733C84.2897 934.11 96.4394 929.071 110.238 925.75C134.566 919.896 163.53 919.483 181.043 919.234C183.385 919.2 185.523 919.17 187.418 919.13C195.561 918.957 203.778 918.93 212.028 918.903C235.069 918.828 258.373 918.752 281.082 915.496C296.72 913.254 305.745 906.652 309.163 896.903C312.542 887.265 310.312 874.876 304.279 861.309C293.74 837.61 284.061 826.109 264.763 806.087C205.819 744.928 137.456 691.788 70.461 640.091C25.7495 605.589 -20.1285 572.984 -68.7988 544.278C-93.4608 529.732 -118.761 517.023 -144.125 504.282C-154.731 498.954 -165.349 493.621 -175.935 488.145C-176.429 487.89 -177.035 488.083 -177.29 488.577ZM68.7281 954.908C99.3898 958.939 129.161 969.608 158.174 985.344C171.403 992.518 185.714 1001.15 197.759 1011.85C209.803 1022.56 219.528 1035.29 223.67 1050.65C224.526 1053.82 224.552 1056.29 224.013 1058.19C223.482 1060.06 222.377 1061.47 220.806 1062.51C217.589 1064.64 212.411 1065.26 206.379 1064.91C194.389 1064.23 179.968 1059.8 173.902 1057.86C154.791 1051.76 131.513 1041.07 111.573 1026.65C91.616 1012.21 75.1275 994.142 69.3767 973.337C67.4475 966.359 67.3496 960.346 68.6649 955.153C68.6856 955.071 68.7067 954.99 68.7281 954.908Z" fill="#45F7E1"/>
<path fill-rule="evenodd" clip-rule="evenodd" d="M100.449 342.235C101.62 343.67 101.404 345.781 99.9664 346.95C98.1235 348.448 96.2806 349.946 94.4379 351.443C16.0038 415.181 -61.8811 478.473 -106.171 571.275C-124.965 610.655 -134.148 653.364 -135.138 696.861C-135.408 708.697 -135.474 722.343 -133.841 735.633C-132.206 748.95 -128.895 761.642 -122.591 771.695C-111.973 788.628 -92.2966 793.673 -70.2836 792.872C-48.3583 792.075 -25.1738 785.488 -9.04605 780.378C-6.11987 779.451 -3.20494 778.5 -0.300598 777.526C2.41483 768.554 5.65858 759.788 8.78819 751.33C9.71387 748.829 10.6296 746.354 11.5186 743.909C14.0638 736.91 16.6948 729.947 19.3215 722.995C30.0147 694.694 40.6375 666.579 45.1178 636.978C46.6125 627.103 48.7356 610.938 48.1896 595.403C47.9166 587.637 46.9796 580.161 45.032 573.772C43.0793 567.366 40.1895 562.307 36.1927 559.038C32.099 555.691 26.005 554.603 18.9798 554.8C12.9829 554.968 6.87759 556.041 1.60712 556.968C0.756531 557.117 -0.0723267 557.263 -0.875458 557.4C-41.1077 564.285 -73.3524 585.807 -94.0762 620.862C-95.0185 622.455 -97.0768 622.985 -98.6735 622.044C-100.27 621.104 -100.801 619.049 -99.8583 617.455C-78.0943 580.64 -44.1136 557.999 -2.00987 550.794C-1.25586 550.665 -0.46048 550.525 0.370239 550.378C5.61099 549.455 12.2577 548.283 18.7914 548.1C26.3002 547.89 34.4423 548.943 40.4473 553.853C45.8382 558.262 49.2819 564.691 51.4552 571.821C53.6336 578.967 54.615 587.074 54.8995 595.168C55.4684 611.355 53.2625 628.03 51.7565 637.979C47.1593 668.352 36.2147 697.303 25.4944 725.661C22.8951 732.537 20.309 739.378 17.8297 746.196C16.9321 748.665 16.0181 751.14 15.102 753.62C12.5096 760.64 9.89957 767.708 7.59068 774.816C57.6274 757.229 104.66 733.123 152.085 708.816C154.669 707.492 157.254 706.167 159.841 704.843C160.661 704.423 161.483 704.002 162.305 703.58C186.039 691.42 210.552 678.86 237.001 672.049C240.158 671.236 245.283 669.935 250.503 669.403C255.534 668.889 261.54 668.979 265.889 671.77C268.192 673.248 269.451 675.544 270.133 677.79C270.815 680.032 271.014 682.512 270.999 684.838C270.971 689.26 270.15 693.812 269.682 696.408C269.658 696.54 269.635 696.667 269.613 696.789C265.169 721.538 249.289 742.176 230.371 759.421C212.886 775.36 192.466 788.698 175.367 799.866C173.959 800.786 172.573 801.691 171.214 802.581C127.811 831.011 88.2521 852.255 34.7145 847.273L34.6412 847.266C25.6047 846.425 15.5291 845.488 7.6745 841.766C3.64368 839.856 0.0571289 837.157 -2.54852 833.266C-5.15732 829.37 -6.62497 824.514 -6.79816 818.549C-7.12386 807.332 -5.32167 796.195 -2.49617 785.314C-3.99953 785.804 -5.5058 786.289 -7.01508 786.767C-23.2034 791.896 -47.1344 798.738 -70.0393 799.57C-92.8565 800.4 -115.725 795.276 -128.282 775.251C-135.326 764.017 -138.814 750.225 -140.506 736.449C-142.201 722.647 -142.121 708.592 -141.851 696.709C-140.841 652.37 -131.477 608.715 -112.233 568.393C-67.2821 474.207 11.6539 410.067 89.7549 346.606C91.7461 344.988 93.7369 343.37 95.7265 341.753C97.1641 340.584 99.2786 340.8 100.449 342.235ZM5.15846 782.755C1.79149 794.529 -0.433899 806.406 -0.0869598 818.355C0.0568085 823.306 1.2511 826.88 3.03317 829.541C4.81839 832.207 7.35167 834.193 10.5536 835.711C17.1434 838.833 25.9518 839.726 35.3377 840.599C86.4538 845.356 124.34 825.268 167.531 796.977C168.877 796.095 170.245 795.202 171.631 794.296C188.797 783.082 208.778 770.028 225.844 754.472C244.294 737.652 258.938 718.252 263.004 695.607L263.057 695.314C263.532 692.673 264.261 688.622 264.285 684.795C264.298 682.813 264.117 681.079 263.708 679.735C263.301 678.395 262.762 677.732 262.258 677.408C259.982 675.948 256.034 675.576 251.186 676.07C246.527 676.546 241.847 677.723 238.678 678.539C212.968 685.16 189.048 697.414 165.125 709.669C164.385 710.048 163.645 710.427 162.905 710.806C160.27 712.155 157.637 713.505 155.002 714.856C106.248 739.845 57.4086 764.879 5.15846 782.755Z" fill="white"/>
<path fill-rule="evenodd" clip-rule="evenodd" d="M429.103 1200.14C428.668 1200.08 428.277 1199.75 428.231 1199.4C427.235 1191.83 426.354 1184.31 425.475 1176.81C423.377 1158.92 421.291 1141.12 417.676 1122.92C410.536 1086.97 399.741 1050.92 387.213 1014.7C368.421 960.379 348.995 904.901 321.017 851.14C311.874 833.57 306.292 824.327 292.099 809.93C283.958 801.673 275.871 796.085 268.445 794.225C261.112 792.388 254.15 794.128 248.205 801.051C239.381 811.326 232.723 823.102 226.092 834.828C223.706 839.049 221.322 843.264 218.843 847.4C218.277 848.345 217.647 849.42 216.955 850.6C211.774 859.442 203.119 874.215 191.755 884.477C185.319 890.29 177.944 894.724 169.745 895.762C166.121 896.22 162.332 896.016 158.398 894.972C153.087 910.172 143.77 923.727 129.622 935.252C116.842 945.663 100.604 954.414 77.8634 947.265C77.4285 947.128 77.1166 946.75 77.1667 946.421C77.2168 946.092 77.61 945.936 78.0449 946.073C99.8468 952.927 115.593 944.619 128.356 934.222C142.308 922.856 151.523 909.495 156.798 894.504L156.794 894.502C152.286 893.056 147.647 890.514 142.898 886.674C128.856 875.321 120.177 859.531 115.251 843.598C110.319 827.652 109.115 811.465 110.113 799.222C110.425 795.382 111.304 786.144 114.296 779.595C115.783 776.34 117.847 773.62 120.781 772.657C122.276 772.166 123.995 772.133 125.933 772.712C127.854 773.285 129.923 774.438 132.158 776.227C142.58 784.573 149.291 794.758 153.768 805.22C158.244 815.681 160.505 826.462 161.994 836.04C165.257 857.035 164.59 876.487 158.788 893.831C162.334 894.732 165.77 894.905 169.097 894.484C176.9 893.496 184.071 889.241 190.453 883.477C201.706 873.315 210.289 858.67 215.479 849.816C216.174 848.631 216.807 847.55 217.378 846.597C219.833 842.502 222.202 838.312 224.58 834.106C231.223 822.358 237.941 810.476 246.824 800.132C252.94 793.009 260.366 790.959 268.498 792.996C276.538 795.01 284.993 800.959 293.225 809.309C307.605 823.895 313.279 833.307 322.457 850.943C350.49 904.812 369.946 960.383 388.734 1014.69C401.273 1050.94 412.087 1087.05 419.24 1123.07C422.865 1141.32 424.959 1159.18 427.059 1177.1C427.936 1184.58 428.815 1192.08 429.807 1199.62C429.854 1199.97 429.538 1200.21 429.103 1200.14ZM157.186 893.377C162.994 876.139 163.675 856.781 160.421 835.842C158.938 826.296 156.694 815.63 152.282 805.318C147.87 795.008 141.307 785.095 131.218 777.016C129.132 775.345 127.331 774.376 125.784 773.914C124.255 773.458 122.909 773.477 121.695 773.876C119.209 774.692 117.274 777.098 115.804 780.316C112.882 786.712 112.009 795.802 111.695 799.654C110.706 811.789 111.902 827.84 116.785 843.63C121.672 859.433 130.221 874.876 143.846 885.891C148.416 889.586 152.801 891.971 156.988 893.314C157.054 893.335 157.12 893.356 157.186 893.377Z" fill="white"/>
<path fill-rule="evenodd" clip-rule="evenodd" d="M602.958 970.899C629.163 983.537 652.543 1000.43 668.426 1015.21C670.414 1017.06 674.053 1017.77 676.555 1016.8C679.056 1015.83 679.472 1013.55 677.485 1011.7C660.848 996.21 636.362 978.488 608.614 965.105C580.918 951.749 549.209 942.365 518.678 944.572C496.551 946.171 481.336 954.776 470.715 965.534C462.281 974.077 456.555 984.159 452.456 993.669C371.574 954.086 284.444 927.191 194.774 902.379C191.667 901.519 188.543 902.366 187.797 904.271C187.05 906.175 188.963 908.416 192.07 909.276C282.596 934.325 369.416 961.215 449.603 1000.84C449.601 1000.85 449.598 1000.85 449.596 1000.86C437.54 1033.67 434.21 1070.11 466.895 1105.57C473.074 1112.27 486.086 1120.62 501.395 1128.49C516.894 1136.45 535.515 1144.29 553.616 1149.87C571.513 1155.38 589.834 1158.97 604.191 1157.62C611.527 1156.93 617.9 1154.94 622.464 1151.25C627 1147.58 629.449 1142.47 629.735 1135.94C630.392 1120.92 616.634 1106.01 604.082 1094.13C568.298 1060.25 521.834 1029.66 472.903 1004.02C469.56 1002.27 466.206 1000.54 462.841 998.839C466.854 989.092 472.459 978.86 480.785 970.426C490.544 960.542 503.74 953.418 522.032 952.096C548.369 950.193 576.7 958.235 602.958 970.899ZM460.078 1006.11C462.313 1007.25 464.544 1008.41 466.769 1009.58C514.824 1034.76 560.18 1064.66 594.955 1097.58C607.496 1109.45 618.7 1122.18 618.169 1134.32C617.93 1139.79 615.909 1143.46 612.94 1145.86C609.998 1148.24 605.831 1149.62 600.5 1150.12C589.524 1151.15 574.005 1148.41 556.831 1143.12C539.861 1137.9 522.177 1130.46 507.414 1122.87C492.459 1115.19 481.249 1107.75 476.518 1102.62C447.236 1070.85 448.928 1037.71 460.078 1006.11Z" fill="#45F7E1"/>
<path fill-rule="evenodd" clip-rule="evenodd" d="M1195.76 748.989C1196.75 752.243 1200.2 754.074 1203.46 753.078C1276.57 730.745 1355.7 729.606 1432.84 728.699C1439.17 728.625 1445.82 728.412 1452.69 728.193C1467.27 727.727 1482.82 727.23 1498.4 727.951C1521.23 729.009 1542.72 732.683 1559.04 742.31C1564.53 745.553 1566.97 748.632 1567.94 751.132C1568.86 753.511 1568.79 756.252 1567.34 759.684C1564.22 767.042 1555.57 775.564 1543.78 784.163C1523.49 798.965 1497.29 811.65 1486.53 816.856C1485 817.6 1483.78 818.191 1482.93 818.614C1332.71 893.926 1156.56 898.106 990.633 895.316C987.228 895.258 984.418 897.97 984.357 901.372C984.296 904.773 987.007 907.578 990.412 907.635C1156.21 910.423 1335.21 906.449 1488.46 829.624C1489.19 829.254 1490.31 828.716 1491.74 828.024C1502.22 822.959 1529.71 809.677 1551.05 794.111C1562.98 785.406 1574.15 775.195 1578.69 764.48C1581.07 758.875 1581.79 752.744 1579.45 746.678C1577.15 740.731 1572.25 735.79 1565.32 731.7C1546.36 720.514 1522.4 716.728 1498.98 715.644C1482.93 714.9 1466.48 715.423 1451.67 715.894C1444.94 716.107 1438.56 716.31 1432.71 716.379C1355.88 717.282 1274.95 718.36 1199.86 741.296C1196.6 742.291 1194.77 745.736 1195.76 748.989Z" fill="white"/>
<path fill-rule="evenodd" clip-rule="evenodd" d="M1294.79 604.568C1258.47 605.172 1235.07 622.291 1207.75 643.243C1207.31 643.582 1207.23 644.213 1207.57 644.654C1207.9 645.094 1208.54 645.177 1208.98 644.839C1236.31 623.876 1259.23 607.172 1294.82 606.58C1333.98 605.929 1371.38 622.11 1395.44 653.007C1408.9 670.3 1416.21 688.678 1416.65 707.118C1417.09 725.55 1410.69 744.142 1396.58 761.883C1389.96 770.206 1382.21 778.29 1373.62 785.976C1320.15 776.897 1263.29 787.382 1221.25 822.318C1217.27 825.621 1213.62 829.209 1210.81 832.726C1208.02 836.223 1205.99 839.741 1205.39 842.901C1205.08 844.498 1205.14 846.046 1205.68 847.456C1206.23 848.876 1207.25 850.076 1208.74 851.015C1211.67 852.862 1216.45 853.732 1223.39 853.457C1254.33 852.235 1288.48 841.631 1319.64 825.368C1339.57 814.965 1358.31 802.231 1374.23 788.121C1402.65 793.074 1430.08 803.612 1453.73 819.003C1454.16 819.284 1454.61 819.577 1455.08 819.881C1460.95 823.688 1469.47 829.21 1476.3 835.827C1483.72 843.016 1488.84 851.193 1486.91 859.64C1483.64 873.944 1474.19 887.845 1462.71 900.39C1451.24 912.92 1437.83 924.01 1426.77 932.703C1357.79 986.898 1266.28 1005.62 1181.86 1022.83C1181.32 1022.94 1180.97 1023.48 1181.08 1024.02C1181.19 1024.56 1181.72 1024.92 1182.26 1024.8C1266.58 1007.61 1358.59 988.826 1428.01 934.284C1439.09 925.574 1452.61 914.402 1464.19 901.746C1475.76 889.104 1485.49 874.891 1488.87 860.085C1491.06 850.524 1485.2 841.644 1477.7 834.381C1470.72 827.621 1462.05 821.997 1456.19 818.202C1455.72 817.895 1455.26 817.599 1454.83 817.317C1431.41 802.07 1404.28 791.531 1376.13 786.418C1384.34 778.977 1391.76 771.17 1398.15 763.134C1412.52 745.074 1419.12 726.031 1418.66 707.066C1418.21 688.11 1410.7 669.328 1397.03 651.77C1372.54 620.328 1334.52 603.908 1294.79 604.568ZM1371.68 787.691C1356.17 801.249 1338.01 813.511 1318.71 823.585C1287.74 839.748 1253.88 850.24 1223.32 851.447C1216.48 851.717 1212.21 850.825 1209.82 849.313C1208.64 848.574 1207.93 847.695 1207.56 846.727C1207.18 845.749 1207.11 844.598 1207.36 843.274C1207.87 840.594 1209.66 837.386 1212.38 833.98C1215.08 830.595 1218.63 827.104 1222.53 823.864C1263.63 789.711 1319.19 779.179 1371.68 787.691Z" fill="#45F7E1"/>
<path fill-rule="evenodd" clip-rule="evenodd" d="M1072.62 61.7459C1072.6 63.59 1074.06 65.1532 1075.89 65.2373C1078.23 65.3451 1080.58 65.4524 1082.92 65.5596C1182.73 70.1243 1281.84 74.657 1373.11 122.755C1411.84 143.164 1445.18 171.94 1472.68 206.206C1480.16 215.53 1488.6 226.425 1495.5 238.042C1502.42 249.682 1507.66 261.814 1508.96 273.607C1511.16 293.47 1499.05 309.18 1481.54 321.591C1464.09 333.952 1442.12 342.421 1426.51 347.89C1423.68 348.882 1420.84 349.848 1418 350.79C1410.39 345.21 1402.49 340.11 1394.87 335.189C1392.62 333.733 1390.39 332.294 1388.2 330.862C1381.93 326.763 1375.62 322.743 1369.32 318.73C1343.66 302.394 1318.17 286.165 1296.52 265.104C1289.29 258.078 1277.72 246.384 1268.59 233.613C1264.03 227.228 1260.16 220.683 1257.74 214.409C1255.32 208.118 1254.44 202.351 1255.52 197.362C1256.63 192.252 1260.67 187.768 1266.23 183.76C1270.97 180.339 1276.35 177.579 1280.99 175.196C1281.74 174.811 1282.47 174.436 1283.18 174.07C1318.51 155.732 1356.67 153.857 1394.23 169.658C1395.94 170.376 1397.85 169.58 1398.51 167.88C1399.17 166.179 1398.32 164.218 1396.61 163.5C1357.16 146.906 1316.97 148.913 1279.99 168.105C1279.33 168.448 1278.63 168.808 1277.9 169.183C1273.28 171.55 1267.42 174.552 1262.26 178.28C1256.32 182.564 1250.67 188.235 1249.05 195.73C1247.59 202.459 1248.88 209.653 1251.58 216.654C1254.29 223.671 1258.51 230.749 1263.26 237.403C1272.77 250.71 1284.72 262.763 1292 269.843C1314.22 291.453 1340.47 308.161 1366.18 324.527C1372.42 328.495 1378.62 332.443 1384.73 336.436C1386.94 337.882 1389.17 339.323 1391.4 340.767C1397.72 344.855 1404.08 348.971 1410.23 353.297C1360.74 368.874 1309.56 377.446 1257.96 386.09C1255.15 386.561 1252.34 387.032 1249.52 387.504C1248.63 387.654 1247.74 387.804 1246.84 387.954C1221.02 392.283 1194.35 396.754 1169.72 406.979C1166.78 408.199 1162.01 410.196 1157.65 412.864C1153.45 415.436 1148.86 419.069 1147.21 423.884C1146.34 426.434 1146.78 429.02 1147.63 431.224C1148.48 433.425 1149.85 435.53 1151.29 437.385C1154.03 440.911 1157.46 444.072 1159.42 445.874C1159.52 445.966 1159.61 446.054 1159.71 446.139C1178.35 463.335 1203.31 470.454 1228.53 473.056C1251.85 475.46 1275.83 474.039 1295.91 472.849C1297.56 472.751 1299.19 472.654 1300.79 472.562C1351.82 469.606 1395.46 463.173 1433.79 427.437L1433.84 427.388C1440.31 421.356 1447.52 414.63 1451.31 406.991C1453.25 403.07 1454.37 398.782 1453.99 394.119C1453.61 389.451 1451.76 384.69 1448.23 379.807C1441.59 370.626 1433.35 362.771 1424.48 355.728C1425.95 355.229 1427.41 354.724 1428.87 354.213C1444.54 348.723 1467.24 340.016 1485.46 327.102C1503.61 314.238 1518.15 296.573 1515.55 273.082C1514.09 259.904 1508.31 246.785 1501.15 234.744C1493.98 222.68 1485.29 211.465 1477.77 202.104C1449.75 167.175 1415.68 137.749 1376.03 116.851C1283.39 68.0362 1182.95 63.4474 1083.57 58.9071C1081.04 58.7914 1078.51 58.6756 1075.97 58.5592C1074.14 58.4751 1072.64 59.9018 1072.62 61.7459ZM1416.99 358.216C1426.83 365.654 1435.85 373.851 1442.92 383.631C1445.85 387.683 1447.13 391.255 1447.38 394.444C1447.64 397.639 1446.9 400.732 1445.36 403.846C1442.19 410.256 1435.92 416.194 1429.2 422.459C1392.61 456.579 1350.97 462.947 1300.19 465.888C1298.61 465.979 1297.01 466.074 1295.38 466.171C1275.21 467.363 1251.74 468.752 1228.99 466.405C1204.39 463.868 1181.15 457.007 1164.09 441.273L1163.87 441.07C1161.88 439.235 1158.82 436.422 1156.45 433.37C1155.23 431.789 1154.3 430.292 1153.79 428.973C1153.28 427.658 1153.29 426.807 1153.48 426.249C1154.34 423.729 1157.17 421.09 1161.22 418.612C1165.11 416.23 1169.46 414.399 1172.41 413.173C1196.35 403.234 1222.38 398.87 1248.4 394.505C1249.21 394.37 1250.01 394.235 1250.82 394.1C1253.68 393.618 1256.55 393.138 1259.42 392.658C1312.47 383.774 1365.61 374.873 1416.99 358.216Z" fill="white"/>
</g>
</svg>
