<svg width="315" height="127" viewBox="0 0 315 127" fill="none" xmlns="http://www.w3.org/2000/svg">
<path d="M1.432 28H8.992L10.324 20.512H14.68C21.484 20.512 26.308 16.948 27.316 11.44C28.288 5.86 24.688 2.224 17.92 2.224H5.968L1.432 28ZM11.296 15.04L12.592 7.696H16.156C18.712 7.696 20.08 9.136 19.72 11.296C19.324 13.564 17.38 15.04 14.788 15.04H11.296ZM33.5159 28.468C36.1439 28.468 38.0879 27.388 39.7439 25.3L40.1039 25.264L39.5999 28H46.3679L49.6439 9.424H42.9119L42.4079 12.232L42.0119 12.268C41.0759 10.216 39.5639 8.956 36.8639 8.956C31.9679 8.956 28.0079 12.772 26.9999 18.64C25.9199 24.652 28.5119 28.468 33.5159 28.468ZM36.6839 22.816C34.5239 22.816 33.2999 21.124 33.7319 18.784C34.1279 16.372 36.0359 14.608 38.2679 14.608C40.3919 14.608 41.6519 16.3 41.2199 18.64C40.8239 21.052 38.9159 22.816 36.6839 22.816ZM58.3331 28.468C63.4451 28.468 67.4411 26.344 68.0531 22.996C68.4131 20.872 67.3331 19.144 65.3891 18.604L65.5331 18.244C67.3691 17.74 68.6651 16.444 68.9891 14.572C69.6011 11.152 66.4331 8.956 61.5731 8.956C56.2091 8.956 52.2131 11.548 51.4571 15.832L57.4691 15.904C57.7211 14.5 58.9091 13.6 60.5651 13.6C61.9691 13.6 62.8331 14.212 62.6531 15.112C62.5091 16.048 61.4291 16.696 60.1331 16.696H58.5491L57.9011 20.332H59.5211C60.8891 20.332 61.7891 20.908 61.5731 21.916C61.3931 23.032 60.2051 23.824 58.6931 23.824C56.9291 23.824 55.9931 22.78 56.2811 21.052L50.0171 20.98C49.1891 25.66 52.4651 28.468 58.3331 28.468ZM69.2717 28H76.0038L77.1918 21.376H82.5558L81.4038 28H88.1358L91.4478 9.46H84.6798L83.5278 15.976H78.1638L79.3158 9.46H72.5478L69.2717 28ZM100.999 28.468C107.371 28.468 112.087 24.832 113.167 18.784C114.247 12.7 110.755 8.956 104.347 8.956C97.9747 8.956 93.2587 12.592 92.1787 18.64C91.1347 24.76 94.5907 28.468 100.999 28.468ZM101.899 22.816C99.7027 22.816 98.5147 21.16 98.9107 18.784C99.3427 16.336 101.215 14.608 103.447 14.608C105.643 14.608 106.831 16.264 106.435 18.64C106.003 21.088 104.131 22.816 101.899 22.816ZM123.815 28.468C130.187 28.468 134.903 24.832 135.983 18.784C137.063 12.7 133.571 8.956 127.163 8.956C120.791 8.956 116.075 12.592 114.995 18.64C113.951 24.76 117.407 28.468 123.815 28.468ZM124.715 22.816C122.519 22.816 121.331 21.16 121.727 18.784C122.159 16.336 124.031 14.608 126.263 14.608C128.459 14.608 129.647 16.264 129.251 18.64C128.819 21.088 126.947 22.816 124.715 22.816ZM146.205 28.504C152.037 28.504 156.645 24.904 157.581 19.54C158.517 14.248 155.709 10.54 150.417 10.54C148.293 10.54 146.745 11.152 145.305 12.52L144.945 12.592C145.629 9.388 147.393 8.056 151.569 7.768C156.789 7.336 159.561 5.284 160.317 1.036L154.629 0.963998C154.377 2.44 153.189 3.088 150.453 3.34C143.361 3.952 139.905 7.768 138.285 16.984C136.989 24.328 139.905 28.504 146.205 28.504ZM147.069 22.852C145.197 22.852 144.153 21.448 144.513 19.432C144.909 17.308 146.529 15.94 148.401 15.94C150.237 15.94 151.245 17.272 150.849 19.324C150.489 21.376 148.941 22.852 147.069 22.852ZM174.232 8.956C171.82 8.956 169.948 9.856 168.436 11.548L168.076 11.584L168.472 9.424H161.704L156.988 36.28H163.72L165.556 25.84L165.952 25.804C166.852 27.496 168.472 28.468 170.884 28.468C175.744 28.468 179.74 24.652 180.748 18.784C181.828 12.772 179.164 8.956 174.232 8.956ZM171.064 14.608C173.188 14.608 174.448 16.336 174.052 18.64C173.62 21.016 171.712 22.816 169.48 22.816C167.356 22.816 166.132 21.088 166.528 18.784C166.924 16.408 168.868 14.608 171.064 14.608ZM189.188 28.468C191.816 28.468 193.76 27.388 195.416 25.3L195.776 25.264L195.272 28H202.04L205.316 9.424H198.584L198.08 12.232L197.684 12.268C196.748 10.216 195.236 8.956 192.536 8.956C187.64 8.956 183.68 12.772 182.672 18.64C181.592 24.652 184.184 28.468 189.188 28.468ZM192.356 22.816C190.196 22.816 188.972 21.124 189.404 18.784C189.8 16.372 191.708 14.608 193.94 14.608C196.064 14.608 197.324 16.3 196.892 18.64C196.496 21.052 194.588 22.816 192.356 22.816ZM214.005 28.468C219.117 28.468 223.113 26.344 223.725 22.996C224.085 20.872 223.005 19.144 221.061 18.604L221.205 18.244C223.041 17.74 224.337 16.444 224.661 14.572C225.273 11.152 222.105 8.956 217.245 8.956C211.881 8.956 207.885 11.548 207.129 15.832L213.141 15.904C213.393 14.5 214.581 13.6 216.237 13.6C217.641 13.6 218.505 14.212 218.325 15.112C218.181 16.048 217.101 16.696 215.805 16.696H214.221L213.573 20.332H215.193C216.561 20.332 217.461 20.908 217.245 21.916C217.065 23.032 215.877 23.824 214.365 23.824C212.601 23.824 211.665 22.78 211.953 21.052L205.689 20.98C204.861 25.66 208.137 28.468 214.005 28.468ZM224.944 28H231.676L232.864 21.376H238.228L237.076 28H243.808L247.12 9.46H240.352L239.2 15.976H233.836L234.988 9.46H228.22L224.944 28ZM246.987 28H256.707C261.963 28 265.311 24.616 265.959 20.98C266.607 17.236 264.411 13.996 259.119 13.996H256.203L257.031 9.424H250.263L246.987 28ZM266.031 28H272.763L276.039 9.46H269.307L266.031 28ZM254.403 22.924L255.051 19.072H257.319C258.687 19.072 259.407 19.828 259.227 20.98C259.011 22.132 257.967 22.924 256.599 22.924H254.403ZM289.277 6.652C292.589 6.652 295.361 4.384 295.937 1.18L291.869 1.108C291.617 2.548 290.825 3.448 289.745 3.448C288.701 3.448 288.269 2.62 288.521 1.18L284.453 1.108C283.913 4.312 285.893 6.652 289.277 6.652ZM275.885 28H282.869L290.141 18.388H290.501L288.773 28H295.541L298.817 9.424H291.869L284.561 19.18H284.201L285.929 9.424H279.161L275.885 28ZM0.928 59H7.696L9.028 51.548H9.388L12.916 59H20.872L15.58 49.352L24.076 40.424H16.12L10.144 47.228H9.784L10.972 40.424H4.24L0.928 59ZM30.6511 59.468C37.0231 59.468 41.7391 55.832 42.8191 49.784C43.8991 43.7 40.4071 39.956 33.9991 39.956C27.6271 39.956 22.9111 43.592 21.8311 49.64C20.7871 55.76 24.2431 59.468 30.6511 59.468ZM31.5511 53.816C29.3551 53.816 28.1671 52.16 28.5631 49.784C28.9951 47.336 30.8671 45.608 33.0991 45.608C35.2951 45.608 36.4831 47.264 36.0871 49.64C35.6551 52.088 33.7831 53.816 31.5511 53.816ZM43.5374 59H50.2694L51.4574 52.376H56.8214L55.6694 59H62.4014L65.7134 40.46H58.9454L57.7934 46.976H52.4294L53.5814 40.46H46.8134L43.5374 59ZM70.3323 59H77.1003L79.4403 45.824H85.2723L86.2443 40.424H67.7763L66.8043 45.824H72.6723L70.3323 59ZM94.5291 59.468C99.2451 59.468 103.457 57.344 104.969 53.888L99.3531 52.772C98.5971 53.96 97.2651 54.824 95.6091 54.824C93.5931 54.824 92.5131 53.6 92.4051 51.584H105.977C106.121 51.224 106.337 50.288 106.373 49.784C107.453 43.808 104.069 39.956 97.9491 39.956C91.8291 39.956 86.8611 43.7 85.8171 49.568C84.7371 55.58 88.3371 59.468 94.5291 59.468ZM92.9811 47.984C93.7011 45.932 95.2131 44.6 97.0851 44.6C98.9931 44.6 100.109 46.076 99.9291 47.912L92.9811 47.984ZM107.135 59H113.867L115.055 52.376H120.419L119.267 59H125.999L129.311 40.46H122.543L121.391 46.976H116.027L117.179 40.46H110.411L107.135 59ZM133.93 59H140.698L143.038 45.824H148.87L149.842 40.424H131.374L130.402 45.824H136.27L133.93 59Z" fill="#45F7E1"/>
<path d="M1.264 121H6.16L7.984 110.704H8.224L10.048 121H13.96L19.432 110.68H19.672L17.848 121H22.744L25.792 103.816H18.952L13.192 114.952H12.952L11.008 103.816H4.288L1.264 121ZM30.1304 121.312C31.8824 121.312 33.1784 120.592 34.2824 119.2L34.5224 119.176L34.1864 121H38.6984L40.8824 108.616H36.3944L36.0584 110.488L35.7944 110.512C35.1704 109.144 34.1624 108.304 32.3624 108.304C29.0984 108.304 26.4584 110.848 25.7864 114.76C25.0664 118.768 26.7944 121.312 30.1304 121.312ZM32.2424 117.544C30.8024 117.544 29.9864 116.416 30.2744 114.856C30.5384 113.248 31.8104 112.072 33.2984 112.072C34.7144 112.072 35.5544 113.2 35.2664 114.76C35.0024 116.368 33.7304 117.544 32.2424 117.544ZM43.9872 121H48.4992L50.0592 112.216H53.9472L54.5952 108.616H42.2832L41.6352 112.216H45.5472L43.9872 121ZM60.1184 121.312C63.2624 121.312 66.0704 119.896 67.0784 117.592L63.3344 116.848C62.8304 117.64 61.9424 118.216 60.8384 118.216C59.4944 118.216 58.7744 117.4 58.7024 116.056H67.7504C67.8464 115.816 67.9904 115.192 68.0144 114.856C68.7344 110.872 66.4784 108.304 62.3984 108.304C58.3184 108.304 55.0064 110.8 54.3104 114.712C53.5904 118.72 55.9904 121.312 60.1184 121.312ZM59.0864 113.656C59.5664 112.288 60.5744 111.4 61.8224 111.4C63.0944 111.4 63.8384 112.384 63.7184 113.608L59.0864 113.656ZM79.0583 108.304C77.4503 108.304 76.2023 108.904 75.1943 110.032L74.9543 110.056L75.2183 108.616H70.7063L67.5623 126.52H72.0503L73.2743 119.56L73.5383 119.536C74.1383 120.664 75.2183 121.312 76.8263 121.312C80.0663 121.312 82.7303 118.768 83.4023 114.856C84.1223 110.848 82.3463 108.304 79.0583 108.304ZM76.9463 112.072C78.3623 112.072 79.2023 113.224 78.9383 114.76C78.6503 116.344 77.3783 117.544 75.8903 117.544C74.4743 117.544 73.6583 116.392 73.9223 114.856C74.1863 113.272 75.4823 112.072 76.9463 112.072ZM83.9207 121H88.5768L93.4248 114.592H93.6648L92.5128 121H97.0248L99.2088 108.616H94.5768L89.7048 115.12H89.4648L90.6168 108.616H86.1048L83.9207 121ZM104.052 121.312C105.804 121.312 107.1 120.592 108.204 119.2L108.444 119.176L108.108 121H112.62L114.804 108.616H110.316L109.98 110.488L109.716 110.512C109.092 109.144 108.084 108.304 106.284 108.304C103.02 108.304 100.38 110.848 99.7083 114.76C98.9882 118.768 100.716 121.312 104.052 121.312ZM106.164 117.544C104.724 117.544 103.908 116.416 104.196 114.856C104.46 113.248 105.732 112.072 107.22 112.072C108.636 112.072 109.476 113.2 109.188 114.76C108.924 116.368 107.652 117.544 106.164 117.544ZM113.973 121C116.037 121 119.589 121.216 120.741 117.376L122.301 112.216H124.677L123.117 121H127.629L129.813 108.616H119.085L117.381 114.664C116.733 116.944 116.229 117.64 114.525 117.64L113.973 121ZM135.554 121H140.042L140.834 116.584H144.41L143.642 121H148.13L150.338 108.64H145.826L145.058 112.984H141.482L142.25 108.64H137.738L135.554 121ZM155.193 121.312C156.945 121.312 158.241 120.592 159.345 119.2L159.585 119.176L159.249 121H163.761L165.945 108.616H161.457L161.121 110.488L160.857 110.512C160.233 109.144 159.225 108.304 157.425 108.304C154.161 108.304 151.521 110.848 150.849 114.76C150.129 118.768 151.857 121.312 155.193 121.312ZM157.305 117.544C155.865 117.544 155.049 116.416 155.337 114.856C155.601 113.248 156.873 112.072 158.361 112.072C159.777 112.072 160.617 113.2 160.329 114.76C160.065 116.368 158.793 117.544 157.305 117.544ZM170.95 121C173.014 121 176.566 121.216 177.718 117.376L179.278 112.216H181.654L180.094 121H184.606L186.79 108.616H176.062L174.358 114.664C173.71 116.944 173.206 117.64 171.502 117.64L170.95 121ZM198.598 121.48C202.558 121.48 205.63 118.816 206.326 114.88C207.022 110.896 204.862 108.136 200.878 108.136C197.542 108.136 194.95 110.152 193.822 113.224L192.574 113.248L193.39 108.616H188.878L186.694 121H191.182L191.974 116.488H193.27C193.318 119.512 195.286 121.48 198.598 121.48ZM199.198 117.544C197.83 117.544 197.158 116.488 197.446 114.88C197.71 113.2 198.838 112.072 200.254 112.072C201.622 112.072 202.294 113.152 202.006 114.784C201.718 116.464 200.614 117.544 199.198 117.544ZM213.14 121.336C217.028 121.336 220.1 118.936 220.724 115.36C221.348 111.832 219.476 109.36 215.948 109.36C214.532 109.36 213.5 109.768 212.54 110.68L212.3 110.728C212.756 108.592 213.932 107.704 216.716 107.512C220.196 107.224 222.044 105.856 222.548 103.024L218.756 102.976C218.588 103.96 217.796 104.392 215.972 104.56C211.244 104.968 208.94 107.512 207.86 113.656C206.996 118.552 208.94 121.336 213.14 121.336ZM213.716 117.568C212.468 117.568 211.772 116.632 212.012 115.288C212.276 113.872 213.356 112.96 214.604 112.96C215.828 112.96 216.5 113.848 216.236 115.216C215.996 116.584 214.964 117.568 213.716 117.568ZM227.908 121.312C232.156 121.312 235.3 118.888 236.02 114.856C236.74 110.8 234.412 108.304 230.14 108.304C225.892 108.304 222.748 110.728 222.028 114.76C221.332 118.84 223.636 121.312 227.908 121.312ZM228.508 117.544C227.044 117.544 226.252 116.44 226.516 114.856C226.804 113.224 228.052 112.072 229.54 112.072C231.004 112.072 231.796 113.176 231.532 114.76C231.244 116.392 229.996 117.544 228.508 117.544ZM245.427 106.768C247.635 106.768 249.483 105.256 249.867 103.12L247.155 103.072C246.987 104.032 246.459 104.632 245.739 104.632C245.043 104.632 244.755 104.08 244.923 103.12L242.211 103.072C241.851 105.208 243.171 106.768 245.427 106.768ZM236.499 121H241.155L246.003 114.592H246.243L245.091 121H249.603L251.787 108.616H247.155L242.283 115.12H242.043L243.195 108.616H238.683L236.499 121ZM257.522 121H264.986C267.794 121 269.906 119.656 270.29 117.544C270.53 116.08 269.834 115.144 268.442 114.76L268.514 114.52C269.594 114.184 270.53 113.152 270.746 111.928C271.082 110.032 269.594 108.616 266.81 108.616H259.706L257.522 121ZM263.018 113.44L263.402 111.352H265.418C266.186 111.352 266.594 111.784 266.498 112.384C266.378 112.984 265.778 113.44 265.01 113.44H263.018ZM262.178 118.264L262.562 116.008H264.578C265.418 116.008 265.874 116.44 265.754 117.088C265.634 117.76 264.986 118.264 264.146 118.264H262.178ZM271.186 121H275.698L276.586 116.032H276.826L279.178 121H284.482L280.954 114.568L286.618 108.616H281.314L277.33 113.152H277.09L277.882 108.616H273.394L271.186 121ZM288.546 126.64C291.138 126.64 292.938 125.056 294.81 121.6L301.794 108.616H297.162L293.802 115.456H293.562L291.978 108.616H287.13L290.994 121.168C290.442 122.128 289.578 123.064 288.186 123.064C287.586 123.064 286.794 122.92 286.29 122.704L285.714 126.184C286.362 126.448 287.634 126.64 288.546 126.64ZM306.539 121.312C310.067 121.312 312.947 119.488 313.907 116.368L309.851 115.84C309.395 116.92 308.291 117.712 307.139 117.712C305.747 117.712 304.955 116.536 305.243 114.856C305.555 113.128 306.851 111.904 308.267 111.904C309.323 111.904 310.163 112.648 310.211 113.752L314.435 113.272C314.603 110.176 312.347 108.304 308.771 108.304C304.643 108.304 301.475 110.8 300.755 114.76C300.083 118.72 302.459 121.312 306.539 121.312Z" fill="white"/>
</svg>
