<svg width="319" height="154" viewBox="0 0 319 154" fill="none" xmlns="http://www.w3.org/2000/svg">
<path d="M1.396 26H8.992L10.828 15.668H19.648L17.812 26H25.408L29.98 0.223999H22.384L20.692 9.728H11.872L13.528 0.223999H5.932L1.396 26ZM38.737 26.468C45.109 26.468 49.825 22.832 50.905 16.784C51.985 10.7 48.493 6.956 42.085 6.956C35.713 6.956 30.997 10.592 29.917 16.64C28.873 22.76 32.329 26.468 38.737 26.468ZM39.637 20.816C37.441 20.816 36.253 19.16 36.649 16.784C37.081 14.336 38.953 12.608 41.185 12.608C43.381 12.608 44.569 14.264 44.173 16.64C43.741 19.088 41.869 20.816 39.637 20.816ZM51.6233 26H62.8193C67.0313 26 70.1993 23.984 70.7753 20.816C71.1353 18.62 70.0913 17.216 68.0033 16.64L68.1113 16.28C69.7313 15.776 71.1353 14.228 71.4593 12.392C71.9633 9.548 69.7313 7.424 65.5553 7.424H54.8993L51.6233 26ZM59.8673 14.66L60.4433 11.528H63.4673C64.6193 11.528 65.2313 12.176 65.0873 13.076C64.9073 13.976 64.0073 14.66 62.8553 14.66H59.8673ZM58.6073 21.896L59.1833 18.512H62.2073C63.4673 18.512 64.1513 19.16 63.9713 20.132C63.7913 21.14 62.8193 21.896 61.5593 21.896H58.6073ZM81.8034 26.468C88.1754 26.468 92.8914 22.832 93.9714 16.784C95.0514 10.7 91.5594 6.956 85.1514 6.956C78.7794 6.956 74.0634 10.592 72.9834 16.64C71.9394 22.76 75.3954 26.468 81.8034 26.468ZM82.7034 20.816C80.5074 20.816 79.3194 19.16 79.7154 16.784C80.1474 14.336 82.0194 12.608 84.2514 12.608C86.4474 12.608 87.6354 14.264 87.2394 16.64C86.8074 19.088 84.9354 20.816 82.7034 20.816ZM104.512 26.468C109.804 26.468 114.124 23.732 115.564 19.052L109.48 18.26C108.796 19.88 107.14 21.068 105.412 21.068C103.324 21.068 102.136 19.304 102.568 16.784C103.036 14.192 104.98 12.356 107.104 12.356C108.688 12.356 109.948 13.472 110.02 15.128L116.356 14.408C116.608 9.764 113.224 6.956 107.86 6.956C101.668 6.956 96.9158 10.7 95.8358 16.64C94.8278 22.58 98.3918 26.468 104.512 26.468ZM121.379 26H128.147L130.487 12.824H136.319L137.291 7.424H118.823L117.851 12.824H123.719L121.379 26ZM136.033 26H143.017L150.289 16.388H150.649L148.921 26H155.689L158.965 7.424H152.017L144.709 17.18H144.349L146.077 7.424H139.309L136.033 26ZM167.569 26H174.553L181.825 16.388H182.185L180.457 26H187.225L190.501 7.424H183.553L176.245 17.18H175.885L177.613 7.424H170.845L167.569 26ZM199.134 26.468C204.246 26.468 208.242 24.344 208.854 20.996C209.214 18.872 208.134 17.144 206.19 16.604L206.334 16.244C208.17 15.74 209.466 14.444 209.79 12.572C210.402 9.152 207.234 6.956 202.374 6.956C197.01 6.956 193.014 9.548 192.258 13.832L198.27 13.904C198.522 12.5 199.71 11.6 201.366 11.6C202.77 11.6 203.634 12.212 203.454 13.112C203.31 14.048 202.23 14.696 200.934 14.696H199.35L198.702 18.332H200.322C201.69 18.332 202.59 18.908 202.374 19.916C202.194 21.032 201.006 21.824 199.494 21.824C197.73 21.824 196.794 20.78 197.082 19.052L190.818 18.98C189.99 23.66 193.266 26.468 199.134 26.468ZM218.826 26H225.558L227.43 15.632H227.79L229.842 26H234.45L240.21 15.596H240.534L238.698 26H245.466L248.742 7.424H240.21L233.406 19.664H233.046L230.634 7.424H222.102L218.826 26ZM248.604 26H255.588L262.86 16.388H263.22L261.492 26H268.26L271.536 7.424H264.588L257.28 17.18H256.92L258.648 7.424H251.88L248.604 26ZM287.189 6.956C284.777 6.956 282.905 7.856 281.393 9.548L281.033 9.584L281.429 7.424H274.661L269.945 34.28H276.677L278.513 23.84L278.909 23.804C279.809 25.496 281.429 26.468 283.841 26.468C288.701 26.468 292.697 22.652 293.705 16.784C294.785 10.772 292.121 6.956 287.189 6.956ZM284.021 12.608C286.145 12.608 287.405 14.336 287.009 16.64C286.577 19.016 284.669 20.816 282.437 20.816C280.313 20.816 279.089 19.088 279.485 16.784C279.881 14.408 281.825 12.608 284.021 12.608ZM302.145 26.468C304.773 26.468 306.717 25.388 308.373 23.3L308.733 23.264L308.229 26H314.997L318.273 7.424H311.541L311.037 10.232L310.641 10.268C309.705 8.216 308.193 6.956 305.493 6.956C300.597 6.956 296.637 10.772 295.629 16.64C294.549 22.652 297.141 26.468 302.145 26.468ZM305.313 20.816C303.153 20.816 301.929 19.124 302.361 16.784C302.757 14.372 304.665 12.608 306.897 12.608C309.021 12.608 310.281 14.3 309.849 16.64C309.453 19.052 307.545 20.816 305.313 20.816ZM5.68 57H12.448L14.788 43.824H20.62L21.592 38.424H3.124L2.152 43.824H8.02L5.68 57ZM27.6448 57.468C30.2728 57.468 32.2168 56.388 33.8728 54.3L34.2328 54.264L33.7288 57H40.4968L43.7728 38.424H37.0408L36.5368 41.232L36.1408 41.268C35.2048 39.216 33.6928 37.956 30.9928 37.956C26.0968 37.956 22.1368 41.772 21.1288 47.64C20.0488 53.652 22.6408 57.468 27.6448 57.468ZM30.8128 51.816C28.6528 51.816 27.4288 50.124 27.8608 47.784C28.2568 45.372 30.1648 43.608 32.3968 43.608C34.5208 43.608 35.7808 45.3 35.3488 47.64C34.9528 50.052 33.0448 51.816 30.8128 51.816ZM43.678 57H50.41L51.598 50.376H56.962L55.81 57H62.542L65.854 38.46H59.086L57.934 44.976H52.57L53.722 38.46H46.954L43.678 57ZM81.633 62.4H87.033L88.905 51.6H86.169L88.509 38.424H81.777L79.437 51.6H73.425L75.765 38.424H68.997L65.721 57H82.569L81.633 62.4ZM99.5213 57.468C104.237 57.468 108.449 55.344 109.961 51.888L104.345 50.772C103.589 51.96 102.257 52.824 100.601 52.824C98.5853 52.824 97.5053 51.6 97.3973 49.584H110.969C111.113 49.224 111.329 48.288 111.365 47.784C112.445 41.808 109.061 37.956 102.941 37.956C96.8213 37.956 91.8533 41.7 90.8093 47.568C89.7293 53.58 93.3293 57.468 99.5213 57.468ZM97.9733 45.984C98.6933 43.932 100.205 42.6 102.077 42.6C103.985 42.6 105.101 44.076 104.921 45.912L97.9733 45.984ZM112.127 57H123.323C127.535 57 130.703 54.984 131.279 51.816C131.639 49.62 130.595 48.216 128.507 47.64L128.615 47.28C130.235 46.776 131.639 45.228 131.963 43.392C132.467 40.548 130.235 38.424 126.059 38.424H115.403L112.127 57ZM120.371 45.66L120.947 42.528H123.971C125.123 42.528 125.735 43.176 125.591 44.076C125.411 44.976 124.511 45.66 123.359 45.66H120.371ZM119.111 52.896L119.687 49.512H122.711C123.971 49.512 124.655 50.16 124.475 51.132C124.295 52.14 123.323 52.896 122.063 52.896H119.111Z" fill="#45F7E1"/>
<path d="M1.264 119H10.576C14.584 119 17.296 117.344 17.824 114.416C18.208 112.352 17.176 110.84 15.544 110.36L15.616 110.12C17.104 109.664 18.4 108.368 18.736 106.592C19.24 103.712 17.152 101.816 13.096 101.816H4.312L1.264 119ZM8.152 108.704L8.728 105.464H11.512C12.808 105.464 13.576 106.112 13.432 107.048C13.24 108.008 12.208 108.704 10.912 108.704H8.152ZM6.976 115.352L7.6 111.824H10.72C12.064 111.824 12.928 112.544 12.76 113.552C12.568 114.584 11.416 115.352 10.072 115.352H6.976ZM25.0079 119.312C28.5359 119.312 31.4159 117.488 32.3759 114.368L28.3199 113.84C27.8639 114.92 26.7599 115.712 25.6079 115.712C24.2159 115.712 23.4239 114.536 23.7119 112.856C24.0239 111.128 25.3199 109.904 26.7359 109.904C27.7919 109.904 28.6319 110.648 28.6799 111.752L32.9039 111.272C33.0719 108.176 30.8159 106.304 27.2399 106.304C23.1119 106.304 19.9439 108.8 19.2239 112.76C18.5519 116.72 20.9279 119.312 25.0079 119.312ZM39.7512 119.312C42.8952 119.312 45.7032 117.896 46.7112 115.592L42.9672 114.848C42.4632 115.64 41.5752 116.216 40.4712 116.216C39.1272 116.216 38.4072 115.4 38.3352 114.056H47.3832C47.4792 113.816 47.6232 113.192 47.6472 112.856C48.3672 108.872 46.1112 106.304 42.0312 106.304C37.9512 106.304 34.6392 108.8 33.9432 112.712C33.2232 116.72 35.6232 119.312 39.7512 119.312ZM38.7192 111.656C39.1992 110.288 40.2072 109.4 41.4552 109.4C42.7272 109.4 43.4712 110.384 43.3512 111.608L38.7192 111.656ZM60.3751 119.312C63.9031 119.312 66.7831 117.488 67.7431 114.368L63.6871 113.84C63.2311 114.92 62.1271 115.712 60.9751 115.712C59.5831 115.712 58.7911 114.536 59.0791 112.856C59.3911 111.128 60.6871 109.904 62.1031 109.904C63.1591 109.904 63.9991 110.648 64.0471 111.752L68.2711 111.272C68.4391 108.176 66.1831 106.304 62.6071 106.304C58.4791 106.304 55.3111 108.8 54.5911 112.76C53.9191 116.72 56.2951 119.312 60.3751 119.312ZM71.62 119H76.132L77.692 110.216H81.58L82.228 106.616H69.916L69.268 110.216H73.18L71.62 119ZM91.9255 106.304C90.3175 106.304 89.0695 106.904 88.0615 108.032L87.8215 108.056L88.0855 106.616H83.5735L80.4295 124.52H84.9175L86.1415 117.56L86.4055 117.536C87.0055 118.664 88.0855 119.312 89.6935 119.312C92.9335 119.312 95.5975 116.768 96.2695 112.856C96.9895 108.848 95.2135 106.304 91.9255 106.304ZM89.8135 110.072C91.2295 110.072 92.0695 111.224 91.8055 112.76C91.5175 114.344 90.2455 115.544 88.7575 115.544C87.3415 115.544 86.5255 114.392 86.7895 112.856C87.0535 111.272 88.3495 110.072 89.8135 110.072ZM98.4676 124.64C101.06 124.64 102.86 123.056 104.732 119.6L111.716 106.616H107.084L103.724 113.456H103.484L101.9 106.616H97.0516L100.916 119.168C100.364 120.128 99.4996 121.064 98.1076 121.064C97.5076 121.064 96.7156 120.92 96.2116 120.704L95.6356 124.184C96.2836 124.448 97.5556 124.64 98.4676 124.64ZM110.663 119H115.175L116.063 114.032H116.303L118.655 119H123.959L120.431 112.568L126.095 106.616H120.791L116.807 111.152H116.567L117.359 106.616H112.871L110.663 119ZM128.526 119H133.038L134.598 110.216H138.486L139.134 106.616H126.822L126.174 110.216H130.086L128.526 119ZM141.1 124.64C143.692 124.64 145.492 123.056 147.364 119.6L154.348 106.616H149.716L146.356 113.456H146.116L144.532 106.616H139.684L143.548 119.168C142.996 120.128 142.132 121.064 140.74 121.064C140.14 121.064 139.348 120.92 138.844 120.704L138.268 124.184C138.916 124.448 140.188 124.64 141.1 124.64ZM153.296 119H157.952L162.8 112.592H163.04L161.888 119H166.4L168.584 106.616H163.952L159.08 113.12H158.84L159.992 106.616H155.48L153.296 119ZM179.019 106.304C177.411 106.304 176.163 106.904 175.155 108.032L174.915 108.056L175.179 106.616H170.667L167.523 124.52H172.011L173.235 117.56L173.499 117.536C174.099 118.664 175.179 119.312 176.787 119.312C180.027 119.312 182.691 116.768 183.363 112.856C184.083 108.848 182.307 106.304 179.019 106.304ZM176.907 110.072C178.323 110.072 179.163 111.224 178.899 112.76C178.611 114.344 177.339 115.544 175.851 115.544C174.435 115.544 173.619 114.392 173.883 112.856C174.147 111.272 175.443 110.072 176.907 110.072ZM190.502 119.312C194.75 119.312 197.894 116.888 198.614 112.856C199.334 108.8 197.006 106.304 192.734 106.304C188.486 106.304 185.342 108.728 184.622 112.76C183.926 116.84 186.23 119.312 190.502 119.312ZM191.102 115.544C189.638 115.544 188.846 114.44 189.11 112.856C189.398 111.224 190.646 110.072 192.134 110.072C193.598 110.072 194.39 111.176 194.126 112.76C193.838 114.392 192.59 115.544 191.102 115.544ZM199.093 119H206.557C209.365 119 211.477 117.656 211.861 115.544C212.101 114.08 211.405 113.144 210.013 112.76L210.085 112.52C211.165 112.184 212.101 111.152 212.317 109.928C212.653 108.032 211.165 106.616 208.381 106.616H201.277L199.093 119ZM204.589 111.44L204.973 109.352H206.989C207.757 109.352 208.165 109.784 208.069 110.384C207.949 110.984 207.349 111.44 206.581 111.44H204.589ZM203.749 116.264L204.133 114.008H206.149C206.989 114.008 207.445 114.44 207.325 115.088C207.205 115.76 206.557 116.264 205.717 116.264H203.749ZM217.701 119.312C219.453 119.312 220.749 118.592 221.853 117.2L222.093 117.176L221.757 119H226.269L228.453 106.616H223.965L223.629 108.488L223.365 108.512C222.741 107.144 221.733 106.304 219.933 106.304C216.669 106.304 214.029 108.848 213.357 112.76C212.637 116.768 214.365 119.312 217.701 119.312ZM219.813 115.544C218.373 115.544 217.557 114.416 217.845 112.856C218.109 111.248 219.381 110.072 220.869 110.072C222.285 110.072 223.125 111.2 222.837 112.76C222.573 114.368 221.301 115.544 219.813 115.544ZM228.389 119H232.878L233.67 114.584H237.246L236.478 119H240.966L243.174 106.64H238.662L237.894 110.984H234.318L235.086 106.64H230.574L228.389 119ZM249.541 119.312C253.789 119.312 256.933 116.888 257.653 112.856C258.373 108.8 256.045 106.304 251.773 106.304C247.525 106.304 244.381 108.728 243.661 112.76C242.965 116.84 245.269 119.312 249.541 119.312ZM250.141 115.544C248.677 115.544 247.885 114.44 248.149 112.856C248.437 111.224 249.685 110.072 251.173 110.072C252.637 110.072 253.429 111.176 253.165 112.76C252.877 114.392 251.629 115.544 250.141 115.544ZM0.952 150H8.416C11.224 150 13.336 148.656 13.72 146.544C13.96 145.08 13.264 144.144 11.872 143.76L11.944 143.52C13.024 143.184 13.96 142.152 14.176 140.928C14.512 139.032 13.024 137.616 10.24 137.616H3.136L0.952 150ZM6.448 142.44L6.832 140.352H8.848C9.616 140.352 10.024 140.784 9.928 141.384C9.808 141.984 9.208 142.44 8.44 142.44H6.448ZM5.608 147.264L5.992 145.008H8.008C8.848 145.008 9.304 145.44 9.184 146.088C9.064 146.76 8.416 147.264 7.576 147.264H5.608ZM26.908 150.312C31.156 150.312 34.3 147.888 35.02 143.856C35.74 139.8 33.412 137.304 29.14 137.304C24.892 137.304 21.748 139.728 21.028 143.76C20.332 147.84 22.636 150.312 26.908 150.312ZM27.508 146.544C26.044 146.544 25.252 145.44 25.516 143.856C25.804 142.224 27.052 141.072 28.54 141.072C30.004 141.072 30.796 142.176 30.532 143.76C30.244 145.392 28.996 146.544 27.508 146.544ZM33.9902 153.6H37.5903L38.2143 150H47.4783L46.8543 153.6H50.4303L51.7023 146.4H49.6863L51.2463 137.616H40.4223L39.1503 141.96C38.4783 144.216 37.8063 146.016 36.7023 146.4H35.2622L33.9902 153.6ZM41.1663 146.4L41.2143 146.184C42.0783 145.536 42.4622 144.84 42.7983 143.784L43.6143 141.216H46.1103L45.1983 146.4H41.1663ZM52.5614 150H57.0494L57.8414 145.584H61.4174L60.6494 150H65.1374L67.3454 137.64H62.8334L62.0654 141.984H58.4894L59.2574 137.64H54.7454L52.5614 150ZM73.7127 150.312C77.9607 150.312 81.1047 147.888 81.8247 143.856C82.5447 139.8 80.2167 137.304 75.9447 137.304C71.6967 137.304 68.5527 139.728 67.8327 143.76C67.1367 147.84 69.4407 150.312 73.7127 150.312ZM74.3127 146.544C72.8487 146.544 72.0567 145.44 72.3207 143.856C72.6087 142.224 73.8567 141.072 75.3447 141.072C76.8087 141.072 77.6007 142.176 77.3367 143.76C77.0487 145.392 75.8007 146.544 74.3127 146.544ZM82.3036 150H86.7916L88.0396 143.088H88.2796L89.6476 150H92.7196L96.5596 143.064H96.7756L95.5516 150H100.064L102.248 137.616H96.5596L92.0236 145.776H91.7836L90.1756 137.616H84.4876L82.3036 150ZM107.991 150H112.479L113.727 143.088H113.967L115.335 150H118.407L122.247 143.064H122.463L121.239 150H125.751L127.935 137.616H122.247L117.711 145.776H117.471L115.863 137.616H110.175L107.991 150ZM134.275 150.312C137.419 150.312 140.227 148.896 141.235 146.592L137.491 145.848C136.987 146.64 136.099 147.216 134.995 147.216C133.651 147.216 132.931 146.4 132.859 145.056H141.907C142.003 144.816 142.147 144.192 142.171 143.856C142.891 139.872 140.635 137.304 136.555 137.304C132.475 137.304 129.163 139.8 128.467 143.712C127.747 147.72 130.147 150.312 134.275 150.312ZM133.243 142.656C133.723 141.288 134.731 140.4 135.979 140.4C137.251 140.4 137.995 141.384 137.875 142.608L133.243 142.656ZM149.227 150.312C152.755 150.312 155.635 148.488 156.595 145.368L152.539 144.84C152.083 145.92 150.979 146.712 149.827 146.712C148.435 146.712 147.643 145.536 147.931 143.856C148.243 142.128 149.539 140.904 150.955 140.904C152.011 140.904 152.851 141.648 152.899 142.752L157.123 142.272C157.291 139.176 155.035 137.304 151.459 137.304C147.331 137.304 144.163 139.8 143.443 143.76C142.771 147.72 145.147 150.312 149.227 150.312ZM160.472 150H164.984L166.544 141.216H170.432L171.08 137.616H158.768L158.12 141.216H162.032L160.472 150ZM176.603 150.312C179.747 150.312 182.555 148.896 183.563 146.592L179.819 145.848C179.315 146.64 178.427 147.216 177.323 147.216C175.979 147.216 175.259 146.4 175.187 145.056H184.235C184.331 144.816 184.475 144.192 184.499 143.856C185.219 139.872 182.963 137.304 178.883 137.304C174.803 137.304 171.491 139.8 170.795 143.712C170.075 147.72 172.475 150.312 176.603 150.312ZM175.571 142.656C176.051 141.288 177.059 140.4 178.307 140.4C179.579 140.4 180.323 141.384 180.203 142.608L175.571 142.656Z" fill="white"/>
</svg>
